<svg xmlns="http://www.w3.org/2000/svg" width="37.999" height="38" viewBox="0 0 37.999 38">
  <path id="表情" d="M19.016,38a19,19,0,1,1,19-19A19,19,0,0,1,19.016,38Zm0-35.625A16.625,16.625,0,1,0,35.64,19,16.643,16.643,0,0,0,19.016,2.375Zm-.062,28.554h-.144c-7.253,0-10.3-6.545-10.421-6.826a1.187,1.187,0,0,1,2.162-.982c.1.224,2.562,5.433,8.264,5.433h.112a9.806,9.806,0,0,0,8.514-5.422,1.187,1.187,0,1,1,2.168.967A12.091,12.091,0,0,1,18.954,30.929Zm5.981-13.122a2.369,2.369,0,1,1,2.369-2.37A2.369,2.369,0,0,1,24.934,17.807Zm-11.875,0a2.369,2.369,0,1,1,2.369-2.37A2.369,2.369,0,0,1,13.06,17.807Z" transform="translate(-0.016)" fill="#323333"/>
</svg>
