<svg xmlns="http://www.w3.org/2000/svg" width="44" height="44" viewBox="0 0 44 44">
  <g id="添加好友2" transform="translate(-2699 -6234)">
    <rect id="矩形_21828" data-name="矩形 21828" width="44" height="44" transform="translate(2699 6234)" fill="none"/>
    <path id="路径_18835" data-name="路径 18835" d="M165.577,113.867a15.056,15.056,0,0,0-30.1,0,14.354,14.354,0,0,0,7.693,12.711,19.856,19.856,0,0,0-12.542,14.667,1.651,1.651,0,0,0,1.338,1.956h.334a1.62,1.62,0,0,0,1.672-1.3,16.869,16.869,0,0,1,16.389-13.363h.334A14.867,14.867,0,0,0,165.577,113.867Zm-26.757,0a11.71,11.71,0,0,1,23.412,0,11.664,11.664,0,0,1-11.539,11.407h-.5C143.837,124.948,138.82,119.9,138.82,113.867Zm30.1,21.022h-3.345V131.63a1.673,1.673,0,0,0-3.345,0v3.259h-3.345a1.63,1.63,0,1,0,0,3.259h3.345v3.259a1.673,1.673,0,0,0,3.345,0v-3.259h3.345a1.63,1.63,0,1,0,0-3.259Z" transform="translate(2570.406 6134.8)" fill="#323333"/>
  </g>
</svg>
