<svg xmlns="http://www.w3.org/2000/svg" width="38" height="38" viewBox="0 0 38 38">
  <path id="键盘" d="M42.273,23.273a19,19,0,1,1-19,19A19,19,0,0,1,42.273,23.273Zm0,2.714A16.286,16.286,0,1,0,58.558,42.273,16.3,16.3,0,0,0,42.273,25.987ZM30.511,38.654H34.13V35.035H30.511Zm6.635,0h3.619V35.035H37.145Zm6.636,0H47.4V35.035H43.781Zm6.635,0h3.619V35.035H50.416Zm-19.9,7.238H34.13V42.273H30.511Zm20.357,6.333H33.677a1.357,1.357,0,1,1,0-2.714h17.19a1.357,1.357,0,1,1,0,2.714M37.145,45.892h3.619V42.273H37.145Zm6.636,0H47.4V42.273H43.781Zm6.635,0h3.619V42.273H50.416Z" transform="translate(-23.273 -23.273)" fill="#323333"/>
</svg>
