<svg xmlns="http://www.w3.org/2000/svg" width="38" height="38" viewBox="0 0 38 38">
  <g id="更多" transform="translate(-32 -32)">
    <path id="路径_18832" data-name="路径 18832" d="M51,70A19,19,0,1,1,70,51,19,19,0,0,1,51,70Zm0-2.533A16.467,16.467,0,1,0,34.533,51,16.466,16.466,0,0,0,51,67.467Z" fill="#323333"/>
    <path id="路径_18833" data-name="路径 18833" d="M225.267,482.533a1.267,1.267,0,0,1,0-2.533h20.267a1.267,1.267,0,1,1,0,2.533Z" transform="translate(-184.4 -430.267)" fill="#323333"/>
    <path id="路径_18834" data-name="路径 18834" d="M480,225.267a1.267,1.267,0,1,1,2.533,0v20.267a1.267,1.267,0,1,1-2.533,0Z" transform="translate(-430.267 -184.4)" fill="#323333"/>
  </g>
</svg>
