<svg id="语音" xmlns="http://www.w3.org/2000/svg" width="38" height="38" viewBox="0 0 38 38">
  <path id="路径_16603" data-name="路径 16603" d="M36.512,11.605a19.013,19.013,0,0,0-35.016,0A18.991,18.991,0,0,0,19,38a19.019,19.019,0,0,0,17.51-26.395ZM34.459,25.53A16.832,16.832,0,1,1,35.777,19,16.76,16.76,0,0,1,34.459,25.53Z" fill="#323333"/>
  <path id="路径_16604" data-name="路径 16604" d="M235.113,261.938A1.117,1.117,0,0,0,234,263.051v4.9a1.113,1.113,0,0,0,2.227,0v-4.9A1.117,1.117,0,0,0,235.113,261.938Zm4.6-2.375a1.117,1.117,0,0,0-1.113,1.114v9.649a1.113,1.113,0,0,0,2.227,0v-9.649A1.117,1.117,0,0,0,239.715,259.563Zm4.6-3.563a1.117,1.117,0,0,0-1.113,1.113v16.775a1.113,1.113,0,0,0,2.227,0V257.113A1.117,1.117,0,0,0,244.317,256Zm9.2,5.938a1.117,1.117,0,0,0-1.114,1.113v4.9a1.113,1.113,0,0,0,2.227,0v-4.9A1.117,1.117,0,0,0,253.521,261.938Zm-4.6-2.375a1.117,1.117,0,0,0-1.113,1.114v9.649a1.113,1.113,0,0,0,2.227,0v-9.649A1.117,1.117,0,0,0,248.919,259.563Z" transform="translate(-225.316 -246.499)" fill="#323333"/>
</svg>
