<svg xmlns="http://www.w3.org/2000/svg" width="90" height="90" viewBox="0 0 90 90">
  <g id="人通行" transform="translate(-130 -244)">
    <rect id="矩形_520" data-name="矩形 520" width="90" height="90" rx="45" transform="translate(130 244)" fill="#ff6d00" opacity="0.05"/>
    <g id="组_28734" data-name="组 28734" transform="translate(67 21)">
      <rect id="矩形_524" data-name="矩形 524" width="54" height="54" transform="translate(81 241)" fill="none"/>
      <g id="组_28733" data-name="组 28733" transform="translate(86 232.664)">
        <path id="路径_234" data-name="路径 234" d="M185.67,24.39m-10.054,0A10.054,10.054,0,1,0,185.67,14.336,10.054,10.054,0,0,0,175.616,24.39Z" transform="translate(-168.07)" fill="#ff9300"/>
        <path id="路径_235" data-name="路径 235" d="M626.176,117.1a10.3,10.3,0,0,0,2.024.4,7.546,7.546,0,1,0-.022-15.092h-.4a13.316,13.316,0,0,1,1.628,6.292,12.214,12.214,0,0,1-3.234,8.4Z" transform="translate(-599.27 -84.28)" fill="#ff9300"/>
        <path id="路径_236" data-name="路径 236" d="M597.308,512a14.837,14.837,0,0,0-3.388.4A20,20,0,0,1,606,529.622h3.894a2.536,2.536,0,0,0,2.508-2.508A15.15,15.15,0,0,0,597.308,512Z" transform="translate(-568.4 -476.28)" fill="#ff7b00"/>
        <path id="路径_237" data-name="路径 237" d="M17.6,541.7A17.638,17.638,0,0,0,0,559.3c0,.748,0,2.508,2.508,2.508H32.692c2.508,0,2.508-1.76,2.508-2.508a17.623,17.623,0,0,0-17.6-17.6Z" transform="translate(0 -504.7)" fill="#ff7b00"/>
      </g>
    </g>
  </g>
</svg>
