<svg xmlns="http://www.w3.org/2000/svg" xmlns:xlink="http://www.w3.org/1999/xlink" width="90" height="90" viewBox="0 0 90 90">
  <defs>
    <clipPath id="clip-path">
      <rect id="路径" width="54" height="54" fill="none"/>
    </clipPath>
  </defs>
  <g id="车通行" transform="translate(-330 -244)">
    <path id="路径_233" data-name="路径 233" d="M45,0A45,45,0,1,1,0,45,45,45,0,0,1,45,0Z" transform="translate(330 244)" fill="#00d62f" opacity="0.05"/>
    <g id="Frame_67" data-name="Frame 67" transform="translate(348 262)">
      <rect id="路径-2" data-name="路径" width="54" height="54" fill="none"/>
      <g id="Frame_67-2" data-name="Frame 67" clip-path="url(#clip-path)">
        <path id="路径-3" data-name="路径" d="M2.25,6.75H4.5A2.257,2.257,0,0,0,6.75,4.5V2.25A2.257,2.257,0,0,0,4.5,0H2.25A2.257,2.257,0,0,0,0,2.25V4.5A2.257,2.257,0,0,0,2.25,6.75Z" transform="translate(6.75 38.25)" fill="#55e000" style="mix-blend-mode: multiply;isolation: isolate"/>
        <path id="路径-4" data-name="路径" d="M2.25,6.75H4.5A2.257,2.257,0,0,0,6.75,4.5V2.25A2.257,2.257,0,0,0,4.5,0H2.25A2.257,2.257,0,0,0,0,2.25V4.5A2.257,2.257,0,0,0,2.25,6.75Z" transform="translate(40.5 38.25)" fill="#55e000" style="mix-blend-mode: multiply;isolation: isolate"/>
        <path id="路径-5" data-name="路径" d="M3.375,2.25a1.055,1.055,0,0,0,.787-.337A1.055,1.055,0,0,0,4.5,1.125,1.055,1.055,0,0,0,4.162.338,1.055,1.055,0,0,0,3.375,0H1.125A1.055,1.055,0,0,0,.338.338,1.055,1.055,0,0,0,0,1.125a1.055,1.055,0,0,0,.338.788,1.055,1.055,0,0,0,.787.337Z" transform="translate(6.75 18)" fill="#00d62f"/>
        <path id="路径-6" data-name="路径" d="M42.463,18a2.269,2.269,0,0,0,2.228-2.385l-.833-13.5A2.246,2.246,0,0,0,41.608,0H3.088A2.246,2.246,0,0,0,.838,2.115l-.833,13.5A2.2,2.2,0,0,0,.613,17.28a2.215,2.215,0,0,0,1.62.72Z" transform="translate(4.652 22.5)" fill="#00d62f"/>
        <path id="路径-7" data-name="路径" d="M0,4.5H6.75V2.25A2.257,2.257,0,0,0,4.5,0H2.25A2.257,2.257,0,0,0,0,2.25Z" transform="translate(9 30.375)" fill="#fff"/>
        <path id="路径-8" data-name="路径" d="M0,4.5H6.75V2.25A2.257,2.257,0,0,0,4.5,0H2.25A2.257,2.257,0,0,0,0,2.25Z" transform="translate(38.25 30.375)" fill="#fff"/>
        <path id="路径-9" data-name="路径" d="M.338.338A1.055,1.055,0,0,0,0,1.125a1.055,1.055,0,0,0,.338.788,1.055,1.055,0,0,0,.787.337h2.25a1.055,1.055,0,0,0,.787-.337A1.055,1.055,0,0,0,4.5,1.125,1.055,1.055,0,0,0,4.162.338,1.055,1.055,0,0,0,3.375,0H1.125A1.055,1.055,0,0,0,.338.338Z" transform="translate(42.75 18)" fill="#00d62f"/>
        <path id="路径-10" data-name="路径" d="M8.036,0a4.51,4.51,0,0,0-4.3,3.195L.093,15.1a2.354,2.354,0,0,0,.337,2,2.291,2.291,0,0,0,1.823.9H36.678a2.291,2.291,0,0,0,1.822-.9,2.354,2.354,0,0,0,.338-2l-3.645-11.9A4.51,4.51,0,0,0,30.9,0Z" transform="translate(7.534 9)" fill="#9be400" style="mix-blend-mode: multiply;isolation: isolate"/>
      </g>
    </g>
  </g>
</svg>
