<svg xmlns="http://www.w3.org/2000/svg" xmlns:xlink="http://www.w3.org/1999/xlink" width="90" height="90" viewBox="0 0 90 90">
  <defs>
    <clipPath id="clip-path">
      <rect id="路径" width="54" height="54" fill="none"/>
    </clipPath>
  </defs>
  <g id="付款码" transform="translate(-130 -214)">
    <rect id="矩形_520" data-name="矩形 520" width="90" height="90" rx="45" transform="translate(130 214)" fill="#009aff" opacity="0.1"/>
    <g id="Frame_58" data-name="Frame 58" transform="translate(148 232)">
      <rect id="路径-2" data-name="路径" width="54" height="54" fill="none"/>
      <g id="Frame_58-2" data-name="Frame 58" clip-path="url(#clip-path)">
        <path id="路径-3" data-name="路径" d="M2.25,31.5h40.5A2.257,2.257,0,0,0,45,29.25v-27A2.257,2.257,0,0,0,42.75,0H2.25A2.257,2.257,0,0,0,0,2.25v27A2.257,2.257,0,0,0,2.25,31.5Z" transform="translate(4.5 13.5)" fill="#009aff"/>
        <path id="路径-4" data-name="路径" d="M2.25,24.1H31.095a2.257,2.257,0,0,0,2.25-2.25V2.25A2.257,2.257,0,0,0,31.095,0H2.25A2.257,2.257,0,0,0,0,2.25v19.6A2.257,2.257,0,0,0,2.25,24.1Z" transform="matrix(0.966, -0.259, 0.259, 0.966, 6.742, 13.141)" fill="#65d1ff" style="mix-blend-mode: multiply;isolation: isolate"/>
        <path id="路径-5" data-name="路径" d="M15.75,0H7.673c-.293,0-.585,0-.9.022A6.951,6.951,0,0,0,0,6.75,7,7,0,0,0,7.222,13.5H15.75A2.257,2.257,0,0,0,18,11.25v-9A2.257,2.257,0,0,0,15.75,0Z" transform="translate(29.25 22.5)" fill="#fff"/>
        <path id="路径-6" data-name="路径" d="M2.25,0A2.25,2.25,0,1,0,4.5,2.25,2.257,2.257,0,0,0,2.25,0Z" transform="translate(33.75 27)" fill="#33c2ff"/>
      </g>
    </g>
  </g>
</svg>
