<svg xmlns="http://www.w3.org/2000/svg" width="50" height="50" viewBox="0 0 50 50">
  <g id="关于数小宝" transform="translate(-276 -524)">
    <rect id="矩形_533" data-name="矩形 533" width="50" height="50" transform="translate(276 524)" fill="none"/>
    <g id="组_28752" data-name="组 28752" transform="translate(219 467)">
      <path id="路径_246" data-name="路径 246" d="M82,100a18,18,0,1,1,18-18A18.033,18.033,0,0,1,82,100Zm0-33.531A15.531,15.531,0,1,0,97.531,82,15.557,15.557,0,0,0,82,66.469Z" fill="#161827"/>
      <path id="路径_247" data-name="路径 247" d="M421.388,245.616a2.372,2.372,0,0,1,1.5,2.88,2.323,2.323,0,0,1-2.592,1.913,2.283,2.283,0,0,1-1.378-2.859A2.221,2.221,0,0,1,421.388,245.616Zm-5.122,8.825s3.6-3.147,5-2.53c.946.247.432,4.505.288,5.081-.041.514-.864,6.994-.658,7.282.288,1.07.617.226,1.625-.617,0,0,2.366-1.6-.165,1.728-2.1,2.242-4.135,1.954-4.443.267-.247-1.275.761-8.99,1.008-10.718.082-.576-.638,0-.638,0s-1.954,1.214-2.427.391C415.73,255.1,415.916,254.75,416.265,254.441Z" transform="translate(-337.68 -174.272)" fill="#1957e6"/>
    </g>
  </g>
</svg>
