<svg xmlns="http://www.w3.org/2000/svg" width="50" height="50" viewBox="0 0 50 50">
  <g id="我的地址" transform="translate(-121 -524)">
    <rect id="矩形_533" data-name="矩形 533" width="50" height="50" transform="translate(121 524)" fill="none"/>
    <g id="组_28748" data-name="组 28748" transform="translate(-9.291 413.24)">
      <path id="路径_242" data-name="路径 242" d="M235.971,148.872a1.132,1.132,0,0,1-.57-.152c-6.049-3.475-12.476-10.968-12.476-18.007a13.048,13.048,0,0,1,26.095,0c0,6.892-6.487,14.719-12.5,18.018a1.169,1.169,0,0,1-.552.14Zm0-28.848A10.741,10.741,0,0,0,225.2,130.713c0,5.767,5.385,12.387,10.777,15.713,5.3-3.168,10.756-10.039,10.756-15.713A10.739,10.739,0,0,0,235.971,120.024Z" transform="translate(-80.864 0)" fill="#1957e6"/>
      <path id="路径_243" data-name="路径 243" d="M155.107,278.079a6.432,6.432,0,1,1,6.48-6.43A6.464,6.464,0,0,1,155.107,278.079Zm0-10.6a4.168,4.168,0,1,0,4.2,4.168A4.189,4.189,0,0,0,155.107,267.48Zm.182,27.215c-6.313,0-17-1.094-17-5.194,0-2.022,2.575-3.514,7.654-4.433a1.133,1.133,0,0,1,.411,2.228c-4.575.829-5.725,1.959-5.782,2.217.043.174.862,1.057,4.083,1.841a52.906,52.906,0,0,0,21.271,0c3.22-.781,4.039-1.664,4.083-1.859-.057-.24-1.353-1.46-6.259-2.28a1.132,1.132,0,1,1,.379-2.232c3.722.623,8.161,1.911,8.161,4.521C172.289,293.6,161.6,294.7,155.29,294.7Z" transform="translate(0 -140.935)" fill="#161827"/>
    </g>
  </g>
</svg>
