<svg xmlns="http://www.w3.org/2000/svg" width="50" height="50" viewBox="0 0 50 50">
  <g id="首页设置" transform="translate(-83 -1106)">
    <rect id="矩形_534" data-name="矩形 534" width="50" height="50" transform="translate(83 1106)" fill="none"/>
    <g id="组_28758" data-name="组 28758" transform="translate(15.208 1048.9)">
      <path id="路径_16654" data-name="路径 16654" d="M92.794,66.565a.35.35,0,0,1,.144.033l12.2,5.875a.321.321,0,0,1,.177.222l3.011,13.2a.338.338,0,0,1-.062.279L99.819,96.751a.327.327,0,0,1-.259.123H86.028a.34.34,0,0,1-.259-.123L77.331,86.169a.324.324,0,0,1-.062-.279l3.011-13.2a.313.313,0,0,1,.177-.222l12.2-5.875a.318.318,0,0,1,.14-.033m0-2.465a2.78,2.78,0,0,0-1.212.275l-12.2,5.875a2.8,2.8,0,0,0-1.512,1.894l-3.011,13.2a2.791,2.791,0,0,0,.538,2.362l8.438,10.582a2.793,2.793,0,0,0,2.186,1.052H99.56a2.793,2.793,0,0,0,2.186-1.052l8.438-10.582a2.794,2.794,0,0,0,.538-2.362l-3.011-13.2a2.776,2.776,0,0,0-1.512-1.894L94,64.379A2.7,2.7,0,0,0,92.794,64.1Z"/>
      <path id="路径_16655" data-name="路径 16655" d="M413.39,412.565a1.725,1.725,0,1,1-1.22.505,1.725,1.725,0,0,1,1.22-.505m0-2.465a4.19,4.19,0,1,0,4.19,4.19A4.192,4.192,0,0,0,413.39,410.1Z" transform="translate(-320.67 -331.786)" fill="#3b73f1"/>
    </g>
  </g>
</svg>
