<svg xmlns="http://www.w3.org/2000/svg" width="50" height="50" viewBox="0 0 50 50">
  <g id="个人资料" transform="translate(-48 -524)">
    <rect id="矩形_533" data-name="矩形 533" width="50" height="50" transform="translate(48 524)" fill="none"/>
    <g id="组_28743" data-name="组 28743" transform="translate(-126.142 395.167)">
      <path id="路径_239" data-name="路径 239" d="M207.4,171.833H190.644a7.457,7.457,0,0,1-7.5-7.395v-21.21a7.457,7.457,0,0,1,7.5-7.395H207.4a7.457,7.457,0,0,1,7.5,7.395v21.208A7.458,7.458,0,0,1,207.4,171.833Zm-16.761-33.578a5.015,5.015,0,0,0-5.045,4.973v21.208a5.015,5.015,0,0,0,5.045,4.973H207.4a5.015,5.015,0,0,0,5.045-4.973V143.228a5.015,5.015,0,0,0-5.045-4.973H190.644Z" transform="translate(0 0)" fill="#161827"/>
      <path id="路径_240" data-name="路径 240" d="M358.887,339.318h-8.423a1.211,1.211,0,1,1,0-2.422h8.421a1.211,1.211,0,1,1,0,2.422Zm4.6,7.223H350.464a1.211,1.211,0,1,1,0-2.422h13.026a1.211,1.211,0,1,1,0,2.422Zm0,7.22H350.464a1.211,1.211,0,1,1,0-2.422h13.026a1.211,1.211,0,1,1,0,2.422Z" transform="translate(-158.122 -191.551)" fill="#1957e6"/>
    </g>
  </g>
</svg>
