<svg xmlns="http://www.w3.org/2000/svg" xmlns:xlink="http://www.w3.org/1999/xlink" width="50" height="50" viewBox="0 0 50 50" fill="none"><g opacity="1"  transform="translate(0 0)  rotate(0)"><mask id="bg-mask-0" fill="white"><use transform="translate(0 0)  rotate(0)" xlink:href="#path_0"></use></mask><g mask="url(#bg-mask-0)" ><path id="路径 1" fill-rule="evenodd" style="fill:#1479E5" opacity="1" d="M9.85147 18.3105L41.1015 25.6647C41.1297 25.6713 41.1579 25.6786 41.1858 25.6864C41.2138 25.6942 41.2416 25.7026 41.2693 25.7117C41.2969 25.7207 41.3244 25.7302 41.3516 25.7404C41.3788 25.7505 41.4058 25.7612 41.4326 25.7725C41.4594 25.7837 41.4859 25.7956 41.5122 25.808C41.5385 25.8204 41.5645 25.8333 41.5902 25.8467C41.616 25.8602 41.6415 25.8742 41.6666 25.8888C41.6917 25.9033 41.7166 25.9183 41.7412 25.9339C41.7657 25.9495 41.7898 25.9656 41.8137 25.9822C41.8376 25.9988 41.8611 26.0159 41.8842 26.0334C41.9074 26.051 41.9301 26.069 41.9525 26.0875C41.9749 26.1061 41.9969 26.1251 42.0185 26.1445C42.0401 26.164 42.0613 26.1838 42.082 26.2042C42.1028 26.2245 42.1231 26.2453 42.143 26.2665C42.1629 26.2876 42.1823 26.3092 42.2013 26.3312C42.2203 26.3532 42.2389 26.3756 42.2569 26.3984C42.275 26.4211 42.2925 26.4442 42.3096 26.4678C42.3267 26.4913 42.3433 26.5151 42.3594 26.5394C42.3754 26.5635 42.391 26.588 42.4061 26.6129C42.4211 26.6377 42.4356 26.6629 42.4497 26.6884C42.4637 26.7139 42.4771 26.7396 42.4901 26.7656C42.503 26.7916 42.5154 26.8179 42.5272 26.8445C42.5391 26.871 42.5503 26.8978 42.561 26.9248C42.5717 26.9518 42.5819 26.9791 42.5915 27.0065C42.601 27.0339 42.61 27.0615 42.6185 27.0894C42.6269 27.1171 42.6347 27.1451 42.6419 27.1733C42.6492 27.2014 42.6558 27.2297 42.6619 27.2581C42.6679 27.2865 42.6734 27.315 42.6783 27.3437C42.6832 27.3724 42.6874 27.4011 42.6911 27.4299C42.6947 27.4587 42.6978 27.4876 42.7002 27.5166C42.7027 27.5456 42.7046 27.5746 42.7058 27.6036C42.707 27.6326 42.7077 27.6616 42.7077 27.6907L42.7077 38.5417C42.7077 38.6099 42.7061 38.6781 42.7027 38.7462C42.6993 38.8143 42.6943 38.8823 42.6876 38.9502C42.681 39.018 42.6726 39.0856 42.6626 39.1531C42.6526 39.2206 42.641 39.2877 42.6276 39.3546C42.6143 39.4215 42.5994 39.488 42.5828 39.5542C42.5663 39.6203 42.548 39.686 42.5283 39.7513C42.5085 39.8165 42.4871 39.8812 42.4641 39.9455C42.4412 40.0097 42.4166 40.0733 42.3905 40.1363C42.3644 40.1993 42.3368 40.2616 42.3077 40.3232C42.2785 40.3849 42.2479 40.4458 42.2157 40.5059C42.1835 40.566 42.15 40.6253 42.1149 40.6838C42.0798 40.7423 42.0434 40.7999 42.0055 40.8566C41.9676 40.9133 41.9284 40.969 41.8877 41.0238C41.8471 41.0786 41.8052 41.1323 41.7619 41.1851C41.7187 41.2378 41.6741 41.2894 41.6283 41.3399C41.5825 41.3904 41.5355 41.4398 41.4873 41.488C41.4391 41.5362 41.3897 41.5833 41.3392 41.6291C41.2887 41.6749 41.2371 41.7194 41.1843 41.7626C41.1316 41.8059 41.0779 41.8479 41.0231 41.8885C40.9684 41.9291 40.9126 41.9683 40.8559 42.0062C40.7992 42.0441 40.7416 42.0806 40.6831 42.1156C40.6247 42.1507 40.5653 42.1843 40.5052 42.2165C40.4451 42.2486 40.3842 42.2792 40.3225 42.3084C40.2608 42.3375 40.1985 42.3651 40.1355 42.3913C40.0726 42.4173 40.0089 42.4419 39.9447 42.4648C39.8805 42.4878 39.8158 42.5092 39.7505 42.529C39.6853 42.5488 39.6196 42.5669 39.5535 42.5835C39.4873 42.6001 39.4208 42.615 39.3539 42.6284C39.2871 42.6416 39.2199 42.6533 39.1524 42.6633C39.085 42.6733 39.0173 42.6816 38.9495 42.6884C38.8816 42.695 38.8136 42.7001 38.7455 42.7034C38.6774 42.7067 38.6092 42.7084 38.541 42.7084L11.4577 42.7084C11.3895 42.7084 11.3214 42.7067 11.2533 42.7034C11.1851 42.7001 11.1172 42.695 11.0493 42.6884C10.9814 42.6816 10.9138 42.6733 10.8463 42.6633C10.7789 42.6533 10.7117 42.6416 10.6448 42.6284C10.5779 42.615 10.5114 42.6001 10.4453 42.5835C10.3791 42.5669 10.3134 42.5488 10.2482 42.529C10.1829 42.5092 10.1182 42.4878 10.054 42.4648C9.98978 42.4419 9.92617 42.4173 9.86318 42.3913C9.8002 42.3651 9.73788 42.3375 9.67622 42.3084C9.61456 42.2792 9.55368 42.2486 9.49356 42.2165C9.4334 42.1843 9.37409 42.1507 9.31563 42.1156C9.25713 42.0806 9.19953 42.0441 9.14282 42.0062C9.08612 41.9683 9.03039 41.9291 8.97563 41.8885C8.92085 41.8479 8.8671 41.8059 8.8144 41.7626C8.76167 41.7194 8.71004 41.6749 8.65952 41.6291C8.609 41.5833 8.55963 41.5362 8.51143 41.488C8.46322 41.4398 8.41621 41.3904 8.37041 41.3399C8.32461 41.2894 8.28008 41.2378 8.23682 41.1851C8.19355 41.1323 8.15161 41.0786 8.11099 41.0238C8.07036 40.969 8.03112 40.9133 7.99326 40.8566C7.95537 40.7999 7.9189 40.7423 7.88384 40.6838C7.84878 40.6253 7.81517 40.566 7.78301 40.5059C7.75088 40.4458 7.72023 40.3849 7.69106 40.3232C7.66193 40.2616 7.63431 40.1993 7.6082 40.1363C7.5821 40.0733 7.55757 40.0097 7.53462 39.9455C7.51164 39.8812 7.49025 39.8165 7.47046 39.7513C7.45067 39.686 7.43249 39.6203 7.41592 39.5542C7.39935 39.488 7.38441 39.4215 7.37109 39.3546C7.35778 39.2877 7.34613 39.2206 7.33613 39.1531C7.32614 39.0856 7.31779 39.018 7.31108 38.9502C7.30441 38.8823 7.2994 38.8143 7.29605 38.7462C7.29269 38.6781 7.29102 38.6099 7.29102 38.5417L7.29102 20.3386C7.29102 20.2995 7.29212 20.2604 7.29434 20.2214C7.29652 20.1823 7.29981 20.1433 7.3042 20.1045C7.30859 20.0656 7.31408 20.0269 7.32065 19.9884C7.32723 19.9498 7.33488 19.9114 7.3436 19.8733C7.35236 19.8352 7.36216 19.7973 7.373 19.7598C7.38387 19.7222 7.39579 19.6849 7.40874 19.648C7.42173 19.6112 7.43573 19.5746 7.45073 19.5385C7.46574 19.5024 7.48175 19.4668 7.49878 19.4315C7.51584 19.3963 7.53385 19.3616 7.55283 19.3274C7.57181 19.2932 7.59173 19.2596 7.6126 19.2265C7.6335 19.1934 7.65529 19.161 7.67798 19.1291C7.7007 19.0973 7.72428 19.0661 7.74873 19.0355C7.77321 19.005 7.79852 18.9752 7.82466 18.9461C7.8508 18.917 7.87773 18.8887 7.90547 18.8611C7.9332 18.8335 7.96168 18.8068 7.99092 18.7808C8.02018 18.7548 8.05015 18.7297 8.08081 18.7054C8.11147 18.6811 8.14279 18.6577 8.17476 18.6352C8.20672 18.6127 8.23931 18.5911 8.27251 18.5703C8.30571 18.5497 8.33947 18.53 8.37378 18.5112C8.40809 18.4924 8.44291 18.4746 8.47822 18.4578C8.51351 18.4409 8.54925 18.4251 8.58545 18.4103C8.62168 18.3955 8.65827 18.3817 8.69522 18.3689C8.73219 18.3562 8.76952 18.3445 8.80718 18.3338C8.84481 18.3232 8.88272 18.3136 8.9209 18.3051C8.95905 18.2966 8.99743 18.2891 9.03604 18.2828C9.07464 18.2765 9.11338 18.2712 9.15225 18.267C9.19115 18.2629 9.23013 18.2598 9.26919 18.2578C9.30825 18.2558 9.34735 18.2549 9.38647 18.2552C9.42557 18.2554 9.46465 18.2567 9.50371 18.2592C9.54274 18.2616 9.58167 18.2651 9.62051 18.2697C9.65934 18.2743 9.69803 18.28 9.73657 18.2869C9.77508 18.2937 9.81338 18.3015 9.85147 18.3105Z"></path><path id="路径 2" fill-rule="evenodd" style="fill:#1787FF" opacity="1" d="M14.5827 6.25L31.2494 6.25C31.3857 6.25 31.5221 6.25335 31.6583 6.26006C31.7945 6.26673 31.9305 6.27676 32.0662 6.29014C32.2019 6.30348 32.3372 6.32017 32.4721 6.34019C32.607 6.36021 32.7414 6.38351 32.8751 6.41011C33.0089 6.43674 33.1419 6.46662 33.2742 6.49976C33.4065 6.53289 33.5379 6.56925 33.6684 6.60884C33.7989 6.64842 33.9284 6.69118 34.0568 6.73711C34.1852 6.78307 34.3124 6.83214 34.4384 6.88433C34.5644 6.93654 34.689 6.9918 34.8123 7.0501C34.9356 7.1084 35.0574 7.16969 35.1777 7.23398C35.298 7.29828 35.4166 7.36548 35.5335 7.4356C35.6505 7.50571 35.7657 7.57866 35.8791 7.65444C35.9925 7.73019 36.104 7.80869 36.2135 7.88994C36.323 7.97119 36.4306 8.05508 36.536 8.1416C36.6414 8.22809 36.7447 8.31714 36.8457 8.40874C36.9467 8.50034 37.0455 8.59435 37.1419 8.69077C37.2384 8.78722 37.3324 8.88597 37.424 8.98701C37.5155 9.08805 37.6046 9.19129 37.6911 9.29673C37.7776 9.40213 37.8615 9.50962 37.9428 9.61919C38.024 9.72873 38.1025 9.84019 38.1783 9.95356C38.2541 10.067 38.327 10.1822 38.3971 10.2991C38.4672 10.4161 38.5344 10.5348 38.5987 10.655C38.663 10.7753 38.7243 10.8971 38.7826 11.0204C38.8409 11.1437 38.8961 11.2683 38.9483 11.3943C39.0005 11.5203 39.0496 11.6475 39.0956 11.7759C39.1415 11.9043 39.1843 12.0338 39.2239 12.1643C39.2635 12.2948 39.2998 12.4262 39.333 12.5585C39.3661 12.6908 39.3959 12.8238 39.4226 12.9576C39.4492 13.0913 39.4725 13.2257 39.4925 13.3606C39.5125 13.4955 39.5292 13.6308 39.5426 13.7665C39.5559 13.9022 39.566 14.0382 39.5727 14.1744C39.5793 14.3106 39.5827 14.447 39.5827 14.5833L39.5827 38.5416C39.5827 38.6099 39.5811 38.678 39.5777 38.7461C39.5743 38.8143 39.5693 38.8822 39.5626 38.9501C39.556 39.0179 39.5476 39.0856 39.5376 39.153C39.5276 39.2205 39.516 39.2876 39.5026 39.3545C39.4893 39.4214 39.4744 39.4879 39.4578 39.5541C39.4413 39.6203 39.423 39.6859 39.4033 39.7512C39.3835 39.8165 39.3621 39.8812 39.3391 39.9454C39.3162 40.0096 39.2916 40.0732 39.2655 40.1362C39.2394 40.1992 39.2118 40.2615 39.1827 40.3231C39.1535 40.3848 39.1228 40.4457 39.0907 40.5058C39.0585 40.566 39.0249 40.6253 38.9899 40.6837C38.9548 40.7422 38.9184 40.7999 38.8805 40.8565C38.8426 40.9132 38.8034 40.969 38.7627 41.0237C38.7221 41.0785 38.6802 41.1323 38.6369 41.185C38.5937 41.2377 38.5491 41.2893 38.5033 41.3398C38.4575 41.3904 38.4105 41.4397 38.3623 41.4879C38.3141 41.5361 38.2647 41.5832 38.2142 41.629C38.1637 41.6748 38.1121 41.7193 38.0593 41.7626C38.0066 41.8058 37.9529 41.8478 37.8981 41.8884C37.8434 41.929 37.7876 41.9683 37.7309 42.0061C37.6742 42.044 37.6166 42.0805 37.5581 42.1155C37.4997 42.1506 37.4403 42.1842 37.3802 42.2164C37.3201 42.2485 37.2592 42.2792 37.1975 42.3083C37.1358 42.3375 37.0735 42.365 37.0105 42.3912C36.9476 42.4173 36.8839 42.4418 36.8197 42.4647C36.7555 42.4877 36.6908 42.5091 36.6255 42.5289C36.5603 42.5487 36.4946 42.5669 36.4285 42.5834C36.3623 42.6 36.2958 42.6149 36.2289 42.6283C36.162 42.6416 36.0948 42.6532 36.0274 42.6632C35.96 42.6732 35.8923 42.6816 35.8245 42.6883C35.7566 42.695 35.6886 42.7 35.6205 42.7033C35.5524 42.7067 35.4842 42.7084 35.416 42.7084L14.5827 42.7084C14.5145 42.7084 14.4464 42.7067 14.3783 42.7033C14.3101 42.7 14.2422 42.695 14.1743 42.6883C14.1064 42.6816 14.0388 42.6732 13.9713 42.6632C13.9039 42.6532 13.8367 42.6416 13.7698 42.6283C13.7029 42.6149 13.6364 42.6 13.5703 42.5834C13.5041 42.5669 13.4384 42.5487 13.3732 42.5289C13.3079 42.5091 13.2432 42.4877 13.179 42.4647C13.1148 42.4418 13.0512 42.4173 12.9882 42.3912C12.9252 42.365 12.8629 42.3375 12.8012 42.3083C12.7396 42.2792 12.6787 42.2485 12.6186 42.2164C12.5584 42.1842 12.4991 42.1506 12.4406 42.1155C12.3821 42.0805 12.3245 42.044 12.2678 42.0061C12.2111 41.9683 12.1554 41.929 12.1006 41.8884C12.0458 41.8478 11.9921 41.8058 11.9394 41.7626C11.8867 41.7193 11.835 41.6748 11.7845 41.629C11.734 41.5832 11.6846 41.5361 11.6364 41.4879C11.5882 41.4397 11.5412 41.3904 11.4954 41.3398C11.4496 41.2893 11.4051 41.2377 11.3618 41.185C11.3186 41.1323 11.2766 41.0785 11.236 41.0237C11.1954 40.969 11.1561 40.9132 11.1183 40.8565C11.0804 40.7999 11.0439 40.7422 11.0088 40.6837C10.9738 40.6253 10.9402 40.566 10.908 40.5058C10.8759 40.4457 10.8452 40.3848 10.8161 40.3231C10.7869 40.2615 10.7593 40.1992 10.7332 40.1362C10.7071 40.0732 10.6826 40.0096 10.6596 39.9454C10.6366 39.8812 10.6153 39.8165 10.5955 39.7512C10.5757 39.6859 10.5575 39.6203 10.5409 39.5541C10.5243 39.4879 10.5094 39.4214 10.4961 39.3545C10.4828 39.2877 10.4711 39.2205 10.4611 39.153C10.4511 39.0856 10.4428 39.0179 10.4361 38.9501C10.4294 38.8822 10.4244 38.8143 10.421 38.7461C10.4177 38.678 10.416 38.6099 10.416 38.5416L10.416 10.4167C10.416 10.3485 10.4177 10.2803 10.421 10.2122C10.4244 10.1441 10.4294 10.0761 10.4361 10.0083C10.4428 9.94038 10.4511 9.87272 10.4611 9.80527C10.4711 9.73783 10.4828 9.67067 10.4961 9.60381C10.5094 9.53691 10.5243 9.4704 10.5409 9.40425C10.5575 9.3381 10.5757 9.2724 10.5955 9.20713C10.6153 9.14189 10.6366 9.07716 10.6596 9.01294C10.6826 8.94874 10.7071 8.88516 10.7332 8.82217C10.7593 8.75915 10.7869 8.69683 10.8161 8.63521C10.8452 8.57355 10.8759 8.51265 10.908 8.45249C10.9402 8.39237 10.9738 8.33306 11.0088 8.27456C11.0439 8.21606 11.0804 8.15848 11.1183 8.10181C11.1561 8.0451 11.1954 7.98936 11.236 7.93457C11.2766 7.87982 11.3186 7.82607 11.3618 7.77334C11.4051 7.72064 11.4496 7.66903 11.4954 7.61851C11.5412 7.56798 11.5882 7.51862 11.6364 7.47041C11.6846 7.42217 11.734 7.37515 11.7845 7.32935C11.835 7.28358 11.8867 7.23906 11.9394 7.1958C11.9921 7.15254 12.0458 7.1106 12.1006 7.06997C12.1554 7.02935 12.2111 6.99009 12.2678 6.9522C12.3245 6.91431 12.3821 6.87783 12.4406 6.84277C12.4991 6.80775 12.5584 6.77416 12.6186 6.74199C12.6787 6.70986 12.7396 6.67922 12.8012 6.65005C12.8629 6.62088 12.9252 6.59326 12.9882 6.56719C13.0512 6.54108 13.1148 6.51654 13.179 6.49356C13.2432 6.47061 13.3079 6.44922 13.3732 6.42939C13.4384 6.4096 13.5041 6.39142 13.5703 6.37485C13.6364 6.35828 13.7029 6.34336 13.7698 6.33008C13.8367 6.31676 13.9039 6.30511 13.9713 6.29512C14.0388 6.28509 14.1064 6.27674 14.1743 6.27007C14.2422 6.2634 14.3101 6.25838 14.3783 6.25503C14.4464 6.25168 14.5145 6.25 14.5827 6.25Z"></path><path id="路径 3" fill-rule="evenodd" style="fill:#22C3FF" opacity="1" d="M7.29102 36.4583L42.7077 30.2083L42.7077 38.5416C42.7077 38.6098 42.7061 38.6779 42.7027 38.746C42.6993 38.8142 42.6943 38.8821 42.6876 38.95C42.681 39.0178 42.6726 39.0855 42.6626 39.1529C42.6526 39.2204 42.641 39.2875 42.6276 39.3544C42.6143 39.4213 42.5994 39.4878 42.5828 39.554C42.5663 39.6202 42.548 39.6858 42.5283 39.7511C42.5085 39.8164 42.4871 39.8811 42.4641 39.9453C42.4412 40.0095 42.4166 40.0731 42.3905 40.1361C42.3644 40.1991 42.3368 40.2614 42.3077 40.323C42.2785 40.3847 42.2478 40.4456 42.2157 40.5057C42.1835 40.5659 42.1499 40.6252 42.1149 40.6836C42.0798 40.7421 42.0434 40.7998 42.0055 40.8564C41.9676 40.9131 41.9284 40.9689 41.8877 41.0236C41.8471 41.0784 41.8052 41.1322 41.7619 41.1849C41.7187 41.2376 41.6741 41.2892 41.6283 41.3397C41.5825 41.3903 41.5355 41.4396 41.4873 41.4878C41.4391 41.536 41.3897 41.5831 41.3392 41.6289C41.2887 41.6747 41.2371 41.7192 41.1843 41.7625C41.1316 41.8057 41.0779 41.8477 41.0231 41.8883C40.9684 41.9289 40.9126 41.9682 40.8559 42.006C40.7992 42.0439 40.7416 42.0804 40.6831 42.1154C40.6246 42.1505 40.5653 42.1841 40.5052 42.2163C40.4451 42.2484 40.3842 42.2791 40.3225 42.3082C40.2608 42.3374 40.1985 42.3649 40.1355 42.3911C40.0726 42.4172 40.0089 42.4417 39.9447 42.4646C39.8805 42.4876 39.8158 42.509 39.7505 42.5288C39.6853 42.5486 39.6196 42.5668 39.5535 42.5834C39.4873 42.5999 39.4208 42.6148 39.3539 42.6282C39.287 42.6415 39.2198 42.6531 39.1524 42.6631C39.085 42.6731 39.0173 42.6815 38.9495 42.6882C38.8816 42.6949 38.8136 42.6999 38.7455 42.7032C38.6774 42.7066 38.6092 42.7083 38.541 42.7083L11.4577 42.7083C11.3895 42.7083 11.3214 42.7066 11.2533 42.7032C11.1851 42.6999 11.1172 42.6949 11.0493 42.6882C10.9814 42.6815 10.9138 42.6731 10.8463 42.6631C10.7789 42.6531 10.7117 42.6415 10.6448 42.6282C10.5779 42.6148 10.5114 42.5999 10.4453 42.5834C10.3791 42.5668 10.3134 42.5486 10.2482 42.5288C10.1829 42.509 10.1182 42.4876 10.054 42.4646C9.98978 42.4417 9.92617 42.4172 9.86318 42.3911C9.8002 42.3649 9.73788 42.3374 9.67622 42.3082C9.61456 42.2791 9.55368 42.2484 9.49356 42.2163C9.4334 42.1841 9.37409 42.1505 9.31562 42.1154C9.25713 42.0804 9.19953 42.0439 9.14282 42.006C9.08612 41.9682 9.03039 41.9289 8.97563 41.8883C8.92085 41.8477 8.8671 41.8057 8.8144 41.7625C8.76167 41.7192 8.71004 41.6747 8.65952 41.6289C8.609 41.5831 8.55963 41.536 8.51143 41.4878C8.46322 41.4396 8.41621 41.3903 8.37041 41.3397C8.32461 41.2892 8.28008 41.2376 8.23682 41.1849C8.19355 41.1322 8.15161 41.0784 8.11099 41.0236C8.07036 40.9689 8.03112 40.9131 7.99326 40.8564C7.95537 40.7998 7.9189 40.7421 7.88384 40.6836C7.84878 40.6252 7.81517 40.5659 7.78301 40.5057C7.75088 40.4456 7.72023 40.3847 7.69106 40.323C7.66193 40.2614 7.63431 40.1991 7.6082 40.1361C7.5821 40.0731 7.55757 40.0095 7.53462 39.9453C7.51164 39.8811 7.49025 39.8164 7.47046 39.7511C7.45067 39.6858 7.43249 39.6202 7.41592 39.554C7.39935 39.4878 7.38441 39.4213 7.37109 39.3544C7.35778 39.2876 7.34613 39.2204 7.33613 39.1529C7.32614 39.0855 7.31779 39.0178 7.31108 38.95C7.30441 38.8821 7.2994 38.8142 7.29605 38.746C7.29269 38.6779 7.29102 38.6098 7.29102 38.5416L7.29102 36.4583Z"></path><path id="路径 4" fill-rule="evenodd" style="fill:#FFFFFF" opacity="0.95" d="M24.9995 13.5417C27.3516 13.5417 29.2589 15.4063 29.2589 17.7084C29.2588 17.7498 29.2581 17.7912 29.2567 17.8326C29.2554 17.8739 29.2534 17.9153 29.2508 17.9566C29.2482 17.9979 29.2451 18.0392 29.2413 18.0804C29.2374 18.1216 29.233 18.1628 29.2279 18.2039C29.2229 18.245 29.2172 18.286 29.2109 18.3269C29.2046 18.3678 29.1977 18.4086 29.1902 18.4493C29.1827 18.49 29.1746 18.5306 29.1658 18.5711C29.1571 18.6116 29.1478 18.6519 29.1378 18.692C29.1279 18.7322 29.1173 18.7723 29.1062 18.8121C29.095 18.852 29.0833 18.8917 29.0709 18.9312C29.0586 18.9707 29.0457 19.0101 29.0321 19.0492C29.0186 19.0883 29.0045 19.1272 28.9898 19.1659C28.9751 19.2046 28.9599 19.2431 28.944 19.2813C28.9282 19.3195 28.9118 19.3576 28.8948 19.3953C28.8778 19.4331 28.8603 19.4706 28.8421 19.5078C28.824 19.545 28.8054 19.5819 28.7861 19.6186C28.7669 19.6553 28.7472 19.6916 28.7268 19.7277C28.7065 19.7638 28.6856 19.7995 28.6643 19.835C28.6429 19.8704 28.6209 19.9055 28.5985 19.9403C28.5761 19.9751 28.5531 20.0095 28.5296 20.0436C28.5062 20.0777 28.4822 20.1115 28.4577 20.1448C28.4332 20.1782 28.4082 20.2112 28.3827 20.2438C28.3572 20.2764 28.3312 20.3086 28.3048 20.3405C28.2784 20.3724 28.2515 20.4038 28.2241 20.4348C28.1967 20.4659 28.1688 20.4965 28.1405 20.5267C28.1122 20.5569 28.0834 20.5866 28.0542 20.616C28.025 20.6453 27.9954 20.6742 27.9653 20.7026C27.9352 20.7311 27.9047 20.7591 27.8738 20.7866C27.8429 20.8141 27.8115 20.8412 27.7798 20.8678C27.7481 20.8944 27.716 20.9205 27.6834 20.9461C27.6509 20.9717 27.618 20.9968 27.5848 21.0215C27.5515 21.0461 27.5179 21.0702 27.4839 21.0938C27.5177 21.106 27.5513 21.1186 27.5848 21.1316C27.6182 21.1446 27.6515 21.158 27.6847 21.1718C27.7178 21.1857 27.7507 21.2 27.7835 21.2146C27.8163 21.2293 27.8488 21.2445 27.8812 21.26C27.9136 21.2755 27.9457 21.2914 27.9777 21.3078C28.0097 21.3241 28.0415 21.3409 28.0729 21.3581C28.1045 21.3752 28.1358 21.3928 28.1669 21.4107C28.198 21.4287 28.2289 21.447 28.2595 21.4657C28.2901 21.4845 28.3205 21.5036 28.3506 21.5231C28.3808 21.5426 28.4106 21.5625 28.4403 21.5828C28.4699 21.6031 28.4993 21.6237 28.5284 21.6448C28.5575 21.6658 28.5863 21.6872 28.6149 21.709C28.6435 21.7307 28.6717 21.7528 28.6997 21.7753C28.7277 21.7979 28.7554 21.8207 28.7828 21.8438C28.8102 21.867 28.8373 21.8906 28.8641 21.9145C28.8909 21.9383 28.9174 21.9626 28.9436 21.9872C28.9698 22.0117 28.9957 22.0366 29.0212 22.0618C29.0468 22.0871 29.072 22.1126 29.0969 22.1384C29.1218 22.1643 29.1464 22.1905 29.1706 22.217C29.1949 22.2435 29.2188 22.2703 29.2423 22.2974C29.2659 22.3245 29.2891 22.3519 29.3119 22.3795C29.3348 22.4072 29.3573 22.4352 29.3794 22.4635C29.4015 22.4917 29.4233 22.5203 29.4447 22.5491C29.4661 22.578 29.4872 22.607 29.5078 22.6364C29.5285 22.6657 29.5488 22.6954 29.5687 22.7252C29.5886 22.7551 29.6081 22.7853 29.6272 22.8156C29.6464 22.846 29.6651 22.8766 29.6835 22.9075C29.7019 22.9383 29.7198 22.9694 29.7374 23.0007C29.755 23.032 29.7722 23.0636 29.7889 23.0953C29.8057 23.1271 29.822 23.159 29.838 23.1912C29.8539 23.2234 29.8694 23.2557 29.8846 23.2883C29.8997 23.3209 29.9144 23.3536 29.9287 23.3866L31.2079 26.3657C31.211 26.3731 31.214 26.3807 31.2168 26.3882C31.2196 26.3958 31.2222 26.4034 31.2247 26.4111C31.2271 26.4188 31.2294 26.4266 31.2315 26.4343C31.2336 26.4421 31.2355 26.45 31.2372 26.4579C31.2389 26.4657 31.2405 26.4737 31.2418 26.4816C31.2431 26.4896 31.2443 26.4976 31.2453 26.5056C31.2462 26.5136 31.247 26.5216 31.2476 26.5297C31.2482 26.5377 31.2486 26.5458 31.2488 26.5539C31.2491 26.5619 31.2491 26.57 31.2489 26.5781C31.2488 26.5861 31.2484 26.5942 31.2479 26.6022C31.2473 26.6103 31.2466 26.6183 31.2457 26.6264C31.2447 26.6344 31.2437 26.6424 31.2423 26.6503C31.241 26.6583 31.2396 26.6663 31.2379 26.6741C31.2362 26.682 31.2344 26.6899 31.2323 26.6977C31.2303 26.7055 31.2281 26.7133 31.2257 26.7209C31.2233 26.7287 31.2207 26.7363 31.218 26.7439C31.2152 26.7515 31.2123 26.759 31.2091 26.7665C31.2061 26.7739 31.2027 26.7813 31.1993 26.7886C31.1958 26.7958 31.1922 26.8031 31.1884 26.8102C31.1846 26.8173 31.1807 26.8243 31.1765 26.8312C31.1724 26.8382 31.1681 26.845 31.1637 26.8518C31.1592 26.8585 31.1546 26.8651 31.1499 26.8717C31.1451 26.8782 31.1402 26.8846 31.1351 26.8909C31.1301 26.8972 31.1249 26.9033 31.1195 26.9094C31.1142 26.9154 31.1086 26.9213 31.103 26.9271C31.0974 26.9329 31.0917 26.9385 31.0857 26.944C31.0798 26.9496 31.0738 26.955 31.0677 26.9602C31.0616 26.9654 31.0553 26.9705 31.0489 26.9754C31.0425 26.9804 31.036 26.9852 31.0294 26.9898C31.0229 26.9944 31.0161 26.9989 31.0093 27.0032C31.0025 27.0076 30.9956 27.0117 30.9885 27.0157C30.9815 27.0197 30.9744 27.0235 30.9672 27.0272C29.7568 27.6563 28.1151 28.0157 26.0433 28.1032L26.0412 25.0001C26.0412 24.9831 26.0408 24.966 26.0399 24.949C26.0391 24.9319 26.0378 24.9149 26.0362 24.898C26.0345 24.8811 26.0324 24.8641 26.0299 24.8473C26.0274 24.8304 26.0245 24.8136 26.0211 24.7969C26.0178 24.7801 26.0141 24.7635 26.01 24.747C26.0058 24.7304 26.0013 24.714 25.9963 24.6977C25.9914 24.6814 25.986 24.6652 25.9803 24.6492C25.9746 24.6331 25.9684 24.6172 25.9619 24.6015C25.9554 24.5857 25.9484 24.5701 25.9412 24.5547C25.9339 24.5393 25.9262 24.5241 25.9182 24.5091C25.9101 24.494 25.9017 24.4792 25.893 24.4646C25.8842 24.45 25.8751 24.4355 25.8656 24.4214C25.8562 24.4072 25.8463 24.3933 25.8362 24.3796C25.826 24.3659 25.8155 24.3524 25.8047 24.3393C25.7939 24.3261 25.7828 24.3132 25.7713 24.3005C25.7599 24.2879 25.7481 24.2756 25.7361 24.2635C25.724 24.2515 25.7117 24.2397 25.6991 24.2283C25.6864 24.2168 25.6735 24.2057 25.6604 24.1949C25.6472 24.1841 25.6337 24.1736 25.62 24.1634C25.6063 24.1533 25.5924 24.1435 25.5782 24.134C25.5641 24.1245 25.5497 24.1154 25.535 24.1066C25.5204 24.0979 25.5056 24.0895 25.4905 24.0814C25.4755 24.0734 25.4603 24.0657 25.4449 24.0584C25.4295 24.0512 25.4139 24.0442 25.3981 24.0377C25.3824 24.0312 25.3665 24.025 25.3504 24.0193C25.3344 24.0136 25.3182 24.0082 25.3019 24.0033C25.2856 23.9983 25.2692 23.9938 25.2526 23.9896C25.2361 23.9855 25.2195 23.9818 25.2027 23.9785C25.186 23.9751 25.1692 23.9722 25.1523 23.9697C25.1355 23.9672 25.1186 23.9651 25.1016 23.9634C25.0847 23.9618 25.0677 23.9605 25.0506 23.9597C25.0336 23.9588 25.0166 23.9584 24.9995 23.9584C24.9825 23.9584 24.9654 23.9588 24.9484 23.9597C24.9313 23.9605 24.9144 23.9618 24.8974 23.9634C24.8805 23.9651 24.8635 23.9672 24.8467 23.9697C24.8298 23.9722 24.813 23.9751 24.7963 23.9785C24.7795 23.9818 24.7629 23.9855 24.7464 23.9896C24.7298 23.9938 24.7134 23.9983 24.6971 24.0033C24.6808 24.0082 24.6646 24.0136 24.6486 24.0193C24.6325 24.025 24.6166 24.0312 24.6009 24.0377C24.5851 24.0442 24.5695 24.0512 24.5541 24.0584C24.5387 24.0657 24.5235 24.0734 24.5085 24.0814C24.4935 24.0895 24.4786 24.0979 24.464 24.1066C24.4494 24.1154 24.435 24.1245 24.4208 24.134C24.4066 24.1435 24.3927 24.1533 24.379 24.1634C24.3653 24.1736 24.3519 24.1841 24.3387 24.1949C24.3255 24.2057 24.3126 24.2168 24.3 24.2283C24.2873 24.2397 24.275 24.2515 24.2629 24.2635C24.2509 24.2756 24.2392 24.2879 24.2277 24.3005C24.2162 24.3132 24.2051 24.3261 24.1943 24.3393C24.1835 24.3524 24.173 24.3659 24.1628 24.3796C24.1527 24.3933 24.1429 24.4072 24.1334 24.4214C24.1239 24.4355 24.1148 24.45 24.1061 24.4646C24.0973 24.4792 24.0889 24.494 24.0809 24.5091C24.0728 24.5241 24.0651 24.5393 24.0579 24.5547C24.0506 24.5701 24.0437 24.5857 24.0372 24.6015C24.0306 24.6172 24.0245 24.6331 24.0187 24.6492C24.013 24.6652 24.0076 24.6814 24.0027 24.6977C23.9978 24.714 23.9932 24.7304 23.9891 24.747C23.9849 24.7635 23.9812 24.7801 23.9779 24.7969C23.9745 24.8136 23.9716 24.8304 23.9691 24.8473C23.9667 24.8641 23.9646 24.8811 23.9628 24.898C23.9612 24.9149 23.9599 24.9319 23.9591 24.949C23.9583 24.966 23.9579 24.9831 23.9579 25.0001L23.9579 28.1042C21.8849 28.0157 20.2422 27.6563 19.0318 27.0272C19.0246 27.0235 19.0175 27.0197 19.0105 27.0157C19.0035 27.0117 18.9966 27.0076 18.9898 27.0032C18.9829 26.9989 18.9762 26.9944 18.9696 26.9898C18.963 26.9852 18.9565 26.9804 18.9501 26.9754C18.9437 26.9705 18.9375 26.9654 18.9313 26.9602C18.9252 26.955 18.9192 26.9496 18.9133 26.944C18.9074 26.9385 18.9016 26.9329 18.896 26.9271C18.8904 26.9213 18.8849 26.9154 18.8795 26.9094C18.8742 26.9033 18.869 26.8972 18.8639 26.8909C18.8588 26.8846 18.8539 26.8782 18.8492 26.8717C18.8444 26.8651 18.8398 26.8585 18.8354 26.8518C18.8309 26.8451 18.8266 26.8382 18.8225 26.8312C18.8184 26.8243 18.8144 26.8173 18.8106 26.8102C18.8068 26.8031 18.8032 26.7958 18.7998 26.7886C18.7963 26.7813 18.793 26.7739 18.7899 26.7665C18.7868 26.759 18.7838 26.7515 18.7811 26.7439C18.7783 26.7363 18.7758 26.7287 18.7733 26.7209C18.7709 26.7133 18.7687 26.7055 18.7667 26.6977C18.7647 26.6899 18.7628 26.682 18.7611 26.6741C18.7595 26.6663 18.758 26.6583 18.7567 26.6503C18.7554 26.6424 18.7543 26.6344 18.7534 26.6264C18.7525 26.6183 18.7517 26.6103 18.7512 26.6022C18.7506 26.5942 18.7503 26.5861 18.7501 26.5781C18.7499 26.57 18.75 26.5619 18.7502 26.5539C18.7504 26.5458 18.7508 26.5377 18.7514 26.5297C18.752 26.5216 18.7528 26.5136 18.7538 26.5056C18.7547 26.4976 18.7559 26.4896 18.7572 26.4816C18.7586 26.4737 18.7601 26.4657 18.7618 26.4579C18.7635 26.45 18.7654 26.4421 18.7675 26.4343C18.7696 26.4266 18.7719 26.4188 18.7743 26.4111C18.7768 26.4034 18.7794 26.3958 18.7822 26.3882C18.785 26.3807 18.788 26.3731 18.7912 26.3657L20.0704 23.3866C20.0846 23.3536 20.0993 23.3209 20.1145 23.2883C20.1296 23.2557 20.1451 23.2233 20.161 23.1912C20.177 23.159 20.1933 23.1271 20.2101 23.0953C20.2268 23.0635 20.244 23.032 20.2616 23.0007C20.2791 22.9694 20.2971 22.9383 20.3154 22.9074C20.3338 22.8766 20.3525 22.8459 20.3717 22.8156C20.3908 22.7852 20.4103 22.7551 20.4302 22.7252C20.4502 22.6953 20.4704 22.6657 20.4911 22.6363C20.5118 22.607 20.5328 22.5779 20.5542 22.549C20.5756 22.5202 20.5974 22.4916 20.6195 22.4634C20.6417 22.4351 20.6642 22.4071 20.687 22.3794C20.7099 22.3518 20.7331 22.3243 20.7566 22.2972C20.7802 22.2701 20.8041 22.2434 20.8283 22.2168C20.8525 22.1903 20.8771 22.1642 20.902 22.1383C20.9269 22.1125 20.9521 22.0869 20.9777 22.0617C21.0032 22.0364 21.0291 22.0116 21.0553 21.987C21.0815 21.9625 21.108 21.9382 21.1348 21.9143C21.1616 21.8904 21.1887 21.8669 21.2161 21.8437C21.2435 21.8205 21.2712 21.7977 21.2992 21.7752C21.3272 21.7527 21.3555 21.7306 21.384 21.7088C21.4126 21.6871 21.4414 21.6657 21.4706 21.6446C21.4997 21.6236 21.529 21.6029 21.5586 21.5827C21.5883 21.5624 21.6181 21.5425 21.6483 21.523C21.6784 21.5035 21.7088 21.4844 21.7395 21.4656C21.7701 21.4469 21.8009 21.4285 21.832 21.4106C21.8631 21.3926 21.8944 21.3751 21.926 21.358C21.9575 21.3408 21.9893 21.3241 22.0213 21.3077C22.0533 21.2914 22.0854 21.2754 22.1178 21.2599C22.1502 21.2444 22.1827 21.2293 22.2155 21.2146C22.2483 21.1999 22.2812 21.1856 22.3144 21.1718C22.3475 21.158 22.3808 21.1445 22.4143 21.1315C22.4477 21.1186 22.4814 21.106 22.5151 21.0938C22.4812 21.0702 22.4475 21.0461 22.4142 21.0214C22.3809 20.9968 22.3481 20.9717 22.3155 20.9461C22.283 20.9205 22.2509 20.8944 22.2191 20.8678C22.1874 20.8412 22.1561 20.8141 22.1252 20.7866C22.0943 20.7591 22.0638 20.7311 22.0336 20.7026C22.0036 20.6742 21.9739 20.6453 21.9447 20.616C21.9155 20.5866 21.8867 20.5569 21.8584 20.5267C21.8301 20.4965 21.8022 20.4659 21.7748 20.4348C21.7474 20.4038 21.7205 20.3724 21.694 20.3405C21.6676 20.3087 21.6416 20.2765 21.6161 20.2438C21.5906 20.2112 21.5656 20.1782 21.5411 20.1448C21.5166 20.1115 21.4926 20.0777 21.4691 20.0437C21.4457 20.0095 21.4227 19.9751 21.4002 19.9403C21.3778 19.9055 21.3559 19.8704 21.3345 19.835C21.3131 19.7996 21.2922 19.7638 21.2719 19.7277C21.2516 19.6917 21.2318 19.6553 21.2126 19.6186C21.1933 19.5819 21.1746 19.545 21.1565 19.5078C21.1384 19.4706 21.1208 19.4331 21.1038 19.3954C21.0868 19.3576 21.0704 19.3196 21.0545 19.2813C21.0387 19.2431 21.0234 19.2046 21.0087 19.1659C20.994 19.1272 20.9799 19.0883 20.9664 19.0492C20.9528 19.0101 20.9399 18.9708 20.9275 18.9312C20.9152 18.8917 20.9034 18.8521 20.8922 18.8122C20.8811 18.7723 20.8705 18.7323 20.8606 18.6921C20.8506 18.6519 20.8412 18.6116 20.8325 18.5711C20.8238 18.5307 20.8156 18.49 20.8081 18.4494C20.8006 18.4086 20.7936 18.3678 20.7873 18.3269C20.781 18.286 20.7753 18.245 20.7703 18.2039C20.7652 18.1628 20.7607 18.1217 20.7569 18.0805C20.753 18.0392 20.7498 17.9979 20.7472 17.9566C20.7446 17.9153 20.7427 17.874 20.7413 17.8326C20.7399 17.7912 20.7392 17.7498 20.7391 17.7084C20.7391 15.4063 22.6454 13.5417 24.9985 13.5417L24.9995 13.5417Z"></path></g></g><defs><rect id="path_0" x="0" y="0" width="50" height="50" /></defs></svg>