<svg xmlns="http://www.w3.org/2000/svg" xmlns:xlink="http://www.w3.org/1999/xlink" width="16" height="16" viewBox="0 0 16 16" fill="none"><g opacity="1"  transform="translate(0 0)  rotate(0)"><mask id="bg-mask-0" fill="white"><use transform="translate(0 0)  rotate(0)" xlink:href="#path_0"></use></mask><g mask="url(#bg-mask-0)" ><path  id="路径 1" style="fill:#00BAAD; opacity:1;" d="M14 11L14 14C14 14.7364 13.403 15.3333 12.6667 15.3333L10.5 15.3333Q10.4343 15.3333 10.3699 15.3205Q10.3055 15.3077 10.2449 15.2826Q10.1842 15.2575 10.1296 15.221Q10.075 15.1845 10.0286 15.1381Q9.98216 15.0916 9.94569 15.037Q9.90921 14.9825 9.88408 14.9218Q9.85895 14.8611 9.84614 14.7967Q9.83333 14.7323 9.83333 14.6667Q9.83333 14.601 9.84614 14.5366Q9.85895 14.4722 9.88408 14.4115Q9.90921 14.3509 9.94569 14.2963Q9.98216 14.2417 10.0286 14.1953Q10.075 14.1488 10.1296 14.1124Q10.1842 14.0759 10.2449 14.0507Q10.3055 14.0256 10.3699 14.0128Q10.4343 14 10.5 14L12.6667 14C12.6667 14 12.6667 14 12.6667 14L12.6667 11Q12.6667 10.9343 12.6795 10.8699Q12.6923 10.8055 12.7174 10.7449Q12.7425 10.6842 12.779 10.6296Q12.8155 10.575 12.8619 10.5286Q12.9084 10.4822 12.963 10.4457Q13.0175 10.4092 13.0782 10.3841Q13.1389 10.359 13.2033 10.3461Q13.2677 10.3333 13.3333 10.3333Q13.399 10.3333 13.4634 10.3461Q13.5278 10.359 13.5885 10.3841Q13.6491 10.4092 13.7037 10.4457Q13.7583 10.4822 13.8047 10.5286Q13.8512 10.575 13.8876 10.6296Q13.9241 10.6842 13.9493 10.7449Q13.9744 10.8055 13.9872 10.8699Q14 10.9343 14 11Z"></path><path  id="路径 2" style="fill:#00BAAD; opacity:1;" d="M12.666 5.33325L12.666 1.99992C12.666 1.99992 12.666 1.99992 12.666 1.99992L3.33268 1.99992C3.33268 1.99992 3.33268 1.99992 3.33268 1.99992L3.33268 13.9999C3.33268 13.9999 3.33268 13.9999 3.33268 13.9999L5.33268 13.9999Q5.39834 13.9999 5.46274 14.0127Q5.52714 14.0255 5.5878 14.0507Q5.64847 14.0758 5.70306 14.1123Q5.75766 14.1488 5.80409 14.1952Q5.85052 14.2416 5.887 14.2962Q5.92347 14.3508 5.9486 14.4115Q5.97373 14.4721 5.98654 14.5365Q5.99935 14.6009 5.99935 14.6666Q5.99935 14.7322 5.98654 14.7966Q5.97373 14.861 5.9486 14.9217Q5.92347 14.9824 5.887 15.037Q5.85052 15.0916 5.80409 15.138Q5.75766 15.1844 5.70306 15.2209Q5.64847 15.2574 5.5878 15.2825Q5.52714 15.3076 5.46274 15.3204Q5.39834 15.3333 5.33268 15.3333L3.33268 15.3333C2.5963 15.3333 1.99935 14.7363 1.99935 13.9999L1.99935 1.99992C1.99935 1.26354 2.5963 0.666585 3.33268 0.666585L12.666 0.666585C13.4024 0.666585 13.9993 1.26354 13.9993 1.99992L13.9993 5.33325Q13.9993 5.39891 13.9865 5.46331Q13.9737 5.52771 13.9486 5.58837Q13.9235 5.64904 13.887 5.70363Q13.8505 5.75823 13.8041 5.80466Q13.7577 5.85109 13.7031 5.88756Q13.6485 5.92404 13.5878 5.94917Q13.5271 5.9743 13.4627 5.98711Q13.3983 5.99992 13.3327 5.99992Q13.267 5.99992 13.2026 5.98711Q13.1382 5.9743 13.0776 5.94917Q13.0169 5.92404 12.9623 5.88756Q12.9077 5.85109 12.8613 5.80466Q12.8148 5.75823 12.7784 5.70363Q12.7419 5.64904 12.7168 5.58837Q12.6916 5.52771 12.6788 5.46331Q12.666 5.39891 12.666 5.33325Z"></path><path  id="路径 3" style="fill:#00BAAD; opacity:1;" d="M5.33398 4.66659L10.0007 4.66659Q10.0663 4.66659 10.1307 4.6794Q10.1951 4.6922 10.2558 4.71733Q10.3164 4.74246 10.371 4.77894Q10.4256 4.81542 10.4721 4.86185Q10.5185 4.90828 10.555 4.96287Q10.5914 5.01747 10.6166 5.07813Q10.6417 5.13879 10.6545 5.20319Q10.6673 5.26759 10.6673 5.33325Q10.6673 5.39891 10.6545 5.46331Q10.6417 5.52771 10.6166 5.58837Q10.5914 5.64904 10.555 5.70363Q10.5185 5.75823 10.4721 5.80466Q10.4256 5.85108 10.371 5.88756Q10.3164 5.92404 10.2558 5.94917Q10.1951 5.9743 10.1307 5.98711Q10.0663 5.99992 10.0007 5.99992L5.33398 5.99992Q5.26832 5.99992 5.20392 5.98711Q5.13952 5.9743 5.07886 5.94917Q5.0182 5.92404 4.9636 5.88756Q4.90901 5.85108 4.86258 5.80466Q4.81615 5.75823 4.77967 5.70363Q4.74319 5.64904 4.71806 5.58837Q4.69294 5.52771 4.68013 5.46331Q4.66732 5.39891 4.66732 5.33325Q4.66732 5.26759 4.68013 5.20319Q4.69294 5.13879 4.71806 5.07813Q4.74319 5.01747 4.77967 4.96287Q4.81615 4.90828 4.86258 4.86185Q4.90901 4.81542 4.9636 4.77894Q5.0182 4.74246 5.07886 4.71733Q5.13952 4.6922 5.20392 4.67939Q5.26832 4.66659 5.33398 4.66659Z"></path><path  id="路径 4" style="fill:#00BAAD; opacity:1;" d="M7.14785 14.2473L12.8145 7.24728Q12.8558 7.19625 12.9063 7.15425Q12.9568 7.11226 13.0145 7.08092Q13.0722 7.04958 13.1349 7.0301Q13.1976 7.01062 13.2629 7.00374Q13.3282 6.99687 13.3936 7.00287Q13.459 7.00887 13.5219 7.0275Q13.5849 7.04614 13.643 7.07671Q13.7011 7.10727 13.7521 7.14858Q13.8032 7.1899 13.8452 7.24037Q13.8872 7.29085 13.9185 7.34855Q13.9499 7.40625 13.9693 7.46895Q13.9888 7.53166 13.9957 7.59696Q14.0026 7.66226 13.9966 7.72764Q13.9906 7.79303 13.9719 7.85599Q13.9533 7.91895 13.9227 7.97706Q13.8922 8.03518 13.8508 8.08621L8.18418 15.0862Q8.14286 15.1372 8.09239 15.1792Q8.04191 15.2212 7.98421 15.2526Q7.92651 15.2839 7.86381 15.3034Q7.80111 15.3229 7.73581 15.3298Q7.6705 15.3366 7.60512 15.3306Q7.53973 15.3246 7.47677 15.306Q7.41381 15.2874 7.3557 15.2568Q7.29758 15.2262 7.24655 15.1849Q7.19552 15.1436 7.15352 15.0931Q7.11153 15.0426 7.08019 14.9849Q7.04885 14.9272 7.02937 14.8645Q7.00989 14.8018 7.00301 14.7365Q6.99614 14.6712 7.00214 14.6058Q7.00813 14.5405 7.02677 14.4775Q7.04541 14.4145 7.07597 14.3564Q7.10654 14.2983 7.14785 14.2473Z"></path><path  id="路径 5" style="fill:#00BAAD; opacity:1;" d="M5.33398 7.33333L8.00065 7.33333Q8.06631 7.33333 8.13071 7.34614Q8.19511 7.35895 8.25577 7.38408Q8.31644 7.40921 8.37103 7.44569Q8.42563 7.48217 8.47206 7.52859Q8.51848 7.57502 8.55496 7.62962Q8.59144 7.68421 8.61657 7.74488Q8.6417 7.80554 8.65451 7.86994Q8.66732 7.93434 8.66732 8Q8.66732 8.06566 8.65451 8.13006Q8.6417 8.19446 8.61657 8.25512Q8.59144 8.31578 8.55496 8.37038Q8.51848 8.42498 8.47206 8.47141Q8.42563 8.51783 8.37103 8.55431Q8.31644 8.59079 8.25577 8.61592Q8.19511 8.64105 8.13071 8.65386Q8.06631 8.66667 8.00065 8.66667L5.33398 8.66667Q5.26832 8.66667 5.20392 8.65386Q5.13952 8.64105 5.07886 8.61592Q5.0182 8.59079 4.9636 8.55431Q4.90901 8.51783 4.86258 8.4714Q4.81615 8.42497 4.77967 8.37038Q4.74319 8.31578 4.71806 8.25512Q4.69294 8.19446 4.68013 8.13006Q4.66732 8.06566 4.66732 8Q4.66732 7.93434 4.68013 7.86994Q4.69294 7.80554 4.71806 7.74488Q4.74319 7.68421 4.77967 7.62962Q4.81615 7.57502 4.86258 7.52859Q4.90901 7.48217 4.9636 7.44569Q5.0182 7.40921 5.07886 7.38408Q5.13952 7.35895 5.20392 7.34614Q5.26832 7.33333 5.33398 7.33333Z"></path></g></g><defs><rect id="path_0" x="0" y="0" width="16" height="16" /></defs></svg>