<svg xmlns="http://www.w3.org/2000/svg" xmlns:xlink="http://www.w3.org/1999/xlink" width="50" height="50" viewBox="0 0 50 50" fill="none"><g opacity="1"  transform="translate(0 0)  rotate(0)"><mask id="bg-mask-0" fill="white"><use transform="translate(0 0)  rotate(0)" xlink:href="#path_0"></use></mask><g mask="url(#bg-mask-0)" ><path id="路径 1" fill-rule="evenodd" style="fill:#FFAD00" opacity="1" d="M38.541 25L42.7077 25L42.7077 41.6666C42.7077 41.7008 42.7069 41.7349 42.7052 41.7689C42.7035 41.8029 42.701 41.8369 42.6977 41.8708C42.6943 41.9048 42.6901 41.9386 42.6852 41.9724C42.6801 42.0061 42.6743 42.0396 42.6677 42.0731C42.661 42.1065 42.6535 42.1398 42.6453 42.1729C42.637 42.2059 42.6279 42.2388 42.618 42.2714C42.6081 42.3041 42.5974 42.3364 42.5859 42.3685C42.5744 42.4006 42.5622 42.4324 42.5491 42.4639C42.5361 42.4954 42.5222 42.5266 42.5077 42.5574C42.4931 42.5882 42.4778 42.6187 42.4617 42.6487C42.4456 42.6788 42.4288 42.7084 42.4113 42.7377C42.3938 42.7669 42.3755 42.7958 42.3566 42.8241C42.3376 42.8525 42.318 42.8803 42.2977 42.9077C42.2774 42.9351 42.2564 42.962 42.2348 42.9883C42.2132 43.0146 42.1909 43.0405 42.168 43.0658C42.1451 43.091 42.1216 43.1157 42.0975 43.1398C42.0734 43.1639 42.0487 43.1874 42.0234 43.2103C41.9982 43.2332 41.9724 43.2555 41.946 43.2771C41.9197 43.2987 41.8928 43.3197 41.8654 43.34C41.838 43.3603 41.8101 43.3799 41.7818 43.3989C41.7534 43.4178 41.7246 43.4361 41.6954 43.4536C41.6661 43.4711 41.6365 43.4879 41.6064 43.504C41.5764 43.5201 41.5459 43.5354 41.5151 43.5499C41.4843 43.5646 41.4531 43.5784 41.4216 43.5914C41.3901 43.6044 41.3583 43.6167 41.3262 43.6282C41.2941 43.6397 41.2617 43.6504 41.2291 43.6603C41.1965 43.6702 41.1636 43.6793 41.1306 43.6875C41.0975 43.6959 41.0642 43.7033 41.0308 43.71C40.9974 43.7167 40.9638 43.7225 40.93 43.7274C40.8963 43.7325 40.8625 43.7366 40.8286 43.74C40.7946 43.7433 40.7607 43.7458 40.7266 43.7475C40.6925 43.7492 40.6584 43.75 40.6244 43.75L38.541 43.75L38.541 25Z"></path><path id="路径 2" fill-rule="evenodd" style="fill:#FF7400" opacity="1" d="M11.4577 43.75C11.3895 43.75 11.3214 43.7483 11.2533 43.745C11.1851 43.7416 11.1172 43.7366 11.0493 43.7299C10.9814 43.7232 10.9138 43.7149 10.8463 43.7049C10.7789 43.6949 10.7117 43.6833 10.6448 43.6699C10.5779 43.6566 10.5114 43.6417 10.4453 43.6251C10.3791 43.6086 10.3134 43.5904 10.2482 43.5706C10.1829 43.5508 10.1182 43.5294 10.054 43.5064C9.98978 43.4834 9.92617 43.4589 9.86318 43.4328C9.8002 43.4067 9.73788 43.3791 9.67622 43.3499C9.61456 43.3208 9.55368 43.2901 9.49356 43.258C9.4334 43.2258 9.37409 43.1922 9.31563 43.1572C9.25713 43.1221 9.19953 43.0856 9.14282 43.0478C9.08612 43.0099 9.03039 42.9707 8.97563 42.93C8.92085 42.8894 8.8671 42.8475 8.8144 42.8042C8.76167 42.7609 8.71004 42.7164 8.65952 42.6706C8.609 42.6249 8.55963 42.5778 8.51143 42.5296C8.46322 42.4814 8.41621 42.432 8.37041 42.3815C8.32461 42.331 8.28008 42.2793 8.23682 42.2267C8.19355 42.1739 8.15161 42.1202 8.11099 42.0654C8.07036 42.0106 8.03112 41.9549 7.99326 41.8982C7.95537 41.8415 7.9189 41.7839 7.88384 41.7254C7.84878 41.6669 7.81517 41.6076 7.78301 41.5475C7.75088 41.4874 7.72023 41.4265 7.69106 41.3648C7.66193 41.3032 7.63431 41.2409 7.6082 41.1778C7.5821 41.1148 7.55757 41.0513 7.53462 40.9871C7.51164 40.9228 7.49025 40.8581 7.47046 40.7929C7.45067 40.7276 7.43249 40.6619 7.41592 40.5957C7.39935 40.5296 7.38441 40.4631 7.37109 40.3962C7.35778 40.3293 7.34613 40.2622 7.33613 40.1947C7.32614 40.1272 7.31779 40.0596 7.31108 39.9917C7.30441 39.9239 7.2994 39.8559 7.29605 39.7878C7.29269 39.7197 7.29102 39.6515 7.29102 39.5833L7.29102 10.4167C7.29102 10.3485 7.29269 10.2803 7.29605 10.2122C7.2994 10.1441 7.30441 10.0761 7.31108 10.0083C7.31779 9.94038 7.32614 9.87272 7.33613 9.80527C7.34613 9.73783 7.35778 9.67067 7.37109 9.60381C7.38441 9.53691 7.39935 9.4704 7.41592 9.40425C7.43249 9.3381 7.45067 9.2724 7.47046 9.20713C7.49025 9.14189 7.51164 9.07716 7.53462 9.01294C7.55757 8.94874 7.5821 8.88516 7.6082 8.82217C7.63431 8.75915 7.66193 8.69683 7.69106 8.63521C7.72023 8.57355 7.75088 8.51265 7.78301 8.45249C7.81517 8.39237 7.84878 8.33306 7.88384 8.27456C7.9189 8.21606 7.95537 8.15848 7.99326 8.10181C8.03112 8.0451 8.07036 7.98936 8.11099 7.93457C8.15161 7.87982 8.19355 7.82607 8.23682 7.77334C8.28008 7.72064 8.32461 7.66903 8.37041 7.61851C8.41621 7.56798 8.46322 7.51862 8.51143 7.47041C8.55963 7.42217 8.609 7.37515 8.65952 7.32935C8.71004 7.28358 8.76167 7.23906 8.8144 7.1958C8.8671 7.15254 8.92085 7.1106 8.97563 7.06997C9.03039 7.02935 9.08612 6.99009 9.14282 6.9522C9.19953 6.91431 9.25713 6.87783 9.31563 6.84277C9.37409 6.80775 9.4334 6.77416 9.49356 6.74199C9.55368 6.70986 9.61456 6.67922 9.67622 6.65005C9.73788 6.62088 9.8002 6.59326 9.86318 6.56719C9.92617 6.54108 9.98978 6.51654 10.054 6.49356C10.1182 6.47061 10.1829 6.44922 10.2482 6.42939C10.3134 6.4096 10.3791 6.39142 10.4453 6.37485C10.5114 6.35828 10.5779 6.34336 10.6448 6.33008C10.7117 6.31676 10.7789 6.30511 10.8463 6.29512C10.9138 6.28509 10.9814 6.27674 11.0493 6.27007C11.1172 6.2634 11.1851 6.25838 11.2533 6.25503C11.3214 6.25168 11.3895 6.25 11.4577 6.25L30.2077 6.25C30.3441 6.25 30.4804 6.25335 30.6166 6.26006C30.7528 6.26673 30.8888 6.27676 31.0245 6.29014C31.1602 6.30348 31.2956 6.32017 31.4305 6.34019C31.5654 6.36021 31.6997 6.38351 31.8334 6.41011C31.9672 6.43674 32.1002 6.46662 32.2325 6.49976C32.3648 6.53289 32.4962 6.56925 32.6268 6.60884C32.7573 6.64842 32.8867 6.69118 33.0151 6.73711C33.1435 6.78307 33.2707 6.83214 33.3967 6.88433C33.5228 6.93654 33.6474 6.9918 33.7707 7.0501C33.8939 7.1084 34.0157 7.16969 34.136 7.23398C34.2562 7.29828 34.3749 7.36548 34.4919 7.4356C34.6088 7.50571 34.724 7.57866 34.8374 7.65444C34.9509 7.73019 35.0624 7.80869 35.1719 7.88994C35.2814 7.97119 35.3889 8.05508 35.4943 8.1416C35.5997 8.22809 35.703 8.31714 35.804 8.40874C35.9051 8.50034 36.0038 8.59435 36.1002 8.69077C36.1967 8.78722 36.2907 8.88597 36.3823 8.98701C36.4739 9.08805 36.5629 9.19129 36.6495 9.29673C36.736 9.40213 36.8199 9.50962 36.9011 9.61919C36.9823 9.72873 37.0608 9.84019 37.1366 9.95356C37.2124 10.067 37.2853 10.1822 37.3554 10.2991C37.4255 10.4161 37.4927 10.5348 37.557 10.655C37.6213 10.7753 37.6826 10.8971 37.741 11.0204C37.7993 11.1437 37.8545 11.2683 37.9067 11.3943C37.9589 11.5203 38.008 11.6475 38.0539 11.7759C38.0999 11.9043 38.1426 12.0338 38.1822 12.1643C38.2218 12.2948 38.2582 12.4262 38.2913 12.5585C38.3245 12.6908 38.3543 12.8238 38.3809 12.9576C38.4075 13.0913 38.4308 13.2257 38.4508 13.3606C38.4708 13.4955 38.4875 13.6308 38.5009 13.7665C38.5143 13.9022 38.5243 14.0382 38.531 14.1744C38.5377 14.3106 38.541 14.447 38.541 14.5833L38.541 41.6666C38.541 41.7008 38.5418 41.7349 38.5436 41.7689C38.5452 41.8029 38.5477 41.8369 38.5511 41.8708C38.5544 41.9048 38.5585 41.9386 38.5636 41.9724C38.5686 42.0061 38.5744 42.0396 38.5811 42.0731C38.5877 42.1065 38.5952 42.1398 38.6035 42.1728C38.6117 42.2059 38.6208 42.2388 38.6307 42.2714C38.6406 42.3041 38.6513 42.3364 38.6628 42.3685C38.6743 42.4006 38.6866 42.4324 38.6996 42.4639C38.7126 42.4954 38.7265 42.5266 38.7411 42.5574C38.7557 42.5882 38.7709 42.6186 38.787 42.6487C38.8031 42.6788 38.8199 42.7084 38.8374 42.7377C38.855 42.7669 38.8732 42.7957 38.8921 42.8241C38.9111 42.8525 38.9307 42.8803 38.951 42.9077C38.9713 42.9351 38.9923 42.962 39.0139 42.9883C39.0355 43.0146 39.0578 43.0405 39.0807 43.0658C39.1036 43.091 39.1271 43.1157 39.1512 43.1398C39.1753 43.1639 39.2001 43.1874 39.2253 43.2103C39.2505 43.2332 39.2764 43.2555 39.3027 43.2771C39.3291 43.2987 39.3559 43.3197 39.3833 43.34C39.4107 43.3603 39.4386 43.3799 39.4669 43.3989C39.4953 43.4178 39.5241 43.4361 39.5533 43.4536C39.5826 43.4711 39.6122 43.4879 39.6423 43.504C39.6724 43.5201 39.7028 43.5354 39.7336 43.5499C39.7645 43.5645 39.7956 43.5784 39.8271 43.5914C39.8586 43.6044 39.8904 43.6167 39.9225 43.6282C39.9546 43.6397 39.987 43.6504 40.0196 43.6603C40.0522 43.6702 40.0851 43.6793 40.1182 43.6875C40.1512 43.6958 40.1845 43.7033 40.2179 43.71C40.2514 43.7166 40.285 43.7225 40.3187 43.7274C40.3524 43.7325 40.3862 43.7366 40.4202 43.74C40.4541 43.7433 40.4881 43.7458 40.5222 43.7475C40.5562 43.7492 40.5903 43.75 40.6244 43.75L11.4577 43.75Z"></path><path id="路径 3" fill-rule="evenodd" style="fill:#FFFFFF" opacity="0.95" d="M22.9174 17.7083C25.2695 17.7083 27.1768 19.5728 27.1768 21.8749C27.1767 21.9163 27.176 21.9577 27.1747 21.9991C27.1733 22.0404 27.1714 22.0818 27.1688 22.1231C27.1662 22.1644 27.163 22.2057 27.1592 22.2469C27.1554 22.2881 27.1509 22.3293 27.1458 22.3704C27.1408 22.4114 27.1352 22.4524 27.1289 22.4934C27.1226 22.5343 27.1157 22.5751 27.1082 22.6158C27.1006 22.6565 27.0925 22.6971 27.0838 22.7375C27.075 22.778 27.0657 22.8183 27.0558 22.8585C27.0458 22.8987 27.0353 22.9387 27.0241 22.9786C27.013 23.0185 27.0012 23.0582 26.9889 23.0977C26.9766 23.1372 26.9636 23.1765 26.9501 23.2156C26.9366 23.2547 26.9225 23.2937 26.9078 23.3324C26.8931 23.3711 26.8778 23.4096 26.862 23.4478C26.8461 23.486 26.8297 23.524 26.8127 23.5618C26.7958 23.5995 26.7782 23.637 26.7601 23.6742C26.742 23.7115 26.7233 23.7484 26.7041 23.7851C26.6849 23.8217 26.6651 23.8581 26.6448 23.8941C26.6245 23.9302 26.6036 23.966 26.5822 24.0014C26.5608 24.0369 26.5389 24.072 26.5165 24.1068C26.494 24.1416 26.4711 24.176 26.4476 24.2101C26.4241 24.2442 26.4001 24.2779 26.3756 24.3113C26.3511 24.3446 26.3262 24.3776 26.3007 24.4103C26.2752 24.4429 26.2492 24.4751 26.2228 24.507C26.1963 24.5388 26.1694 24.5703 26.142 24.6013C26.1146 24.6323 26.0868 24.6629 26.0584 24.6932C26.0301 24.7233 26.0014 24.7531 25.9722 24.7824C25.943 24.8118 25.9133 24.8407 25.8832 24.8691C25.8531 24.8976 25.8227 24.9255 25.7917 24.9531C25.7608 24.9806 25.7295 25.0076 25.6978 25.0342C25.666 25.0608 25.6339 25.0869 25.6014 25.1125C25.5689 25.1382 25.536 25.1633 25.5027 25.1879C25.4695 25.2126 25.4358 25.2367 25.4018 25.2603C25.4356 25.2725 25.4692 25.285 25.5027 25.298C25.5362 25.311 25.5695 25.3245 25.6026 25.3383C25.6357 25.3521 25.6687 25.3665 25.7014 25.3812C25.7342 25.3958 25.7668 25.4109 25.7991 25.4265C25.8315 25.442 25.8637 25.4579 25.8957 25.4743C25.9276 25.4906 25.9594 25.5074 25.9909 25.5245C26.0225 25.5417 26.0538 25.5592 26.0849 25.5771C26.116 25.5951 26.1468 25.6135 26.1774 25.6322C26.2081 25.6509 26.2385 25.6701 26.2686 25.6896C26.2987 25.7091 26.3286 25.729 26.3583 25.7493C26.3879 25.7695 26.4172 25.7902 26.4463 25.8112C26.4754 25.8323 26.5043 25.8537 26.5328 25.8754C26.5614 25.8972 26.5896 25.9193 26.6176 25.9418C26.6457 25.9643 26.6733 25.9871 26.7007 26.0103C26.7282 26.0335 26.7553 26.0571 26.782 26.081C26.8089 26.1048 26.8354 26.1291 26.8616 26.1536C26.8877 26.1782 26.9136 26.203 26.9392 26.2283C26.9647 26.2535 26.9899 26.2791 27.0148 26.3049C27.0397 26.3308 27.0644 26.3569 27.0886 26.3834C27.1128 26.41 27.1367 26.4367 27.1603 26.4638C27.1838 26.4909 27.207 26.5183 27.2298 26.546C27.2527 26.5737 27.2752 26.6017 27.2973 26.63C27.3195 26.6583 27.3413 26.6868 27.3626 26.7156C27.3841 26.7444 27.4051 26.7735 27.4257 26.8029C27.4464 26.8322 27.4667 26.8619 27.4866 26.8917C27.5065 26.9216 27.5261 26.9517 27.5452 26.9821C27.5644 27.0125 27.5831 27.0431 27.6015 27.0739C27.6198 27.1048 27.6378 27.1359 27.6553 27.1672C27.6729 27.1985 27.6901 27.23 27.7068 27.2618C27.7236 27.2936 27.74 27.3255 27.7559 27.3577C27.7719 27.3898 27.7874 27.4222 27.8025 27.4548C27.8176 27.4874 27.8324 27.5201 27.8466 27.553L29.1258 30.5322C29.129 30.5396 29.1319 30.5471 29.1347 30.5547C29.1375 30.5623 29.1402 30.5699 29.1426 30.5776C29.1451 30.5853 29.1474 30.593 29.1494 30.6008C29.1515 30.6086 29.1534 30.6165 29.1551 30.6243C29.1569 30.6322 29.1584 30.6401 29.1597 30.6481C29.1611 30.6561 29.1623 30.664 29.1632 30.6721C29.1642 30.6801 29.165 30.6881 29.1656 30.6961C29.1662 30.7042 29.1666 30.7123 29.1667 30.7203C29.167 30.7284 29.167 30.7365 29.1668 30.7445C29.1667 30.7526 29.1664 30.7606 29.1658 30.7687C29.1653 30.7768 29.1646 30.7848 29.1636 30.7928C29.1627 30.8008 29.1616 30.8088 29.1603 30.8168C29.159 30.8248 29.1575 30.8327 29.1559 30.8406C29.1542 30.8485 29.1523 30.8563 29.1503 30.8642C29.1482 30.872 29.146 30.8797 29.1437 30.8875C29.1413 30.8951 29.1387 30.9028 29.1359 30.9104C29.1332 30.9179 29.1302 30.9254 29.1271 30.9329C29.124 30.9404 29.1207 30.9478 29.1172 30.955C29.1138 30.9623 29.1102 30.9695 29.1063 30.9767C29.1025 30.9838 29.0986 30.9908 29.0945 30.9978C29.0904 31.0047 29.0861 31.0115 29.0816 31.0183C29.0771 31.025 29.0726 31.0316 29.0678 31.0381C29.063 31.0446 29.0582 31.051 29.0531 31.0573C29.048 31.0636 29.0428 31.0698 29.0375 31.0758C29.0321 31.0819 29.0266 31.0878 29.021 31.0936C29.0154 31.0994 29.0096 31.105 29.0037 31.1105C28.9979 31.1161 28.9918 31.1214 28.9856 31.1267C28.9795 31.1319 28.9732 31.137 28.9668 31.1419C28.9605 31.1468 28.954 31.1517 28.9474 31.1563C28.9408 31.1609 28.9341 31.1654 28.9272 31.1697C28.9204 31.174 28.9135 31.1782 28.9065 31.1822C28.8995 31.1862 28.8924 31.19 28.8852 31.1937C27.4779 31.9259 25.4893 32.2916 22.9174 32.2916C20.3466 32.2916 18.357 31.9259 16.9498 31.1937C16.9426 31.19 16.9355 31.1862 16.9284 31.1822C16.9214 31.1782 16.9145 31.174 16.9077 31.1697C16.9009 31.1654 16.8942 31.1609 16.8876 31.1563C16.881 31.1517 16.8745 31.1468 16.8681 31.1419C16.8617 31.137 16.8554 31.1319 16.8493 31.1267C16.8431 31.1214 16.8371 31.1161 16.8312 31.1105C16.8253 31.105 16.8196 31.0994 16.8139 31.0936C16.8083 31.0878 16.8028 31.0819 16.7975 31.0758C16.7921 31.0698 16.7869 31.0636 16.7818 31.0573C16.7768 31.051 16.7719 31.0446 16.7672 31.0381C16.7624 31.0316 16.7578 31.025 16.7533 31.0183C16.7489 31.0115 16.7446 31.0047 16.7404 30.9978C16.7363 30.9908 16.7324 30.9838 16.7286 30.9767C16.7248 30.9695 16.7211 30.9623 16.7177 30.955C16.7142 30.9478 16.711 30.9404 16.7078 30.9329C16.7047 30.9254 16.7018 30.9179 16.699 30.9104C16.6963 30.9028 16.6937 30.8951 16.6913 30.8875C16.6889 30.8797 16.6867 30.872 16.6846 30.8642C16.6826 30.8563 16.6807 30.8485 16.6791 30.8406C16.6774 30.8327 16.6759 30.8248 16.6746 30.8168C16.6733 30.8088 16.6722 30.8008 16.6713 30.7928C16.6704 30.7848 16.6697 30.7768 16.6691 30.7687C16.6686 30.7606 16.6682 30.7526 16.6681 30.7445C16.6679 30.7365 16.6679 30.7284 16.6681 30.7203C16.6684 30.7123 16.6688 30.7042 16.6693 30.6961C16.6699 30.6881 16.6707 30.6801 16.6717 30.6721C16.6727 30.664 16.6738 30.6561 16.6752 30.6481C16.6765 30.6401 16.6781 30.6322 16.6798 30.6243C16.6815 30.6165 16.6834 30.6086 16.6855 30.6008C16.6876 30.593 16.6899 30.5853 16.6923 30.5776C16.6947 30.5699 16.6974 30.5623 16.7002 30.5547C16.703 30.5471 16.706 30.5396 16.7091 30.5322L17.9883 27.553C18.0026 27.5201 18.0173 27.4873 18.0324 27.4547C18.0475 27.4222 18.063 27.3898 18.079 27.3577C18.0949 27.3255 18.1113 27.2935 18.128 27.2618C18.1448 27.23 18.1619 27.1984 18.1795 27.1671C18.1971 27.1358 18.215 27.1047 18.2334 27.0739C18.2517 27.043 18.2705 27.0124 18.2896 26.982C18.3088 26.9517 18.3283 26.9215 18.3482 26.8917C18.3681 26.8618 18.3884 26.8321 18.409 26.8028C18.4297 26.7734 18.4508 26.7443 18.4722 26.7155C18.4936 26.6867 18.5153 26.6581 18.5375 26.6298C18.5596 26.6016 18.5821 26.5736 18.6049 26.5459C18.6278 26.5182 18.651 26.4908 18.6746 26.4637C18.6981 26.4366 18.722 26.4098 18.7462 26.3833C18.7705 26.3568 18.795 26.3306 18.8199 26.3048C18.8448 26.2789 18.8701 26.2534 18.8956 26.2281C18.9212 26.2029 18.9471 26.178 18.9733 26.1535C18.9994 26.1289 19.0259 26.1047 19.0527 26.0808C19.0795 26.0569 19.1066 26.0334 19.134 26.0102C19.1615 25.987 19.1892 25.9642 19.2172 25.9417C19.2451 25.9192 19.2734 25.8971 19.302 25.8753C19.3306 25.8535 19.3594 25.8321 19.3885 25.8111C19.4176 25.7901 19.447 25.7694 19.4766 25.7492C19.5062 25.7289 19.5361 25.709 19.5662 25.6895C19.5964 25.67 19.6268 25.6508 19.6574 25.6321C19.688 25.6134 19.7189 25.595 19.75 25.5771C19.7811 25.5591 19.8124 25.5416 19.844 25.5244C19.8755 25.5073 19.9073 25.4905 19.9392 25.4742C19.9712 25.4578 20.0034 25.4419 20.0358 25.4264C20.0681 25.4109 20.1007 25.3958 20.1335 25.3811C20.1662 25.3664 20.1992 25.3521 20.2323 25.3383C20.2654 25.3245 20.2987 25.311 20.3322 25.298C20.3657 25.285 20.3993 25.2725 20.4331 25.2603C20.3991 25.2367 20.3655 25.2126 20.3322 25.1879C20.2989 25.1633 20.266 25.1382 20.2335 25.1125C20.201 25.0869 20.1689 25.0608 20.1371 25.0342C20.1054 25.0076 20.0741 24.9806 20.0431 24.9531C20.0122 24.9255 19.9817 24.8976 19.9516 24.8691C19.9215 24.8407 19.8919 24.8118 19.8627 24.7824C19.8335 24.7531 19.8047 24.7233 19.7764 24.6932C19.7481 24.6629 19.7202 24.6323 19.6928 24.6013C19.6654 24.5703 19.6384 24.5388 19.612 24.507C19.5855 24.4751 19.5595 24.4429 19.534 24.4103C19.5086 24.3777 19.4836 24.3447 19.4591 24.3113C19.4346 24.2779 19.4106 24.2442 19.3871 24.2101C19.3636 24.176 19.3406 24.1416 19.3182 24.1068C19.2958 24.072 19.2738 24.0369 19.2524 24.0015C19.231 23.966 19.2102 23.9303 19.1898 23.8942C19.1695 23.8581 19.1497 23.8218 19.1305 23.7851C19.1112 23.7484 19.0926 23.7115 19.0745 23.6743C19.0563 23.6371 19.0388 23.5996 19.0218 23.5618C19.0048 23.5241 18.9883 23.4861 18.9725 23.4479C18.9566 23.4096 18.9414 23.3711 18.9267 23.3324C18.912 23.2937 18.8978 23.2548 18.8843 23.2157C18.8707 23.1766 18.8578 23.1372 18.8455 23.0977C18.8331 23.0582 18.8213 23.0185 18.8102 22.9787C18.799 22.9388 18.7885 22.8987 18.7785 22.8585C18.7686 22.8184 18.7592 22.7781 18.7505 22.7376C18.7417 22.6971 18.7336 22.6565 18.726 22.6158C18.7185 22.5751 18.7116 22.5343 18.7053 22.4934C18.699 22.4525 18.6933 22.4115 18.6882 22.3704C18.6831 22.3293 18.6787 22.2881 18.6748 22.2469C18.671 22.2057 18.6678 22.1644 18.6652 22.1231C18.6626 22.0818 18.6606 22.0404 18.6592 21.9991C18.6579 21.9577 18.6571 21.9163 18.657 21.8749C18.657 19.5728 20.5633 17.7083 22.9164 17.7083L22.9174 17.7083ZM25.0112 27.3843C25.0008 27.3764 24.9903 27.3688 24.9795 27.3614C24.9688 27.354 24.958 27.3468 24.947 27.3398C24.936 27.3328 24.9249 27.326 24.9136 27.3195C24.9023 27.3129 24.8909 27.3066 24.8794 27.3005C24.8679 27.2945 24.8563 27.2886 24.8445 27.283C24.8328 27.2774 24.8209 27.272 24.8089 27.2669C24.7969 27.2618 24.7849 27.2568 24.7727 27.2522C24.7605 27.2475 24.7483 27.2431 24.7359 27.2389C24.7236 27.2348 24.7112 27.2309 24.6987 27.2272C24.6862 27.2235 24.6736 27.2201 24.661 27.2169C24.6483 27.2138 24.6356 27.2108 24.6229 27.2082C24.6102 27.2055 24.5974 27.2031 24.5845 27.201C24.5716 27.1988 24.5587 27.1969 24.5458 27.1953C24.5329 27.1937 24.5199 27.1923 24.5069 27.1912C24.494 27.1901 24.481 27.1893 24.468 27.1886C24.455 27.188 24.4419 27.1877 24.4289 27.1876C24.4159 27.1876 24.4029 27.1878 24.3898 27.1882C24.3769 27.1887 24.3638 27.1894 24.3508 27.1904C24.3378 27.1914 24.3249 27.1926 24.3119 27.194C24.299 27.1956 24.2861 27.1973 24.2732 27.1993C24.2604 27.2013 24.2475 27.2036 24.2347 27.2061C24.2219 27.2086 24.2092 27.2114 24.1965 27.2145C24.1839 27.2175 24.1713 27.2208 24.1587 27.2243C24.1462 27.2278 24.1337 27.2316 24.1213 27.2356C24.1089 27.2397 24.0966 27.2439 24.0844 27.2485C24.0722 27.253 24.0601 27.2578 24.0481 27.2628C24.0361 27.2678 24.0241 27.273 24.0123 27.2786C24.0005 27.284 23.9888 27.2897 23.9772 27.2957C23.9657 27.3017 23.9542 27.3079 23.9428 27.3143C23.9315 27.3207 23.9203 27.3273 23.9092 27.3342C23.8982 27.3411 23.8873 27.3482 23.8765 27.3555C23.8657 27.3628 23.855 27.3703 23.8445 27.378L23.7456 27.4614L22.9174 28.2718L22.0893 27.4624L21.9987 27.3843C21.9873 27.3756 21.9756 27.3672 21.9637 27.3591C21.9519 27.3509 21.9399 27.3431 21.9277 27.3354C21.9155 27.3278 21.9031 27.3205 21.8906 27.3134C21.8781 27.3064 21.8654 27.2996 21.8526 27.2931C21.8398 27.2866 21.8269 27.2804 21.8138 27.2745C21.8007 27.2686 21.7875 27.2629 21.7741 27.2576C21.7608 27.2522 21.7473 27.2472 21.7337 27.2424C21.7202 27.2377 21.7065 27.2333 21.6927 27.2291C21.679 27.225 21.6652 27.2211 21.6512 27.2176C21.6373 27.2141 21.6233 27.2108 21.6092 27.2079C21.5951 27.205 21.581 27.2024 21.5668 27.2001C21.5526 27.1979 21.5384 27.1959 21.5241 27.1942C21.5098 27.1926 21.4955 27.1913 21.4812 27.1902C21.4669 27.1892 21.4525 27.1885 21.4381 27.1881C21.4238 27.1877 21.4094 27.1876 21.395 27.1879C21.3807 27.1881 21.3663 27.1887 21.352 27.1896C21.3376 27.1905 21.3233 27.1917 21.309 27.1932C21.2948 27.1947 21.2805 27.1966 21.2663 27.1987C21.2521 27.2009 21.2379 27.2033 21.2238 27.2061C21.2097 27.2089 21.1957 27.212 21.1817 27.2154C21.1677 27.2188 21.1539 27.2225 21.1401 27.2265C21.1262 27.2305 21.1125 27.2348 21.0989 27.2395C21.0853 27.2441 21.0718 27.249 21.0585 27.2542C21.0451 27.2594 21.0318 27.2649 21.0187 27.2708C21.0055 27.2766 20.9925 27.2826 20.9796 27.289C20.9667 27.2954 20.954 27.3021 20.9414 27.309C20.9289 27.316 20.9164 27.3232 20.9042 27.3307C20.8919 27.3381 20.8798 27.3459 20.8679 27.354C20.856 27.362 20.8442 27.3703 20.8327 27.3788C20.8211 27.3874 20.8098 27.3962 20.7986 27.4052C20.7874 27.4143 20.7765 27.4236 20.7657 27.4331C20.755 27.4426 20.7445 27.4524 20.7341 27.4624C20.7241 27.4722 20.7142 27.4822 20.7045 27.4924C20.6949 27.5026 20.6855 27.5131 20.6763 27.5238C20.6672 27.5344 20.6583 27.5453 20.6496 27.5563C20.6409 27.5674 20.6325 27.5787 20.6244 27.5901C20.6162 27.6016 20.6084 27.6132 20.6007 27.625C20.5931 27.6369 20.5858 27.6488 20.5787 27.661C20.5716 27.6731 20.5648 27.6854 20.5583 27.6979C20.5518 27.7104 20.5456 27.7229 20.5397 27.7357C20.5337 27.7484 20.5281 27.7613 20.5228 27.7743C20.5174 27.7873 20.5124 27.8004 20.5076 27.8137C20.5029 27.8269 20.4984 27.8402 20.4943 27.8537C20.4902 27.8671 20.4863 27.8806 20.4828 27.8942C20.4793 27.9079 20.4761 27.9215 20.4732 27.9353C20.4703 27.949 20.4677 27.9628 20.4655 27.9767C20.4632 27.9906 20.4613 28.0045 20.4596 28.0185C20.458 28.0324 20.4567 28.0464 20.4557 28.0604C20.4548 28.0745 20.4541 28.0885 20.4537 28.1025C20.4534 28.1166 20.4534 28.1307 20.4537 28.1447C20.454 28.1588 20.4546 28.1728 20.4555 28.1868C20.4564 28.2008 20.4577 28.2148 20.4593 28.2288C20.4609 28.2428 20.4627 28.2567 20.465 28.2706C20.4672 28.2845 20.4697 28.2983 20.4726 28.3121C20.4754 28.3258 20.4786 28.3395 20.482 28.3531C20.4855 28.3667 20.4893 28.3803 20.4934 28.3937C20.4975 28.4072 20.5019 28.4206 20.5066 28.4338C20.5113 28.447 20.5163 28.4602 20.5215 28.4732C20.5269 28.4862 20.5325 28.4991 20.5383 28.5119C20.5442 28.5246 20.5504 28.5373 20.5569 28.5497C20.5633 28.5622 20.5701 28.5746 20.5771 28.5867C20.5841 28.5989 20.5914 28.6109 20.599 28.6227C20.6066 28.6346 20.6145 28.6462 20.6226 28.6577C20.6307 28.6692 20.639 28.6805 20.6477 28.6916L20.7341 28.7874L22.2393 30.2614L22.3299 30.3384C22.6716 30.5989 23.1529 30.6009 23.4966 30.3458L23.5956 30.2614L25.1008 28.7874L25.181 28.6999C25.189 28.6899 25.1968 28.6797 25.2043 28.6693C25.2119 28.659 25.2193 28.6485 25.2264 28.6378C25.2335 28.6271 25.2405 28.6164 25.2471 28.6054C25.2538 28.5944 25.2603 28.5834 25.2665 28.5722C25.2727 28.5609 25.2787 28.5496 25.2844 28.5381C25.2902 28.5267 25.2957 28.515 25.3009 28.5034C25.3062 28.4917 25.3112 28.4799 25.316 28.468C25.3208 28.4561 25.3253 28.444 25.3295 28.432C25.3338 28.4199 25.3378 28.4077 25.3416 28.3955C25.3454 28.3832 25.3489 28.3708 25.3521 28.3584C25.3554 28.346 25.3583 28.3335 25.3611 28.321C25.3638 28.3084 25.3663 28.2959 25.3685 28.2833C25.3707 28.2706 25.3726 28.258 25.3743 28.2452C25.3759 28.2325 25.3773 28.2198 25.3785 28.207C25.3796 28.1942 25.3805 28.1814 25.3811 28.1686C25.3817 28.1558 25.382 28.143 25.3821 28.1302C25.3822 28.1173 25.382 28.1045 25.3815 28.0917C25.3811 28.0789 25.3803 28.0661 25.3793 28.0533C25.3783 28.0405 25.3771 28.0277 25.3755 28.015C25.374 28.0022 25.3722 27.9896 25.3701 27.9769C25.3681 27.9643 25.3658 27.9516 25.3632 27.9391C25.3606 27.9265 25.3577 27.914 25.3546 27.9016C25.3515 27.8891 25.3481 27.8768 25.3445 27.8645C25.3409 27.8521 25.337 27.8399 25.3329 27.8278C25.3288 27.8156 25.3244 27.8036 25.3197 27.7916C25.3151 27.7796 25.3102 27.7678 25.305 27.7561C25.2999 27.7443 25.2945 27.7327 25.2889 27.7211C25.2833 27.7096 25.2774 27.6982 25.2713 27.6869C25.2652 27.6756 25.2589 27.6645 25.2523 27.6535C25.2458 27.6424 25.239 27.6315 25.232 27.6208C25.225 27.6101 25.2177 27.5995 25.2103 27.5891C25.2028 27.5786 25.1952 27.5684 25.1873 27.5583L25.1008 27.4624L25.0102 27.3843L25.0112 27.3843Z"></path></g></g><defs><rect id="path_0" x="0" y="0" width="50" height="50" /></defs></svg>