<svg xmlns="http://www.w3.org/2000/svg" xmlns:xlink="http://www.w3.org/1999/xlink" width="44" height="44" viewBox="0 0 44 44" fill="none"><g opacity="1"  transform="translate(0 0)  rotate(0)"><g opacity="1"  transform="translate(0 1)  rotate(0)"><mask id="bg-mask-0" fill="white"><use transform="translate(0 0)  rotate(0)" xlink:href="#path_0"></use></mask><g mask="url(#bg-mask-0)" ><path id="路径 1" fill-rule="evenodd" style="fill:#1957E6" opacity="1" d="M38.02,17.6822h-1.29h-33.37v17.61c0,1.83 1.5,3.31 3.35,3.31c0,0 12.97,-0.09 13.48,0.08c0.02,0 0.04,0.01 0.05,0.02c0.8,0.14 1.4,0.82 1.4,1.64c0,0.16 -0.03,0.33 -0.08,0.48c-0.27,0.88 -1.2,1.37 -2.09,1.1h-12.76c-3.71,0 -6.71,-2.97 -6.71,-6.63v-25.42c0,-3.66 3,-6.63 6.71,-6.63h1.51v-1.58c0,-0.92 0.76,-1.66 1.68,-1.66c0.92,0 1.68,0.74 1.68,1.66v1.58h15.65v-1.58c0,-0.92 0.75,-1.66 1.67,-1.66c0.93,0 1.68,0.74 1.68,1.66v1.58h0.73c3.7,0 6.71,2.97 6.71,6.63zM3.36,9.8722v4.5h31.3v-4.5c0,-1.83 -1.5,-3.31 -3.36,-3.31h-0.72v2.83c0,0.92 -0.75,1.66 -1.68,1.66c-0.92,0 -1.67,-0.74 -1.67,-1.66v-2.83h-15.66v2.83c0,0.92 -0.75,1.66 -1.67,1.66c-0.01,0 -0.01,0 -0.01,0c-0.92,0 -1.67,-0.74 -1.67,-1.66v-2.83h-1.51c-1.85,0 -3.35,1.48 -3.35,3.31z"></path><path id="路径 2" fill-rule="evenodd" style="fill:#1957E6" opacity="1" d="M32.8174,19.8939c6.18,0 11.18,4.95 11.18,11.05c0,6.11 -5,11.06 -11.18,11.06c-6.17,0 -11.18,-4.96 -11.18,-11.06c0,-6.1 5.01,-11.05 11.18,-11.05zM40.6474,30.9439c0,-4.26 -3.51,-7.73 -7.83,-7.73c-4.32,0 -7.83,3.46 -7.83,7.73c0,4.27 3.52,7.74 7.83,7.74c4.32,0 7.83,-3.48 7.83,-7.74z"></path><path id="路径 3" fill-rule="evenodd" style="fill:#1957E6" opacity="1" d="M36.1705,32.0495c0.62,0 1.12,0.5 1.12,1.11c0,0.61 -0.5,1.1 -1.12,1.1h-4.47c-0.62,0 -1.12,-0.49 -1.12,-1.1v-4.43c0,-0.61 0.5,-1.1 1.12,-1.1c0.62,0 1.12,0.5 1.12,1.1v3.32zM14.9305,22.0995zM8.22049,22.0995h6.71001v0c0.61,0 1.11,0.5 1.11,1.11c0,0.61 -0.5,1.1 -1.11,1.1h-6.71001c-0.62,0 -1.12,-0.49 -1.12,-1.1c0,-0.61 0.5,-1.11 1.12,-1.11zM14.9305,29.8395c0.61,0 1.11,0.5 1.11,1.11c0,0.61 -0.5,1.1 -1.11,1.1h-6.71001c-0.62,0 -1.12,-0.49 -1.12,-1.1c0,-0.61 0.5,-1.11 1.12,-1.11z"></path></g></g></g><defs><rect id="path_0" x="0" y="0" width="44.00000000000013" height="42" /></defs></svg>