<svg xmlns="http://www.w3.org/2000/svg" xmlns:xlink="http://www.w3.org/1999/xlink" width="44" height="44" viewBox="0 0 44 44" fill="none"><g opacity="1"  transform="translate(0 0)  rotate(0)"><g opacity="1"  transform="translate(1 0)  rotate(0)"><mask id="bg-mask-0" fill="white"><use transform="translate(0 0)  rotate(0)" xlink:href="#path_0"></use></mask><g mask="url(#bg-mask-0)" ><path id="路径 1" fill-rule="evenodd" style="fill:#1957E6" opacity="1" d="M41.9354,39.7962c0.11,0.21 0.09,0.47 -0.05,0.65c-0.13,0.18 -0.37,0.27 -0.59,0.22l-4.07,-0.95l-1.41,3.88c-0.08,0.23 -0.28,0.38 -0.52,0.4h-0.05c-0.22,0 -0.42,-0.11 -0.53,-0.31l-4.12,-7.61c-0.69,0.07 -1.11,0.06 -1.84,-0.02l-4.1,7.59c-0.1,0.2 -0.31,0.32 -0.54,0.31h-0.05c-0.24,-0.03 -0.43,-0.18 -0.5,-0.4l-1.39,-3.89l-4.08,0.92c-0.22,0.04 -0.45,-0.04 -0.6,-0.22c-0.14,-0.19 -0.16,-0.45 -0.05,-0.66l4.67,-8.45l-0.04,-0.09c-0.49,-1.09 -0.74,-2.26 -0.74,-3.45c0.02,-4.63 3.77,-8.37 8.39,-8.37h0.04c4.65,0.02 8.38,3.79 8.36,8.43c0,1.23 -0.28,2.36 -0.77,3.46zM26.2254,35.1662c-1.02,-0.57 -1.69,-0.96 -2.51,-1.8l-2.39,4.29l1.86,-0.42c0.1,-0.02 0.2,0.03 0.23,0.13l0.63,1.77zM29.6954,33.3862c3.13,0.01 5.67,-2.52 5.67,-5.65c0.02,-3.13 -2.5,-5.68 -5.63,-5.69h-0.02c-3.12,0 -5.65,2.53 -5.66,5.64c-0.01,3.13 2.52,5.69 5.64,5.7zM38.4854,38.3162l-2.73,-4.96c-0.96,0.96 -1.74,1.42 -2.92,2.08l2.5,4.59l0.72,-2.02c0.04,-0.12 0.18,-0.2 0.32,-0.17z"></path><path id="路径 2" fill-rule="evenodd" style="fill:#1957E6" opacity="1" d="M15.99 39.66C15.99 38.84 15.39 38.17 14.61 38.04L14.61 38.02L6.76 38.02C6.65 38.02 6.52 38.03 6.42 38.06L3.19 38.07L3.29 3.32L35.39 3.23L35.46 11.43L35.46 19.24C35.46 20.1 36.16 20.8 37.03 20.8C37.89 20.8 38.6 20.09 38.6 19.23L38.6 3.07C38.6 1.37 37.27 0 35.65 0L2.94 0C1.32 0 0 1.38 0 3.07L0 38.22C0 39.92 1.33 41.29 2.94 41.29L14.61 41.29L14.61 41.27C15.38 41.15 15.98 40.47 15.98 39.66L15.99 39.66Z"></path><path id="路径 3" fill-rule="evenodd" style="fill:#1957E6" opacity="1" d="M30.032,11.5174h-21.33996c-0.94,0 -1.72,-0.78 -1.72,-1.72004c0,-0.94 0.78,-1.72 1.72,-1.72h21.33996c0.95,0 1.72,0.78 1.72,1.72c0,0.94004 -0.77,1.72004 -1.72,1.72004zM19.152,17.0974c0.94,0 1.72,0.78 1.72,1.72c0,0.95 -0.78,1.72 -1.72,1.72h-10.48996c-0.95,0 -1.72,-0.77 -1.72,-1.72c0,-0.94 0.78,-1.72 1.72,-1.72zM16.052,29.5874h-7.41996c-0.95,0 -1.72,-0.78 -1.72,-1.72c0,-0.94 0.78,-1.72 1.72,-1.72h7.40996c0.95,0 1.72,0.78 1.72,1.72c0.01,0.95 -0.76,1.72 -1.71,1.72z"></path></g></g></g><defs><rect id="path_0" x="0" y="0" width="42.00374298190885" height="44" /></defs></svg>