<svg xmlns="http://www.w3.org/2000/svg" xmlns:xlink="http://www.w3.org/1999/xlink" width="44" height="44" viewBox="0 0 44 44" fill="none"><g opacity="1"  transform="translate(0 0)  rotate(0)"><g opacity="1"  transform="translate(2 0)  rotate(0)"><mask id="bg-mask-0" fill="white"><use transform="translate(0 0)  rotate(0)" xlink:href="#path_0"></use></mask><g mask="url(#bg-mask-0)" ><path id="路径 1" fill-rule="evenodd" style="fill:#1957E6" opacity="1" d="M8.25,8.29h22v2.76h-22zM8.18,13.82h22v2.75h-22zM2.75,2.75v38.5h19.25v2.75h-19.25c-1.52,0 -2.75,-1.23 -2.75,-2.75v-38.5c0,-1.52 1.23,-2.75 2.75,-2.75h33c1.52,0 2.75,1.23 2.75,2.75v22h-2.75v-22zM8.23,24.82h7.09c-0.26,0.87 -0.4,1.8 -0.4,2.75h-6.69zM19.48,19.32v0c-1.16,0.7 -2.17,1.64 -2.94,2.75h-8.36v-2.75zM40.3,41.45c0.54,0.54 0.54,1.41 0,1.95c-0.54,0.54 -1.41,0.54 -1.95,0l-6.44,-6.36c-1.5,0.97 -3.29,1.53 -5.22,1.53c-5.31,0 -9.62,-4.3 -9.62,-9.62c0,-5.32 4.31,-9.63 9.62,-9.63c5.32,0 9.63,4.31 9.63,9.63c0,2.4 -0.88,4.59 -2.33,6.27zM26.7,35.82c3.79,0 6.87,-3.07 6.87,-6.87c0,-3.8 -3.08,-6.88 -6.87,-6.88c-3.8,0 -6.88,3.08 -6.88,6.88c0,3.8 3.08,6.87 6.88,6.87z"></path></g></g></g><defs><rect id="path_0" x="0" y="0" width="40.701097196054754" height="44.00000000000002" /></defs></svg>