<svg xmlns="http://www.w3.org/2000/svg" xmlns:xlink="http://www.w3.org/1999/xlink" width="44" height="44" viewBox="0 0 44 44" fill="none"><g opacity="1"  transform="translate(0 0)  rotate(0)"><g opacity="1"  transform="translate(3 0)  rotate(0)"><mask id="bg-mask-0" fill="white"><use transform="translate(0 0)  rotate(0)" xlink:href="#path_0"></use></mask><g mask="url(#bg-mask-0)" ><path id="路径 1" fill-rule="evenodd" style="fill:#1957E6" opacity="1" d="M25.7012,29.9288l1.16,1.61l3.21,-4.43c0.07,-0.1 0.2,-0.16 0.33,-0.16h2.24c0.32,0 0.52,0.37 0.32,0.64l-5.77,7.97c-0.16,0.22 -0.48,0.22 -0.65,0l-3.73,-5.15c-0.19,-0.27 0,-0.64 0.33,-0.64h2.24c0.13,0 0.25,0.06 0.32,0.16zM27.8912,11.6088c0,0.22 -0.18,0.4 -0.4,0.4h-19.40996c-0.22,0 -0.4,-0.18 -0.4,-0.4v-2.42999c0,-0.22 0.18,-0.4 0.4,-0.4h19.40996c0.22,0 0.4,0.18 0.4,0.4zM8.08124,16.0488h9.29996c0.22,0 0.41,0.18 0.41,0.4v2.42c0,0.23 -0.19,0.41 -0.41,0.41h-9.29996c-0.22,0 -0.4,-0.18 -0.4,-0.41v-2.42c0,-0.22 0.18,-0.4 0.4,-0.4z"></path><path id="路径 2" fill-rule="evenodd" style="fill:#1957E6" opacity="1" d="M3.64 39.16L3.64 3.63L31.94 3.63L31.94 18.57C31.94 18.79 32.12 18.97 32.34 18.97L35.17 18.97C35.39 18.97 35.57 18.79 35.57 18.57L35.57 1.61C35.57 0.72 34.85 0 33.96 0L1.62 0C0.72 0 0 0.72 0 1.61L0 41.17C0 42.07 0.72 42.79 1.62 42.79L17.38 42.79C17.61 42.79 17.79 42.61 17.79 42.39L17.79 39.56C17.79 39.34 17.61 39.16 17.38 39.16L3.64 39.16Z"></path><path id="路径 3" fill-rule="evenodd" style="fill:#1957E6" opacity="1" d="M37.7266,22.9731v0c0.16,0.05 0.28,0.2 0.28,0.37v12.67c0,0.13 -0.07,0.25 -0.16,0.32l-9.7,7.58c-0.08,0.06 -0.17,0.09 -0.25,0.09c-0.09,0 -0.18,-0.03 -0.25,-0.09l-9.7,-7.58c-0.11,-0.07 -0.16,-0.19 -0.16,-0.32v-12.67c0,-0.17 0.11,-0.32 0.27,-0.37l9.7,-3.37c0.04,-0.01 0.09,-0.02 0.14,-0.02c0.04,0 0.08,0.01 0.13,0.02zM34.8666,25.2831l-6.97,-2.42l-6.97,2.42v9.42l6.97,5.44l6.97,-5.44z"></path></g></g></g><defs><rect id="path_0" x="0" y="0" width="38" height="44" /></defs></svg>