<svg xmlns="http://www.w3.org/2000/svg" xmlns:xlink="http://www.w3.org/1999/xlink" width="44" height="44" viewBox="0 0 44 44" fill="none"><g opacity="1"  transform="translate(0 0)  rotate(0)"><mask id="bg-mask-0" fill="white"><use transform="translate(0 0)  rotate(NaN)" xlink:href="#path_0"></use></mask><g mask="url(#bg-mask-0)" ><path id="路径 1" fill-rule="evenodd" style="fill:#1957E6" opacity="1" d="M22 43C33.6 43 43 33.6 43 22C43 17.34 41.48 12.9 38.71 9.27C38.4 8.87 37.83 8.79 37.43 9.1C37.02 9.41 36.95 9.98 37.25 10.38C39.8 13.72 41.18 17.8 41.17 22C41.17 32.59 32.59 41.18 22 41.18C11.41 41.18 2.83 32.59 2.83 22C2.83 11.41 11.41 2.83 22 2.83C25.57 2.83 28.99 3.8 31.98 5.62C32.41 5.88 32.97 5.75 33.23 5.32C33.49 4.89 33.36 4.32 32.93 4.06C29.63 2.05 25.85 0.99 22 1C10.4 1 1 10.4 1 22C1 33.6 10.4 43 22 43Z"></path><path  id="路径 1" style="fill:#1957E6; opacity:1;" d="M22,42.6c11.3771,0 20.6,-9.2229 20.6,-20.6c0,-4.64867 -1.40267,-8.81112 -4.208,-12.48735c-0.1699,-0.21921 -0.4954,-0.26821 -0.717,-0.09648c-0.2756,0.20841 -0.3106,0.44969 -0.105,0.72383c2.5991,3.4043 4.0102,7.5744 4,11.8609c0,10.8073 -8.7618,19.5791 -19.57,19.5791c-10.8137,0 -19.57,-8.7663 -19.57,-19.58c0,-10.8082 8.7618,-19.57 19.57,-19.57c3.5922,0 7.1196,0.98059 10.188,2.84832c0.2369,0.14327 0.5558,0.07267 0.6997,-0.16529c0.1454,-0.2404 0.0757,-0.56538 -0.1647,-0.71074c-3.2304,-1.96764 -6.9408,-3.01211 -10.722,-3.00229c-11.3781,0 -20.601,9.2229 -20.601,20.6c0,11.3771 9.2229,20.6 20.6,20.6zM22,43.4c-11.8189,0 -21.4,-9.5811 -21.4,-21.4c0,-11.8189 9.5811,-21.4 21.399,-21.4c3.9287,-0.0102 7.7837,1.07468 11.138,3.11771c0.6185,0.37397 0.8093,1.19077 0.4353,1.80926c-0.3725,0.61604 -1.1832,0.80781 -1.8003,0.43471c-2.9431,-1.79144 -6.3266,-2.73168 -9.772,-2.73168c-10.3664,0 -18.77,8.4036 -18.77,18.77c0,10.3719 8.3981,18.78 18.77,18.78c10.3664,0 18.77,-8.4136 18.77,-18.781c0.0098,-4.1104 -1.3436,-8.1092 -3.84,-11.379c-0.52433,-0.69915 -0.43933,-1.31121 0.255,-1.83617c0.5708,-0.44237 1.3988,-0.32967 1.843,0.24351c2.91467,3.81957 4.372,8.14379 4.372,12.97266c0,11.8189 -9.5811,21.4 -21.4,21.4z"></path><path id="路径 2" fill-rule="evenodd" style="fill:#1957E6" opacity="1" d="M22.5905,11.8441c3.09,0 5.43,1.04 6.99,3.13c1.42,1.86 2.16,4.5 2.24,7.86h-15.19c0.15,2.15 0.71,3.83 1.75,5.02c1.04,1.19 2.5,1.79 4.32,1.79c1.56,0 2.87,-0.41 3.84,-1.19c0.82,-0.67 1.45,-1.68 1.93,-3.02h2.98c-0.45,1.86 -1.3,3.35 -2.61,4.54c-1.6,1.42 -3.65,2.16 -6.14,2.16c-2.76,0 -4.99,-0.93 -6.63,-2.72c-1.71,-1.86 -2.53,-4.32 -2.53,-7.44c0,-2.83 0.78,-5.22 2.42,-7.11c1.64,-2.02 3.83,-3.02 6.63,-3.02zM18.5305,16.0141c-1.05,1.12 -1.64,2.61 -1.83,4.51h12.03c-0.37,-4.14 -2.42,-6.19 -6.07,-6.19v0.01c-1.71,0 -3.09,0.56 -4.13,1.67z"></path></g></g><defs><rect id="path_0" x="0" y="0" width="44.00000000000002" height="44.00000000000002" /></defs></svg>