<svg xmlns="http://www.w3.org/2000/svg" xmlns:xlink="http://www.w3.org/1999/xlink" width="44" height="44" viewBox="0 0 44 44" fill="none"><g opacity="1"  transform="translate(0 0)  rotate(0)"><g opacity="1"  transform="translate(2 0)  rotate(0)"><mask id="bg-mask-0" fill="white"><use transform="translate(0 0)  rotate(0)" xlink:href="#path_0"></use></mask><g mask="url(#bg-mask-0)" ><path id="路径 1" fill-rule="evenodd" style="fill:#1957E6" opacity="1" d="M20.9045,35.9729c0.76,0 1.37,0.53 1.37,1.17c0,0.65 -0.61,1.18 -1.37,1.18h-9.25c-0.76,0 -1.38,-0.53 -1.38,-1.18c0,-0.64 0.62,-1.17 1.38,-1.17zM11.6545,27.4829c-0.76,0 -1.38,-0.52 -1.38,-1.17c0,-0.64 0.62,-1.16 1.38,-1.16h17.47c0.76,0 1.38,0.52 1.38,1.16c0,0.65 -0.62,1.17 -1.38,1.17zM11.6545,32.8929c-0.76,0 -1.38,-0.52 -1.38,-1.16c0,-0.64 0.62,-1.17 1.38,-1.17h14.99c0.76,0 1.38,0.53 1.38,1.17c0,0.64 -0.62,1.16 -1.38,1.16z"></path><path id="路径 2" fill-rule="evenodd" style="fill:#1957E6" opacity="1" d="M36.31,0c2.46,0 4.46,2 4.47,4.46v28.27c0,0.37 -0.15,0.71 -0.4,0.97l-9.76,9.89c-0.26,0.26 -0.61,0.41 -0.98,0.41h-25.18c-2.46,0 -4.46,-2 -4.46,-4.46v-35.08c0,-2.46 2,-4.46 4.46,-4.46zM37.79,33.4h-4.97c-1.38,0 -2.5,1.12 -2.5,2.5v5.07zM38.52,31.35v-26.89c0,-0.94 -1.27,-2.45 -2.2,-2.45h-31.86c-0.94,0 -2.45,1.51 -2.45,2.45v35.08c0,0.94 1.51,2.45 2.45,2.45h23.8v-6.18c0,-2.46 2,-4.46 4.46,-4.46h5.8z"></path><path  id="路径 2" style="fill:#1957E6; opacity:1;" d="M4.46,0.5c-2.18705,0 -3.96,1.77295 -3.96,3.96v35.08c0,2.187 1.77295,3.96 3.96,3.96h25.18c0.236,0 0.4595,-0.0966 0.6264,-0.2636l9.7577,-9.8876c0.1706,-0.17747 0.2559,-0.38373 0.2559,-0.6188v-28.27c-0.0089,-2.18424 -1.7837,-3.96 -3.97,-3.96zM4.46,-0.5h31.85c2.737,0 4.9589,2.221 4.97,4.96v28.27c0,0.5036 -0.18137,0.944 -0.5441,1.3212l-9.7623,9.8924c-0.3545,0.3544 -0.8323,0.5564 -1.3336,0.5564h-25.18c-2.73933,0 -4.96,-2.2207 -4.96,-4.96v-35.08c0,-2.73933 2.22067,-4.96 4.96,-4.96zM37.79,33.9h-4.97c-1.1046,0 -2,0.8954 -2,2v5.07h-0.5l-0.3559,-0.3512l7.47,-7.57l0.3559,0.3512zM38.9858,32.9l-9.1658,9.2885v-6.2885c0,-1.6569 1.3431,-3 3,-3h4.97zM38.02,31.35v-26.89c0,-0.35473 -0.2091,-0.77072 -0.6273,-1.24798c-0.41013,-0.46801 -0.7677,-0.70202 -1.0727,-0.70202h-31.86c-0.33193,0 -0.73991,0.24202 -1.22395,0.72605c-0.48403,0.48404 -0.72605,0.89202 -0.72605,1.22395v35.08c0,0.33193 0.24202,0.7399 0.72605,1.2239c0.48404,0.48407 0.89202,0.7261 1.22395,0.7261h23.8v0.5h-0.5v-6.18c0,-2.7393 2.2207,-4.96 4.96,-4.96h5.8v0.5zM39.02,31.35v0.5h-6.3c-2.187,0 -3.96,1.773 -3.96,3.96v6.68h-24.3c-0.60807,0 -1.25176,-0.33963 -1.93105,-1.0189c-0.6793,-0.67933 -1.01895,-1.32303 -1.01895,-1.9311v-35.08c0,-0.60807 0.33965,-1.25176 1.01895,-1.93105c0.67929,-0.6793 1.32298,-1.01895 1.93105,-1.01895h31.86c0.60727,0 1.21553,0.34766 1.8248,1.04298c0.58347,0.66585 0.8752,1.30153 0.8752,1.90702z"></path><path id="路径 3" fill-rule="evenodd" style="fill:#1957E6" opacity="1" d="M11.5298,22.5953zM26.8298,15.2753c1.78,1.48 3.02,3.54 3.48,5.79c0.01,0.1 0.02,0.19 0.02,0.28c0,0.76 -0.61,1.38 -1.37,1.38c-0.21,0 -0.41,-0.05 -0.6,-0.14c-0.29,-4.22 -3.8,-7.55 -8.09,-7.55c-4.3,0 -7.81,3.33 -8.1,7.55c-0.21,0.05 -0.43,0.06 -0.64,0.01c-0.75,-0.16 -1.22,-0.89 -1.06,-1.63c0.48,-2.23 1.72,-4.26 3.5,-5.72c0.71,-0.58 1.5,-1.06 2.35,-1.43c-0.83,-0.97 -1.29,-2.21 -1.29,-3.48c0,-2.95996 2.4,-5.35996 5.36,-5.35996c2.95,0 5.36,2.4 5.36,5.35996c0,1.27 -0.46,2.51 -1.3,3.48c0.86,0.38 1.66,0.87 2.38,1.46zM23.8098,10.0853c0,-1.88996 -1.53,-3.42996 -3.42,-3.42996c-1.89,0 -3.43,1.54 -3.43,3.42996c0,1.89 1.54,3.42 3.43,3.42c1.89,0 3.42,-1.53 3.42,-3.42z"></path></g></g></g><defs><rect id="path_0" x="0" y="0" width="40.774303970789816" height="43.99999999999998" /></defs></svg>