<svg xmlns="http://www.w3.org/2000/svg" xmlns:xlink="http://www.w3.org/1999/xlink" width="44" height="44" viewBox="0 0 44 44" fill="none"><g opacity="1"  transform="translate(0 0)  rotate(0)"><g opacity="1"  transform="translate(0 0)  rotate(0)"><mask id="bg-mask-0" fill="white"><use transform="translate(0 0)  rotate(0)" xlink:href="#path_0"></use></mask><g mask="url(#bg-mask-0)" ><path id="路径 1" fill-rule="evenodd" style="fill:#3E75FF" opacity="1" d="M38.1702 29.7426L21.9302 36.0426L5.69019 29.7426L5.69019 12.0226L2.84019 12.0226L2.84019 30.7626C2.84019 31.3626 3.20019 31.9026 3.75019 32.1226L21.4202 38.9626C21.5802 39.0226 21.7502 39.0527 21.9302 39.0527C22.1002 39.0527 22.2702 39.0226 22.4402 38.9626L40.1002 32.1226C40.6502 31.8926 41.0102 31.3526 41.0102 30.7626L41.0102 12.0226L38.1702 12.0226L38.1702 29.7426Z"></path><path id="路径 2" fill-rule="evenodd" style="fill:#3E75FF" opacity="1" d="M21.3722 31.4298C21.5422 31.5198 21.7322 31.5598 21.9222 31.5498C22.2222 31.5498 22.5122 31.4598 22.7522 31.2798C23.1522 30.9998 23.3922 30.5398 23.3922 30.0498L23.3922 11.8898L31.7922 8.36982L31.7922 24.3198L25.2922 27.0398C25.2522 27.0598 25.2122 27.0798 25.1722 27.0998L26.4522 29.7298L33.8222 26.6698C34.3722 26.4498 34.7322 25.9098 34.7322 25.3198L34.7322 6.15982C34.7422 5.66982 34.5022 5.19982 34.0922 4.92982C33.6722 4.66982 33.1622 4.62982 32.7122 4.80982L21.3722 9.56982C20.8222 9.79982 20.4622 10.3298 20.4622 10.9298L20.4622 27.8498L12.0522 24.3198L12.0522 8.36982L16.9822 10.8598C16.9922 10.8698 17.0022 10.8698 17.0022 10.8698L18.2422 8.23982C18.1922 8.20982 18.1522 8.18982 18.1022 8.15982L11.1422 4.80982C10.6922 4.61982 10.1722 4.65982 9.76221 4.92982C9.36221 5.20982 9.12221 5.66982 9.12221 6.15982L9.12221 25.3098C9.12221 25.9098 9.48221 26.4498 10.0322 26.6698L21.3722 31.4298Z"></path></g></g></g><defs><rect id="path_0" x="0" y="0" width="44" height="44" /></defs></svg>