<svg xmlns="http://www.w3.org/2000/svg" xmlns:xlink="http://www.w3.org/1999/xlink" width="44" height="44" viewBox="0 0 44 44" fill="none"><g opacity="1"  transform="translate(0 0)  rotate(0)"><mask id="bg-mask-0" fill="white"><use transform="translate(0 0)  rotate(NaN)" xlink:href="#path_0"></use></mask><g mask="url(#bg-mask-0)" ><path id="路径 1" fill-rule="evenodd" style="fill:#1957E6" opacity="1" d="M29.0959,21.0752h-15.1c-0.82,0 -1.48,-0.65 -1.48,-1.44c0,-0.8 0.66,-1.45 1.48,-1.45h15.1c0.81,0 1.48,0.65 1.48,1.45c0,0.79 -0.67,1.44 -1.48,1.44zM29.0959,27.6652h-15.1c-0.82,0 -1.48,-0.64 -1.48,-1.44c0,-0.8 0.66,-1.45 1.48,-1.45h15.1c0.81,0 1.48,0.65 1.48,1.45c0,0.8 -0.67,1.44 -1.48,1.44z"></path><path id="路径 2" fill-rule="evenodd" style="fill:#1957E6" opacity="1" d="M23.3976 33.6752L23.3976 19.6352C23.3976 18.8352 22.7376 18.1852 21.9276 18.1852C21.1076 18.1852 20.4476 18.8352 20.4476 19.6352L20.4476 33.6752C20.4476 34.4752 21.1076 35.1252 21.9276 35.1252C22.7376 35.1252 23.3976 34.4752 23.3976 33.6752Z"></path><path id="路径 3" fill-rule="evenodd" style="fill:#1957E6" opacity="1" d="M22.427 19.806C22.997 19.246 22.997 18.326 22.427 17.756L15.147 10.636C15.137 10.626 15.117 10.616 15.107 10.606C14.527 10.046 13.587 10.066 13.017 10.636C12.457 11.216 12.467 12.126 13.057 12.676L20.337 19.806C20.607 20.076 20.987 20.226 21.377 20.226C21.767 20.226 22.147 20.076 22.427 19.806Z"></path><path id="路径 4" fill-rule="evenodd" style="fill:#1957E6" opacity="1" d="M22.4717 20.3272C22.8617 20.3272 23.2417 20.1772 23.5117 19.9072L30.7917 12.7772C30.8017 12.7671 30.8217 12.7571 30.8317 12.7472C31.3917 12.1771 31.3817 11.2571 30.7917 10.7071C30.2117 10.1472 29.2717 10.1671 28.7017 10.7372L21.4217 17.8572C21.1517 18.1371 20.9917 18.4972 20.9917 18.8871C20.9917 19.6872 21.6517 20.3272 22.4717 20.3272L22.4717 20.3272Z"></path><path id="路径 5" fill-rule="evenodd" style="fill:#1957E6" opacity="1" d="M1.58 19.43C2.33 19.43 2.98 18.91 3.12 18.19C4.86 9.43 12.75 3.08 21.87 3.08C30.94 3.08 38.75 9.32 40.58 18.01C40.76 18.84 41.59 19.38 42.44 19.21C43.3 19.04 43.85 18.22 43.67 17.39C41.54 7.26 32.43 0 21.87 0C11.24 0 2.05 7.4 0.03 17.59C0.01 17.69 0 17.79 0 17.89C0 18.74 0.71 19.43 1.58 19.43L1.58 19.43Z"></path><path id="路径 6" fill-rule="evenodd" style="fill:#1957E6" opacity="1" d="M1.61944,19.5272c-0.87,0 -1.57,-0.7 -1.57,-1.55c0,-0.61 0.38,-1.16 0.95,-1.41l5.19,-2.18c0.79,-0.34 1.72,0.02 2.07,0.8c0.34,0.78 -0.03,1.69 -0.83,2.03v0l-5.19,2.18c-0.2,0.09 -0.41,0.13 -0.62,0.13zM22.1294,43.9972c-10.56,0 -19.66996,-7.26 -21.79996,-17.39c-0.18,-0.83 0.37,-1.64 1.22,-1.82c0.86,-0.17 1.69,0.37 1.86,1.21c1.83,8.68 9.64996,14.92 18.71996,14.92c9.12,0 17.01,-6.35 18.75,-15.1c0.16,-0.84 0.98,-1.39 1.83,-1.24c0.86,0.16 1.42,0.96 1.26,1.8c0,0.01 0,0.02 0,0.03c-2.03,10.19 -11.21,17.59 -21.84,17.59z"></path><path id="路径 7" fill-rule="evenodd" style="fill:#1957E6" opacity="1" d="M37.8164 29.6134L43.0064 27.4334C43.0164 27.4234 43.0364 27.4234 43.0464 27.4134C43.8464 27.0634 44.1964 26.1534 43.8464 25.3734C43.4864 24.5934 42.5564 24.2534 41.7564 24.5934L36.5664 26.7834C35.9964 27.0234 35.6164 27.5834 35.6164 28.2034C35.6164 29.0534 36.3264 29.7434 37.1964 29.7434C37.4064 29.7434 37.6164 29.7034 37.8164 29.6134Z"></path></g></g><defs><rect id="path_0" x="0" y="0" width="44" height="44" /></defs></svg>