<svg xmlns="http://www.w3.org/2000/svg" xmlns:xlink="http://www.w3.org/1999/xlink" width="44" height="44" viewBox="0 0 44 44" fill="none"><g opacity="1"  transform="translate(0 0)  rotate(0)"><mask id="bg-mask-0" fill="white"><use transform="translate(0 0)  rotate(NaN)" xlink:href="#path_0"></use></mask><g mask="url(#bg-mask-0)" ><path id="路径 1" fill-rule="evenodd" style="fill:#1957E6" opacity="1" d="M19.8992,28.212h-14.54997c-1.32,0 -2.5,1.13 -2.62,2.51l-1.03,11.56h21.84997l-1.03,-11.56c-0.12,-1.38 -1.3,-2.51 -2.61,-2.51zM19.8992,26.572c2.16,0 4.06,1.76 4.26,4.01l1.08,12.12c0.06,0.67 -0.37,1.22 -0.97,1.22h-23.28997c-0.6,0 -1.03,-0.55 -0.97,-1.22l1.08,-12.12c0.2,-2.25 2.1,-4.01 4.26,-4.01z"></path><path  id="路径 1" style="fill:#1957E6; opacity:1;" d="M19.8992,28.462h-14.54997c-0.59311,0 -1.12214,0.2227 -1.58707,0.6681c-0.46802,0.44827 -0.72931,0.98613 -0.78387,1.6136l-1.03005,11.5605l-0.24901,-0.0222v-0.25h21.84997v0.25l-0.249,0.0222l-1.03,-11.56c-0.05453,-0.62733 -0.3155,-1.16547 -0.7829,-1.6144c-0.46353,-0.4452 -0.98957,-0.6678 -1.5781,-0.6678zM19.8992,27.962h0.01c0.72267,0 1.36417,0.26907 1.9245,0.8072c0.55767,0.53567 0.86917,1.1792 0.9345,1.9306l1.0543,11.8322h-22.39654l1.05421,-11.8316c0.06543,-0.75247 0.37747,-1.39627 0.93612,-1.9314c0.56163,-0.538 1.20594,-0.807 1.93294,-0.807zM5.34923,26.822M5.34923,26.822c-1.01764,0 -1.91567,0.36457 -2.69409,1.0937c-0.78388,0.73427 -1.22284,1.63043 -1.31689,2.6885l-1.08001,12.12c-0.02417,0.26987 0.03735,0.49787 0.18456,0.684c0.13912,0.17587 0.31793,0.2638 0.53642,0.2638h23.28997c0.21853,0 0.39737,-0.08793 0.5365,-0.2638c0.1472,-0.18613 0.2087,-0.4141 0.1845,-0.6839l-1.08,-12.1201c-0.09407,-1.05807 -0.53303,-1.95423 -1.3169,-2.6885c-0.7784,-0.72913 -1.67643,-1.0937 -2.6941,-1.0937zM5.34923,26.322h14.54997c1.1494,0 2.16137,0.4096 3.0359,1.2288c0.8768,0.82127 1.36783,1.82427 1.4731,3.009l1.08,12.1199c0.036,0.40213 -0.0608,0.74837 -0.2904,1.0387c-0.2392,0.3024 -0.54873,0.4536 -0.9286,0.4536h-23.28997c-0.37983,0 -0.68936,-0.1512 -0.92858,-0.4536c-0.22963,-0.29033 -0.32644,-0.63653 -0.29043,-1.0386l1.08,-12.1199c0.10531,-1.1848 0.59635,-2.18783 1.47311,-3.0091c0.87457,-0.8192 1.88654,-1.2288 3.03591,-1.2288z"></path><path id="路径 2" fill-rule="evenodd" style="fill:#1957E6" opacity="1" d="M14.7872,27.84l-1.65,-0.06l0.86,-24.94c0,-0.99 -0.75,-1.2 -1.37,-1.2c-0.91,0 -1.37,0.41 -1.37,1.22l0.85,24.92l-1.65,0.06l-0.85001,-24.95c0,-1.74 1.21001,-2.89 3.02001,-2.89c1.8,0 3.02,1.15 3.02,2.86zM21.2972,40.59c-0.43,0 -0.78,-0.32 -0.82,-0.74l-0.75,-7.28c-0.09,-0.92 -1.04,-1.67 -2.1,-1.67h-10.00001c-1.07,0 -2.02,0.75 -2.11,1.67l-0.74,7.28c-0.04,0.45 -0.44,0.78 -0.88,0.74c-0.01,0 -0.02,0 -0.03,0c-0.45,-0.05 -0.78,-0.45 -0.74,-0.9l0.75,-7.29c0.18,-1.76 1.82,-3.14 3.74,-3.14h10.01001c1.92,0 3.56,1.38 3.74,3.14l0.74,7.29c0.05,0.45 -0.28,0.85 -0.73,0.9c-0.03,0 -0.06,0 -0.09,0z"></path><path  id="路径 2" style="fill:#1957E6; opacity:1;" d="M15.3972,2.86M15.3972,2.86c0,-0.78259 -0.25227,-1.41246 -0.7568,-1.88961c-0.5078,-0.48026 -1.17887,-0.72038 -2.0132,-0.72038c-0.8392,0 -1.51123,0.2411 -2.0161,0.72329c-0.50261,0.48004 -0.75391,1.11894 -0.75391,1.91671h-0.25l0.24986,-0.00851l0.84995,24.95001l-0.2498,0.0085l-0.0091,-0.2498l1.65,-0.06l0.0091,0.2498l-0.2499,0.0085l-0.8501,-24.92424v-0.00426v0.00426v-0.00426c0,-0.47979 0.1425,-0.8466 0.4275,-1.10043c0.2766,-0.24638 0.6741,-0.36957 1.1925,-0.36957c0.43273,0 0.7847,0.0902 1.0559,0.27059c0.37607,0.25009 0.5641,0.64323 0.5641,1.17941v0.00431l-0.8602,24.94429l-0.2498,-0.0086l0.0091,-0.2498l1.65,0.06l-0.0091,0.2498l-0.2499,-0.0086l0.86,-24.98l0.2499,0.0086zM15.8972,2.8643l-0.8688,25.2346l-2.1497,-0.0781l0.8686,-25.18942l0.2499,0.00862h-0.25c0,-0.35755 -0.11367,-0.61191 -0.341,-0.76309c-0.18733,-0.12461 -0.447,-0.18691 -0.779,-0.18691c-0.39147,0 -0.67813,0.08098 -0.86,0.24293c-0.17333,0.15441 -0.26,0.39677 -0.26,0.72707h-0.25h0.25h-0.25l0.2498,-0.00852l0.8585,25.16932l-2.1496,0.0781l-0.85871,-25.20464v-0.00426c0,-0.94035 0.30287,-1.69978 0.90861,-2.27829c0.60147,-0.57447 1.3886,-0.86171 2.3614,-0.86171c0.967,0 1.7526,0.28571 2.3568,0.85712c0.6088,0.57579 0.9132,1.32675 0.9132,2.25288zM21.2872,40.34M21.2872,40.34h0.045h0.045v0.25l-0.0276,-0.2485c0.3095,-0.0344 0.5435,-0.3144 0.5091,-0.6239l-0.7402,-7.2924c-0.0832,-0.813 -0.45973,-1.50093 -1.1296,-2.0638c-0.6756,-0.5676 -1.46283,-0.8514 -2.3617,-0.8514h-10.01001c-0.89885,0 -1.68608,0.2838 -2.36169,0.8514c-0.66991,0.56287 -1.04644,1.25087 -1.12961,2.064l-0.75001,7.2902c-0.02784,0.3134 0.20276,0.5908 0.51892,0.6259l-0.02761,0.2485v-0.25v0.25v-0.25h0.04134l0.0113,0.001l-0.0113,-0.001l0.0113,0.001c0.15188,0.0138 0.28755,-0.02923 0.40702,-0.1291c0.1204,-0.1006 0.18751,-0.2286 0.20132,-0.384l0.7403,-7.2832c0.05181,-0.52967 0.31219,-0.97993 0.78114,-1.3508c0.4585,-0.3626 0.98436,-0.5439 1.57758,-0.5439h10.00001c0.58887,0 1.1119,0.1814 1.5691,0.5442c0.468,0.37127 0.7279,0.82177 0.7797,1.3515l0.7499,7.2787c0.0282,0.2963 0.2755,0.5156 0.5713,0.5156v0.5h-0.01zM21.2872,40.84v-0.25v-0.25h0.01v0.25v0.25c-0.5536,0 -1.0164,-0.4152 -1.0687,-0.9644l-0.7501,-7.2813c-0.03807,-0.38893 -0.23567,-0.7251 -0.5928,-1.0085c-0.36627,-0.29053 -0.78573,-0.4358 -1.2584,-0.4358h-10.00001c-0.47734,0 -0.89981,0.14537 -1.26742,0.4361c-0.35777,0.28293 -0.55572,0.61933 -0.59386,1.0092l-0.7397,7.2768c-0.02605,0.29307 -0.15227,0.53423 -0.37868,0.7235c-0.22563,0.1886 -0.48329,0.26973 -0.77298,0.2434l0.02264,-0.249l-0.02264,0.249l0.02264,-0.249v0.25h-0.04385h0.01385h-0.01385l-0.01376,-0.0015c-0.58635,-0.0652 -1.01364,-0.583 -0.96108,-1.1741l0.74999,-7.2898c0.09691,-0.9476 0.53203,-1.74627 1.30538,-2.396c0.76859,-0.64573 1.66303,-0.9686 2.68332,-0.9686h10.01001c1.02027,0 1.9147,0.32287 2.6833,0.9686c0.77333,0.64973 1.20847,1.44847 1.3054,2.3962l0.7398,7.2876c0.0648,0.584 -0.3669,1.1112 -0.9509,1.1761l-0.0138,0.0015h-0.0588z"></path><path id="路径 3" fill-rule="evenodd" style="fill:#1957E6" opacity="1" d="M8.54241,33.3927c0,0.45 -0.37,0.82 -0.83,0.82c-0.46,0 -0.83,-0.37 -0.83,-0.82c0,-0.46 0.37,-0.83 0.83,-0.83c0.46,0 0.83,0.37 0.83,0.83zM18.8124,38.9127c0,0.46 -0.37,0.83 -0.83,0.83c-0.46,0 -0.83,-0.38 -0.83,-0.83c0,-0.46 0.37,-0.83 0.83,-0.83c0.46,0 0.83,0.37 0.83,0.83zM18.6324,36.5927c0,0.46 -0.37,0.82 -0.83,0.82c-0.46,0 -0.83,-0.37 -0.83,-0.82c0,-0.46 0.37,-0.83 0.83,-0.83c0.46,0 0.83,0.37 0.83,0.83z"></path><path  id="路径 3" style="fill:#1957E6; opacity:1;" d="M7.71241,32.8127c-0.32032,0 -0.58,0.2597 -0.58,0.58c0,0.15607 0.05618,0.28983 0.16854,0.4013c0.11345,0.11247 0.25061,0.1687 0.41146,0.1687c0.16085,0 0.29801,-0.05623 0.41147,-0.1687c0.11235,-0.11147 0.16853,-0.24523 0.16853,-0.4013c0,-0.3203 -0.25967,-0.58 -0.58,-0.58zM7.71241,32.3127c0.59647,0 1.08,0.4836 1.08,1.08c0,0.295 -0.10549,0.5471 -0.31646,0.7563c-0.21091,0.20913 -0.46543,0.3137 -0.76354,0.3137c-0.29811,0 -0.55262,-0.10457 -0.76353,-0.3137c-0.21098,-0.2092 -0.31647,-0.4613 -0.31647,-0.7563c0,-0.5964 0.48353,-1.08 1.08,-1.08zM17.9824,38.3327c-0.3203,0 -0.58,0.2597 -0.58,0.58c0,0.15753 0.05667,0.29343 0.17,0.4077c0.11393,0.11487 0.2506,0.1723 0.41,0.1723c0.3203,0 0.58,-0.2596 0.58,-0.58c0,-0.3203 -0.2597,-0.58 -0.58,-0.58zM17.9824,37.8327c0.5965,0 1.08,0.4836 1.08,1.08c0,0.5965 -0.4835,1.08 -1.08,1.08c-0.29827,0 -0.55327,-0.10673 -0.765,-0.3202c-0.21,-0.21173 -0.315,-0.465 -0.315,-0.7598c0,-0.5964 0.4835,-1.08 1.08,-1.08zM17.8024,36.0127c-0.3203,0 -0.58,0.2597 -0.58,0.58c0,0.15607 0.05617,0.28983 0.1685,0.4013c0.11347,0.11247 0.25063,0.1687 0.4115,0.1687c0.3148,0 0.58,-0.2552 0.58,-0.57c0,-0.3203 -0.2597,-0.58 -0.58,-0.58zM17.8024,35.5127c0.5965,0 1.08,0.4836 1.08,1.08c0,0.591 -0.489,1.07 -1.08,1.07c-0.29813,0 -0.55263,-0.10457 -0.7635,-0.3137c-0.211,-0.2092 -0.3165,-0.4613 -0.3165,-0.7563c0,-0.5964 0.4835,-1.08 1.08,-1.08z"></path><path id="路径 4" fill-rule="evenodd" style="fill:#1957E6" opacity="1" d="M29.3688,7.79048c-0.46,0 -0.83,-0.37 -0.83,-0.82v-6.03c0,-0.45 0.37,-0.82 0.83,-0.82c0.45,0 0.82,0.37 0.82,0.82v6.03c0,0.45 -0.37,0.82 -0.82,0.82zM33.5788,7.79048c-0.46,0 -0.83,-0.37 -0.83,-0.82v-6.03c0,-0.45 0.37,-0.82 0.83,-0.82c0.45,0 0.82,0.37 0.82,0.82v6.03c0,0.45 -0.37,0.82 -0.82,0.82zM37.7888,7.79048zM37.7888,7.79048c-0.46,0 -0.83,-0.37 -0.83,-0.82v-6.03c0,-0.45 0.37,-0.82 0.83,-0.82c0.45,0 0.82,0.37 0.82,0.82v6.03c0,0.45 -0.37,0.82 -0.82,0.82z"></path><path  id="路径 4" style="fill:#1957E6; opacity:1;" d="M29.3688,7.54048c0.3148,0 0.57,-0.2552 0.57,-0.57v-6.03c0,-0.3148 -0.2552,-0.57 -0.57,-0.57c-0.16087,0 -0.29803,0.05626 -0.4115,0.16876c-0.11233,0.11142 -0.1685,0.24517 -0.1685,0.40124v6.03c0,0.15607 0.05617,0.28982 0.1685,0.40124c0.11347,0.11251 0.25063,0.16876 0.4115,0.16876zM29.3688,8.04048c-0.29813,0 -0.55267,-0.10458 -0.7636,-0.31373c-0.21093,-0.20922 -0.3164,-0.46131 -0.3164,-0.75627v-6.03c0,-0.29496 0.10547,-0.54705 0.3164,-0.75626c0.21093,-0.20916 0.46547,-0.31374 0.7636,-0.31374c0.5909,0 1.07,0.47906 1.07,1.07v6.03c0,0.59095 -0.4791,1.07 -1.07,1.07zM33.5788,7.54048c0.3148,0 0.57,-0.2552 0.57,-0.57v-6.03c0,-0.3148 -0.2552,-0.57 -0.57,-0.57c-0.16087,0 -0.29803,0.05626 -0.4115,0.16876c-0.11233,0.11142 -0.1685,0.24517 -0.1685,0.40124v6.03c0,0.15607 0.05617,0.28982 0.1685,0.40124c0.11347,0.11251 0.25063,0.16876 0.4115,0.16876zM33.5788,8.04048c-0.29813,0 -0.55267,-0.10458 -0.7636,-0.31373c-0.21093,-0.20922 -0.3164,-0.46131 -0.3164,-0.75627v-6.03c0,-0.29496 0.10547,-0.54705 0.3164,-0.75626c0.21093,-0.20916 0.46547,-0.31374 0.7636,-0.31374c0.5909,0 1.07,0.47906 1.07,1.07v6.03c0,0.59095 -0.4791,1.07 -1.07,1.07zM37.7888,7.54048c0.3148,0 0.57,-0.2552 0.57,-0.57v-6.03c0,-0.3148 -0.2552,-0.57 -0.57,-0.57c-0.16087,0 -0.29803,0.05626 -0.4115,0.16876c-0.11233,0.11142 -0.1685,0.24517 -0.1685,0.40124v6.03c0,0.15607 0.05617,0.28982 0.1685,0.40124c0.11347,0.11251 0.25063,0.16876 0.4115,0.16876zM37.7888,8.04048c-0.29813,0 -0.55267,-0.10458 -0.7636,-0.31373c-0.21093,-0.20922 -0.3164,-0.46131 -0.3164,-0.75627v-6.03c0,-0.29496 0.10547,-0.54705 0.3164,-0.75626c0.21093,-0.20916 0.46547,-0.31374 0.7636,-0.31374c0.5909,0 1.07,0.47906 1.07,1.07v6.03c0,0.59095 -0.4791,1.07 -1.07,1.07z"></path><path id="路径 5" fill-rule="evenodd" style="fill:#1957E6" opacity="1" d="M33.5814 44.0048C35.4214 44.0048 36.6514 42.8248 36.6514 41.0548L35.7814 15.4648L34.1314 15.5248L35.0014 41.0848C35.0014 42.1348 34.2314 42.3548 33.5714 42.3548C32.6314 42.3548 32.1514 41.9348 32.1514 41.1148L33.0314 15.5248L31.3814 15.4648L30.5014 41.0848C30.5014 42.8248 31.7314 44.0048 33.5814 44.0048L33.5814 44.0048Z"></path><path  id="路径 5" style="fill:#1957E6; opacity:1;" d="M33.5814,43.7548M33.5814,43.7548c0.85313,0 1.53707,-0.24717 2.0518,-0.7415c0.51213,-0.49187 0.7682,-1.1447 0.7682,-1.9585h0.25l-0.2499,0.0085l-0.87,-25.59l0.2499,-0.0085l0.0091,0.2499l-1.65,0.06l-0.0091,-0.2499l0.2498,-0.0085l0.8702,25.5643v0.0042v-0.0042v0.0042c0,0.5632 -0.19243,0.97513 -0.5773,1.2358c-0.2798,0.18947 -0.64737,0.2842 -1.1027,0.2842c-0.53247,0 -0.94147,-0.12473 -1.227,-0.3742c-0.29533,-0.258 -0.443,-0.62993 -0.443,-1.1158v-0.0043l0.8801,-25.5942l0.2499,0.0085l-0.0091,0.2499l-1.65,-0.06l0.0091,-0.2499l0.2498,0.0086l-0.88,25.62l-0.2498,-0.0086h0.25h-0.25h0.25c0,0.8002 0.25617,1.444 0.7685,1.9314c0.51767,0.49247 1.20483,0.73867 2.0615,0.7386zM33.5814,44.2548c-0.98987,0 -1.7919,-0.2921 -2.4061,-0.8763c-0.61593,-0.586 -0.9239,-1.35057 -0.9239,-2.2937v-0.0042v0.0042v-0.0042l0.8887,-25.8747l2.1497,0.0782l-0.8886,25.8393l-0.2498,-0.0086h0.25c0,0.3344 0.09067,0.58083 0.272,0.7393c0.19133,0.16713 0.49067,0.2507 0.898,0.2507c0.78667,0 1.18,-0.34 1.18,-1.02h0.25h-0.25h0.25l-0.2499,0.0085l-0.8785,-25.8092l2.1497,-0.0782l0.8787,25.8447v0.0042c0,0.9558 -0.30727,1.72883 -0.9218,2.3191c-0.61147,0.58727 -1.41087,0.8809 -2.3982,0.8809z"></path><path id="路径 6" fill-rule="evenodd" style="fill:#1957E6" opacity="1" d="M41.7552 13.773L41.7552 10.983C41.7552 10.533 41.3852 10.163 40.9252 10.163C40.4752 10.163 40.1052 10.533 40.1052 10.983L40.1052 13.773C40.1052 13.973 39.6352 14.343 38.8652 14.343L28.2752 14.343C27.5152 14.343 27.0452 13.973 27.0452 13.773L27.0452 10.983C27.0452 10.533 26.6752 10.163 26.2252 10.163C25.7652 10.163 25.3952 10.533 25.3952 10.983L25.3952 13.773C25.3952 15.013 26.6652 15.983 28.2752 15.983L38.8652 15.983C40.4852 15.983 41.7552 15.013 41.7552 13.773Z"></path><path id="路径 7" fill-rule="evenodd" style="fill:#1957E6" opacity="1" d="M24.9587,1.73631l1.82,8.55999h13.59l1.82,-8.55999zM43.1787,0.09631c0.57,0 0.93,0.53 0.79,1.18l-2.27,10.65999h-16.25l-2.27,-10.65999c-0.14,-0.65 0.22,-1.18 0.79,-1.18z"></path><path  id="路径 7" style="fill:#1957E6; opacity:1;" d="M25.2032,1.68432l1.82,8.55998l-0.2445,0.052v-0.25h13.59v0.25l-0.2445,-0.052l1.82,-8.55998l0.2445,0.05199v0.25h-17.23v-0.25zM24.6499,1.48631h17.8475l-1.9263,9.05999h-13.9948l-1.8621,-8.75799zM23.9687,0.34631M23.9687,0.34631c-0.19687,0 -0.34813,0.07859 -0.4538,0.23576c-0.11613,0.17269 -0.14673,0.38655 -0.0918,0.64159l2.2701,10.66053l-0.2445,0.0521v-0.25h16.25v0.25l-0.2445,-0.0521l2.27,-10.65996c0.055,-0.25542 0.02443,-0.46947 -0.0917,-0.64216c-0.10573,-0.15718 -0.257,-0.23576 -0.4538,-0.23576zM23.9687,-0.15369l19.21,0c0.37433,0 0.6639,0.15225 0.8687,0.45674c0.19527,0.29032 0.25053,0.63209 0.1658,1.02533l-2.3121,10.85792h-16.6548l-2.312,-10.85735c-0.0848,-0.39362 -0.02957,-0.73558 0.1657,-1.0259c0.2048,-0.30449 0.49437,-0.45674 0.8687,-0.45674z"></path></g></g><defs><rect id="path_0" x="0" y="0" width="44" height="44.000000000000064" /></defs></svg>