<svg xmlns="http://www.w3.org/2000/svg" xmlns:xlink="http://www.w3.org/1999/xlink" width="44" height="44" viewBox="0 0 44 44" fill="none"><g opacity="1"  transform="translate(0 0)  rotate(0)"><g opacity="1"  transform="translate(2 0)  rotate(0)"><mask id="bg-mask-0" fill="white"><use transform="translate(0 0)  rotate(0)" xlink:href="#path_0"></use></mask><g mask="url(#bg-mask-0)" ><path id="路径 1" fill-rule="evenodd" style="fill:#1957E6" opacity="1" d="M18.65,33.4h-5.08c-0.74,0 -1.34,-0.57 -1.34,-1.28c0,-0.71 0.6,-1.29 1.34,-1.29h5.08c0.75,0 1.35,0.57 1.35,1.29c0,0.71 -0.6,1.28 -1.35,1.28zM25.57,17.98h-12c-0.74,0 -1.34,-0.57 -1.34,-1.28c0,-0.71 0.6,-1.29 1.34,-1.29h12c0.75,0 1.35,0.58 1.35,1.29c0,0.71 -0.6,1.28 -1.35,1.28zM25.57,10.28h-12c-0.74,0 -1.34,-0.58 -1.34,-1.29c0,-0.71 0.6,-1.28 1.34,-1.28h12c0.75,0.03 1.32,0.64 1.28,1.35c-0.03,0.66 -0.59,1.19 -1.28,1.22zM25.57,25.7h-12c-0.74,0 -1.34,-0.58 -1.34,-1.29c0,-0.71 0.6,-1.28 1.34,-1.28h12c0.75,0.04 1.31,0.65 1.26,1.36c-0.04,0.65 -0.58,1.17 -1.26,1.21zM40,36.26v0l-2.44,0.49c-0.16,0.59 -0.41,1.15 -0.73,1.67l1.38,1.99l-1.97,1.88l-2.09,-1.32c-0.55,0.31 -1.13,0.54 -1.75,0.7l-0.5,2.34h-2.79l-0.5,-2.34c-0.62,-0.16 -1.21,-0.39 -1.75,-0.7l-2.09,1.32l-1.97,-1.88l1.38,-1.99c-0.31,-0.52 -0.56,-1.08 -0.72,-1.68l-2.45,-0.47v-2.66l2.45,-0.48c0.16,-0.58 0.4,-1.15 0.72,-1.67l-1.38,-1.99l1.97,-1.89l2.07,1.31c0.55,-0.3 1.14,-0.54 1.76,-0.69l0.5,-2.34h2.78l0.5,2.34c0.61,0.16 1.2,0.39 1.75,0.7l2.09,-1.32l1.97,1.88l-1.38,2c0.32,0.52 0.57,1.08 0.73,1.67l2.46,0.48zM33.8,34.93c0,-1.74 -1.48,-3.14 -3.3,-3.14c-1.82,0 -3.3,1.4 -3.3,3.14c0,1.74 1.48,3.15 3.3,3.15c1.82,0 3.3,-1.41 3.3,-3.15zM20.02,41.11h-18.68c-0.74,0 -1.34,-0.57 -1.34,-1.28c0,0 0,0 0,-0.01v-38.54c0,-0.7 0.6,-1.28 1.34,-1.28h22.05c0.25,0 0.5,0.07 0.72,0.2l9.09,5.54c0.39,0.23 0.62,0.64 0.62,1.08v16.84c0,0.71 -0.6,1.28 -1.34,1.29c0,0 0,0 -0.01,0c-0.74,0 -1.34,-0.58 -1.34,-1.28v-0.01v-16.13l-8.14,-4.97h-20.3v35.97h17.33c0.75,0 1.35,0.57 1.35,1.29c0,0.7 -0.59,1.28 -1.33,1.29h-0.01zM6.93,8.99c0,-0.32 0.14,-0.64 0.37,-0.87c0.24,-0.23 0.58,-0.36 0.91,-0.36c0.34,0 0.68,0.14 0.91,0.37c0.5,0.48 0.5,1.25 0,1.73c-0.24,0.23 -0.57,0.36 -0.91,0.36c-0.34,0 -0.67,-0.13 -0.91,-0.36c-0.24,-0.23 -0.37,-0.54 -0.37,-0.87zM6.93,16.7c0,-0.33 0.13,-0.64 0.37,-0.87c0.24,-0.23 0.58,-0.36 0.91,-0.36c0.34,0 0.68,0.14 0.91,0.36c0.24,0.23 0.38,0.55 0.38,0.87c0,0.32 -0.14,0.64 -0.38,0.87c-0.5,0.47 -1.32,0.47 -1.82,0c-0.24,-0.23 -0.37,-0.55 -0.37,-0.87zM6.93,24.4c0,-0.31 0.14,-0.64 0.37,-0.86c0.24,-0.23 0.58,-0.36 0.91,-0.36c0.34,0 0.68,0.13 0.91,0.36c0.5,0.48 0.5,1.25 0,1.73c-0.24,0.23 -0.57,0.36 -0.91,0.36c-0.34,0 -0.67,-0.13 -0.91,-0.36c-0.24,-0.23 -0.37,-0.54 -0.37,-0.87zM6.93,32.12c0,-0.32 0.14,-0.65 0.37,-0.87c0.24,-0.23 0.58,-0.36 0.91,-0.36c0.34,0 0.68,0.14 0.91,0.36c0.24,0.23 0.38,0.54 0.38,0.87c0,0.32 -0.14,0.63 -0.38,0.87c-0.24,0.23 -0.57,0.36 -0.91,0.36c-0.34,0 -0.67,-0.13 -0.91,-0.36c-0.24,-0.24 -0.37,-0.55 -0.37,-0.87z"></path></g></g></g><defs><rect id="path_0" x="0" y="0" width="40.000000000000014" height="44" /></defs></svg>