<svg xmlns="http://www.w3.org/2000/svg" xmlns:xlink="http://www.w3.org/1999/xlink" width="44" height="44" viewBox="0 0 44 44" fill="none"><g opacity="1"  transform="translate(0 0)  rotate(0)"><mask id="bg-mask-0" fill="white"><use transform="translate(0 0)  rotate(NaN)" xlink:href="#path_0"></use></mask><g mask="url(#bg-mask-0)" ><path id="路径 1" fill-rule="evenodd" style="fill:#1957E6" opacity="1" d="M16.652,31.566c-0.59,0 -1.19,-0.22 -1.63,-0.68l-8.05,-8.05c-0.44,-0.44 -0.68,-1.01 -0.68,-1.63c0,-0.61 0.24,-1.19 0.68,-1.63l3.41,-3.41c0.9,-0.9 2.38,-0.9 3.26,0l8.05,8.06c0.9,0.9 0.9,2.35 0,3.25l-3.41,3.41c-0.44,0.46 -1.03,0.68 -1.63,0.68zM16.652,28.486l2.62,-2.61l-7.26,-7.26l-2.62,2.61zM31.222,17.026c-0.6,0 -1.19,-0.22 -1.63,-0.68l-8.05,-8.04999c-0.44,-0.44 -0.69,-1.01 -0.69,-1.63c0,-0.62 0.25,-1.19 0.69,-1.63l3.41,-3.41c0.44,-0.44 1.01,-0.68 1.62,-0.68c0.62,0 1.19,0.24 1.63,0.68l8.05,8.05c0.44,0.43999 0.69,1.01999 0.69,1.62999c0,0.62 -0.25,1.19 -0.69,1.63l-3.41,3.41c-0.44,0.46 -1.03,0.68 -1.62,0.68zM31.222,13.926l2.61,-2.62l-7.26,-7.25999l-2.61,2.62z"></path><path id="路径 2" fill-rule="evenodd" style="fill:#1957E6" opacity="1" d="M13.2667,19.143c-0.42,0 -0.84,-0.2 -1.1,-0.58c-0.4,-0.59 -0.24,-1.4 0.35,-1.82c0.05,-0.02 3.37,-2.27 5.33,-4.23c1.95,-1.95 4.2,-5.27996 4.22,-5.31996c0.4,-0.59 1.21,-0.77 1.83,-0.35c0.59,0.39 0.77,1.21 0.35,1.82c-0.09,0.16 -2.42,3.58996 -4.56,5.71996c-2.13,2.14 -5.56,4.45 -5.72,4.56c-0.19,0.11 -0.46,0.2 -0.7,0.2zM20.0667,25.933c-0.24,0 -0.51,-0.06 -0.73,-0.22c-0.59,-0.39 -0.77,-1.21 -0.35,-1.82c0.09,-0.16 2.42,-3.59 4.55,-5.72c2.14,-2.14 5.57,-4.45 5.72,-4.56c0.6,-0.39 1.41,-0.24 1.83,0.36c0.4,0.59 0.24,1.4 -0.35,1.82c-0.05,0.02 -3.37,2.27 -5.33,4.23c-1.95,1.95 -4.2,5.28 -4.22,5.32c-0.29,0.4 -0.7,0.59 -1.12,0.59z"></path><path id="路径 3" fill-rule="evenodd" style="fill:#1957E6" opacity="1" d="M40.062,38.651c-1.01,0 -2.02,-0.37 -2.79,-1.14l-14.55,-14.54c-0.52,-0.53 -0.81,-1.24 -0.81,-1.96c0,-0.75 0.29,-1.45 0.81,-1.96l1.79,-1.78c1.01,-1.01 2.64,-1.01 3.65,0l14.69,14.69c1.54,1.54 1.54,4.03 0,5.57c-0.77,0.75 -1.78,1.12 -2.79,1.12zM24.592,20.881c-0.02,0.02 -0.04,0.06 -0.04,0.11c0,0.04 0.02,0.08 0.04,0.11l14.55,14.54c0.5,0.5 1.34,0.5 1.84,0c0.51,-0.51 0.51,-1.34 0,-1.85l-14.65,-14.65z"></path><path id="路径 4" fill-rule="evenodd" style="fill:#1957E6" opacity="1" d="M25.32,38.322h-21.89c-0.7,0 -1.27,-0.57 -1.27,-1.27c0,-0.71 0.57,-1.28 1.27,-1.28h21.89c0.71,0 1.28,0.57 1.28,1.28c0,0.7 -0.57,1.27 -1.28,1.27zM27.52,43.032h-26.27c-0.68,0 -1.25,-0.55 -1.25,-1.25c0,-0.69 0.55,-1.26 1.25,-1.26h26.27c0.68,0 1.26,0.55 1.26,1.26c-0.03,0.7 -0.58,1.25 -1.26,1.25z"></path></g></g><defs><rect id="path_0" x="0" y="0" width="44" height="44" /></defs></svg>