<svg xmlns="http://www.w3.org/2000/svg" xmlns:xlink="http://www.w3.org/1999/xlink" width="44" height="44" viewBox="0 0 44 44" fill="none"><g opacity="1"  transform="translate(0 0)  rotate(0)"><mask id="bg-mask-0" fill="white"><use transform="translate(0 0)  rotate(NaN)" xlink:href="#path_0"></use></mask><g mask="url(#bg-mask-0)" ><path id="路径 1" fill-rule="evenodd" style="fill:#1957E6" opacity="1" d="M31.1589,24.3727l8.64,8.6601c0.03,0.03 0.06,0.0499 0.08,0.08c0.03,0.0299 0.06,0.06 0.08,0.09c0.03,0.0299 0.06,0.0599 0.08,0.09c0.03,0.03 0.05,0.06 0.08,0.09c0.02,0.03 0.05,0.0599 0.07,0.0899c0.03,0.0301 0.05,0.0601 0.07,0.0901c0.03,0.03 0.05,0.07 0.07,0.1c0.03,0.0299 0.05,0.0599 0.07,0.0999c0.02,0.0301 0.04,0.0601 0.06,0.1001c0.03,0.0299 0.05,0.06 0.07,0.0999c0.02,0.0301 0.04,0.0601 0.06,0.1001c0.02,0.03 0.03,0.07 0.05,0.1c0.02,0.04 0.04,0.0699 0.06,0.11c0.02,0.0299 0.03,0.07 0.05,0.0999c0.02,0.0401 0.03,0.07 0.05,0.11c0.01,0.0401 0.03,0.07 0.04,0.1101c0.02,0.0299 0.03,0.07 0.05,0.11c0.01,0.0299 0.03,0.07 0.04,0.11c0.01,0.0399 0.03,0.07 0.04,0.1099c0.01,0.04 0.02,0.0701 0.03,0.11c0.01,0.0401 0.03,0.0801 0.04,0.1201c0.01,0.03 0.02,0.07 0.03,0.1099c0.01,0.04 0.01,0.0801 0.02,0.1201c0.01,0.03 0.02,0.07 0.03,0.11c0,0.0399 0.01,0.08 0.02,0.12c0.01,0.04 0.01,0.07 0.02,0.11c0,0.0399 0.01,0.0799 0.01,0.12c0.01,0.04 0.01,0.0799 0.02,0.1199c0,0.0401 0,0.0801 0.01,0.1201c0,0.03 0,0.07 0,0.1099c0,0.04 0.01,0.0801 0.01,0.1201c0,0.0399 0,0.0799 0,0.12c0,1.2799 -0.5,2.4899 -1.41,3.4c-0.03,0.03 -0.06,0.05 -0.08,0.08c-0.03,0.0299 -0.06,0.06 -0.09,0.08c-0.03,0.03 -0.06,0.05 -0.09,0.08c-0.03,0.0299 -0.06,0.0499 -0.09,0.08c-0.03,0.0199 -0.06,0.05 -0.09,0.07c-0.03,0.02 -0.06,0.05 -0.09,0.07c-0.04,0.03 -0.07,0.05 -0.1,0.07c-0.03,0.02 -0.06,0.05 -0.1,0.07c-0.03,0.02 -0.06,0.04 -0.1,0.06c-0.03,0.0199 -0.06,0.05 -0.1,0.07c-0.03,0.02 -0.06,0.0399 -0.1,0.0599c-0.03,0.0101 -0.07,0.0301 -0.1,0.05c-0.03,0.02 -0.07,0.04 -0.1,0.06c-0.04,0.0101 -0.08,0.03 -0.11,0.05c-0.04,0.02 -0.07,0.0301 -0.11,0.0501c-0.03,0.01 -0.07,0.03 -0.11,0.0399c-0.03,0.02 -0.07,0.0301 -0.11,0.05c-0.03,0.0101 -0.07,0.0301 -0.11,0.04c-0.03,0.0101 -0.07,0.0301 -0.11,0.0401c-0.03,0.0099 -0.07,0.02 -0.11,0.0299c-0.04,0.02 -0.08,0.0301 -0.11,0.0401c-0.04,0.01 -0.08,0.02 -0.12,0.0299c-0.04,0.0101 -0.07,0.02 -0.11,0.02c-0.04,0.0101 -0.08,0.02 -0.12,0.0301c-0.04,0.01 -0.07,0.01 -0.11,0.0199c-0.04,0.0101 -0.08,0.0101 -0.12,0.02c-0.04,0 -0.08,0.0101 -0.12,0.0101c-0.04,0.0099 -0.07,0.0099 -0.11,0.02c-0.04,0 -0.08,0 -0.12,0.0099c-0.04,0 -0.08,0 -0.12,0c-0.04,0.0101 -0.08,0.0101 -0.12,0.0101c-0.04,0 -0.08,0 -0.11,0c-1.29,0 -2.49,-0.5 -3.4,-1.41l-9.7,-9.71l-8.19,8.97c-1.4,1.4 -3.21,2.15 -5.13,2.15c-0.06,0 -0.12,0 -0.18,0c-0.06,0 -0.12,-0.0101 -0.18,-0.0101c-0.06,0 -0.12,-0.0099 -0.17,-0.0099c-0.06,0 -0.12,-0.0101 -0.18,-0.0101c-0.06,-0.0099 -0.12,-0.02 -0.18,-0.02c-0.06,-0.0099 -0.11,-0.02 -0.17,-0.0299c-0.06,-0.01 -0.12,-0.01 -0.18,-0.0201c-0.05,-0.0099 -0.11,-0.0299 -0.17,-0.04c-0.06,-0.0099 -0.12,-0.0199 -0.17,-0.0299c-0.06,-0.0201 -0.12,-0.03 -0.18,-0.0401c-0.05,-0.02 -0.11,-0.0299 -0.17,-0.05c-0.05,-0.0099 -0.11,-0.0299 -0.17,-0.0499c-0.05,-0.02 -0.11,-0.03 -0.17,-0.05c-0.05,-0.02 -0.11,-0.04 -0.16,-0.06c-0.06,-0.0201 -0.11,-0.0401 -0.17,-0.0601c-0.05,-0.0199 -0.11,-0.0399 -0.16,-0.07c-0.06,-0.02 -0.11,-0.0399 -0.17,-0.07c-0.05,-0.02 -0.1,-0.0499 -0.16,-0.07c-0.05,-0.0299 -0.1,-0.0499 -0.16,-0.0799c-0.05,-0.0301 -0.1,-0.0501 -0.15,-0.0801c-0.06,-0.0299 -0.11,-0.0599 -0.16,-0.09c-0.05,-0.0299 -0.1,-0.0499 -0.15,-0.09c-0.05,-0.0299 -0.1,-0.0599 -0.15,-0.09c-0.05,-0.0299 -0.1,-0.0599 -0.15,-0.0999c-0.05,-0.03 -0.1,-0.0601 -0.15,-0.1001c-0.04,-0.03 -0.09,-0.0599 -0.14,-0.0999c-0.05,-0.0401 -0.09,-0.07 -0.14,-0.1101c-0.05,-0.0299 -0.09,-0.07 -0.14,-0.11c-0.04,-0.0399 -0.09,-0.07 -0.13,-0.1099c-0.05,-0.04 -0.09,-0.08 -0.13,-0.1201c-0.05,-0.0399 -0.09,-0.0799 -0.13,-0.1199c-0.05,-0.0401 -0.09,-0.0801 -0.13,-0.1301c-1.36,-1.36 -2.11,-3.1699 -2.11,-5.0999c0,-0.0601 0,-0.1201 0,-0.17c0,-0.06 0.01,-0.1201 0.01,-0.18c0,-0.06 0.01,-0.1201 0.01,-0.18c0,-0.06 0.01,-0.1201 0.01,-0.17c0.01,-0.0601 0.02,-0.12 0.02,-0.1801c0.01,-0.06 0.02,-0.1199 0.03,-0.18c0.01,-0.0499 0.01,-0.1099 0.02,-0.1699c0.01,-0.0601 0.03,-0.12 0.04,-0.18c0.01,-0.05 0.02,-0.11 0.03,-0.1701c0.02,-0.0599 0.03,-0.11 0.04,-0.1699c0.02,-0.0601 0.03,-0.1201 0.05,-0.17c0.01,-0.06 0.03,-0.1201 0.05,-0.17c0.01,-0.06 0.03,-0.1201 0.05,-0.17c0.02,-0.06 0.04,-0.11 0.06,-0.17c0.02,-0.05 0.04,-0.1101 0.06,-0.17c0.02,-0.05 0.04,-0.1101 0.07,-0.16c0.02,-0.0501 0.04,-0.11 0.07,-0.16c0.02,-0.06 0.04,-0.11 0.07,-0.16c0.02,-0.0601 0.05,-0.11 0.08,-0.16c0.02,-0.0601 0.05,-0.11 0.08,-0.16c0.03,-0.05 0.05,-0.1 0.08,-0.1601c0.03,-0.0499 0.06,-0.0999 0.09,-0.15c0.03,-0.0499 0.06,-0.1 0.1,-0.1499c0.03,-0.05 0.06,-0.1001 0.09,-0.15c0.03,-0.0501 0.07,-0.1 0.1,-0.14c0.04,-0.05 0.07,-0.1 0.11,-0.1501c0.03,-0.0399 0.07,-0.09 0.1,-0.1399c0.04,-0.05 0.08,-0.09 0.11,-0.14c0.04,-0.04 0.08,-0.09 0.12,-0.1301c0.04,-0.0499 0.08,-0.09 0.12,-0.1299c0.04,-0.0501 0.08,-0.09 0.12,-0.1301c0.04,-0.0499 0.08,-0.09 0.12,-0.1299l11.66,-10.6801l-6.79,-6.8c-0.04,0.02 -0.08,0.04 -0.13,0.06c-0.04,0.02 -0.08,0.03 -0.12,0.05c-0.05,0.02 -0.09,0.03 -0.13,0.05c-0.05,0.01 -0.09,0.03 -0.14,0.04c-0.04,0.02 -0.08,0.03 -0.13,0.04c-0.04,0.01 -0.09,0.02 -0.13,0.03c-0.05,0.01 -0.09,0.02 -0.14,0.03c-0.04,0.01 -0.09,0.02 -0.14,0.02c-0.04,0.01 -0.09,0.01 -0.13,0.02c-0.05,0 -0.1,0.01 -0.14,0.01c-0.05,0 -0.09,0 -0.14,0.01c-0.05,0 -0.09,0 -0.14,0c-0.05,0 -0.09,-0.01 -0.14,-0.01c-0.04,0 -0.09,0 -0.14,-0.01c-0.04,0 -0.09,-0.01 -0.13,-0.01c-0.05,-0.01 -0.1,-0.02 -0.14,-0.03c-0.05,0 -0.09,-0.01 -0.14,-0.02c-0.04,-0.01 -0.09,-0.02 -0.13,-0.03c-0.05,-0.01 -0.09,-0.03 -0.14,-0.04c-0.04,-0.01 -0.08,-0.03 -0.13,-0.04c-0.04,-0.02 -0.09,-0.03 -0.13,-0.05c-0.04,-0.01 -0.08,-0.03 -0.13,-0.05c-0.04,-0.02 -0.08,-0.04 -0.12,-0.06c-0.05,-0.02 -0.09,-0.04 -0.13,-0.06c-0.04,-0.02 -0.08,-0.04 -0.12,-0.06c-0.04,-0.03 -0.08,-0.05 -0.12,-0.08c-0.04,-0.02 -0.08,-0.05 -0.11,-0.07c-0.04,-0.03 -0.08,-0.05 -0.12,-0.08c-0.03,-0.03 -0.07,-0.06 -0.11,-0.09c-0.03,-0.02 -0.07,-0.05 -0.1,-0.08c-0.04,-0.03 -0.07,-0.07 -0.11,-0.1c-0.03,-0.03 -0.06,-0.06 -0.1,-0.09l-2.53,-2.52995c-0.01,-0.02 -0.02,-0.03 -0.04,-0.05c-0.01,-0.01 -0.02,-0.03 -0.04,-0.04c-0.01,-0.02 -0.02,-0.03 -0.03,-0.05c-0.01,-0.01 -0.03,-0.03 -0.04,-0.05c-0.01,-0.01 -0.02,-0.03 -0.03,-0.05c-0.01,-0.01 -0.02,-0.03 -0.03,-0.05c-0.01,-0.01 -0.02,-0.03 -0.02,-0.05c-0.01,-0.02 -0.02,-0.04 -0.03,-0.05c-0.01,-0.02 -0.01,-0.04 -0.02,-0.06c-0.01,-0.02 -0.01,-0.04 -0.02,-0.06c0,-0.01 -0.01,-0.03 -0.01,-0.05c-0.01,-0.02 -0.01,-0.04 -0.02,-0.06c0,-0.02 0,-0.04 -0.01,-0.06c0,-0.02 0,-0.04 0,-0.06c-0.01,-0.02 -0.01,-0.04 -0.01,-0.06c0,-0.02 0,-0.04 0,-0.06c0,-0.01 0,-0.03 0,-0.05c0,-0.02 0,-0.04 0.01,-0.06c0,-0.02 0,-0.04 0,-0.06c0.01,-0.02 0.01,-0.04 0.01,-0.06c0.01,-0.02 0.01,-0.04 0.02,-0.06c0,-0.02 0.01,-0.04 0.01,-0.05c0.01,-0.02 0.01,-0.04 0.02,-0.06c0.01,-0.02 0.01,-0.04 0.02,-0.06c0.01,-0.01 0.02,-0.03 0.03,-0.05c0,-0.02 0.01,-0.04 0.02,-0.05c0.01,-0.02 0.02,-0.04 0.03,-0.05c0.01,-0.02 0.02,-0.04 0.03,-0.05c0.01,-0.02 0.03,-0.04 0.04,-0.05c0.01,-0.02 0.02,-0.03 0.03,-0.05c0.02,-0.01 0.03,-0.03 0.04,-0.04c0.02,-0.02 0.03,-0.03 0.04,-0.05l3.4,-3.4c0.01,-0.01 0.03,-0.03 0.04,-0.04c0.02,-0.01 0.03,-0.02 0.05,-0.04c0.01,-0.01 0.03,-0.02 0.04,-0.03c0.02,-0.02 0.04,-0.03 0.05,-0.04c0.02,-0.01 0.03,-0.02 0.05,-0.03c0.02,-0.01 0.04,-0.02 0.05,-0.03c0.02,-0.01 0.04,-0.02 0.05,-0.02c0.02,-0.01 0.04,-0.02 0.06,-0.03c0.02,-0.01 0.04,-0.01 0.05,-0.02c0.02,-0.01 0.04,-0.01 0.06,-0.02c0.02,0 0.04,-0.01 0.06,-0.01c0.02,-0.01 0.03,-0.01 0.05,-0.02c0.02,0 0.04,0 0.06,-0.01c0.02,0 0.04,0 0.06,0c0.02,-0.01 0.04,-0.01 0.06,-0.01c0.02,0 0.04,0 0.06,0c0.02,0 0.04,0 0.06,0c0.02,0 0.04,0 0.06,0.01c0.02,0 0.03,0 0.05,0c0.02,0.01 0.04,0.01 0.06,0.01c0.02,0.01 0.04,0.01 0.06,0.02c0.02,0 0.04,0.01 0.06,0.01c0.02,0.01 0.03,0.01 0.05,0.02c0.02,0.01 0.04,0.01 0.06,0.02c0.02,0.01 0.03,0.02 0.05,0.03c0.02,0 0.04,0.01 0.05,0.02c0.02,0.01 0.04,0.02 0.05,0.03c0.02,0.01 0.04,0.02 0.05,0.03c0.02,0.01 0.04,0.02 0.05,0.04c0.02,0.01 0.03,0.02 0.05,0.03c0.01,0.02 0.03,0.03 0.04,0.04c0.02,0.01 0.03,0.03 0.05,0.04l2.53,2.53c0.03,0.04 0.06,0.07 0.09,0.1c0.03,0.04 0.06,0.07 0.09,0.11c0.03,0.03 0.06,0.07 0.09,0.11c0.03,0.03 0.06,0.07 0.09,0.11c0.02,0.03 0.05,0.07 0.07,0.11c0.03,0.04 0.06,0.08 0.08,0.12c0.02,0.04 0.05,0.08 0.07,0.12c0.02,0.04 0.04,0.08 0.07,0.12c0.02,0.04 0.04,0.08 0.06,0.12c0.02,0.04 0.04,0.09 0.05,0.13c0.02,0.04 0.04,0.08 0.05,0.13c0.02,0.04 0.04,0.08 0.05,0.13c0.02,0.04 0.03,0.09 0.04,0.13c0.02,0.04 0.03,0.09 0.04,0.13c0.01,0.05 0.02,0.09 0.03,0.14c0.01,0.04 0.02,0.09 0.03,0.14c0,0.04 0.01,0.09 0.02,0.13c0,0.05 0.01,0.09 0.01,0.14c0.01,0.05 0.01,0.09 0.01,0.14c0,0.04 0.01,0.09 0.01,0.14c0,0.04 0,0.09 0,0.14c-0.01,0.04 -0.01,0.09 -0.01,0.13c0,0.05 -0.01,0.1 -0.01,0.14c-0.01,0.05 -0.01,0.09 -0.02,0.14c0,0.05 -0.01,0.09 -0.02,0.14c-0.01,0.04 -0.02,0.09 -0.03,0.13c-0.01,0.05 -0.02,0.09 -0.03,0.14c-0.01,0.04 -0.02,0.09 -0.04,0.13c-0.01,0.05 -0.02,0.09 -0.04,0.13c-0.01,0.05 -0.03,0.09 -0.05,0.13c-0.01,0.05 -0.03,0.09 -0.05,0.13c-0.02,0.04 -0.04,0.09 -0.06,0.13l6.87,6.86995l1.42,-1.3c-0.1,-0.59 -0.15,-1.17 -0.15,-1.73c0,-0.18 0.01,-0.36 0.02,-0.53c0,-0.18 0.02,-0.36 0.03,-0.53c0.02,-0.18 0.04,-0.35 0.07,-0.53c0.03,-0.18 0.06,-0.35 0.09,-0.52c0.03,-0.18 0.07,-0.35 0.12,-0.52c0.04,-0.17 0.09,-0.34 0.14,-0.51c0.05,-0.17 0.1,-0.34 0.16,-0.50995c0.06,-0.16 0.13,-0.33 0.2,-0.49c0.06,-0.17 0.13,-0.33 0.21,-0.49c0.08,-0.16 0.16,-0.31 0.24,-0.47c0.08,-0.16 0.17,-0.31 0.26,-0.46c0.09,-0.15 0.19,-0.3 0.28,-0.45c0.1,-0.15 0.2,-0.29 0.31,-0.44c0.1,-0.14 0.21,-0.28 0.33,-0.41c0.11,-0.14 0.22,-0.28 0.34,-0.41c0.12,-0.13 0.24,-0.26 0.37,-0.38c0.12,-0.13 0.25,-0.25 0.38,-0.37c0.13,-0.12 0.27,-0.23 0.4,-0.34c0.14,-0.12 0.28,-0.23 0.42,-0.33c0.14,-0.11 0.29,-0.21 0.43,-0.31c0.15,-0.1 0.3,-0.19 0.45,-0.28c0.15,-0.09 0.31,-0.18 0.46,-0.26c0.16,-0.09 0.32,-0.17 0.48,-0.24c0.16,-0.08 0.32,-0.15 0.48,-0.22c0.17,-0.07 0.33,-0.13 0.5,-0.19c0.16,-0.06 0.33,-0.12 0.5,-0.17c0.17,-0.05 0.34,-0.1 0.51,-0.14c0.17,-0.04 0.35,-0.08 0.52,-0.12c0.17,-0.03 0.35,-0.06 0.52,-0.09c0.18,-0.03 0.35,-0.05 0.53,-0.07c0.18,-0.01 0.35,-0.03 0.53,-0.04c0.18,0 0.35,-0.01 0.53,-0.01c0.25,0 0.5,0.01 0.75,0.03c0.25,0.02 0.5,0.04 0.75,0.08c0.25,0.03 0.49,0.08 0.74,0.13c0.25,0.05 0.49,0.11 0.73,0.18c0.02,0.01 0.05,0.02 0.07,0.02c0.03,0.01 0.05,0.02 0.08,0.03c0.02,0.01 0.04,0.02 0.07,0.04c0.02,0.01 0.04,0.02 0.07,0.03c0.02,0.02 0.04,0.03 0.06,0.05c0.02,0.01 0.04,0.03 0.07,0.04c0.02,0.02 0.04,0.04 0.06,0.05c0.01,0.02 0.03,0.04 0.05,0.06c0.02,0.02 0.04,0.03 0.05,0.05c0.02,0.02 0.04,0.04 0.05,0.07c0.02,0.02 0.03,0.04 0.05,0.06c0.01,0.02 0.03,0.04 0.04,0.07c0.01,0.02 0.02,0.04 0.04,0.07c0.01,0.02 0.02,0.04 0.03,0.07c0.01,0.02 0.02,0.05 0.02,0.07c0.01,0.03 0.02,0.05 0.03,0.08c0,0.02 0.01,0.05 0.01,0.07c0.01,0.03 0.01,0.05 0.01,0.08c0.01,0.03 0.01,0.05 0.01,0.08c0,0.02 0,0.05 0,0.08c0,0.02 0,0.05 0,0.07c0,0.03 0,0.06 -0.01,0.08c0,0.03 -0.01,0.05 -0.01,0.08c-0.01,0.02 -0.01,0.05 -0.02,0.07c-0.01,0.03 -0.01,0.05 -0.02,0.08c-0.01,0.02 -0.02,0.05 -0.03,0.07c-0.01,0.03 -0.02,0.05 -0.03,0.07c-0.02,0.03 -0.03,0.05 -0.04,0.07c-0.01,0.02 -0.03,0.05 -0.04,0.07c-0.02,0.02 -0.03,0.04 -0.05,0.06c-0.02,0.02 -0.03,0.04 -0.05,0.06c-0.02,0.02 -0.03,0.04 -0.05,0.06l-2.08,2.07c-0.04,0.04 -0.08,0.09 -0.11,0.13c-0.04,0.04 -0.08,0.08 -0.11,0.13c-0.04,0.04 -0.08,0.09 -0.11,0.13c-0.03,0.05 -0.07,0.09 -0.1,0.14c-0.03,0.05 -0.06,0.1 -0.09,0.14c-0.03,0.05 -0.06,0.1 -0.08,0.15c-0.03,0.05 -0.05,0.1 -0.08,0.15c-0.02,0.06 -0.05,0.11 -0.07,0.16c-0.02,0.05 -0.04,0.11 -0.06,0.16c-0.02,0.05 -0.03,0.11 -0.05,0.16c-0.02,0.06 -0.03,0.11 -0.05,0.17c-0.01,0.05 -0.02,0.11 -0.03,0.16c-0.01,0.06 -0.02,0.11 -0.03,0.17c-0.01,0.05 -0.02,0.11 -0.02,0.17c-0.01,0.05 -0.01,0.11 -0.02,0.17c0,0.05 0,0.11 0,0.17c0,0.05 0,0.11 0,0.17c0.01,0.05 0.01,0.11 0.02,0.16995c0,0.05 0.01,0.11 0.02,0.17c0.01,0.05 0.02,0.11 0.03,0.16c0.01,0.06 0.02,0.11 0.03,0.17c0.02,0.06 0.03,0.11 0.05,0.16c0.02,0.06 0.03,0.11 0.05,0.17c0.02,0.05 0.04,0.1 0.06,0.15c0.02,0.06 0.05,0.11 0.07,0.16c0.03,0.05 0.05,0.1 0.08,0.15c0.02,0.05 0.05,0.1 0.08,0.15c0.03,0.05 0.06,0.1 0.09,0.14c0.03,0.05 0.07,0.1 0.1,0.14c0.03,0.05 0.07,0.09 0.11,0.14c0.03,0.04 0.07,0.08 0.11,0.13c0.03,0.04 0.07,0.08 0.11,0.12c1.31,1.31 3.59,1.31 4.9,0l2.07,-2.08c0.02,-0.02 0.04,-0.03 0.06,-0.05c0.02,-0.02 0.04,-0.03995 0.06,-0.04995c0.02,-0.02 0.04,-0.03 0.06,-0.05c0.02,-0.01 0.05,-0.03 0.07,-0.04c0.02,-0.01 0.04,-0.02 0.07,-0.04c0.02,-0.01 0.04,-0.02 0.07,-0.03c0.02,-0.01 0.05,-0.02 0.07,-0.03c0.03,-0.01 0.05,-0.01 0.08,-0.02c0.02,-0.01 0.05,-0.01 0.07,-0.02c0.03,0 0.05,-0.01 0.08,-0.01c0.02,0 0.05,-0.01 0.08,-0.01c0.02,0 0.05,0 0.07,0c0.03,0 0.06,0 0.08,0c0.03,0 0.05,0 0.08,0.01c0.03,0 0.05,0 0.08,0.01c0.02,0 0.05,0.01 0.07,0.02c0.03,0 0.05,0.01 0.08,0.02c0.02,0.01 0.05,0.02 0.07,0.03c0.03,0.01 0.05,0.02 0.07,0.03c0.03,0.01 0.05,0.02 0.07,0.03c0.03,0.02 0.05,0.03 0.07,0.04c0.02,0.02 0.04,0.03 0.06,0.05c0.02,0.02 0.04,0.02995 0.06,0.04995c0.02,0.02 0.04,0.03 0.06,0.05c0.02,0.02 0.04,0.04 0.06,0.06c0.01,0.02 0.03,0.04 0.05,0.06c0.01,0.02 0.03,0.04 0.04,0.06c0.02,0.02 0.03,0.04 0.04,0.07c0.02,0.02 0.03,0.04 0.04,0.07c0.01,0.02 0.02,0.04 0.03,0.07c0.01,0.02 0.02,0.04 0.03,0.07c0.01,0.02 0.02,0.05 0.03,0.07c0.28,0.99 0.42,1.98 0.42,2.97c0,0.17 -0.01,0.34 -0.01,0.51c-0.01,0.17 -0.02,0.34 -0.04,0.51c-0.02,0.16 -0.04,0.33 -0.06,0.5c-0.02,0.17 -0.05,0.33 -0.08,0.5c-0.03,0.17 -0.07,0.33 -0.11,0.5c-0.04,0.16 -0.08,0.32 -0.13,0.49c-0.05,0.16 -0.1,0.32 -0.15,0.48c-0.06,0.16 -0.11,0.32 -0.18,0.48c-0.06,0.15 -0.12,0.31 -0.19,0.46c-0.07,0.16 -0.14,0.31 -0.22,0.46c-0.08,0.15 -0.16,0.3 -0.24,0.45c-0.08,0.14 -0.17,0.29 -0.26,0.43c-0.09,0.15 -0.18,0.29 -0.28,0.42c-0.1,0.14 -0.2,0.28 -0.3,0.41c-0.1,0.14 -0.21,0.27 -0.32,0.4c-0.11,0.13 -0.22,0.25 -0.34,0.38c-0.11,0.12 -0.23,0.24 -0.35,0.36c-0.12,0.12 -0.24,0.23 -0.37,0.35c-0.13,0.11 -0.25,0.22 -0.39,0.32c-0.13,0.11 -0.26,0.21 -0.4,0.31c-0.13,0.1 -0.27,0.2 -0.41,0.29c-0.14,0.1 -0.29,0.19 -0.43,0.28c-0.15,0.08 -0.29,0.17 -0.44,0.25c-0.15,0.08 -0.3,0.15 -0.45,0.23c-0.16,0.07 -0.31,0.14 -0.47,0.2c-0.15,0.07 -0.31,0.13 -0.47,0.19c-0.16,0.06 -0.32,0.11 -0.48,0.16c-0.16,0.06 -0.32,0.1 -0.48,0.15c-0.17,0.04 -0.33,0.08 -0.5,0.11c-0.16,0.04 -0.33,0.07 -0.49,0.1c-0.17,0.03 -0.34,0.05 -0.51,0.07c-0.16,0.02 -0.33,0.04 -0.5,0.05zM9.0589,7.33275l-1.68,-1.68l-1.7,1.7l1.68,1.69c0.01,0.01 0.03,0.02 0.04,0.04c0.02,0.01 0.03,0.02 0.05,0.03c0.01,0.02 0.03,0.03 0.05,0.04c0.01,0.01 0.03,0.02 0.04,0.03c0.02,0.01 0.04,0.02 0.05,0.03c0.02,0.01 0.04,0.02 0.05,0.03c0.02,0.01 0.04,0.02 0.06,0.03c0.02,0 0.03,0.01 0.05,0.02c0.02,0.01 0.04,0.01 0.06,0.02c0.01,0.01 0.03,0.01 0.05,0.02c0.02,0 0.04,0.01 0.06,0.01c0.02,0.01 0.04,0.01 0.06,0.01c0.01,0.01 0.03,0.01 0.05,0.01c0.02,0.01 0.04,0.01 0.06,0.01c0.02,0 0.04,0 0.06,0.01c0.02,0 0.04,0 0.06,0c0.02,0 0.04,0 0.06,0c0.02,-0.01 0.04,-0.01 0.06,-0.01c0.01,0 0.03,0 0.05,-0.01c0.02,0 0.04,0 0.06,-0.01c0.02,0 0.04,0 0.06,-0.01c0.02,0 0.04,-0.01 0.06,-0.01c0.01,-0.01 0.03,-0.01 0.05,-0.02c0.02,-0.01 0.04,-0.01 0.06,-0.02c0.01,-0.01 0.03,-0.02 0.05,-0.02c0.02,-0.01 0.03,-0.02 0.05,-0.03c0.02,-0.01 0.04,-0.02 0.05,-0.03c0.02,-0.01 0.04,-0.02 0.05,-0.03c0.02,-0.01 0.04,-0.02 0.05,-0.03c0.02,-0.01 0.03,-0.02 0.05,-0.04c0.01,-0.01 0.03,-0.02 0.04,-0.03c0.02,-0.02 0.03,-0.03 0.05,-0.04c0.46,-0.47 0.46,-1.24 0,-1.71zM13.3789,37.4227l13.97,-15.29l0.04,-0.03c0.06,-0.05 0.12,-0.11 0.19,-0.15l0.08,-0.05c0.04,-0.02 0.08,-0.04 0.12,-0.06l0.1,-0.03c0.07,-0.03 0.15,-0.04 0.22,-0.05c0.06,-0.01 0.12,-0.01 0.18,-0.01c0.06,0 0.12,0.01 0.18,0.02l0.05,0.01c0.64,0.14 1.27,0.22 1.89,0.22c0.14,0 0.28,-0.01 0.42,-0.01c0.13,-0.01 0.27,-0.02 0.41,-0.03c0.13,-0.02 0.27,-0.04 0.41,-0.06c0.13,-0.02 0.27,-0.04 0.4,-0.07c0.14,-0.02 0.27,-0.05 0.41,-0.09c0.13,-0.03 0.26,-0.07 0.39,-0.11c0.14,-0.04 0.27,-0.08 0.4,-0.13c0.12,-0.05 0.25,-0.1 0.38,-0.15c0.13,-0.05 0.25,-0.11 0.38,-0.17c0.12,-0.06 0.24,-0.12 0.37,-0.18c0.12,-0.07 0.24,-0.14 0.35,-0.21c0.12,-0.07 0.24,-0.14 0.35,-0.22c0.12,-0.07 0.23,-0.15 0.34,-0.24c0.11,-0.08 0.22,-0.16 0.33,-0.25c0.1,-0.09 0.21,-0.18 0.31,-0.27c0.1,-0.09 0.2,-0.19 0.3,-0.29c0.09,-0.09 0.19,-0.19 0.28,-0.3c0.09,-0.1 0.18,-0.2 0.27,-0.31c0.09,-0.1 0.17,-0.21 0.25,-0.32c0.09,-0.11 0.17,-0.23 0.24,-0.34c0.08,-0.12 0.15,-0.23 0.22,-0.35c0.07,-0.12 0.14,-0.24 0.21,-0.36c0.06,-0.12 0.12,-0.24 0.18,-0.37c0.06,-0.12 0.12,-0.25 0.17,-0.38c0.05,-0.12 0.1,-0.25 0.15,-0.38c0.04,-0.13 0.09,-0.26 0.13,-0.39c0.04,-0.14 0.07,-0.27 0.11,-0.4c0.03,-0.14 0.06,-0.27 0.09,-0.4c0.02,-0.14 0.05,-0.28 0.07,-0.41c0.02,-0.14 0.03,-0.27 0.05,-0.41c0.01,-0.14 0.02,-0.28 0.03,-0.41c0,-0.14 0.01,-0.28 0.01,-0.42v-0.11l-0.4,0.4c-1.11,1.11 -2.58,1.72 -4.15,1.72c-1.56,0 -3.04,-0.61 -4.14,-1.72c-0.07,-0.07 -0.14,-0.14 -0.2,-0.21c-0.07,-0.07 -0.13,-0.14 -0.19,-0.22c-0.06,-0.07 -0.12,-0.15 -0.18,-0.23c-0.05,-0.07 -0.11,-0.15 -0.16,-0.23c-0.05,-0.08 -0.11,-0.16 -0.16,-0.24c-0.04,-0.09 -0.09,-0.17 -0.14,-0.26c-0.04,-0.08 -0.08,-0.17 -0.13,-0.25c-0.04,-0.09 -0.08,-0.18 -0.11,-0.27c-0.04,-0.09 -0.07,-0.17 -0.11,-0.27c-0.03,-0.09 -0.06,-0.18 -0.09,-0.27c-0.02,-0.09 -0.05,-0.18 -0.07,-0.28c-0.03,-0.09 -0.05,-0.18 -0.07,-0.28c-0.01,-0.09 -0.03,-0.19 -0.04,-0.28c-0.02,-0.1 -0.03,-0.19 -0.04,-0.29c-0.01,-0.09 -0.02,-0.19 -0.02,-0.28c-0.01,-0.09995 -0.01,-0.19995 -0.01,-0.28995c0,-0.1 0,-0.19 0.01,-0.29c0,-0.1 0.01,-0.19 0.02,-0.29c0.01,-0.09 0.02,-0.19 0.04,-0.28c0.01,-0.1 0.03,-0.19 0.04,-0.29c0.02,-0.09 0.04,-0.19 0.07,-0.28c0.02,-0.09 0.05,-0.18 0.07,-0.28c0.03,-0.09 0.06,-0.18 0.09,-0.27c0.04,-0.09 0.07,-0.18 0.11,-0.27c0.03,-0.09 0.07,-0.18 0.11,-0.26c0.05,-0.09 0.09,-0.17 0.13,-0.26c0.05,-0.08 0.1,-0.17 0.14,-0.25c0.05,-0.08 0.11,-0.16 0.16,-0.24c0.05,-0.08 0.11,-0.16 0.16,-0.24c0.06,-0.08 0.12,-0.15 0.18,-0.23c0.06,-0.07 0.12,-0.14 0.19,-0.22c0.06,-0.07 0.13,-0.14 0.2,-0.21l0.4,-0.39c-4.67,-0.03 -8.52,3.74 -8.52,8.40995c0,0.16 0,0.32 0.01,0.48c0.01,0.16 0.02,0.32 0.04,0.48c0.02,0.16 0.05,0.32 0.07,0.47c0.03,0.16 0.06,0.32 0.1,0.47v0.05c0.01,0.04 0.02,0.08 0.02,0.12l0.01,0.11c-0.01,0.06 -0.01,0.12 -0.02,0.18c-0.01,0.05 -0.02,0.11 -0.04,0.17l-0.04,0.11l-0.05,0.1c-0.03,0.05 -0.06,0.1 -0.1,0.15c-0.03,0.05 -0.07,0.09 -0.11,0.13l-0.03,0.04l-15.31,14.0301c-0.87,0.87 -1.37,2.08 -1.37,3.36c0,1.29 0.5,2.4899 1.41,3.3999c1.82,1.8201 4.98,1.8201 6.79,0zM38.8089,36.4328c0,-0.0401 0,-0.0801 -0.01,-0.12c0,-0.04 0,-0.0801 0,-0.1201c-0.01,-0.0399 -0.01,-0.0799 -0.02,-0.1099c0,-0.04 -0.01,-0.08 -0.02,-0.1201c-0.01,-0.04 -0.01,-0.0799 -0.02,-0.1199c-0.01,-0.03 -0.02,-0.07 -0.04,-0.1101c-0.01,-0.04 -0.02,-0.0699 -0.03,-0.11c-0.02,-0.0399 -0.03,-0.0799 -0.05,-0.11c-0.01,-0.0399 -0.03,-0.07 -0.04,-0.1099c-0.02,-0.04 -0.04,-0.07 -0.06,-0.11c-0.01,-0.0301 -0.03,-0.0601 -0.05,-0.1001c-0.02,-0.0299 -0.05,-0.07 -0.07,-0.0999c-0.02,-0.03 -0.04,-0.0601 -0.07,-0.1c-0.02,-0.0301 -0.04,-0.06 -0.07,-0.09c-0.02,-0.0301 -0.05,-0.06 -0.08,-0.09c-0.02,-0.0301 -0.05,-0.06 -0.08,-0.0801l-9.33,-9.35l-3.39,3.4001l9.33,9.35c0.02,0.03 0.05,0.05 0.08,0.0799c0.03,0.02 0.06,0.05 0.09,0.07c0.03,0.0301 0.06,0.0501 0.1,0.07c0.03,0.0301 0.06,0.0501 0.09,0.07c0.04,0.02 0.07,0.04 0.1,0.06c0.04,0.0201 0.07,0.0401 0.11,0.0601c0.03,0.0099 0.07,0.03 0.1,0.05c0.04,0.0099 0.07,0.0299 0.11,0.04c0.04,0.02 0.07,0.03 0.11,0.0399c0.04,0.02 0.07,0.0301 0.11,0.04c0.04,0.0101 0.08,0.02 0.11,0.0301c0.04,0.01 0.08,0.0199 0.12,0.03c0.04,0 0.08,0.0099 0.11,0.02c0.04,0 0.08,0.0099 0.12,0.0099c0.04,0 0.08,0.0101 0.12,0.0101c0.04,0 0.08,0 0.11,0c0.04,0 0.08,0 0.12,0c0.04,0 0.08,-0.0101 0.12,-0.0101c0.04,0 0.08,-0.0099 0.11,-0.0099c0.04,-0.0101 0.08,-0.02 0.12,-0.02c0.04,-0.0101 0.08,-0.02 0.11,-0.03c0.04,-0.0101 0.08,-0.02 0.12,-0.0301c0.04,-0.0099 0.07,-0.02 0.11,-0.04c0.04,-0.0099 0.07,-0.0199 0.11,-0.0399c0.04,-0.0101 0.07,-0.0301 0.11,-0.04c0.03,-0.02 0.07,-0.0401 0.1,-0.05c0.04,-0.02 0.07,-0.04 0.1,-0.0601c0.04,-0.02 0.07,-0.04 0.1,-0.06c0.04,-0.0199 0.07,-0.0399 0.1,-0.07c0.03,-0.0199 0.06,-0.0399 0.1,-0.07c0.03,-0.02 0.06,-0.05 0.09,-0.07c0.03,-0.0299 0.05,-0.0499 0.08,-0.0799c0.46,-0.4601 0.71,-1.06 0.71,-1.7zM9.9889,31.6228c0.04,0 0.08,0 0.11,0c0.04,0 0.08,0 0.12,0.0099c0.04,0 0.08,0.01 0.12,0.01c0.04,0.0101 0.08,0.0201 0.12,0.0201c0.03,0.01 0.07,0.02 0.11,0.03c0.04,0.01 0.08,0.0199 0.11,0.0299c0.04,0.01 0.08,0.0201 0.12,0.0401c0.03,0.01 0.07,0.02 0.11,0.0399c0.03,0.01 0.07,0.0301 0.11,0.0501c0.03,0.01 0.07,0.0299 0.1,0.05c0.04,0.02 0.07,0.04 0.1,0.0599c0.04,0.02 0.07,0.0401 0.1,0.0601c0.04,0.02 0.07,0.05 0.1,0.07c0.03,0.02 0.06,0.0499 0.09,0.07c0.03,0.0299 0.06,0.0499 0.09,0.08c0.03,0.03 0.06,0.05 0.09,0.08c0.03,0.03 0.05,0.06 0.08,0.09c0.03,0.0299 0.05,0.0599 0.08,0.09c0.02,0.03 0.05,0.06 0.07,0.09c0.02,0.0299 0.05,0.0599 0.07,0.0999c0.02,0.03 0.04,0.0601 0.06,0.1001c0.02,0.03 0.04,0.06 0.06,0.0999c0.02,0.0301 0.03,0.07 0.05,0.1001c0.02,0.04 0.03,0.08 0.05,0.11c0.01,0.0399 0.03,0.08 0.04,0.1099c0.02,0.0401 0.03,0.0801 0.04,0.1101c0.01,0.04 0.02,0.0799 0.03,0.1199c0.01,0.04 0.02,0.07 0.03,0.11c0,0.0401 0.01,0.0801 0.02,0.1201c0,0.0399 0.01,0.08 0.01,0.12c0,0.0399 0.01,0.0799 0.01,0.1099c0,0.04 0,0.08 0,0.1201c0,0.04 0,0.08 0,0.1199c0,0.0401 -0.01,0.08 -0.01,0.12c0,0.04 -0.01,0.0801 -0.01,0.1201c-0.01,0.04 -0.02,0.07 -0.02,0.11c-0.01,0.04 -0.02,0.08 -0.03,0.12c-0.01,0.0399 -0.02,0.07 -0.03,0.1099c-0.01,0.04 -0.02,0.08 -0.04,0.1101c-0.01,0.0399 -0.03,0.08 -0.04,0.1099c-0.02,0.04 -0.03,0.0801 -0.05,0.11c-0.02,0.0401 -0.03,0.07 -0.05,0.1101c-0.02,0.0299 -0.04,0.0699 -0.06,0.0999c-0.02,0.0301 -0.04,0.0701 -0.06,0.1001c-0.02,0.0299 -0.05,0.0599 -0.07,0.0999c-0.02,0.0301 -0.05,0.0601 -0.07,0.09c-0.03,0.0301 -0.05,0.0601 -0.08,0.09c-0.03,0.03 -0.05,0.0601 -0.08,0.0801c-0.03,0.03 -0.06,0.0599 -0.09,0.09c-0.03,0.02 -0.06,0.05 -0.09,0.07c-0.03,0.03 -0.06,0.05 -0.09,0.0799c-0.03,0.02 -0.06,0.0401 -0.1,0.0601c-0.03,0.0299 -0.06,0.05 -0.1,0.07c-0.03,0.02 -0.06,0.04 -0.1,0.06c-0.03,0.01 -0.07,0.03 -0.1,0.05c-0.04,0.02 -0.08,0.0299 -0.11,0.05c-0.04,0.0099 -0.08,0.0299 -0.11,0.04c-0.04,0.0099 -0.08,0.02 -0.12,0.04c-0.03,0.01 -0.07,0.0199 -0.11,0.03c-0.04,0.0099 -0.08,0.02 -0.11,0.02c-0.04,0.0099 -0.08,0.02 -0.12,0.02c-0.04,0.01 -0.08,0.01 -0.12,0.0199c-0.04,0 -0.08,0 -0.12,0.0101c-0.03,0 -0.07,0 -0.11,0c-0.04,0 -0.08,0 -0.12,0c-0.04,-0.0101 -0.08,-0.0101 -0.12,-0.0101c-0.04,-0.0099 -0.08,-0.0099 -0.12,-0.0199c-0.04,0 -0.07,-0.0101 -0.11,-0.02c-0.04,0 -0.08,-0.0101 -0.12,-0.02c-0.04,-0.0101 -0.07,-0.02 -0.11,-0.03c-0.04,-0.02 -0.08,-0.0301 -0.11,-0.04c-0.04,-0.0101 -0.08,-0.0301 -0.11,-0.04c-0.04,-0.0201 -0.08,-0.03 -0.11,-0.05c-0.04,-0.02 -0.07,-0.04 -0.11,-0.05c-0.03,-0.02 -0.07,-0.04 -0.1,-0.06c-0.03,-0.02 -0.07,-0.0401 -0.1,-0.07c-0.03,-0.02 -0.07,-0.0401 -0.1,-0.0601c-0.03,-0.0299 -0.06,-0.0499 -0.09,-0.0799c-0.03,-0.02 -0.06,-0.05 -0.09,-0.07c-0.03,-0.0301 -0.06,-0.06 -0.09,-0.09c-0.02,-0.02 -0.05,-0.0501 -0.08,-0.0801c-0.02,-0.0299 -0.05,-0.0599 -0.07,-0.09c-0.03,-0.0299 -0.05,-0.0599 -0.08,-0.09c-0.02,-0.04 -0.04,-0.07 -0.06,-0.0999c-0.03,-0.03 -0.05,-0.07 -0.07,-0.1001c-0.02,-0.03 -0.04,-0.07 -0.06,-0.0999c-0.01,-0.0401 -0.03,-0.07 -0.05,-0.1101c-0.02,-0.0299 -0.03,-0.07 -0.05,-0.11c-0.01,-0.0299 -0.03,-0.07 -0.04,-0.1099c-0.01,-0.0301 -0.02,-0.0701 -0.04,-0.1101c-0.01,-0.0399 -0.02,-0.07 -0.03,-0.1099c-0.01,-0.04 -0.02,-0.08 -0.02,-0.12c-0.01,-0.04 -0.02,-0.07 -0.02,-0.11c-0.01,-0.04 -0.01,-0.0801 -0.02,-0.1201c0,-0.04 -0.01,-0.0799 -0.01,-0.12c0,-0.0399 0,-0.0799 0,-0.1199c0,-0.0401 0,-0.0801 0,-0.1201c0,-0.03 0.01,-0.07 0.01,-0.1099c0.01,-0.04 0.01,-0.0801 0.02,-0.12c0,-0.04 0.01,-0.08 0.02,-0.1201c0,-0.04 0.01,-0.07 0.02,-0.11c0.01,-0.04 0.02,-0.0799 0.03,-0.1199c0.02,-0.03 0.03,-0.07 0.04,-0.1101c0.01,-0.0299 0.03,-0.07 0.04,-0.1099c0.02,-0.03 0.03,-0.07 0.05,-0.11c0.02,-0.0301 0.04,-0.07 0.05,-0.1001c0.02,-0.0399 0.04,-0.0699 0.06,-0.0999c0.02,-0.04 0.04,-0.0701 0.07,-0.1001c0.02,-0.04 0.04,-0.07 0.06,-0.0999c0.03,-0.03 0.05,-0.06 0.08,-0.09c0.02,-0.0301 0.05,-0.0601 0.07,-0.09c0.03,-0.03 0.06,-0.06 0.08,-0.09c0.03,-0.03 0.06,-0.05 0.09,-0.08c0.03,-0.0301 0.06,-0.0501 0.09,-0.08c0.03,-0.0201 0.06,-0.05 0.09,-0.07c0.03,-0.02 0.07,-0.05 0.1,-0.07c0.03,-0.02 0.07,-0.0401 0.1,-0.0601c0.03,-0.0199 0.07,-0.0399 0.1,-0.0599c0.04,-0.0201 0.07,-0.04 0.11,-0.05c0.03,-0.02 0.07,-0.0401 0.11,-0.0501c0.03,-0.0199 0.07,-0.0299 0.11,-0.0399c0.03,-0.02 0.07,-0.0301 0.11,-0.0401c0.04,-0.01 0.07,-0.0199 0.11,-0.0299c0.04,-0.01 0.08,-0.02 0.12,-0.03c0.04,0 0.07,-0.01 0.11,-0.0201c0.04,0 0.08,-0.01 0.12,-0.01c0.04,-0.0099 0.08,-0.0099 0.12,-0.0099c0.04,0 0.08,0 0.12,0z"></path></g></g><defs><rect id="path_0" x="0" y="0" width="44" height="44" /></defs></svg>