<svg xmlns="http://www.w3.org/2000/svg" xmlns:xlink="http://www.w3.org/1999/xlink" width="44" height="44" viewBox="0 0 44 44" fill="none"><g opacity="1"  transform="translate(0 0)  rotate(0)"><g opacity="1"  transform="translate(2 0)  rotate(0)"><mask id="bg-mask-0" fill="white"><use transform="translate(0 0)  rotate(0)" xlink:href="#path_0"></use></mask><g mask="url(#bg-mask-0)" ><path id="路径 1" fill-rule="evenodd" style="fill:#1957E6" opacity="1" d="M4.83908,0.04872c0.26,-0.03 0.52,-0.04 0.78,-0.05c7.15002,0 14.30002,0 21.45002,0c1.03,0.01 2.07,-0.01 3.1,0.01c1.68,0.03 3.31,0.92 4.31,2.33c0.72,1.02 1.11,2.28 1.09,3.54c0,8.93998 0,17.87998 0,26.81998c-0.01,0.59 0.03,1.19 -0.07,1.78c-0.19,1.34 -0.86,2.6 -1.85,3.48c-0.93,0.85 -2.15,1.35 -3.38,1.4c-0.51,0.03 -1.02,0.01 -1.53,0.01h-22.83002c-0.64,0.01 -1.17,0.69 -1.05,1.34c0.08,0.56 0.6,1 1.15,0.98c9.22002,0 18.43002,0 27.65002,0c0.56,-0.01 1.13,0.03 1.67,-0.14c1.11,-0.31 2.03,-1.26 2.33,-2.42c0.11,-0.42 0.13,-0.87 0.12,-1.31v-32.38998c0.01,-0.39 0.24,-0.76 0.56,-0.94c0.4,-0.24 0.93,-0.19 1.27,0.12c0.26,0.23 0.4,0.58 0.4,0.93c0,10.38998 0,20.78998 0,31.17998c-0.01,0.67 0.02,1.33 -0.03,1.99c-0.12,1.64 -0.96,3.19 -2.23,4.16c-0.87,0.67 -1.95,1.07 -3.03,1.12c-0.32,0.02 -0.64,0.01 -0.95,0.01c-9.32,0 -18.63,0 -27.94002,0c-0.75,0.01 -1.5,-0.09 -2.2,-0.37c-1.47,-0.56 -2.68,-1.8 -3.24,-3.32c-0.27,-0.7 -0.39,-1.45 -0.39,-2.19v-31.98998c-0.01,-0.58 0.03,-1.17 0.17,-1.74c0.35,-1.49 1.31,-2.81 2.58,-3.59c0.64,-0.39 1.35,-0.64 2.09,-0.75zM2.30908,5.01872c-0.12,0.51 -0.08,1.04 -0.09,1.56c0,10.50998 0,21.01998 0,31.53998c0,0.63 0.15,1.27 0.45,1.81c0.14,-0.81 0.55,-1.56 1.16,-2.08c0.56,-0.48 1.26,-0.77 1.99,-0.79h22.97002c0.46,-0.01 0.92,0.01 1.38,-0.01c0.93,-0.05 1.84,-0.53 2.43,-1.29c0.46,-0.58 0.73,-1.32 0.74,-2.08c0,-9.32 0,-18.63 0,-27.94998c0,-0.76 -0.27,-1.51 -0.72,-2.1c-0.5,-0.66 -1.23,-1.11 -2.02,-1.26c-0.41,-0.08 -0.83,-0.06 -1.24,-0.06c-7.91,0 -15.82,0 -23.73002,0c-0.67,0 -1.33,0.18 -1.88,0.56v0.01c-0.72,0.49 -1.25,1.27 -1.44,2.14z"></path><path  id="路径 1" style="fill:#1957E6; opacity:1;" d="M3.01076,1.22478M3.01076,1.22478c-1.2347,0.75832 -2.01967,1.85108 -2.35492,3.27828c-0.13074,0.5324 -0.16619,1.07397 -0.15683,1.61704l0.00007,31.9986c0,0.6852 0.10993,1.3708 0.3565,2.0101c0.54528,1.47993 1.52911,2.49083 2.9515,3.0327c0.646,0.2583 1.32793,0.3464 2.01534,0.3373l27.94668,-0.0001c0.0526,0 0.13153,0.00043 0.2368,0.0013c0.30607,0.0024 0.5334,-0.00103 0.682,-0.0103c1.0182,-0.0472 1.9369,-0.38623 2.7561,-1.0171c1.2416,-0.94833 1.9204,-2.21513 2.0364,-3.8004c0.02127,-0.28067 0.03047,-0.70847 0.0276,-1.2834c-0.00153,-0.29933 -0.00117,-0.52517 0.0011,-0.6775v-15.5826v-15.58998c0,-0.20703 -0.0762,-0.41833 -0.2313,-0.5555c-0.20933,-0.19082 -0.4365,-0.21274 -0.6815,-0.06575l-0.006,0.0036l-0.0061,0.00344l0.0061,-0.00344l-0.0061,0.00344c-0.19753,0.11111 -0.2993,0.28346 -0.3053,0.51703l-0.4998,-0.01282h0.5v32.38998h-0.5l0.4999,-0.0113c0.011,0.4853 -0.0132,0.9784 -0.1362,1.448c-0.3766,1.45627 -1.26967,2.38123 -2.6792,2.7749l-0.1345,-0.4816l0.1501,0.4769l-0.1501,-0.4769l0.1501,0.4769c-0.33953,0.10693 -0.83817,0.1606 -1.4959,0.161c-0.1412,0.00013 -0.2463,0.0008 -0.3153,0.002l-13.8338,0.0001h-13.82512v-0.5l0.01818,0.4997l-0.01818,-0.4997l0.01818,0.4997c-0.96955,0.03527 -1.52393,-0.4344 -1.66315,-1.409l0.49497,-0.0707l-0.49169,0.0908l0.49169,-0.0908l-0.49169,0.0908c-0.08731,-0.47293 0.02531,-0.9092 0.33786,-1.3088c0.31843,-0.40713 0.71711,-0.61443 1.19602,-0.6219l22.83783,-0.0001c0.09913,0 0.2467,0.0011 0.4427,0.0033c0.47407,0.00533 0.8267,0.0012 1.0579,-0.0124c1.174,-0.0478 2.19803,-0.47113 3.0721,-1.27c0.9468,-0.8416 1.51087,-1.90197 1.6922,-3.1811l0.001,-0.0067l0.0011,-0.0066l-0.0011,0.0066l0.0011,-0.0066c0.04433,-0.2614 0.065,-0.67027 0.062,-1.2266c-0.00113,-0.2118 -0.00077,-0.37127 0.0011,-0.4784l-0.0001,-26.81148c0.0185,-1.1674 -0.3298,-2.3043 -0.9985,-3.25166c-0.981,-1.38325 -2.28447,-2.08939 -3.9104,-2.11842c-0.38927,-0.00756 -0.9765,-0.01025 -1.7617,-0.00808c-0.5932,0.00164 -1.03797,0.00102 -1.3343,-0.00186l-21.44512,0.00002v-0.5l0.01922,0.49963l-0.01922,-0.49963l0.01922,0.49963v0c-0.33393,0.01284 -0.58123,0.02853 -0.7419,0.04707l-0.05732,-0.4967l0.07352,0.49457c-0.67293,0.10003 -1.32238,0.32839 -1.90333,0.68241zM2.4889,0.37175c0.69511,-0.42358 1.47151,-0.69791 2.27667,-0.8176l0.00808,-0.0012l0.00812,-0.00094c0.18599,-0.02146 0.45869,-0.0391 0.8181,-0.05293v0l0.0096,-0.00037l-0.0096,0.00037l0.0096,-0.00037l21.46443,0.00002c0.2922,0.00284 0.73283,0.00344 1.3219,0.00181c0.79253,-0.00219 1.3866,0.00056 1.7822,0.00824c1.96287,0.03505 3.53273,0.88225 4.7096,2.54158c0.7909,1.1205 1.2032,2.4649 1.1815,3.82834l-0.0001,26.82848c-0.00167,0.09967 -0.00197,0.2517 -0.0009,0.4561c0.00327,0.6142 -0.02207,1.08053 -0.076,1.399l-0.493,-0.0836l0.493,0.0836l-0.493,-0.0836l0.495,0.0702c-0.21567,1.52127 -0.8849,2.7809 -2.0077,3.7789c-1.0536,0.963 -2.28293,1.47303 -3.688,1.5301c-0.25453,0.01493 -0.63047,0.01963 -1.1278,0.0141c-0.1924,-0.0022 -0.33623,-0.0033 -0.4315,-0.0033h-22.8222c-0.16045,0.00247 -0.30178,0.08183 -0.42398,0.2381c-0.12757,0.16307 -0.17495,0.33343 -0.14214,0.5111l0.00184,0.01l-0.00184,-0.01l0.00184,0.01l0.00144,0.0101c0.0544,0.3808 0.26668,0.56447 0.63685,0.551l0.00909,-0.0003l-0.00909,0.0003l0.00909,-0.0003h13.8342l13.816,0.0001c0.07473,-0.00133 0.18557,-0.00207 0.3325,-0.0022c0.55547,-0.00033 0.9542,-0.0386 1.1962,-0.1148l0.0078,-0.0025l-0.0078,0.0025l0.0078,-0.0025l0.0079,-0.0022c1.03953,-0.29027 1.6998,-0.97863 1.9808,-2.0651c0.0994,-0.3795 0.1127,-0.7797 0.1038,-1.1719l-0.0001,-0.0057v-32.40209l0.0001,-0.00641c0.01573,-0.61196 0.28733,-1.06628 0.8148,-1.36297l0.2451,0.43579l-0.2451,-0.43579l0.2451,0.43579l-0.2573,-0.42875c0.67047,-0.40228 1.29,-0.3442 1.8586,0.17425c0.3696,0.32698 0.5687,0.811 0.5687,1.3045v15.58998l-0.0001,15.5975c-0.00213,0.14567 -0.00247,0.36487 -0.001,0.6576c0.003,0.6018 -0.00707,1.0556 -0.0302,1.3614c-0.13793,1.88433 -0.9458,3.3909 -2.4236,4.5197c-0.98553,0.75893 -2.08683,1.16653 -3.3039,1.2228c-0.17207,0.0108 -0.42287,0.01487 -0.7524,0.0122c-0.10267,-0.0008 -0.17893,-0.0012 -0.2288,-0.0012h-27.93335c-0.8191,0.0109 -1.63178,-0.1015 -2.38466,-0.4027c-1.70578,-0.64987 -2.88195,-1.8523 -3.52851,-3.6073c-0.29085,-0.7541 -0.4235,-1.5618 -0.4235,-2.37l0.00008,-31.98136c-0.01085,-0.62921 0.03425,-1.25675 0.18317,-1.86296c0.39874,-1.69751 1.33377,-2.99809 2.80508,-3.90172zM2.79579,5.13324c-0.11212,0.47653 -0.06739,0.96564 -0.0768,1.45509l0.00009,31.53037c0,0.5452 0.12232,1.0906 0.38708,1.5672l-0.43708,0.2428l-0.49269,-0.0851l0.49269,0.0851l-0.49269,-0.0851c0.16797,-0.97187 0.61075,-1.76367 1.32833,-2.3754c0.64193,-0.5502 1.45415,-0.8861 2.30067,-0.9093l0.00685,-0.0002h22.97686c0.1288,-0.00287 0.32697,-0.00347 0.5945,-0.0018c0.3422,0.00213 0.5968,-0.00043 0.7638,-0.0077c0.8384,-0.04513 1.52397,-0.41083 2.0567,-1.0971c0.4146,-0.5228 0.62627,-1.11613 0.635,-1.78v-13.9659v-13.97748c0,-0.65806 -0.20587,-1.25699 -0.6176,-1.79678c-0.4402,-0.58107 -1.0121,-0.93841 -1.7157,-1.072c-0.1966,-0.03835 -0.5091,-0.0558 -0.9375,-0.05234c-0.09267,0.00075 -0.1624,0.00112 -0.2092,0.00112h-23.73002c-0.56478,0 -1.13112,0.15032 -1.59578,0.47136l-0.28422,-0.41136h0.5v0.27453l-0.21868,0.14882l0.21868,-0.14882l-0.21868,0.14882c-0.65185,0.44362 -1.06279,1.05473 -1.23283,1.83333zM1.8206,4.91204c0.22671,-1.03807 0.77576,-1.85363 1.64717,-2.44668l0.28131,0.41336l-0.28131,-0.41336l0.28131,0.41336h-0.5v-0.27228l0.21579,-0.14909c0.63174,-0.43647 1.39635,-0.64863 2.16421,-0.64863h23.73002c0.04407,0 0.1111,-0.00036 0.2011,-0.00109c0.4956,-0.004 0.873,0.01929 1.1322,0.06986c0.95567,0.18146 1.7304,0.66413 2.3242,1.448c0.54833,0.71887 0.8225,1.51995 0.8225,2.40323v13.97748l-0.0001,13.9791c-0.01167,0.8912 -0.29333,1.68453 -0.845,2.38c-0.71947,0.92687 -1.65387,1.42117 -2.8032,1.4829c-0.18347,0.008 -0.4546,0.0109 -0.8134,0.0087c-0.25813,-0.0016 -0.45423,-0.001 -0.5883,0.0018h-22.97002v-0.5l0.0137,0.4998c-0.61731,0.0169 -1.20943,0.268 -1.67933,0.6707c-0.53418,0.4554 -0.86474,1.0503 -0.99167,1.7847l-0.24141,1.3967l0.24141,-1.3967l-0.24141,1.3967l-0.68836,-1.2391c-0.3473,-0.6251 -0.51293,-1.3377 -0.51293,-2.0528l0.0001,-31.5496c0.01077,-0.56012 -0.02512,-1.11956 0.1032,-1.6649z"></path><path id="路径 2" fill-rule="evenodd" style="fill:#1957E6" opacity="1" d="M7.21428,10.4271c0.15,-0.03 0.31,-0.02 0.47,-0.02c6.59002,0 13.18002,0 19.77002,0c0.41,0 0.81,0.27 0.98,0.67c0.12,0.26 0.13,0.58 0.05,0.86c-0.13,0.46 -0.57,0.8 -1.03,0.8c-6.69,0 -13.38,0 -20.06002,0c-0.37,0 -0.72,-0.21 -0.92,-0.53c-0.21,-0.34 -0.24,-0.8 -0.05,-1.17c0.15,-0.32 0.45,-0.55 0.79,-0.61zM7.27428,18.8471c6.72002,-0.01 13.45002,0 20.18002,-0.01c0.59,-0.01 1.11,0.56 1.08,1.17c0.02,0.61 -0.5,1.16 -1.08,1.16c-6.67,0 -13.34,0 -20.01002,0c-0.39,0.01 -0.77,-0.2 -0.97,-0.54c-0.2,-0.32 -0.23,-0.73 -0.09,-1.07c0.14,-0.38 0.49,-0.67 0.89,-0.72zM7.17428,27.2471c0.1,-0.02 0.21,-0.02 0.31,-0.02c6.64002,0 13.28002,0 19.92002,0c0.37,-0.01 0.74,0.19 0.94,0.51c0.24,0.35 0.26,0.85 0.06,1.22c-0.15,0.28 -0.41,0.49 -0.71,0.56c-0.19,0.05 -0.39,0.04 -0.58,0.04c-6.56,0 -13.12,0 -19.68002,0c-0.3,0 -0.6,-0.12 -0.81,-0.34c-0.3,-0.3 -0.41,-0.79 -0.27,-1.19c0.11,-0.39 0.44,-0.7 0.82,-0.78z"></path></g></g></g><defs><rect id="path_0" x="0" y="0" width="40" height="44" /></defs></svg>