<svg xmlns="http://www.w3.org/2000/svg" xmlns:xlink="http://www.w3.org/1999/xlink" width="44" height="44" viewBox="0 0 44 44" fill="none"><g opacity="1"  transform="translate(0 0)  rotate(0)"><g opacity="1"  transform="translate(0 1)  rotate(0)"><mask id="bg-mask-0" fill="white"><use transform="translate(0 0)  rotate(0)" xlink:href="#path_0"></use></mask><g mask="url(#bg-mask-0)" ><path id="路径 1" fill-rule="evenodd" style="fill:#1957E6" opacity="1" d="M42.52,18.2031zM43.99,40.663zM42.36,39.253h0.16v-0.01c0.11,-0.01 0.21,-0.01 0.32,0c0.72,0.08 1.23,0.72 1.15,1.42c0.02,0.72 -0.57,1.32 -1.31,1.34h-33.21997v-0.32c-4.56,-1.02 -8.13,-4.52 -9.16,-8.99c-1.48,-6.4199 2.62,-12.8 9.16,-14.2499v-2.1401c0.04,-2.9299 1.70997,-5.5999 4.34997,-6.96995c-1.02,-0.97 -1.59,-2.31 -1.58,-3.71c-0.08,-1.59 0.56,-3.13 1.76,-4.21c2.21,-2 5.65,-1.85 7.69,0.32c2.03,2.17 1.88,5.55 -0.33,7.55c2.66,1.37005 4.33,4.07005 4.35,7.01995v1.95h0.41v-1.95c0.04,-2.9299 1.72,-5.5999 4.35,-6.96995c-1.18,-1.07 -1.82,-2.59 -1.75,-4.16c0.12,-2.95 2.66,-5.24 5.66,-5.12c3.01,0.13 5.34,2.62 5.21,5.57c0.02,1.34 -0.5,2.63 -1.44,3.6c2.62,1.42005 4.24,4.14005 4.22,7.07995v1.9001h0.16c0.74,0.0099 1.32,0.6099 1.31,1.33c0,0.0199 0,0.0399 0,0.06c0,0.7099 -0.59,1.28 -1.31,1.28h-30.78c-3.96997,0.17 -7.38997,2.7899 -8.53997,6.5299c-1.49,4.86 1.31,9.98 6.26,11.45v-1.18c0.04,-2.93 1.70997,-5.6 4.34997,-6.9699c-1.18,-1.0701 -1.82,-2.59 -1.76,-4.16c0.13,-2.95 2.67,-5.2401 5.67,-5.1201c3,0.13 5.34,2.6201 5.21,5.57c-0.03,1.3701 -0.59,2.68 -1.58,3.66c2.66,1.37 4.33,4.07 4.36,7.02v1.52h0.4v-1.52c0.05,-2.93 1.72,-5.6 4.36,-6.9699c-1,-0.9901 -1.57,-2.3201 -1.58,-3.7101c-0.03,-1.4699 0.56,-2.8899 1.63,-3.92c2.15,-2.07 5.59,-2.0299 7.7,0.07c2.1,2.11 2.07,5.49 -0.08,7.5601c2.59,1.3999 4.2,4.0699 4.22,6.9699zM31.53,5.61305c0,1.48 1.22,2.68 2.72,2.68c1.5,0 2.72,-1.2 2.72,-2.68c0,-1.47 -1.22,-2.67 -2.72,-2.67c-1.5,0 -2.72,1.2 -2.72,2.67zM28.81,17.903h10.88v-1.6c0,-2.9499 -2.44,-5.3399 -5.44,-5.3399c-3,0 -5.44,2.39 -5.44,5.3399zM14.85,5.61305c0,1.48 1.22,2.68 2.72,2.68c1.5,0 2.72,-1.2 2.72,-2.68c0,-1.47 -1.22,-2.67 -2.72,-2.67c-1.5,0 -2.72,1.2 -2.72,2.67zM12.13,17.903h10.88v-1.6c0,-2.9499 -2.43,-5.3399 -5.44,-5.3399c-3,0 -5.44,2.39 -5.44,5.3399zM14.85,26.983c0,1.48 1.22,2.68 2.72,2.68c1.5,0 2.72,-1.2 2.72,-2.68c0,-1.4699 -1.22,-2.67 -2.72,-2.67c-1.5,0 -2.72,1.2001 -2.72,2.67zM12.13,37.673v1.52h10.88v-1.52c0,-2.95 -2.43,-5.34 -5.44,-5.34c-3.01,0 -5.44,2.39 -5.44,5.34zM31.53,26.983c0,1.48 1.22,2.68 2.72,2.68c1.5,0 2.72,-1.2 2.72,-2.68c0,-1.4699 -1.22,-2.67 -2.72,-2.67c-1.5,0 -2.72,1.2001 -2.72,2.67zM28.81,37.673v1.52h10.88v-1.53c0,-2.95 -2.44,-5.34 -5.44,-5.34c-3.01,0 -5.44,2.4 -5.44,5.35z"></path></g></g></g><defs><rect id="path_0" x="0" y="0" width="44.00000000000022" height="42" /></defs></svg>