<svg xmlns="http://www.w3.org/2000/svg" xmlns:xlink="http://www.w3.org/1999/xlink" width="44.399993896484375" height="44" viewBox="0 0 44.399993896484375 44" fill="none"><g opacity="1"  transform="translate(0.1999969482421875 0)  rotate(0)"><path id="路径 1" fill-rule="evenodd" style="fill:#1957E6" opacity="1" d="M44,22.59v-0.01c0,2.29 -1.63,4.15 -3.63,4.17v10.35c0,0.7 -0.5,1.27 -1.12,1.27h-0.88v1.59c0,3.04 -2.47,3.04 -3.52,3.04h-1.28c-0.78,0 -1.54,-0.03 -2.2,-0.39c-0.6,-0.33 -1.31,-1.06 -1.31,-2.65v-1.59h-16.23v1.59c0,3.04 -2.46,3.04 -3.51,3.04h-1.29c-0.78,0 -1.54,-0.03 -2.19,-0.39c-0.61,-0.33 -1.32,-1.06 -1.32,-2.65v-1.59h-0.89c-0.62,0 -1.11,-0.57 -1.11,-1.27v-10.36c-1.95,-0.09 -3.52,-1.91 -3.52,-4.15c0,-2.25 1.56,-4.07 3.52,-4.16v-11.53c0,-3.25 2.32,-5.9 5.17,-5.9h26.51c2.85,0 5.17,2.65 5.17,5.9v11.52c2.01,0.02 3.63,1.88 3.63,4.17zM3.52,24.2v-3.23c-0.72,0.09 -1.29,0.77 -1.29,1.62c0,0.84 0.57,1.52 1.29,1.61zM11.6,38.37h-3.85v1.58c0,0.24 0.03,0.35 0.05,0.37c0.1,0.09 0.52,0.14 1.23,0.14h1.29c0.71,0 1.14,-0.05 1.25,-0.16c0,0 0.03,-0.11 0.03,-0.34zM36.14,39.95v-1.58h-3.85v1.58c0,0.24 0.03,0.35 0.04,0.37c0.11,0.09 0.53,0.14 1.24,0.14h1.29c0.71,0 1.13,-0.05 1.25,-0.16c0,0 0.03,-0.11 0.03,-0.34zM38.14,28.73v-5.24h-32.39v5.24h5.9c0.62,0 1.12,0.57 1.12,1.27c0,0.71 -0.5,1.28 -1.12,1.28h-5.9v4.55h32.39v-4.55h-5.91c-0.61,0 -1.11,-0.57 -1.11,-1.28c0,-0.7 0.5,-1.27 1.11,-1.27h5.91zM38.14,6.9c0,-1.85 -1.32,-3.36 -2.94,-3.36h-26.51c-1.62,0 -2.94,1.51 -2.94,3.36v14.05h32.39zM41.77,22.59c0,-0.89 -0.63,-1.6 -1.4,-1.63v3.25c0.77,-0.02 1.4,-0.74 1.4,-1.62z"></path><path  id="路径 1" style="fill:#1957E6; opacity:1;" d="M40.17,18.42v-11.52c0,-1.57512 -0.4889,-2.92077 -1.4667,-4.03696c-0.9712,-1.10869 -2.13897,-1.66304 -3.5033,-1.66304h-26.51c-1.3643,0 -2.53207,0.55435 -3.50331,1.66304c-0.97779,1.11617 -1.46669,2.46182 -1.46669,4.03696v11.721l-0.19083,0.0088l0.19083,-0.0088l-0.19083,0.0088c-2.21945,0.10193 -3.32917,1.422 -3.32917,3.9602c0,2.53107 1.10974,3.8478 3.32922,3.9502l0.19078,0.0088v10.551c0,0.3012 0.09114,0.55663 0.27342,0.7663c0.17608,0.20247 0.38827,0.3037 0.63658,0.3037h1.09v1.79c0,1.21113 0.40505,2.03583 1.21516,2.4741c0.44045,0.24393 1.13873,0.3659 2.09484,0.3659h1.29c2.20667,0 3.31,-0.94667 3.31,-2.84v-1.79h16.63v1.79c0,1.20747 0.40213,2.0324 1.2064,2.4748c0.4464,0.24347 1.1476,0.3652 2.1036,0.3652h1.28c0.9048,0 1.59253,-0.11943 2.0632,-0.3583c0.83787,-0.42527 1.2568,-1.2525 1.2568,-2.4817v-1.79h1.08c0.61333,0 0.92,-0.35667 0.92,-1.07v-10.548l0.198,-0.002l-0.198,0.002l0.198,-0.002c2.288,-0.02287 3.432,-1.3462 3.432,-3.97h0.4v0.01h-0.4v0c0,-2.62393 -1.144,-3.94727 -3.432,-3.97l-0.198,-0.002zM40.57,18.42h-0.2l0.002,-0.2c2.552,0.0254 3.828,1.48207 3.828,4.37h-0.2h0.2h-0.2h-0.2v-0.01h0.2h0.2c0,2.8878 -1.276,4.34447 -3.828,4.37l-0.002,-0.2l0.002,0.2l-0.002,-0.2h0.2v10.35c0,0.40067 -0.1258,0.7439 -0.3774,1.0297c-0.25847,0.29353 -0.57267,0.4403 -0.9426,0.4403h-0.88v-0.2h0.2v1.59c0,1.39293 -0.4919,2.33903 -1.4757,2.8383c-0.52767,0.2678 -1.27577,0.4017 -2.2443,0.4017h-1.28c-1.024,0 -1.78947,-0.13827 -2.2964,-0.4148c-0.9424,-0.51827 -1.4136,-1.46 -1.4136,-2.8252v-1.59h0.2v0.2h-16.23v-0.2h0.2v1.59c0,1.39293 -0.49017,2.339 -1.4705,2.8382c-0.526,0.26787 -1.2725,0.4018 -2.2395,0.4018h-1.29c-1.02501,0 -1.78673,-0.13803 -2.28516,-0.4141c-0.94989,-0.51387 -1.42484,-1.45583 -1.42484,-2.8259v-1.59h0.2v0.2h-0.89c-0.36981,0 -0.68261,-0.1471 -0.93842,-0.4413c-0.24772,-0.28487 -0.37158,-0.62777 -0.37158,-1.0287v-10.36h0.2l-0.00922,0.1998c-2.47385,-0.1142 -3.71078,-1.56413 -3.71078,-4.3498c0,-2.79293 1.23694,-4.2462 3.71083,-4.3598l0.00917,0.1998l-0.00917,-0.1998l0.00917,0.1998h-0.2v-11.53c0,-1.67542 0.52194,-3.10893 1.56581,-4.30054c1.05091,-1.19964 2.31898,-1.79946 3.80419,-1.79946h26.51c1.4852,0 2.75327,0.59982 3.8042,1.79946c1.04387,1.19162 1.5658,2.62513 1.5658,4.30054zM3.32,24.2v-3.23h0.2l0.02481,0.1985l-0.02481,-0.1985l0.02481,0.1985c-0.74321,0.09287 -1.11481,0.5667 -1.11481,1.4215c0,0.84813 0.3716,1.31863 1.11481,1.4115l-0.02481,0.1985zM3.72,24.2v0.2266l-0.22481,-0.0281c-0.97679,-0.12213 -1.46519,-0.72497 -1.46519,-1.8085c0,-1.0902 0.4884,-1.69637 1.46519,-1.8185l0.22481,-0.0281l-0.22481,0.0281l0.22481,-0.0281zM11.6,38.57h-3.85v-0.2h0.2v1.58l-0.00858,0.2286l-0.14142,0.1414l0.13379,-0.1487l-0.13379,0.1487l0.13379,-0.1487c0.06567,0.05913 0.43108,0.0887 1.09621,0.0887h1.29c0.67147,0 1.041,-0.0338 1.1086,-0.1014l0.1414,0.1414l-0.193,-0.0526l0.193,0.0526l-0.193,-0.0526c0.01533,-0.05613 0.023,-0.15193 0.023,-0.2874v-1.59h0.2zM11.8,38.17v1.79c0,0.1712 -0.01233,0.30207 -0.037,0.3926l-0.014,0.0513l0.014,-0.0513l-0.014,0.0513l-0.0376,0.0375c-0.14573,0.14573 -0.60953,0.2186 -1.3914,0.2186h-1.29c-0.76746,0 -1.22206,-0.06377 -1.36379,-0.1913l-0.00391,-0.0036l0.00391,0.0036l-0.00391,-0.0036l-0.00372,-0.0037c-0.07239,-0.0724 -0.10858,-0.24287 -0.10858,-0.5114v-1.78h4.05zM35.94,39.95v-1.58h0.2v0.2h-3.85v-0.2h0.2v1.58c0,0.16187 0.0063,0.25537 0.0189,0.2805l-0.1789,0.0895l0.1267,-0.1548l-0.1267,0.1548l0.1267,-0.1548c0.0772,0.0632 0.4483,0.0948 1.1133,0.0948h1.29c0.66513,0 1.03677,-0.0358 1.1149,-0.1074l0.1351,0.1474l-0.193,-0.0526l0.193,0.0526l-0.193,-0.0526c0.01533,-0.05613 0.023,-0.15193 0.023,-0.2874zM36.34,39.95v0.01c0,0.1712 -0.01233,0.30207 -0.037,0.3926l-0.0152,0.0558l0.0152,-0.0558l-0.0152,0.0558l-0.0427,0.039c-0.15453,0.14173 -0.61623,0.2126 -1.3851,0.2126h-1.29c-0.7602,0 -1.21573,-0.06173 -1.3666,-0.1852l-0.0331,-0.0271l0.0331,0.0271l-0.0331,-0.0271l-0.0192,-0.0382c-0.04073,-0.08153 -0.0611,-0.2347 -0.0611,-0.4595v-1.78h4.25zM37.94,28.73v-5.24h0.2v0.2h-32.39v-0.2h0.2v5.24h-0.2v-0.2h5.9c0.36993,0 0.68413,0.14677 0.9426,0.4403c0.2516,0.2858 0.3774,0.62903 0.3774,1.0297c0,0.98667 -0.44,1.48 -1.32,1.48h-5.9v-0.2h0.2v4.55h-0.2v-0.2h32.39v0.2h-0.2v-4.55h0.2v0.2h-5.91c-0.87333,0 -1.31,-0.49333 -1.31,-1.48c0,-0.39987 0.12523,-0.74293 0.3757,-1.0292c0.25713,-0.29387 0.56857,-0.4408 0.9343,-0.4408h5.91v0.2zM38.34,28.93h-6.11c-0.60667,0 -0.91,0.35667 -0.91,1.07c0,0.30433 0.09237,0.56267 0.2771,0.775c0.177,0.20333 0.38797,0.305 0.6329,0.305h6.11v4.95h-32.79v-4.95h6.1c0.24967,0 0.46367,-0.10183 0.642,-0.3055c0.18533,-0.2116 0.278,-0.46977 0.278,-0.7745c0,-0.71333 -0.30667,-1.07 -0.92,-1.07h-6.1v-5.64h32.79v5.44zM37.94,6.9M37.94,6.9c0,-0.87508 -0.271,-1.62244 -0.813,-2.24207c-0.53533,-0.61195 -1.17767,-0.91793 -1.927,-0.91793h-26.51c-1.82667,0 -2.74,1.05333 -2.74,3.16v14.05h-0.2v-0.2h32.39v0.2h-0.2zM38.34,6.9v14.25h-32.79v-14.25c0,-2.37333 1.04667,-3.56 3.14,-3.56h26.51c2.09333,0 3.14,1.18667 3.14,3.56zM41.57,22.59M41.57,22.59c0,-0.92207 -0.4026,-1.3988 -1.2078,-1.4302l0.0078,-0.1998h0.2v3.25h-0.2l-0.0052,-0.1999l0.0052,0.1999l-0.0052,-0.1999c0.80347,-0.02087 1.2052,-0.49423 1.2052,-1.4201zM41.97,22.59c0,1.18567 -0.5316,1.7923 -1.5948,1.8199l-0.2052,0.0054l0.2052,-0.0054l-0.2052,0.0054v-3.6632l0.2078,0.0081c1.06147,0.04133 1.5922,0.65127 1.5922,1.8298z"></path></g></svg>