<svg xmlns="http://www.w3.org/2000/svg" xmlns:xlink="http://www.w3.org/1999/xlink" width="44" height="44" viewBox="0 0 44 44" fill="none"><g opacity="1"  transform="translate(0 0)  rotate(0)"><g opacity="1"  transform="translate(0 2)  rotate(0)"><mask id="bg-mask-0" fill="white"><use transform="translate(0 0)  rotate(0)" xlink:href="#path_0"></use></mask><g mask="url(#bg-mask-0)" ><path id="路径 1" fill-rule="evenodd" style="fill:#1957E6" opacity="1" d="M24.58,21.52c6.65,2.76 11.01,9.35 11.03,16.68c0,1 -0.79,1.8 -1.76,1.8c-0.97,0 -1.76,-0.8 -1.76,-1.8c0,-7.98 -6.41,-14.48 -14.29,-14.48c-7.87,0 -14.28,6.5 -14.28,14.48c0,1 -0.79,1.8 -1.76,1.8c-0.97,0 -1.76,-0.8 -1.76,-1.8c0.02,-7.32 4.37,-13.91 11.02,-16.68c-3.08,-2.21 -4.92,-5.81 -4.92,-9.66c0,-6.54 5.25,-11.86 11.7,-11.86c6.45,0 11.7,5.32 11.7,11.86c-0.01,3.84 -1.84,7.45 -4.92,9.66zM9.62,11.86c0.02,4.6 3.68,8.3 8.18,8.29c0.02,0 0.03,0 0.05,0c4.52,-0.03 8.16,-3.79 8.13,-8.4c-0.04,-4.61 -3.72,-8.33 -8.24,-8.3c-4.52,0.03 -8.16,3.8 -8.12,8.41z"></path><path id="路径 2" fill-rule="evenodd" style="fill:#1957E6" opacity="1" d="M37.5846 4.97246C36.2046 3.15246 34.3046 1.81246 32.1546 1.11246C31.2346 0.802461 30.2446 1.31246 29.9446 2.26246C29.6446 3.19246 30.1446 4.20246 31.0646 4.50246C31.0646 4.50246 31.0646 4.50246 31.0746 4.50246C35.1246 5.82246 37.3546 10.2425 36.0646 14.3825C35.2146 17.1025 32.9946 19.1325 30.2646 19.7025C29.6546 19.8325 29.1646 20.2725 28.9546 20.8725C28.9546 20.8925 28.9446 20.9225 28.9346 20.9425C28.9346 20.9625 28.9246 20.9825 28.9146 21.0025C28.9146 21.0425 28.9046 21.0725 28.8946 21.1125C28.8846 21.1525 28.8946 21.1425 28.8946 21.1525C28.8846 21.2025 28.8746 21.2525 28.8746 21.2925C28.8746 21.3125 28.8746 21.3225 28.8746 21.3325C28.8746 21.3825 28.8746 21.4225 28.8746 21.4625L28.8746 21.6325C28.8746 21.6625 28.8846 21.7225 28.8946 21.7625C28.8946 21.7725 28.8946 21.7825 28.8946 21.8025C28.8946 21.8325 28.9046 21.8625 28.9146 21.8925C28.9246 21.9225 28.9246 21.9425 28.9346 21.9625C28.9446 21.9925 28.9546 22.0225 28.9646 22.0425C28.9646 22.0725 28.9846 22.0925 28.9946 22.1225C29.0046 22.1525 29.0146 22.1625 29.0246 22.1825C29.0346 22.2025 29.0546 22.2425 29.0746 22.2725L29.0946 22.3325C29.1146 22.3625 29.1346 22.3925 29.1546 22.4225L29.1846 22.4625L29.2546 22.5625L29.2846 22.5925C29.3146 22.6225 29.3346 22.6525 29.3746 22.6925L29.3946 22.7125C29.4346 22.7525 29.4746 22.7925 29.5146 22.8225L29.5546 22.8525L29.6446 22.9125C29.6646 22.9225 29.6846 22.9425 29.7046 22.9525L29.7746 22.9925L29.8446 23.0325L29.9246 23.0725L29.9846 23.1025L30.0846 23.1325L30.1346 23.1525L30.2746 23.1825L30.2946 23.1825C30.3546 23.1925 30.4146 23.2025 30.4646 23.2125C36.4346 23.6825 40.8946 29.0025 40.4346 35.1025C40.3746 36.0825 41.0846 36.9425 42.0446 37.0225L42.1946 37.0225C43.1046 37.0225 43.8746 36.3125 43.9546 35.3825C44.4146 29.2725 41.0946 23.5225 35.6446 20.9825L35.6446 20.9725C40.5046 17.0925 41.3846 9.93246 37.5846 4.97246Z"></path></g></g></g><defs><rect id="path_0" x="0" y="0" width="43.999999999999666" height="40" /></defs></svg>