<svg xmlns="http://www.w3.org/2000/svg" xmlns:xlink="http://www.w3.org/1999/xlink" width="44" height="44" viewBox="0 0 44 44" fill="none"><g opacity="1"  transform="translate(0 0)  rotate(0)"><mask id="bg-mask-0" fill="white"><use transform="translate(0 0)  rotate(NaN)" xlink:href="#path_0"></use></mask><g mask="url(#bg-mask-0)" ><path id="路径 1" fill-rule="evenodd" style="fill:#1957E6" opacity="1" d="M39.6571,34.9421c2.71,0.97 4.49,3.69 4.33,6.59v0.04c0,0.54 -0.19,1.03 -0.57,1.42c-0.79,0.81 -2.26,0.96 -4.55,0.96h-3.21c-5.74,0 -8.97,-0.11 -8.97,-2.36v-0.02c-0.17,-2.92 1.56,-5.69 4.25,-6.7l0.63,-0.24l-0.48,-0.5c-2.24,-2.34 -2.24,-6.13 0,-8.47c1.1,-1.15 2.57,-1.78 4.15,-1.8h0.05c1.56,0 3.03,0.61 4.15,1.73c1.12,1.12 1.74,2.63 1.76,4.25c0.02,1.62 -0.59,3.14 -1.69,4.29l-0.13,0.14v0.56zM31.3271,29.9721c0.02,1.08 0.44,2.09 1.19,2.86c0.72,0.76 1.71,1.17 2.77,1.17h0.02c1.06,-0.03 2.04,-0.45 2.79,-1.22c0.75,-0.76 1.17,-1.8 1.15,-2.87c-0.03,-1.08 -0.44,-2.09 -1.19,-2.86c-0.73,-0.76 -1.72,-1.17 -2.77,-1.17h-0.2l-0.02,0.03c-2.07,0.11 -3.74,1.86 -3.72,4.02zM41.9271,41.4121c-0.09,-3.48 -2.27,-5.19 -6.69,-5.19c-4.08,0 -6.46,1.78 -6.68,4.97l-0.02,0.4l0.39,0.07c2.2,0.34 4.45,0.47 6.64,0.38h1.78c0.4,0.03 0.82,0.05 1.24,0.05c0.99,0 1.97,-0.07 2.94,-0.2l0.4,-0.05z"></path><path id="路径 2" fill-rule="evenodd" style="fill:#1957E6" opacity="1" d="M35.29,19.9489h-0.03v-4.47h-12.37v27.24c0,0.7 -0.55,1.28 -1.26,1.28h-20.38c-0.68,0 -1.25,-0.58 -1.25,-1.28c0,-0.69 0.55,-1.28 1.25,-1.28h4.84v-26h-3.25c-0.42,-0.03 -0.8,-0.23 -1.04,-0.59c-0.17,-0.29 -0.24,-0.63 -0.17,-0.96c0.06,-0.34 0.24,-0.63 0.52,-0.81l18.91,-12.86c0.42,-0.29 0.97,-0.29 1.41,0l18.73,12.86c0.44,0.31 0.61,0.92 0.42,1.48c-0.18,0.54 -0.68,0.92 -1.23,0.92h-2.71v4.52c0.02,0.43 -0.17,0.85 -0.5,1.08c-0.2,0.11 -0.42,0.18 -0.66,0.18c-0.33,0 -0.64,-0.14 -0.88,-0.38c-0.22,-0.25 -0.35,-0.59 -0.35,-0.93zM20.42,15.4789h-11.8v26.01h11.8zM36.36,12.9189l-14.68,-10.07l-14.6,10.07z"></path><path id="路径 3" fill-rule="evenodd" style="fill:#1957E6" opacity="1" d="M16.5942 21.9791C17.4542 21.9791 17.8042 21.6191 17.8042 20.7591C17.8042 19.9091 17.4542 19.5491 16.5942 19.5491L12.3342 19.5491C11.4742 19.5491 11.1242 19.9091 11.1242 20.7591C11.1242 21.6191 11.4742 21.9791 12.3342 21.9791L16.5942 21.9791Z"></path><path id="路径 4" fill-rule="evenodd" style="fill:#1957E6" opacity="1" d="M16.5942 29.551C17.4542 29.551 17.8042 29.191 17.8042 28.331C17.8042 27.481 17.4542 27.121 16.5942 27.121L12.3342 27.121C11.4742 27.121 11.1242 27.481 11.1242 28.331C11.1242 29.191 11.4742 29.551 12.3342 29.551L16.5942 29.551Z"></path><path id="路径 5" fill-rule="evenodd" style="fill:#1957E6" opacity="1" d="M16.5942 37.1049C17.4542 37.1049 17.8042 36.7449 17.8042 35.8849C17.8042 35.0349 17.4542 34.6749 16.5942 34.6749L12.3342 34.6749C11.4742 34.6749 11.1242 35.0349 11.1242 35.8849C11.1242 36.7449 11.4742 37.1049 12.3342 37.1049L16.5942 37.1049Z"></path></g></g><defs><rect id="path_0" x="0" y="0" width="43.99999999999991" height="44" /></defs></svg>