<svg xmlns="http://www.w3.org/2000/svg" xmlns:xlink="http://www.w3.org/1999/xlink" width="44" height="44" viewBox="0 0 44 44" fill="none"><g opacity="1"  transform="translate(0 0)  rotate(0)"><g opacity="1"  transform="translate(0 0)  rotate(0)"><mask id="bg-mask-0" fill="white"><use transform="translate(0 0)  rotate(0)" xlink:href="#path_0"></use></mask><g mask="url(#bg-mask-0)" ><path id="路径 1" fill-rule="evenodd" style="fill:#1957E6" opacity="1" d="M36.2,-0.21002c3.88,0 7.02,3.21 7.02,7.18v24.29002c0,3.97 -3.14,7.18 -7.02,7.18h-12.41l-0.03,3.79c-0.01,1.18 -1.23,1.92 -2.25,1.38l-0.03,-0.01l-9.22,-5.16h-4.02c-3.84,0 -6.96,-3.15 -7.02,-7.06v-0.12v-24.29002c0,-3.97 3.14,-7.18 7.02,-7.18zM8.24,2.93998c-2.18,0 -3.94,1.8 -3.94,4.03v24.29002c0,2.23 1.76,4.04 3.94,4.04h4.42c0.03,0 0.06,0 0.09,0c0.04,0 0.07,0 0.1,0.01c0.03,0 0.06,0.01 0.09,0.01c0.04,0.01 0.07,0.02 0.1,0.02c0.03,0.01 0.06,0.02 0.09,0.03c0.03,0.01 0.06,0.02 0.09,0.03c0.03,0.02 0.06,0.03 0.09,0.04c0.03,0.02 0.06,0.03 0.08,0.05l7.32,4.08l0.02,-2.72c0.01,-0.85 0.68,-1.54 1.51,-1.55h0.03h13.93c2.18,0 3.94,-1.81 3.94,-4.04v-24.29002c0,-2.23 -1.76,-4.03 -3.94,-4.03zM29.15,6.66998c2.89,0 5.23,2.4 5.23,5.36002v14.18c0,2.95 -2.34,5.35 -5.23,5.35h-13.86c-2.89,0 -5.23,-2.4 -5.23,-5.35v-14.18c0,-2.96002 2.34,-5.36002 5.23,-5.36002zM28.27,9.81998v4.33002c0,0.87 -0.68,1.57 -1.53,1.57h-8.99c-0.85,0 -1.54,-0.7 -1.54,-1.57v-4.33002h-0.92c-1.19,0 -2.15,0.99002 -2.15,2.21002v14.18c0,1.21 0.96,2.2 2.15,2.2h13.86c1.19,0 2.15,-0.99 2.15,-2.2v-14.18c0,-1.22 -0.96,-2.21002 -2.15,-2.21002zM19.29,9.81998v2.76002h5.91v-2.76002z"></path></g></g></g><defs><rect id="path_0" x="0" y="0" width="44" height="44" /></defs></svg>