<svg xmlns="http://www.w3.org/2000/svg" xmlns:xlink="http://www.w3.org/1999/xlink" width="44" height="44" viewBox="0 0 44 44" fill="none"><g opacity="1"  transform="translate(0 0)  rotate(0)"><mask id="bg-mask-0" fill="white"><use transform="translate(0 0)  rotate(NaN)" xlink:href="#path_0"></use></mask><g mask="url(#bg-mask-0)" ><path id="路径 1" fill-rule="evenodd" style="fill:#1957E6" opacity="1" d="M43.8303,32.9637c0.11,0.61 0.17,1.23 0.17,1.82c0,0.59 -0.06,1.21 -0.17,1.82c-0.11,0.53 -0.51,0.96 -1.04,1.08c-0.63,0.15 -1.16,0.54 -1.49,1.11c-0.32,0.57 -0.4,1.24 -0.2,1.88c0.15,0.51 -0.01,1.08 -0.41,1.43c-0.92,0.81 -1.97,1.41 -3.11,1.82c-0.52,0.18 -1.09,0.03 -1.46,-0.37c-0.45,-0.48 -1.05,-0.75 -1.69,-0.75c-0.64,0 -1.24,0.27 -1.69,0.75c-0.25,0.28 -0.61,0.44 -1,0.44c-0.15,0 -0.3,-0.02 -0.45,-0.08c-1.15,-0.4 -2.19,-1.01 -3.11,-1.82c-0.4,-0.35 -0.56,-0.91 -0.41,-1.43c0.2,-0.64 0.12,-1.3 -0.2,-1.88c-0.33,-0.57 -0.86,-0.96 -1.5,-1.11c-0.52,-0.12 -0.92,-0.55 -1.03,-1.08c-0.11,-0.61 -0.17,-1.22 -0.17,-1.81c0,-0.6 0.06,-1.21 0.17,-1.81c0.1,-0.54 0.51,-0.96 1.04,-1.09c0.63,-0.14 1.16,-0.54 1.49,-1.11c0.32,-0.57 0.4,-1.24 0.2,-1.88c-0.16,-0.51 0.01,-1.07 0.41,-1.43c0.92,-0.8 1.97,-1.41 3.11,-1.82c0.52,-0.18 1.09,-0.04 1.46,0.36c0.45,0.49 1.04,0.75 1.69,0.75c0.64,0 1.24,-0.26 1.68,-0.75c0.37,-0.4 0.95,-0.54 1.46,-0.36c1.15,0.4 2.19,1.01 3.11,1.81c0.4,0.36 0.56,0.92 0.41,1.43c-0.2,0.64 -0.12,1.31 0.2,1.89c0.33,0.56 0.86,0.96 1.5,1.11c0.53,0.12 0.92,0.55 1.03,1.08zM42.0903,34.7737c0,-0.37 -0.03,-0.74 -0.09,-1.13c-0.99,-0.32 -1.83,-1 -2.36,-1.93c-0.53,-0.92 -0.69,-1.99 -0.47,-3.03c-0.58,-0.46 -1.22,-0.84 -1.91,-1.12c-0.77,0.72 -1.77,1.1 -2.83,1.1c-1.05,0 -2.05,-0.38 -2.82,-1.1c-0.69,0.28 -1.33,0.66 -1.91,1.12c0.22,1.04 0.06,2.11 -0.47,3.03c-0.53,0.93 -1.36,1.61 -2.36,1.93c-0.05,0.39 -0.08,0.76 -0.08,1.13c0,0.37 0.03,0.75 0.08,1.13c1,0.33 1.83,1.01 2.36,1.93c0.52,0.93 0.69,2 0.47,3.03c0.58,0.47 1.22,0.85 1.91,1.13c0.77,-0.72 1.77,-1.1 2.82,-1.1c1.06,0 2.06,0.38 2.83,1.1c0.69,-0.28 1.33,-0.66 1.91,-1.13c-0.22,-1.03 -0.06,-2.1 0.47,-3.03c0.53,-0.92 1.36,-1.6 2.36,-1.93c0.06,-0.37 0.09,-0.76 0.09,-1.13z"></path><path  id="路径 1" style="fill:#1957E6; opacity:1;" d="M42.6862,32.3705c-0.7647,-0.1792 -1.4179,-0.6663 -1.8166,-1.3429l-0.0036,-0.0061l-0.0035,-0.0062c-0.384,-0.6962 -0.4765,-1.5219 -0.2394,-2.2807c0.0951,-0.3238 -0.0102,-0.6779 -0.2672,-0.9092c-0.8586,-0.7465 -1.8572,-1.3329 -2.9398,-1.7094c-0.3287,-0.116 -0.6936,-0.027 -0.9287,0.2272c-0.545,0.607 -1.22737,0.9105 -2.0471,0.9105c-0.81393,0 -1.5,-0.30393 -2.0582,-0.9118c-0.2355,-0.2545 -0.5989,-0.3397 -0.9282,-0.2257c-1.0759,0.387 -2.0782,0.9707 -2.9455,1.7248c-0.2453,0.2209 -0.3624,0.5799 -0.261,0.9031c0.24693,0.79013 0.16657,1.54827 -0.2411,2.2744c-0.42047,0.7264 -1.0263,1.1775 -1.8175,1.3533c-0.3268,0.0803 -0.5936,0.3514 -0.6568,0.693c-0.1078,0.58773 -0.1617,1.1607 -0.1617,1.7189c0,0.5484 0.05403,1.12217 0.1621,1.7213l-0.4921,0.0887l0.4896,-0.1016c0.0692,0.3334 0.3211,0.6179 0.6529,0.6944c0.7671,0.1798 1.4263,0.6663 1.8202,1.3467c0.3874,0.7019 0.4806,1.5243 0.2446,2.2797c-0.0916,0.3177 0.0048,0.6795 0.262,0.9045c0.8624,0.7593 1.8612,1.3471 2.945,1.7241l0.0108,0.0037l0.0106,0.0043l-0.0106,-0.0043l0.0106,0.0043c0.07373,0.02947 0.16183,0.0442 0.2643,0.0442c0.25553,0 0.46457,-0.091 0.6271,-0.273l0.004,-0.0045l0.0042,-0.0044l-0.0042,0.0044l0.0042,-0.0044c0.56747,-0.6054 1.25237,-0.9081 2.0547,-0.9081c0.80233,0 1.48727,0.3027 2.0548,0.9081c0.238,0.2572 0.6037,0.353 0.9317,0.2394c1.0745,-0.3865 2.0815,-0.9642 2.9431,-1.7228c0.2605,-0.2279 0.358,-0.583 0.2607,-0.9136c-0.24513,-0.78447 -0.1639,-1.53973 0.2437,-2.2658c0.3955,-0.6832 1.0488,-1.1704 1.8102,-1.3517c0.3472,-0.0786 0.5951,-0.3521 0.6663,-0.6952l0.4895,0.1016l-0.492,-0.0887l0.492,0.0887l-0.492,-0.0887c0.108,-0.59913 0.162,-1.17623 0.162,-1.7313c0,-0.555 -0.054,-1.13207 -0.162,-1.7312l0.492,-0.0888l-0.4895,0.1016c-0.069,-0.3322 -0.3199,-0.619 -0.6509,-0.6939zM42.9107,31.3961c0.7132,0.1614 1.2606,0.75 1.4092,1.466l0.0013,0.0064l0.0012,0.0065c0.1186,0.6578 0.1779,1.29403 0.1779,1.9087c0,0.61467 -0.0593,1.25093 -0.1779,1.9088l-0.0012,0.0064l0.0012,-0.0064l-0.0012,0.0064l-0.0013,0.0064c-0.1509,0.7269 -0.6952,1.3022 -1.4138,1.4648c-0.4943,0.1177 -0.9184,0.4343 -1.1698,0.8684c-0.26687,0.4754 -0.31897,0.97343 -0.1563,1.4941c0.2073,0.7047 -0.0076,1.4637 -0.5593,1.9464c-0.9561,0.8418 -2.0725,1.4841 -3.2768,1.9172c-0.7032,0.2434 -1.4853,0.0433 -1.9883,-0.5005c-0.37,-0.39467 -0.81177,-0.592 -1.3253,-0.592c-0.51347,0 -0.9552,0.19733 -1.3252,0.592l-0.3648,-0.342l0.3648,0.342l-0.3648,-0.342l0.373,0.333c-0.36133,0.40467 -0.819,0.607 -1.373,0.607c-0.23087,0 -0.44277,-0.03857 -0.6357,-0.1157l0.1857,-0.4643l-0.1857,0.4643l0.1857,-0.4643l-0.1642,0.4723c-1.2061,-0.4195 -2.3178,-1.0732 -3.275,-1.916c-0.5492,-0.4805 -0.7634,-1.2437 -0.558,-1.9554c0.1547,-0.4951 0.09,-1.0352 -0.1555,-1.4804c-0.2557,-0.4417 -0.6844,-0.7572 -1.1797,-0.8733c-0.7122,-0.1643 -1.2586,-0.7499 -1.4071,-1.4656l-0.0014,-0.0064l-0.0011,-0.0064c-0.11867,-0.65787 -0.178,-1.2908 -0.178,-1.8988c0,-0.6188 0.05947,-1.25247 0.1784,-1.901c0.1348,-0.7283 0.6932,-1.3082 1.4232,-1.4871c0.50547,-0.11233 0.89293,-0.4012 1.1624,-0.8666c0.26693,-0.4754 0.31993,-0.9706 0.159,-1.4856c-0.2186,-0.6965 0.0099,-1.463 0.5589,-1.957c0.9608,-0.8354 2.0709,-1.4823 3.2746,-1.9152c0.7045,-0.2438 1.4843,-0.0543 1.9918,0.4943c0.36013,0.39213 0.8007,0.5882 1.3217,0.5882c0.52233,0 0.96,-0.1965 1.313,-0.5895c0.5062,-0.5473 1.2904,-0.7401 1.9913,-0.4927c1.203,0.4184 2.3127,1.0692 3.2802,1.9106c0.5431,0.4888 0.7614,1.2417 0.5528,1.9508c-0.1558,0.4985 -0.0918,1.042 0.1605,1.4993l-0.4378,0.2415l0.4308,-0.2538c0.2601,0.4414 0.6845,0.7601 1.1833,0.877zM41.5903,34.7737M41.5903,34.7737c0,-0.33787 -0.02807,-0.68917 -0.0842,-1.0539l0.4942,-0.0761l-0.1538,0.4758l0.1538,-0.4758l-0.1538,0.4758c-1.1528,-0.37267 -2.033,-1.09207 -2.6406,-2.1582c-0.5886,-1.0218 -0.7693,-2.2251 -0.5247,-3.3811l0.4891,0.1035l-0.3107,0.3918c-0.5437,-0.4313 -1.1442,-0.7875 -1.7873,-1.0485l0.188,-0.4633l0.3415,0.3652c-0.8602,0.8044 -1.9938,1.2348 -3.1715,1.2348c-1.1706,0 -2.3064,-0.4352 -3.1615,-1.2348l0.3415,-0.3652l0.188,0.4633c-0.6435,0.2612 -1.2432,0.6169 -1.7873,1.0485l-0.3107,-0.3918l0.4892,-0.1035c0.244,1.1534 0.0626,2.3616 -0.5259,3.3831c-0.581,1.0194 -1.5211,1.7983 -2.6409,2.1566l-0.1524,-0.4762l0.496,0.0636l-0.496,-0.0636l0.496,0.0636c-0.05067,0.39487 -0.076,0.75033 -0.076,1.0664c0,0.3262 0.02527,0.68113 0.0758,1.0648l-0.4958,0.0652l0.1567,-0.4748c1.1154,0.3681 2.0503,1.1375 2.6366,2.1552c0.5769,1.0317 0.7713,2.2344 0.5257,3.3841l-0.489,-0.1045l0.3148,-0.3884c0.5395,0.4371 1.1399,0.794 1.7832,1.0551l-0.188,0.4633l-0.3415,-0.3652c0.8575,-0.8018 1.9876,-1.2348 3.1615,-1.2348c1.1734,0 2.3145,0.4334 3.1715,1.2348l-0.3415,0.3652l-0.188,-0.4633c0.6436,-0.2612 1.2436,-0.6179 1.7832,-1.0551l0.3148,0.3884l-0.4889,0.1045c-0.2464,-1.1536 -0.0595,-2.3572 0.5245,-3.382c0.5867,-1.0184 1.5239,-1.7897 2.6377,-2.1573l0.1567,0.4748l-0.4935,-0.08l0.4935,0.08l-0.4935,-0.08c0.05567,-0.34347 0.0835,-0.69347 0.0835,-1.05zM42.5903,34.7737c0,0.4102 -0.03213,0.81357 -0.0964,1.2101l-0.0486,0.2996l0.0486,-0.2996l-0.0486,0.2996l-0.2883,0.0951c-0.8803,0.2905 -1.6207,0.9015 -2.0823,1.7028c-0.4624,0.8115 -0.6105,1.7646 -0.4154,2.678l0.0641,0.2998l-0.2383,0.1931c-0.6163,0.4994 -1.3017,0.9066 -2.0368,1.2048l-0.2961,0.1202l-0.2334,-0.2183c-0.6718,-0.6281 -1.5687,-0.9652 -2.4885,-0.9652c-0.9203,0 -1.8062,0.3367 -2.4785,0.9652l-0.2334,0.2183l-0.2961,-0.1202c-0.7348,-0.2982 -1.4206,-0.7055 -2.0368,-1.2048l-0.2382,-0.1931l0.0641,-0.2998c0.1948,-0.9124 0.0378,-1.8673 -0.4143,-2.676c-0.4636,-0.8047 -1.2016,-1.4137 -2.0835,-1.7048l-0.298,-0.0983l-0.041,-0.3113c-0.0562,-0.42693 -0.0843,-0.82533 -0.0843,-1.1952c0,-0.3586 0.02803,-0.75647 0.0841,-1.1936l0.0405,-0.3156l-0.0405,0.3156l0.0405,-0.3156l0.303,-0.097c0.8811,-0.2819 1.62,-0.8976 2.0792,-1.7034c0.4655,-0.808 0.607,-1.7646 0.4141,-2.6769l-0.0641,-0.3029l0.2425,-0.1923c0.6187,-0.4907 1.301,-0.8947 2.0327,-1.1916l0.2961,-0.1201l0.2334,0.2182c0.6698,0.6263 1.5615,0.9652 2.4785,0.9652c0.9241,0 1.8136,-0.3341 2.4885,-0.9652l0.2334,-0.2182l0.2961,0.1201c0.7313,0.2967 1.4144,0.7012 2.0327,1.1916l0.2426,0.1923l-0.0641,0.3029c-0.1935,0.9148 -0.0527,1.8667 0.4152,2.679c0.4796,0.8414 1.17273,1.40867 2.0794,1.7018l0.2935,0.0948l-0.2935,-0.0948l0.2935,0.0948l0.0469,0.3049c0.06387,0.4152 0.0958,0.8172 0.0958,1.206z"></path><path id="路径 2" fill-rule="evenodd" style="fill:#1957E6" opacity="1" d="M34.4401,30.6914h-0.01c2.25,0 4.09,1.84 4.09,4.08c0,0.53 -0.43,0.96 -0.95,0.96c-0.53,0 -0.96,-0.43 -0.96,-0.96c0,-1.19 -0.98,-2.17 -2.17,-2.17c-1.2,0 -2.18,0.98 -2.18,2.17c0,1.2 0.98,2.18 2.18,2.18c0.52,0 0.95,0.43 0.95,0.95c0,0.53 -0.43,0.96 -0.95,0.96c-2.26,0 -4.09,-1.83 -4.09,-4.08c0,-2.25 1.83,-4.09 4.09,-4.09zM10.0201,5.03137h-0.01h2.55l5.22,13.66003h-2.4l-1.24,-3.43h-5.71997l-1.24,3.43h-2.39zM9.09013,13.4314h4.38997l-2.15,-5.99003h-0.07l-2.15997,5.99003zM24.1101,5.03137c2.21,0 3.89,0.61 5.04,1.84c1.09,1.16 1.64,2.84 1.64,4.99003c0,2.16 -0.55,3.82 -1.64,4.99c-1.15,1.23 -2.83,1.84 -5.04,1.84h-4.99v-13.66003zM28.5701,11.8614c0,-1.73 -0.38,-2.98003 -1.15,-3.75003c-0.77,-0.78 -2.02,-1.17 -3.73,-1.17h-2.33v9.84003h2.33c1.7,0 2.94,-0.4 3.73,-1.19c0.77,-0.8 1.15,-1.99 1.15,-3.73z"></path><path id="路径 3" fill-rule="evenodd" style="fill:#1957E6" opacity="1" d="M23.91,42.08c0.53,0 0.96,0.43 0.96,0.96c0,0.53 -0.43,0.96 -0.96,0.96h-21.04c-1.58,0 -2.87,-1.29 -2.87,-2.88v-38.25c0,-1.58 1.29,-2.87 2.87,-2.87h30.61c1.59,0 2.87,1.29 2.87,2.87v21.04h-0.85c-0.04,0 -0.07,0.01 -0.11,0.01c-0.03,0 -0.07,-0.01 -0.1,-0.01h-33.38v17.21c0,0.53 0.43,0.96 0.96,0.96zM1.91,22h32.52v-19.13c0,-0.53 -0.43,-0.96 -0.95,-0.96h-30.61c-0.53,0 -0.96,0.43 -0.96,0.96z"></path><path  id="路径 3" style="fill:#1957E6; opacity:1;" d="M2.87,42.58c-0.80634,0 -1.46,-0.6537 -1.46,-1.46v-17.71h33.88c0.03367,0 0.0739,0.00333 0.1207,0.01c-0.00013,0 -0.00703,0 -0.0207,0c-0.01033,0 -0.01557,0 -0.0157,0c0.0468,-0.00667 0.0887,-0.01 0.1257,-0.01h0.85v0.5h-0.5v-21.04c0,-1.30891 -1.0611,-2.37 -2.37,-2.37h-30.61c-1.30891,0 -2.37,1.06109 -2.37,2.37v38.25c0,1.3089 1.06109,2.38 2.37,2.38h21.04c0.2541,0 0.46,-0.2059 0.46,-0.46c0,-0.2541 -0.2059,-0.46 -0.46,-0.46zM2.87,41.58h21.04c0.8063,0 1.46,0.6537 1.46,1.46c0,0.8063 -0.6537,1.46 -1.46,1.46h-21.04c-1.8612,0 -3.37,-1.5188 -3.37,-3.38v-38.25c0,-1.8612 1.5088,-3.37 3.37,-3.37h30.61c1.8612,0 3.37,1.5088 3.37,3.37v21.54h-1.35c0.01033,0 0.01557,0 0.0157,0c-0.0468,0.00667 -0.0887,0.01 -0.1257,0.01c-0.03367,0 -0.0739,-0.00333 -0.1207,-0.01c0.00013,0 0.00703,0 0.0207,0h-33.38v-0.5h0.5v17.21c0,0.2541 0.20595,0.46 0.46,0.46zM1.91,21.5h32.52v0.5h-0.5v-19.13c0,-0.24853 -0.2015,-0.46 -0.45,-0.46h-30.61c-0.25405,0 -0.46,0.20595 -0.46,0.46v19.13h-0.5zM1.41,22.5v-19.63c0,-0.80634 0.65366,-1.46 1.46,-1.46h30.61c0.8008,0 1.45,0.65919 1.45,1.46v19.63h-33.02z"></path><path id="路径 4" fill-rule="evenodd" style="fill:#1957E6" opacity="1" d="M22.0027,35.3902c0.53,0 0.96,0.43 0.96,0.96c0,0.52 -0.43,0.95 -0.96,0.95h-16.06995c-0.53,0 -0.96,-0.43 -0.96,-0.95c0,-0.53 0.43,-0.96 0.96,-0.96zM22.1327,28.6902v0c0.52,0 0.95,0.43 0.95,0.96c0,0.52 -0.43,0.95 -0.95,0.95h-16.19995c-0.53,0 -0.96,-0.43 -0.96,-0.95c0,-0.53 0.43,-0.96 0.96,-0.96z"></path></g></g><defs><rect id="path_0" x="0" y="0" width="44" height="44" /></defs></svg>