<svg xmlns="http://www.w3.org/2000/svg" xmlns:xlink="http://www.w3.org/1999/xlink" width="44" height="44" viewBox="0 0 44 44" fill="none"><g opacity="1"  transform="translate(0 0)  rotate(0)"><mask id="bg-mask-0" fill="white"><use transform="translate(0 0)  rotate(NaN)" xlink:href="#path_0"></use></mask><g mask="url(#bg-mask-0)" ><path id="路径 1" fill-rule="evenodd" style="fill:#1957E6" opacity="1" d="M40.2523,24.3598c-0.44,1.75 0.65,4.12 1.96,5.39c0.01,0.02 0.03,0.03 0.04,0.05c0.02,0.02 0.03,0.03 0.05,0.05c0.01,0.02 0.03,0.04 0.04,0.05c0.01,0.02 0.03,0.04 0.04,0.06c0.01,0.02 0.03,0.04 0.04,0.06c0.01,0.01 0.02,0.03 0.03,0.05c0.01,0.02 0.02,0.04 0.03,0.06c0.01,0.02 0.02,0.04 0.03,0.07c0.01,0.02 0.02,0.04 0.03,0.06c0,0.02 0.01,0.04 0.02,0.06c0,0.02 0.01,0.04 0.02,0.07c0,0.02 0.01,0.04 0.01,0.06c0.01,0.02 0.01,0.05 0.01,0.07c0.01,0.02 0.01,0.04 0.01,0.07c0.01,0.02 0.01,0.04 0.01,0.06c0,0.02 0,0.05 0,0.07c0,0.02 0,0.04 0,0.07c0,0.02 0,0.04 0,0.06c-0.01,0.03 -0.01,0.05 -0.01,0.07c0,0.02 -0.01,0.05 -0.01,0.07c-0.01,0.02 -0.01,0.04 -0.02,0.06c0,0.03 -0.01,0.05 -0.01,0.07c-0.01,0.02 -0.02,0.04 -0.02,0.06c-0.01,0.03 -0.02,0.05 -0.03,0.07c0,0.02 -0.01,0.04 -0.02,0.06c-0.01,0.02 -0.02,0.04 -0.03,0.06c-0.01,0.02 -0.02,0.04 -0.03,0.06c-0.02,0.02 -0.03,0.04 -0.04,0.06c-0.01,0.02 -0.03,0.03 -0.04,0.05c-0.01,0.02 -0.03,0.04 -0.04,0.06c-0.01,0.01 -0.03,0.03 -0.04,0.05c-0.02,0.01 -0.03,0.03 -0.05,0.05c-0.01,0.01 -0.03,0.03 -0.05,0.04c-0.01,0.02 -0.03,0.03 -0.05,0.05c-0.01,0.01 -0.03,0.03 -0.05,0.04c-0.02,0.02 -0.04,0.03 -0.05,0.04c-0.02,0.01 -0.04,0.03 -0.06,0.04c-0.02,0.01 -0.04,0.02 -0.06,0.03c-0.02,0.01 -0.04,0.02 -0.06,0.03c-0.02,0.01 -0.04,0.02 -0.06,0.03c-0.02,0.01 -0.04,0.02 -0.06,0.03c-0.02,0.01 -0.05,0.01 -0.07,0.02c-0.02,0.01 -0.04,0.01 -0.06,0.02c-0.02,0 -0.05,0.01 -0.07,0.01c-0.02,0.01 -0.04,0.01 -0.06,0.02c-0.03,0 -0.05,0 -0.07,0.01c-0.02,0 -0.05,0 -0.07,0c-0.02,0 -0.04,0 -0.07,0c-0.02,0 -0.04,0 -0.06,0c-0.03,0 -0.05,0 -0.07,0c-0.02,0 -0.05,-0.01 -0.07,-0.01c-0.02,0 -0.04,-0.01 -0.06,-0.01c-0.03,0 -0.05,-0.01 -0.07,-0.01c-0.02,-0.01 -0.04,-0.01 -0.07,-0.02c-0.02,-0.01 -0.04,-0.01 -0.06,-0.02c-0.02,-0.01 -0.04,-0.02 -0.06,-0.02c-0.02,-0.01 -0.04,-0.02 -0.07,-0.03c-0.02,-0.01 -0.04,-0.02 -0.06,-0.03c-0.02,-0.01 -0.04,-0.02 -0.05,-0.03c-0.02,-0.01 -0.04,-0.03 -0.06,-0.04c-0.02,-0.01 -0.04,-0.02 -0.06,-0.04c-0.02,-0.01 -0.03,-0.02 -0.05,-0.04c-0.02,-0.01 -0.04,-0.03 -0.05,-0.04c-0.02,-0.02 -0.04,-0.03 -0.05,-0.05c-1.88,-1.83 -3.42,-5.18 -2.71,-8.03c0.16,-0.64 0.39,-1.24 0.6,-1.81c0.18,-0.47 0.35,-0.94 0.48,-1.42c0.15,-0.53 0.32,-1.52 -0.1,-2.18c-0.3,-0.46 -0.95,-0.77 -1.66,-0.77c-0.58,0.02 -1.48,0.15 -2.42,0.3c-1.19,0.2 -2.49,0.41 -3.72,0.41c3.03,2.78 4.8,6.57 4.8,10.66c0,8.33 -7.4,15.12 -16.5,15.12c-9.1,0 -16.5,-6.79 -16.5,-15.12c0,-4.47 2.2,-8.67 5.83,-11.51c-0.2,-0.24 -0.33,-0.53 -0.33,-0.87c0,-0.02 0,-0.04 0,-0.07c0,-0.02 0,-0.04 0.01,-0.06c0,-0.03 0,-0.05 0,-0.07c0.01,-0.02 0.01,-0.04 0.02,-0.07c0,-0.02 0.01,-0.04 0.01,-0.06c0.01,-0.02 0.01,-0.05 0.02,-0.07c0.01,-0.02 0.01,-0.04 0.02,-0.06c0.01,-0.02 0.02,-0.04 0.02,-0.06c0.01,-0.03 0.02,-0.05 0.03,-0.07c0.01,-0.02 0.02,-0.04 0.03,-0.06c0.01,-0.02 0.02,-0.04 0.04,-0.06c0.01,-0.01 0.02,-0.03 0.03,-0.05c0.01,-0.02 0.03,-0.04 0.04,-0.06c0.01,-0.02 0.03,-0.03 0.04,-0.05c0.02,-0.02 0.03,-0.04 0.05,-0.05c0.01,-0.02 0.03,-0.04 0.04,-0.05c0.02,-0.02 0.03,-0.03 0.05,-0.05c0.02,-0.01 0.04,-0.03 0.05,-0.04c0.02,-0.02 0.04,-0.03 0.06,-0.04c0.01,-0.02 0.03,-0.03 0.05,-0.04c0.02,-0.01 0.04,-0.03 0.06,-0.04c0.02,-0.01 0.04,-0.02 0.06,-0.03c0.02,-0.01 0.04,-0.02 0.06,-0.03c0.02,-0.01 0.04,-0.02 0.06,-0.03c0.02,-0.01 0.04,-0.02 0.06,-0.02c0.02,-0.01 0.04,-0.02 0.07,-0.02c0.02,-0.01 0.04,-0.02 0.06,-0.02c0.02,-0.01 0.04,-0.01 0.07,-0.02c0.02,0 0.04,-0.01 0.06,-0.01c0.03,0 0.05,0 0.07,-0.01c0.02,0 0.04,0 0.07,0c0.02,0 0.04,0 0.06,0h1.21l-2.13,-4.96c-0.03,-0.01 -0.05,-0.01 -0.08,-0.02c-0.03,-0.01 -0.06,-0.02 -0.09,-0.02c-0.03,-0.01 -0.06,-0.02 -0.08,-0.03c-0.03,-0.01 -0.06,-0.03 -0.09,-0.04c-0.02,-0.01 -0.05,-0.02 -0.08,-0.04c-0.02,-0.01 -0.05,-0.03001 -0.07,-0.04002c-0.03,-0.01999 -0.05,-0.02999 -0.08,-0.05c-0.02,-0.01999 -0.04,-0.04 -0.07,-0.05999c-0.02,-0.01 -0.04,-0.03 -0.06,-0.05c-0.02,-0.02 -0.05,-0.04 -0.07,-0.07c-0.02,-0.02001 -0.04,-0.04 -0.06,-0.06c-0.01,-0.03 -0.03,-0.05001 -0.05,-0.07c-0.02,-0.03 -0.03,-0.05 -0.05,-0.08c-0.01,-0.02001 -0.03,-0.05 -0.04,-0.07001c-0.02,-0.02999 -0.03,-0.05999 -0.04,-0.08c-0.02,-0.02999 -0.03,-0.05999 -0.04,-0.08999c-0.01,-0.02 -0.02,-0.05 -0.03,-0.08001c-0.01,-0.02999 -0.01,-0.05999 -0.02,-0.08999c-0.01,-0.02 -0.01,-0.05 -0.02,-0.08c0,-0.03001 -0.01,-0.06 -0.01,-0.09c0,-0.03001 -0.01,-0.06 -0.01,-0.09c0,-0.03 0,-0.06001 0,-0.09c0,-0.03 0,-0.06001 0.01,-0.09c0,-0.03 0,-0.06 0.01,-0.08c0,-0.03 0.01,-0.06 0.01,-0.09001c0.01,-0.02999 0.02,-0.05999 0.02,-0.09c0.01,-0.02999 0.02,-0.05999 0.03,-0.08c0.01,-0.02999 0.02,-0.05999 0.03,-0.09c0.02,-0.01999 0.03,-0.04999 0.04,-0.08c0.02,-0.01999 0.03,-0.04999 0.05,-0.06999c0.01,-0.03 0.03,-0.05001 0.04,-0.08c0.02,-0.02001 0.04,-0.05001 0.06,-0.07001c0.01,-0.01999 0.03,-0.04999 0.05,-0.06999c0.02,-0.02 0.04,-0.04 0.06,-0.06c0.03,-0.02 0.05,-0.04 0.07,-0.06001c0.02,-0.02 0.05,-0.04 0.07,-0.06c0.02,-0.01999 0.05,-0.02999 0.07,-0.04999c0.03,-0.02 0.05,-0.03 0.08,-0.05c0.02,-0.01 0.05,-0.02 0.08,-0.04c0.02,-0.01 0.05,-0.02 0.08,-0.03c0.03,-0.01 0.05,-0.02001 0.08,-0.03c0.03,-0.01001 0.06,-0.02 0.09,-0.03001c0.03,-0.00999 0.05,-0.00999 0.08,-0.02c0.03,0 0.06,-0.00999 0.09,-0.00999c0.03,-0.01 0.06,-0.01 0.09,-0.01c0.03,0 0.06,0 0.09,0c0.03,0 0.06,0 0.09,0c0.03,0 0.06,0 0.09,0.01c0.03,0 0.05,0.00999 0.08,0.00999c0.03,0.01001 0.06,0.02 0.09,0.02c0.03,0.01001 0.06,0.02 0.09,0.03001c0.02,0.00999 0.05,0.02 0.08,0.03c0.03,0.01 0.05,0.02 0.08,0.04c0.03,0.01 0.05,0.02 0.08,0.04c0.02,0.01 0.05,0.03 0.07,0.04c0.03,0.02 0.05,0.04 0.08,0.06c0.02,0.00999 0.04,0.02999 0.07,0.04999c0.02,0.02001 0.04,0.04001 0.06,0.06001c0.02,0.02 0.04,0.04 0.06,0.07c0.02,0.02 0.04,0.04 0.06,0.07c0.02,0.02 0.03,0.03999 0.05,0.07c0.02,0.01999 0.03,0.05 0.05,0.07c0.01,0.02999 0.03,0.05 0.04,0.08c0.02,0.02999 0.03,0.05 0.04,0.07999l16.16,2.75002c0.01,0 0.03,0.01 0.05,0.01c0.02,0.01 0.04,0.01 0.06,0.02c0.02,0 0.04,0.01 0.06,0.01c0.02,0.01 0.04,0.01 0.06,0.02c0.02,0.01 0.04,0.02 0.05,0.02c0.02,0.01 0.04,0.02 0.06,0.03c0.02,0.01 0.04,0.01 0.05,0.02c0.02,0.01 0.04,0.02 0.06,0.03c0.01,0.01 0.03,0.02 0.05,0.03c0.02,0.01 0.03,0.03 0.05,0.04c0.01,0.01 0.03,0.02 0.05,0.03c0.01,0.01 0.03,0.03 0.04,0.04c0.02,0.01 0.03,0.03 0.05,0.04c0.01,0.01 0.03,0.03 0.04,0.04c0.02,0.01 0.03,0.03 0.05,0.04c0.01,0.02 0.02,0.03 0.04,0.05c0.01,0.01 0.02,0.03 0.03,0.05c0.02,0.01 0.03,0.03 0.04,0.04c0.01,0.02 0.02,0.04 0.03,0.05c0.01,0.02 0.02,0.04 0.03,0.06c0.01,0.01 0.02,0.03 0.03,0.05c0.01,0.02 0.02,0.03 0.03,0.05c0.01,0.02 0.02,0.04 0.02,0.06c0.01,0.02 0.02,0.04 0.03,0.05c0,0.02 0.01,0.04 0.02,0.06c0,0.02 0.01,0.04 0.01,0.06c0.01,0.02 0.01,0.04 0.02,0.06c0,0.02 0,0.04 0.01,0.06c0,0.02 0,0.04 0.01,0.06c0,0.02 0,0.04 0,0.06c0.01,0.02 0.01,0.04 0.01,0.06c0,0.02 0,0.04 0,0.06v2.93l2.85,0.15c1.13,0.09 2.58,-0.15 3.87,-0.36c1.06,-0.18 2.03,-0.35 2.88,-0.34c1.64,0.01 3.15,0.78 3.96,2.03c0.75,1.16 0.9,2.67 0.45,4.38c-0.15,0.57 -0.36,1.12 -0.56,1.67c-0.2,0.53 -0.39,1.03 -0.51,1.52zM24.5623,13.5398l-12.52,-2.14l1.58,3.73h10.17l0.77,0.04v-1.63zM32.8123,28.8798c0,-4.6 -2.8,-8.75 -7.31,-10.91l-1.78,-0.1l-10.89,0.01c-4.64,2.13 -7.52,6.31 -7.52,11c0,6.82 6.17,12.37 13.75,12.37c7.58,0 13.75,-5.55 13.75,-12.37zM20.6023,6.40979v0c0.09,-0.26 -0.08,-0.59 -0.47,-1.25c-0.59,-1 -1.57,-2.67 -0.15,-4.60001c0.01,-0.02 0.02,-0.03 0.04,-0.05c0.01,-0.02 0.03,-0.03 0.04,-0.05c0.02,-0.02 0.03,-0.03 0.05,-0.05c0.02,-0.01 0.03,-0.03 0.05,-0.04c0.02,-0.02 0.03,-0.03 0.05,-0.04c0.02,-0.02 0.03,-0.03 0.05,-0.04c0.02,-0.02 0.04,-0.03 0.06,-0.04c0.02,-0.01 0.04,-0.02 0.05,-0.04c0.02,-0.01 0.04,-0.02 0.06,-0.03c0.02,-0.01 0.04,-0.02 0.06,-0.03c0.02,-0.01 0.04,-0.01 0.06,-0.02c0.02,-0.01 0.05,-0.02 0.07,-0.03c0.02,0 0.04,-0.01 0.06,-0.02c0.02,0 0.04,-0.01 0.06,-0.01c0.03,-0.01 0.05,-0.01 0.07,-0.02c0.02,0 0.04,0 0.06,-0.01c0.03,0 0.05,0 0.07,0c0.02,-0.01 0.04,-0.01 0.07,-0.01c0.02,0 0.04,0 0.06,0c0.02,0 0.05,0 0.07,0c0.02,0 0.04,0.01 0.07,0.01c0.02,0 0.04,0 0.06,0.01c0.02,0 0.04,0 0.07,0.01c0.02,0 0.04,0.01 0.06,0.01c0.02,0.01 0.04,0.01 0.07,0.02c0.02,0.01 0.04,0.01 0.06,0.02c0.02,0.01 0.04,0.02 0.06,0.02c0.02,0.01 0.04,0.02 0.06,0.03c0.02,0.01 0.04,0.02 0.06,0.03c0.02,0.01 0.04,0.02 0.06,0.03c0.02,0.02 0.04,0.03 0.05,0.04c0.02,0.01 0.04,0.02 0.06,0.04c0.02,0.01 0.03,0.02 0.05,0.04c0.02,0.01 0.04,0.03 0.05,0.04c0.02,0.02 0.03,0.03 0.05,0.05c0.02,0.01 0.03,0.03 0.05,0.04c0.01,0.02 0.03,0.04 0.04,0.05c0.01,0.02 0.03,0.04 0.04,0.06c0.01,0.01 0.03,0.03 0.04,0.05c0.01,0.02 0.02,0.04 0.04,0.06c0.01,0.02 0.02,0.03 0.03,0.05c0.01,0.02 0.02,0.04 0.03,0.06c0.01,0.02 0.02,0.04 0.03,0.06c0.01,0.02 0.01,0.04 0.02,0.06c0.01,0.03 0.02,0.05 0.02,0.07c0.01,0.02 0.02,0.04 0.02,0.06c0.01,0.02 0.01,0.04 0.02,0.07c0,0.02 0.01,0.04 0.01,0.06c0,0.02 0.01,0.04 0.01,0.07c0,0.02 0,0.04 0.01,0.06c0,0.02 0,0.05 0,0.07c0,0.02 0,0.04 0,0.07c0,0.02 0,0.04 0,0.06c-0.01,0.02 -0.01,0.05 -0.01,0.07c0,0.02 -0.01,0.04 -0.01,0.06c-0.01,0.03 -0.01,0.05 -0.01,0.07c-0.01,0.02 -0.01,0.04 -0.02,0.06c-0.01,0.02 -0.01,0.05 -0.02,0.07c-0.01,0.02 -0.01,0.04 -0.02,0.06c-0.01,0.02 -0.02,0.04 -0.03,0.06c-0.01,0.02 -0.02,0.04 -0.03,0.06c-0.01,0.02 -0.02,0.04 -0.03,0.06c-0.01,0.02 -0.02,0.04 -0.03,0.06c-0.01,0.02 -0.02,0.03 -0.04,0.05c-0.29,0.4 -0.3,0.55 0.31,1.57c0.52,0.88 1.22,2.08 0.68,3.58c-0.01,0.03 -0.01,0.05 -0.02,0.07c-0.01,0.02 -0.02,0.04 -0.03,0.06c-0.01,0.02 -0.02,0.04 -0.03,0.06c-0.01,0.02 -0.02,0.04 -0.03,0.06c-0.02,0.02 -0.03,0.04 -0.04,0.05c-0.01,0.02 -0.03,0.04 -0.04,0.06c-0.01,0.02 -0.03,0.02999 -0.04,0.04999c-0.02,0.02 -0.03,0.04001 -0.05,0.05001c-0.01,0.02 -0.03,0.04 -0.04,0.05c-0.02,0.02 -0.03,0.03 -0.05,0.05c-0.02,0.01 -0.04,0.03 -0.05,0.04c-0.02,0.01999 -0.04,0.03 -0.06,0.03999c-0.01,0.02 -0.03,0.03 -0.05,0.04c-0.02,0.01001 -0.04,0.03001 -0.06,0.04c-0.02,0.01001 -0.04,0.02001 -0.06,0.03001c-0.02,0.00999 -0.04,0.02 -0.06,0.03c-0.02,0.01 -0.04,0.01999 -0.06,0.03c-0.02,0.01 -0.04,0.01 -0.06,0.02c-0.02,0.00999 -0.05,0.02 -0.07,0.02c-0.02,0.01 -0.04,0.02 -0.06,0.02c-0.02,0.00999 -0.05,0.00999 -0.07,0.01999c-0.02,0 -0.04,0 -0.06,0.01001c-0.03,0 -0.05,0 -0.07,0c-0.02,0.01 -0.05,0.01 -0.07,0.01c-0.02,0 -0.04,0 -0.07,0c-0.02,0 -0.04,0 -0.06,0c-0.03,0 -0.05,0 -0.07,-0.01c-0.02,0 -0.05,0 -0.07,0c-0.02,-0.01001 -0.04,-0.01001 -0.06,-0.02001c-0.03,0 -0.05,-0.00999 -0.07,-0.00999c-0.02,-0.01 -0.04,-0.01 -0.06,-0.02c-0.03,-0.01001 -0.05,-0.01001 -0.07,-0.02c-0.02,-0.01 -0.04,-0.02 -0.06,-0.03001c-0.02,0 -0.04,-0.00999 -0.06,-0.01999c-0.02,-0.01 -0.04,-0.02001 -0.06,-0.03c-0.02,-0.01 -0.04,-0.03001 -0.06,-0.04c-0.02,-0.01 -0.04,-0.02 -0.06,-0.03001c-0.02,-0.02 -0.04,-0.02999 -0.05,-0.04c-0.02,-0.02 -0.04,-0.02999 -0.06,-0.03999c-0.01,-0.02 -0.03,-0.03 -0.05,-0.05c-0.01,-0.01 -0.03,-0.03 -0.05,-0.04c-0.01,-0.02 -0.03,-0.04 -0.04,-0.05c-0.02,-0.02 -0.03,-0.04 -0.05,-0.05001c-0.01,-0.02 -0.03,-0.04 -0.04,-0.05999c-0.01,-0.02 -0.02,-0.03 -0.04,-0.05c-0.01,-0.02 -0.02,-0.04 -0.03,-0.06c-0.01,-0.02 -0.03,-0.04 -0.04,-0.06001c-0.01,-0.02 -0.02,-0.04 -0.03,-0.06c-0.01,-0.01999 -0.01,-0.03999 -0.02,-0.05999c-0.01,-0.02 -0.02,-0.04 -0.03,-0.06c-0.01,-0.03 -0.01,-0.05 -0.02,-0.07001c0,-0.02 -0.01,-0.04 -0.02,-0.06c0,-0.02999 -0.01,-0.04999 -0.01,-0.06999c-0.01,-0.02 -0.01,-0.04 -0.01,-0.07c-0.01,-0.02 -0.01,-0.04 -0.01,-0.06c0,-0.03001 0,-0.05001 -0.01,-0.07c0,-0.02 0,-0.05 0,-0.07c0,-0.02 0,-0.04 0.01,-0.07c0,-0.02 0,-0.04 0,-0.06c0,-0.03001 0.01,-0.05 0.01,-0.07c0,-0.02 0.01,-0.04 0.01,-0.07c0.01,-0.02 0.01,-0.04 0.02,-0.06c0,-0.02001 0.01,-0.05 0.01,-0.07c0.01,-0.02 0.02,-0.04 0.03,-0.06zM15.1023,6.40979v0c0.09,-0.26 -0.08,-0.59 -0.47,-1.25c-0.59,-1 -1.57,-2.67 -0.15,-4.60001c0.01,-0.02 0.02,-0.03 0.04,-0.05c0.01,-0.02 0.03,-0.03 0.04,-0.05c0.02,-0.02 0.03,-0.03 0.05,-0.05c0.02,-0.01 0.03,-0.03 0.05,-0.04c0.02,-0.02 0.03,-0.03 0.05,-0.04c0.02,-0.02 0.04,-0.03 0.05,-0.04c0.02,-0.02 0.04,-0.03 0.06,-0.04c0.02,-0.01 0.04,-0.02 0.05,-0.04c0.02,-0.01 0.04,-0.02 0.06,-0.03c0.02,-0.01 0.04,-0.02 0.06,-0.03c0.02,-0.01 0.04,-0.01 0.06,-0.02c0.02,-0.01 0.05,-0.02 0.07,-0.03c0.02,0 0.04,-0.01 0.06,-0.02c0.02,0 0.04,-0.01 0.06,-0.01c0.03,-0.01 0.05,-0.01 0.07,-0.02c0.02,0 0.04,0 0.06,-0.01c0.03,0 0.05,0 0.07,0c0.02,-0.01 0.04,-0.01 0.07,-0.01c0.02,0 0.04,0 0.06,0c0.02,0 0.05,0 0.07,0c0.02,0 0.04,0.01 0.07,0.01c0.02,0 0.04,0 0.06,0.01c0.02,0 0.04,0 0.07,0.01c0.02,0 0.04,0.01 0.06,0.01c0.02,0.01 0.04,0.01 0.07,0.02c0.02,0.01 0.04,0.01 0.06,0.02c0.02,0.01 0.04,0.02 0.06,0.02c0.02,0.01 0.04,0.02 0.06,0.03c0.02,0.01 0.04,0.02 0.06,0.03c0.02,0.01 0.04,0.02 0.06,0.03c0.02,0.02 0.04,0.03 0.05,0.04c0.02,0.01 0.04,0.02 0.06,0.04c0.02,0.01 0.03,0.02 0.05,0.04c0.02,0.01 0.04,0.03 0.05,0.04c0.02,0.02 0.03,0.03 0.05,0.05c0.02,0.01 0.03,0.03 0.05,0.04c0.01,0.02 0.03,0.04 0.04,0.05c0.01,0.02 0.03,0.04 0.04,0.06c0.01,0.01 0.03,0.03 0.04,0.05c0.01,0.02 0.02,0.04 0.04,0.06c0.01,0.02 0.02,0.03 0.03,0.05c0.01,0.02 0.02,0.04 0.03,0.06c0.01,0.02 0.02,0.04 0.03,0.06c0.01,0.02 0.01,0.04 0.02,0.06c0.01,0.03 0.02,0.05 0.02,0.07c0.01,0.02 0.02,0.04 0.02,0.06c0.01,0.02 0.01,0.04 0.02,0.07c0,0.02 0.01,0.04 0.01,0.06c0,0.02 0.01,0.04 0.01,0.07c0,0.02 0,0.04 0.01,0.06c0,0.02 0,0.05 0,0.07c0,0.02 0,0.04 0,0.07c0,0.02 0,0.04 0,0.06c-0.01,0.02 -0.01,0.05 -0.01,0.07c0,0.02 -0.01,0.04 -0.01,0.06c0,0.03 -0.01,0.05 -0.01,0.07c-0.01,0.02 -0.01,0.04 -0.02,0.06c-0.01,0.02 -0.01,0.05 -0.02,0.07c-0.01,0.02 -0.01,0.04 -0.02,0.06c-0.01,0.02 -0.02,0.04 -0.03,0.06c-0.01,0.02 -0.02,0.04 -0.03,0.06c-0.01,0.02 -0.02,0.04 -0.03,0.06c-0.01,0.02 -0.02,0.04 -0.03,0.06c-0.01,0.02 -0.02,0.03 -0.04,0.05c-0.29,0.4 -0.3,0.55 0.31,1.57c0.52,0.88 1.22,2.08 0.68,3.58c-0.01,0.03 -0.01,0.05 -0.02,0.07c-0.01,0.02 -0.02,0.04 -0.03,0.06c-0.01,0.02 -0.02,0.04 -0.03,0.06c-0.01,0.02 -0.02,0.04 -0.03,0.06c-0.02,0.02 -0.03,0.04 -0.04,0.05c-0.01,0.02 -0.03,0.04 -0.04,0.06c-0.01,0.02 -0.03,0.02999 -0.04,0.04999c-0.02,0.02 -0.03,0.04001 -0.05,0.05001c-0.01,0.02 -0.03,0.04 -0.04,0.05c-0.02,0.02 -0.03,0.03 -0.05,0.05c-0.02,0.01 -0.04,0.03 -0.05,0.04c-0.02,0.01999 -0.04,0.03 -0.06,0.03999c-0.01,0.02 -0.03,0.03 -0.05,0.04c-0.02,0.01001 -0.04,0.03001 -0.06,0.04c-0.02,0.01001 -0.04,0.02001 -0.06,0.03001c-0.02,0.00999 -0.04,0.02 -0.06,0.03c-0.02,0.01 -0.04,0.01999 -0.06,0.03c-0.02,0.01 -0.04,0.02 -0.06,0.02c-0.02,0.00999 -0.05,0.02 -0.07,0.02c-0.02,0.01 -0.04,0.02 -0.06,0.02c-0.02,0.00999 -0.05,0.00999 -0.07,0.01999c-0.02,0 -0.04,0 -0.06,0.01001c-0.03,0 -0.05,0 -0.07,0.01c-0.02,0 -0.05,0 -0.07,0c-0.02,0 -0.04,0 -0.07,0c-0.02,0 -0.04,0 -0.06,0c-0.03,0 -0.05,0 -0.07,-0.01c-0.02,0 -0.05,0 -0.07,0c-0.02,-0.01001 -0.04,-0.01001 -0.06,-0.02001c-0.03,0 -0.05,-0.00999 -0.07,-0.00999c-0.02,-0.01 -0.04,-0.01 -0.06,-0.02c-0.03,-0.01001 -0.05,-0.01001 -0.07,-0.02c-0.02,-0.01 -0.04,-0.02 -0.06,-0.02c-0.02,-0.01001 -0.04,-0.02 -0.06,-0.03c-0.02,-0.01 -0.04,-0.02001 -0.06,-0.03c-0.02,-0.01 -0.04,-0.02 -0.06,-0.04c-0.02,-0.01 -0.04,-0.02 -0.06,-0.03001c-0.02,-0.02 -0.04,-0.02999 -0.05,-0.04c-0.02,-0.02 -0.04,-0.02999 -0.06,-0.03999c-0.01,-0.02 -0.03,-0.03 -0.05,-0.05c-0.01,-0.01 -0.03,-0.03 -0.05,-0.04c-0.01,-0.02 -0.03,-0.04 -0.04,-0.05c-0.02,-0.02 -0.03,-0.04 -0.05,-0.05001c-0.01,-0.02 -0.03,-0.04 -0.04,-0.05999c-0.01,-0.02 -0.02,-0.03 -0.04,-0.05c-0.01,-0.02 -0.02,-0.04 -0.03,-0.06c-0.01,-0.02 -0.03,-0.04 -0.04,-0.06001c-0.01,-0.02 -0.02,-0.04 -0.03,-0.06c-0.01,-0.01999 -0.01,-0.03999 -0.02,-0.05999c-0.01,-0.02 -0.02,-0.04 -0.03,-0.06c-0.01,-0.03 -0.01,-0.05 -0.02,-0.07001c-0.01,-0.02 -0.01,-0.04 -0.02,-0.06c0,-0.02999 -0.01,-0.04999 -0.01,-0.06999c-0.01,-0.02 -0.01,-0.04 -0.01,-0.07c-0.01,-0.02 -0.01,-0.04 -0.01,-0.06c0,-0.03001 0,-0.05001 -0.01,-0.07c0,-0.02 0,-0.05 0,-0.07c0,-0.02 0,-0.04 0.01,-0.07c0,-0.02 0,-0.04 0,-0.06c0,-0.03001 0.01,-0.05 0.01,-0.07c0,-0.02 0.01,-0.04 0.01,-0.07c0.01,-0.02 0.01,-0.04 0.02,-0.06c0,-0.02001 0.01,-0.05 0.01,-0.07c0.01,-0.02 0.02,-0.04 0.03,-0.06z"></path></g></g><defs><rect id="path_0" x="0" y="0" width="44" height="44" /></defs></svg>