<svg xmlns="http://www.w3.org/2000/svg" xmlns:xlink="http://www.w3.org/1999/xlink" width="44" height="44" viewBox="0 0 44 44" fill="none"><g opacity="1"  transform="translate(0 0)  rotate(0)"><mask id="bg-mask-0" fill="white"><use transform="translate(0 0)  rotate(NaN)" xlink:href="#path_0"></use></mask><g mask="url(#bg-mask-0)" ><path id="路径 1" fill-rule="evenodd" style="fill:#1957E6" opacity="1" d="M41.0118,25.4349c0.04,0.03 0.08,0.06 0.12,0.09c0.04,0.03 0.08,0.07 0.12,0.1c0.03,0.03 0.07,0.06 0.11,0.1c0.03,0.03 0.07,0.07 0.1,0.1c0.04,0.04 0.07,0.07 0.1,0.11c0.04,0.03 0.07,0.07 0.1,0.11c0.04,0.04 0.07,0.07 0.1,0.11c0.03,0.04 0.06,0.08 0.09,0.12c0.03,0.04 0.06,0.08 0.08,0.12c0.03,0.04 0.06,0.08 0.09,0.13c0.02,0.04 0.05,0.08 0.07,0.12c0.03,0.05 0.05,0.09 0.07,0.13c0.03,0.05 0.05,0.09 0.07,0.14c0.02,0.04 0.04,0.09 0.06,0.13c0.02,0.05 0.04,0.09 0.06,0.14c0.02,0.04 0.04,0.09 0.05,0.14c0.02,0.04 0.03,0.09 0.05,0.14c0.01,0.04 0.03,0.09 0.04,0.14c0.01,0.05 0.03,0.1 0.04,0.14c0.01,0.05 0.02,0.1 0.03,0.15c0.01,0.05 0.02,0.1 0.02,0.14c0.01,0.05 0.02,0.1 0.02,0.15c0.01,0.05 0.01,0.1 0.02,0.15c0,0.05 0.01,0.1 0.01,0.15c0,0.05 0,0.1 0,0.15c0,0.05 0,0.09 0,0.14c0,0.05 0,0.1 -0.01,0.15c0,0.05 0,0.1 -0.01,0.15c0,0.05 -0.01,0.1 -0.02,0.15c0,0.05 -0.01,0.1 -0.02,0.14c-0.01,0.05 -0.02,0.1 -0.03,0.15c-0.01,0.05 -0.02,0.1 -0.03,0.14c-0.01,0.05 -0.02,0.09 -0.03,0.14c-0.01,0.04 -0.03,0.09 -0.04,0.13c-0.01,0.05 -0.02,0.09 -0.04,0.14c-0.01,0.04 -0.03,0.08 -0.04,0.13c-0.02,0.04 -0.03,0.08 -0.05,0.13c-0.02,0.04 -0.04,0.08 -0.06,0.12c-0.02,0.04 -0.04,0.09 -0.06,0.13c-0.02,0.04 -0.04,0.08 -0.06,0.12c-0.02,0.04 -0.05,0.08 -0.07,0.12c-0.02,0.04 -0.05,0.08 -0.07,0.12c-0.03,0.03 -0.06,0.07 -0.08,0.11c-0.03,0.04 -0.06,0.07 -0.09,0.11c-0.02,0.04 -0.05,0.07 -0.08,0.11c-0.03,0.03 -0.06,0.07 -0.09,0.1c-0.03,0.04 -0.07,0.07 -0.1,0.1c-0.03,0.04 -0.06,0.07 -0.1,0.1c-0.03,0.03 -0.06,0.06 -0.1,0.09c-0.03,0.03 -0.07,0.06 -0.11,0.09c-0.03,0.03 -0.07,0.06 -0.1,0.09c-0.04,0.02 -0.08,0.05 -0.12,0.08c-0.04,0.02 -0.07,0.05 -0.11,0.07c-0.04,0.03 -0.08,0.05 -0.12,0.08c-0.04,0.02 -0.08,0.04 -0.12,0.06c-0.04,0.02 -0.08,0.04 -0.13,0.06c-0.04,0.02 -0.08,0.04 -0.12,0.06c-0.04,0.02 -0.09,0.04 -0.13,0.05c-0.04,0.02 -0.09,0.04 -0.13,0.05c-0.04,0.02 -0.09,0.03 -0.13,0.04c-0.05,0.02 -0.09,0.03 -0.13,0.04c-0.05,0.01 -0.09,0.02 -0.14,0.03c-0.04,0.01 -0.09,0.02 -0.14,0.03c-0.04,0.01 -0.09,0.01 -0.13,0.02h-0.3v0.36c0,0.11 0,0.22 -0.01,0.33c0,0.11 0,0.23 -0.01,0.34c-0.01,0.11 -0.02,0.22 -0.04,0.33c-0.01,0.11 -0.03,0.22 -0.05,0.33c-0.02,0.11 -0.04,0.22 -0.06,0.33c-0.03,0.11 -0.06,0.22 -0.09,0.32c-0.03,0.11 -0.06,0.22 -0.09,0.33c-0.04,0.1 -0.08,0.21 -0.12,0.31c-0.04,0.1 -0.08,0.21 -0.13,0.31c-0.04,0.1 -0.09,0.2 -0.14,0.3c-0.05,0.1 -0.1,0.2 -0.16,0.3c-0.05,0.1 -0.11,0.19 -0.17,0.29c-0.06,0.09 -0.12,0.18 -0.18,0.27c-0.07,0.1 -0.14,0.19 -0.2,0.27c-0.07,0.09 -0.14,0.18 -0.22,0.26c-0.07,0.09 -0.14,0.17 -0.22,0.25c-0.08,0.08 -0.16,0.16 -0.24,0.24c-0.08,0.08 -0.16,0.15 -0.25,0.22c-0.08,0.08 -0.17,0.15 -0.25,0.22c-0.09,0.07 -0.18,0.13 -0.27,0.2c-0.09,0.06 -0.19,0.12 -0.28,0.18c-0.09,0.06 -0.19,0.12 -0.29,0.18c-0.09,0.05 -0.19,0.11 -0.29,0.16c-0.1,0.05 -0.2,0.1 -0.3,0.14c-0.11,0.05 -0.21,0.09 -0.31,0.13c-0.11,0.04 -0.21,0.08 -0.32,0.12c-0.1,0.03 -0.21,0.06 -0.32,0.09c-0.11,0.03 -0.21,0.06 -0.32,0.09c-0.11,0.02 -0.22,0.05 -0.33,0.06c-0.11,0.02 -0.22,0.04 -0.33,0.06c-0.11,0.01 -0.22,0.02 -0.33,0.03c-0.12,0.01 -0.23,0.02 -0.34,0.02c-0.11,0 -0.22,-0.01 -0.33,-0.02c-0.11,-0.01 -0.22,-0.02 -0.33,-0.04c-0.11,-0.01 -0.22,-0.03 -0.33,-0.05c-0.11,-0.02 -0.22,-0.04 -0.33,-0.07c-0.11,-0.02 -0.22,-0.05 -0.32,-0.08c-0.11,-0.03 -0.22,-0.07 -0.32,-0.1c-0.11,-0.04 -0.21,-0.08 -0.31,-0.12c-0.11,-0.04 -0.21,-0.08 -0.31,-0.13c-0.1,-0.05 -0.2,-0.09 -0.3,-0.15c-0.1,-0.05 -0.2,-0.1 -0.3,-0.16c-0.09,-0.05 -0.19,-0.11 -0.28,-0.17c-0.09,-0.06 -0.19,-0.12 -0.28,-0.19c-0.09,-0.06 -0.18,-0.13 -0.26,-0.2c-0.09,-0.07 -0.18,-0.14 -0.26,-0.21c-0.08,-0.07 -0.17,-0.15 -0.25,-0.23c-0.08,-0.07 -0.15,-0.15 -0.23,-0.23c-0.08,-0.08 -0.15,-0.17 -0.22,-0.25c-0.08,-0.09 -0.15,-0.17 -0.21,-0.26c-0.07,-0.09 -0.14,-0.18 -0.2,-0.27c-0.07,-0.09 -0.13,-0.18 -0.19,-0.28c-0.06,-0.09 -0.11,-0.19 -0.17,-0.28c-0.05,-0.1 -0.11,-0.2 -0.16,-0.3c-0.05,-0.1 -0.09,-0.2 -0.14,-0.3c-0.04,-0.1 -0.08,-0.2 -0.12,-0.31c-0.04,-0.1 -0.08,-0.21 -0.12,-0.31c-0.03,-0.11 -0.06,-0.21 -0.09,-0.32c-0.03,-0.11 -0.06,-0.22 -0.09,-0.33c-0.02,-0.1 -0.04,-0.21 -0.06,-0.32c-0.02,-0.11 -0.04,-0.22 -0.05,-0.33c-0.01,-0.11 -0.03,-0.22 -0.03,-0.34c-0.01,-0.11 -0.02,-0.22 -0.02,-0.33c0,-0.11 -0.01,-0.22 0,-0.33v-0.35h-8.05v0.35c0.01,0.11 0,0.22 0,0.33c0,0.12 -0.01,0.23 -0.02,0.34c0,0.11 -0.02,0.22 -0.03,0.33c-0.01,0.11 -0.03,0.23 -0.05,0.34c-0.02,0.11 -0.04,0.22 -0.07,0.33c-0.02,0.1 -0.05,0.21 -0.08,0.32c-0.03,0.11 -0.06,0.22 -0.1,0.32c-0.03,0.11 -0.07,0.21 -0.11,0.32c-0.04,0.1 -0.09,0.21 -0.13,0.31c-0.05,0.1 -0.1,0.2 -0.15,0.3c-0.05,0.1 -0.1,0.2 -0.16,0.3c-0.05,0.1 -0.11,0.19 -0.17,0.29c-0.06,0.09 -0.12,0.18 -0.19,0.28c-0.06,0.09 -0.13,0.18 -0.2,0.26c-0.07,0.09 -0.14,0.18 -0.21,0.26c-0.07,0.09 -0.15,0.17 -0.23,0.25c-0.07,0.08 -0.15,0.16 -0.23,0.24c-0.08,0.08 -0.17,0.15 -0.25,0.23c-0.09,0.07 -0.17,0.14 -0.26,0.21c-0.09,0.07 -0.18,0.13 -0.27,0.2c-0.09,0.06 -0.19,0.13 -0.28,0.19c-0.1,0.06 -0.19,0.11 -0.29,0.17c-0.1,0.05 -0.2,0.11 -0.3,0.16c-0.1,0.05 -0.2,0.1 -0.3,0.14c-0.1,0.05 -0.21,0.09 -0.31,0.13c-0.11,0.04 -0.21,0.08 -0.32,0.11c-0.1,0.04 -0.21,0.07 -0.32,0.1c-0.11,0.03 -0.22,0.06 -0.32,0.08c-0.11,0.03 -0.22,0.05 -0.33,0.07c-0.11,0.02 -0.23,0.04 -0.34,0.05c-0.11,0.01 -0.22,0.02 -0.33,0.03c-0.11,0.01 -0.22,0.02 -0.34,0.02c-0.11,0 -0.22,-0.01 -0.33,-0.02c-0.11,-0.01 -0.22,-0.02 -0.33,-0.03c-0.11,-0.02 -0.22,-0.04 -0.33,-0.06c-0.11,-0.02 -0.21997,-0.04 -0.32997,-0.06c-0.11,-0.03 -0.22,-0.06 -0.33,-0.09c-0.1,-0.03 -0.21,-0.06 -0.32,-0.1c-0.1,-0.03 -0.21,-0.07 -0.31,-0.11c-0.1,-0.04 -0.21,-0.08 -0.31,-0.13c-0.1,-0.05 -0.2,-0.09 -0.3,-0.15c-0.1,-0.05 -0.2,-0.1 -0.3,-0.15c-0.09,-0.06 -0.19,-0.12 -0.28,-0.18c-0.1,-0.06 -0.19,-0.12 -0.28,-0.18c-0.09,-0.07 -0.18,-0.14 -0.27,-0.21c-0.09,-0.06 -0.17,-0.14 -0.26,-0.21c-0.08,-0.07 -0.16,-0.15 -0.24,-0.22c-0.08,-0.08 -0.16,-0.16 -0.24,-0.24c-0.08,-0.08 -0.15,-0.17 -0.22,-0.25c-0.08,-0.08 -0.15,-0.17 -0.22,-0.26c-0.06,-0.09 -0.13,-0.18 -0.2,-0.27c-0.06,-0.09 -0.12,-0.18 -0.18,-0.28c-0.06,-0.09 -0.12,-0.19 -0.17,-0.28c-0.06,-0.1 -0.11,-0.2 -0.16,-0.3c-0.05,-0.1 -0.1,-0.2 -0.14,-0.3c-0.05,-0.1 -0.09,-0.21 -0.13,-0.31c-0.04,-0.11 -0.08,-0.21 -0.12,-0.32c-0.03,-0.1 -0.06,-0.21 -0.09,-0.32c-0.03,-0.1 -0.06,-0.21 -0.09,-0.32c-0.02,-0.11 -0.04,-0.22 -0.06,-0.33c-0.02,-0.11 -0.04,-0.22 -0.05,-0.33c-0.02,-0.11 -0.03,-0.22 -0.04,-0.33c0,-0.11 -0.01,-0.23 -0.01,-0.34c-0.01,-0.11 -0.01,-0.22 0,-0.33v-0.44c-0.04,-0.01 -0.08,-0.02 -0.12,-0.03c-0.04,-0.01 -0.08,-0.02 -0.12,-0.04c-0.04,-0.01 -0.08,-0.02 -0.12,-0.03c-0.04,-0.02 -0.08,-0.03 -0.12,-0.04c-0.03,-0.02 -0.07,-0.03 -0.11,-0.05c-0.04,-0.01 -0.08,-0.03 -0.11,-0.05c-0.04,-0.01 -0.08,-0.03 -0.12,-0.05c-0.03,-0.01 -0.07,-0.03 -0.11,-0.05c-0.03,-0.02 -0.07,-0.04 -0.11,-0.06c-0.03,-0.02 -0.07,-0.04 -0.1,-0.06c-0.04,-0.02 -0.07,-0.04 -0.11,-0.06c-0.03,-0.03 -0.07,-0.05 -0.1,-0.07c-0.03,-0.02 -0.07,-0.05 -0.1,-0.07c-0.03,-0.03 -0.07,-0.05 -0.1,-0.07c-0.03,-0.03 -0.06,-0.06 -0.1,-0.08c-0.03,-0.03 -0.06,-0.05 -0.09,-0.08c-0.03,-0.03 -0.06,-0.05 -0.09,-0.08c-0.03,-0.03 -0.06,-0.06 -0.09,-0.09c-0.03,-0.03 -0.06,-0.06 -0.09,-0.08c-0.03,-0.03 -0.05,-0.06 -0.08,-0.09c-0.03,-0.04 -0.06,-0.07 -0.08,-0.1c-0.03,-0.03 -0.06,-0.06 -0.08,-0.09c-0.03,-0.03 -0.05,-0.07 -0.08,-0.1c-0.02,-0.03 -0.05,-0.07 -0.07,-0.1c-0.02,-0.03 -0.05,-0.07 -0.07,-0.1c-0.02,-0.03 -0.04,-0.07 -0.07,-0.1c-0.02,-0.04 -0.04,-0.07 -0.06,-0.11c-0.02,-0.04 -0.04,-0.07 -0.06,-0.11c-0.02,-0.03 -0.04,-0.07 -0.05,-0.11c-0.02,-0.03 -0.04,-0.07 -0.06,-0.11c-0.02,-0.04 -0.03,-0.07 -0.05,-0.11c-0.01,-0.04 -0.03,-0.08 -0.04,-0.11c-0.02,-0.05 -0.04,-0.1 -0.06,-0.15c-0.02,-0.05 -0.03,-0.1 -0.05,-0.15c-0.01,-0.05 -0.03,-0.1 -0.04,-0.16c-0.02,-0.05 -0.03,-0.1 -0.04,-0.15c-0.01,-0.05 -0.02,-0.1 -0.03,-0.15c-0.01,-0.06 -0.02,-0.11 -0.03,-0.16c-0.01,-0.05 -0.02,-0.1 -0.02,-0.16c-0.01,-0.05 -0.02,-0.1 -0.02,-0.15c-0.01,-0.06 -0.01,-0.11 -0.01,-0.16c-0.01,-0.05 -0.01,-0.11 -0.01,-0.16c0,-0.05 0,-0.1 0,-0.16c0,-0.05 0,-0.1 0.01,-0.16c0,-0.05 0,-0.1 0.01,-0.15c0,-0.06 0,-0.11 0.01,-0.16c0.01,-0.05 0.01,-0.1 0.02,-0.16c0.01,-0.05 0.02,-0.1 0.03,-0.15l1.68,-9.73c0.01,-0.06 0.02,-0.12 0.03,-0.18c0.02,-0.05 0.03,-0.11 0.04,-0.17c0.02,-0.06 0.03,-0.11 0.05,-0.17c0.02,-0.06 0.03,-0.11 0.05,-0.17c0.02,-0.06 0.04,-0.11 0.06,-0.17c0.03,-0.05 0.05,-0.11 0.07,-0.16c0.03,-0.05 0.05,-0.11 0.08,-0.16c0.02,-0.05 0.05,-0.11 0.08,-0.16c0.03,-0.05 0.06,-0.1 0.09,-0.15c0.03,-0.05 0.06,-0.1 0.09,-0.15c0.04,-0.05 0.07,-0.1 0.11,-0.15c0.03,-0.04 0.07,-0.09 0.1,-0.14c0.04,-0.04 0.08,-0.09 0.12,-0.13c0.04,-0.05 0.08,-0.09 0.12,-0.13c0.04,-0.05 0.08,-0.09 0.13,-0.13c0.04,-0.04 0.08,-0.08 0.13,-0.12c0.04,-0.04 0.09,-0.07 0.13,-0.11c0.05,-0.04 0.1,-0.07 0.14,-0.11c0.05,-0.03 0.1,-0.07 0.15,-0.1c0.05,-0.03 0.1,-0.06 0.15,-0.1c0.05,-0.03 0.1,-0.06 0.15,-0.08c0.06,-0.03 0.11,-0.06 0.16,-0.09c0.05,-0.02 0.11,-0.05 0.16,-0.07c0.06,-0.02 0.11,-0.05 0.17,-0.07c0.05,-0.02 0.11,-0.04 0.16,-0.06c0.06,-0.02 0.12,-0.03 0.17,-0.05c0.06,-0.02 0.12,-0.03 0.17,-0.05c0.06,-0.01 0.12,-0.02 0.18,-0.03c0.06,-0.02 0.11,-0.03 0.17,-0.03c0.06,-0.01 0.12,-0.02 0.18,-0.03c0.06,0 0.12,-0.01 0.18,-0.01c0.05,-0.01 0.11,-0.01 0.17,-0.01h9.81997c0.07,0 0.13,0.01 0.2,0.01c0.07,0.01 0.14,0.01 0.2,0.02c0.07,0.01 0.13,0.02 0.2,0.03c0.07,0.01 0.13,0.03 0.2,0.04c0.06,0.02 0.13,0.03 0.19,0.05c0.07,0.02 0.13,0.04 0.2,0.06c0.06,0.02 0.12,0.04 0.19,0.07c0.06,0.02 0.12,0.05 0.18,0.08c0.06,0.02 0.12,0.05 0.18,0.08c0.06,0.03 0.12,0.06 0.18,0.1c0.06,0.03 0.12,0.07 0.17,0.1c0.06,0.04 0.12,0.08 0.17,0.11c0.06,0.04 0.11,0.08 0.16,0.12c0.06,0.05 0.11,0.09 0.16,0.13c0.05,0.05 0.1,0.09 0.15,0.14c0.05,0.04 0.09,0.09 0.14,0.14c0.05,0.05 0.09,0.1 0.14,0.15c0.04,0.05 0.08,0.1 0.12,0.15c0.05,0.06 0.09,0.11 0.12,0.17c0.04,0.05 0.08,0.11 0.12,0.16c0.03,0.06 0.07,0.12 0.1,0.18c0.03,0.05 0.07,0.11 0.1,0.17c0.03,0.06 0.05,0.12 0.08,0.19c0.03,0.06 0.06,0.12 0.08,0.18c0.02,0.06 0.05,0.13 0.07,0.19c0.02,0.06 0.04,0.13 0.06,0.19c0.01,0.07 0.03,0.13 0.05,0.2c0.01,0.06 0.02,0.13 0.04,0.2c0.01,0.06 0.02,0.13 0.03,0.2c0,0.06 0.01,0.13 0.02,0.2c0,0.06 0.01,0.13 0.01,0.2c0,0.06 0,0.13 0,0.2v4.91c3.9,-1.93 6.34,-5.98 6.34,-10.86c0,-0.12 0,-0.24 -0.01,-0.36c0,-0.12 0,-0.24 -0.01,-0.36c0,-0.12 -0.01,-0.24 -0.02,-0.36c-0.01,-0.12 -0.02,-0.24 -0.03,-0.36c-0.01,-0.12 -0.03,-0.24 -0.04,-0.36c-0.01,-0.12 -0.03,-0.24 -0.05,-0.36c-0.02,-0.11 -0.03,-0.23 -0.06,-0.35c-0.02,-0.12002 -0.04,-0.24002 -0.06,-0.36002c-0.02,-0.11 -0.05,-0.23 -0.08,-0.35c-0.02,-0.11 -0.05,-0.23 -0.08,-0.35c-0.03,-0.11 -0.06,-0.23 -0.09,-0.35c-0.03,-0.11 -0.07,-0.23 -0.1,-0.34c-0.04,-0.12 -0.07,-0.23 -0.11,-0.34c-0.04,-0.12 -0.08,-0.23 -0.12,-0.34c-0.04,-0.12 -0.08,-0.23 -0.12,-0.34c-0.05,-0.11 -0.09,-0.22 -0.14,-0.33h-5.56c-0.02,-0.01 -0.05,-0.01 -0.07,-0.01c-0.03,0 -0.05,0 -0.08,-0.01c-0.02,0 -0.05,0 -0.07,-0.01c-0.03,0 -0.05,-0.01 -0.07,-0.02c-0.03,0 -0.05,-0.01 -0.08,-0.01c-0.02,-0.01 -0.04,-0.02 -0.07,-0.03c-0.02,-0.01 -0.04,-0.02 -0.07,-0.03c-0.02,-0.01 -0.04,-0.02 -0.06,-0.03c-0.03,-0.01 -0.05,-0.02 -0.07,-0.03c-0.02,-0.01 -0.04,-0.03 -0.06,-0.04c-0.02,-0.01 -0.04,-0.03 -0.06,-0.04c-0.02,-0.02 -0.04,-0.03 -0.06,-0.05c-0.02,-0.01 -0.04,-0.03 -0.06,-0.05c-0.02,-0.01 -0.04,-0.03 -0.05,-0.05c-0.02,-0.02 -0.04,-0.03 -0.06,-0.05c-0.01,-0.02 -0.03,-0.04 -0.04,-0.06c-0.02,-0.02 -0.03,-0.04 -0.05,-0.06c-0.01,-0.02 -0.03,-0.04 -0.04,-0.06c-0.01,-0.02 -0.03,-0.04 -0.04,-0.06c-0.01,-0.03 -0.02,-0.05 -0.03,-0.07c-0.02,-0.02 -0.03,-0.04 -0.04,-0.07c-0.01,-0.02 -0.01,-0.04 -0.02,-0.07c-0.01,-0.02 -0.02,-0.04 -0.03,-0.07c0,-0.02 -0.01,-0.05 -0.02,-0.07c0,-0.02 -0.01,-0.05 -0.01,-0.07c-0.01,-0.03 -0.01,-0.05 -0.01,-0.08c-0.01,-0.02 -0.01,-0.05 -0.01,-0.07c0,-0.02 -0.01,-0.05 -0.01,-0.07c0,-0.03 0,-0.05 0,-0.08c0,-0.02 0.01,-0.05 0.01,-0.07c0,-0.03 0,-0.05 0.01,-0.08c0,-0.02 0,-0.05 0.01,-0.07c0,-0.02 0,-0.04 0.01,-0.06c0,-0.02 0.01,-0.04 0.01,-0.06c0.01,-0.02 0.01,-0.04 0.02,-0.06c0,-0.02 0.01,-0.04 0.02,-0.06c0,-0.02 0.01,-0.04 0.02,-0.06c0.01,-0.02 0.01,-0.04 0.02,-0.05c0.01,-0.02 0.02,-0.04 0.03,-0.06c0.01,-0.02 0.02,-0.04 0.03,-0.05c0.01,-0.02 0.02,-0.04 0.03,-0.06c0.01,-0.01 0.02,-0.03 0.03,-0.05c0.01,-0.02 0.02,-0.03 0.04,-0.05c0.01,-0.02 0.02,-0.03 0.03,-0.05c0.02,-0.01 0.03,-0.03 0.04,-0.04c0.02,-0.02 0.03,-0.03 0.05,-0.05c0.01,-0.01 0.03,-0.03 0.04,-0.04c0.02,-0.02 0.03,-0.03 0.05,-0.04c0.01,-0.02 0.03,-0.03 0.04,-0.04c0.02,-0.01 0.04,-0.03 0.05,-0.04c0.02,-0.01 0.04,-0.02 0.06,-0.03c0.01,-0.01 0.03,-0.02 0.05,-0.03c0.02,-0.01 0.03,-0.02 0.05,-0.03c0.02,-0.01 0.04,-0.02 0.06,-0.03c0.02,-0.01 0.03,-0.02 0.05,-0.03c0.02,0 0.04,-0.01 0.06,-0.02c0.02,-0.01 0.04,-0.01 0.06,-0.02c0.02,0 0.04,-0.01 0.06,-0.01c0.02,-0.01 0.04,-0.01 0.06,-0.02c0.02,0 0.04,-0.01 0.06,-0.01c0.02,0 0.04,-0.01 0.06,-0.01c0.02,0 0.04,0 0.06,-0.01c0.02,0 0.04,0 0.06,0c0.02,0 0.04,0 0.06,0h11.24c0.02,0 0.04,0 0.06,0c0.02,0 0.04,0.01 0.06,0.01c0.02,0 0.04,0 0.05,0.01c0.02,0 0.04,0 0.06,0.01c0.02,0 0.04,0 0.06,0.01c0.02,0 0.03,0.01 0.05,0.01c0.02,0.01 0.04,0.01 0.06,0.02c0.02,0 0.03,0.01 0.05,0.02c0.02,0 0.04,0.01 0.05,0.02c0.02,0.01 0.04,0.01 0.06,0.02c0.01,0.01 0.03,0.02 0.05,0.03c0.01,0.01 0.03,0.02 0.05,0.03c0.01,0.01 0.03,0.02 0.05,0.03c0.01,0.01 0.03,0.02 0.04,0.03c0.02,0.01 0.03,0.02 0.05,0.03c0.02,0.01 0.03,0.03 0.04,0.04c0.02,0.01 0.03,0.02 0.05,0.03c0.01,0.02 0.03,0.03 0.04,0.04c0.01,0.02 0.03,0.03 0.04,0.05c0.01,0.01 0.03,0.02 0.04,0.04c0.01,0.01 0.02,0.03 0.03,0.04c0.02,0.02 0.03,0.03 0.04,0.05c0.01,0.01 0.02,0.03 0.03,0.04c0.01,0.02 0.02,0.04 0.03,0.05c0.01,0.02 0.02,0.04 0.03,0.05c0.01,0.02 0.02,0.04 0.03,0.05c0.01,0.02 0.01,0.04 0.02,0.05c0.01,0.02 0.02,0.04 0.02,0.06c0.01,0.02 0.02,0.03 0.02,0.05c0.01,0.02 0.02,0.04 0.02,0.06c0.01,0.01 0.01,0.03 0.02,0.05c0,0.02 0.01,0.04 0.01,0.06l1.38,6.27002h2.26c0.04,0 0.07,0 0.1,0.01c0.04,0 0.07,0 0.1,0c0.03,0.01 0.07,0.01 0.1,0.02c0.03,0 0.06,0.01 0.1,0.01c0.03,0.01 0.06,0.01 0.09,0.02c0.04,0.01 0.07,0.02 0.1,0.03c0.03,0 0.06,0.01 0.09,0.02c0.04,0.01 0.07,0.02 0.1,0.04c0.03,0.01 0.06,0.02 0.09,0.03c0.03,0.01 0.06,0.03 0.09,0.04c0.03,0.02 0.06,0.03 0.09,0.05c0.03,0.01 0.06,0.03 0.09,0.04c0.02,0.02 0.05,0.04 0.08,0.05c0.03,0.02 0.06,0.04 0.08,0.06c0.03,0.02 0.06,0.04 0.08,0.06c0.03,0.01 0.06,0.04 0.08,0.06c0.03,0.02 0.05,0.04 0.08,0.06c0.02,0.02 0.05,0.04 0.07,0.07c0.02,0.02 0.05,0.04 0.07,0.07c0.02,0.02 0.04,0.05 0.07,0.07c0.02,0.03 0.04,0.05 0.06,0.08c0.02,0.02 0.04,0.05 0.06,0.08c0.02,0.02 0.04,0.05 0.06,0.08c0.01,0.02 0.03,0.05 0.05,0.08c0.02,0.03 0.03,0.06 0.05,0.08c0.01,0.03 0.03,0.06 0.05,0.09c0.01,0.03 0.02,0.06 0.04,0.09c0.01,0.03 0.02,0.06 0.04,0.09c0.01,0.03 0.02,0.06 0.03,0.09c0.01,0.04 0.02,0.07 0.03,0.1c0.01,0.03 0.02,0.06 0.03,0.09c0.01,0.04 0.02,0.07 0.02,0.1l0.69,3.55c0.01,0.03 0.01,0.06 0.02,0.09c0,0.02 0.01,0.05 0.01,0.08c0.01,0.03 0.01,0.06 0.01,0.09c0.01,0.02 0.01,0.05 0.01,0.08c0,0.03 0.01,0.06 0.01,0.08c0,0.03 0,0.06 0,0.09c0,0.03 0,0.06 0,0.08c0,0.03 0,0.06 0,0.09c0,0.03 0,0.06 -0.01,0.08c0,0.03 0,0.06 0,0.09c-0.01,0.03 -0.01,0.06 -0.02,0.08c0,0.03 0,0.06 -0.01,0.09c-0.01,0.03 -0.01,0.05 -0.02,0.08c0,0.03 -0.01,0.06 -0.02,0.08c0,0.03 -0.01,0.06 -0.02,0.09c-0.01,0.02 -0.02,0.05 -0.02,0.08c-0.01,0.02 -0.02,0.05 -0.03,0.08c-0.01,0.02 -0.02,0.05 -0.03,0.08c-0.01,0.02 -0.02,0.05 -0.04,0.07c-0.01,0.03 -0.02,0.06 -0.03,0.08c-0.01,0.03 -0.03,0.05 -0.04,0.08c-0.01,0.02 -0.03,0.05 -0.04,0.07c-0.02,0.03 -0.03,0.05 -0.05,0.08c-0.01,0.02 -0.03,0.04 -0.04,0.07c-0.02,0.02 -0.03,0.04 -0.05,0.07c-0.02,0.02 -0.03,0.04 -0.05,0.06c-0.02,0.03 -0.04,0.05 -0.05,0.07c-0.02,0.02 -0.04,0.04 -0.06,0.07c-0.02,0.02 -0.04,0.04 -0.06,0.06c-0.02,0.02 -0.04,0.04 -0.06,0.06c-0.02,0.02 -0.04,0.04 -0.06,0.06c-0.02,0.02 -0.04,0.04 -0.06,0.06c-0.03,0.02 -0.06,0.04 -0.08,0.06c-0.03,0.02 -0.06,0.04 -0.09,0.06c-0.03,0.02 -0.06,0.04 -0.09,0.06c-0.03,0.02 -0.06,0.03 -0.09,0.05c-0.03,0.02 -0.06,0.03 -0.09,0.05c-0.03,0.02 -0.06,0.03 -0.09,0.04c-0.03,0.02 -0.07,0.03 -0.1,0.05c-0.03,0.01 -0.06,0.02 -0.1,0.03c-0.03,0.01 -0.06,0.02 -0.1,0.03c-0.03,0.01 -0.06,0.02 -0.1,0.03c-0.03,0.01 -0.06,0.02 -0.1,0.02c-0.03,0.01 -0.07,0.02 -0.1,0.02c-0.04,0.01 -0.07,0.01 -0.11,0.02c-0.03,0 -0.06,0 -0.1,0.01c-0.03,0 -0.07,0 -0.1,0c-0.04,0 -0.07,0 -0.11,0h-1.02l0.34,1.53c0.01,0.05 0.02,0.09 0.03,0.13c0.01,0.04 0.02,0.08 0.04,0.12c0.01,0.04 0.02,0.08 0.04,0.12c0.01,0.04 0.03,0.08 0.04,0.12c0.02,0.04 0.03,0.08 0.05,0.12c0.02,0.04 0.04,0.07 0.06,0.11c0.02,0.04 0.04,0.08 0.06,0.11c0.02,0.04 0.04,0.08 0.07,0.11c0.02,0.04 0.04,0.07 0.07,0.11c0.02,0.03 0.05,0.07 0.07,0.1c0.03,0.03 0.06,0.07 0.09,0.1c0.02,0.03 0.05,0.06 0.08,0.09c0.03,0.03 0.06,0.06 0.09,0.09c0.03,0.03 0.06,0.06 0.09,0.09c0.03,0.03 0.07,0.06 0.1,0.08c0.03,0.03 0.07,0.06 0.1,0.08zM35.0118,13.5849l0.92,4.21h1.58c0.01,0 0.02,0 0.04,0c0.01,-0.01 0.02,-0.01 0.03,-0.01c0.02,0 0.03,-0.01 0.04,-0.01c0.01,-0.01 0.02,-0.01 0.03,-0.02c0.02,0 0.03,-0.01 0.04,-0.01c0.01,-0.01 0.02,-0.02 0.03,-0.03c0.01,-0.01 0.02,-0.01 0.03,-0.02c0,-0.01 0.01,-0.02 0.02,-0.03c0.01,-0.01 0.02,-0.02 0.02,-0.04c0.01,-0.01 0.02,-0.02 0.02,-0.03c0.01,-0.01 0.01,-0.03 0.02,-0.04c0,-0.01 0,-0.02 0.01,-0.04c0,-0.01 0,-0.02 0,-0.04c0,-0.01 0,-0.02 0,-0.04c0,-0.01 0,-0.02 0,-0.04c0,-0.01 -0.01,-0.02 -0.01,-0.04l-0.69,-3.55c0,-0.01 0,-0.02 -0.01,-0.02c0,-0.01 0,-0.02 -0.01,-0.03c0,0 -0.01,-0.01 -0.01,-0.02c-0.01,-0.01 -0.01,-0.01 -0.02,-0.02c0,-0.01 -0.01,-0.01 -0.01,-0.02c-0.01,-0.01 -0.01,-0.01 -0.02,-0.02c-0.01,0 -0.01,-0.01 -0.02,-0.01c-0.01,-0.01 -0.01,-0.01 -0.02,-0.02c-0.01,0 -0.01,-0.01 -0.02,-0.01c-0.01,-0.01 -0.02,-0.01 -0.02,-0.02c-0.01,0 -0.02,0 -0.03,-0.01c-0.01,0 -0.01,0 -0.02,0c-0.01,-0.01 -0.02,-0.01 -0.03,-0.01c0,0 -0.01,0 -0.02,-0.01c-0.01,0 -0.02,0 -0.03,0c-0.01,0 -0.01,0 -0.02,0zM15.1618,32.5249h-7.96997c-0.01,0.07 -0.01,0.14 -0.02,0.21c0,0.07 0,0.14 0,0.21c0,0.08 0,0.15 0,0.22c0.01,0.07 0.01,0.14 0.02,0.21c0.01,0.07 0.02,0.14 0.03,0.21c0.01,0.07 0.02,0.14 0.04,0.21c0.01,0.07 0.03,0.14 0.04,0.2c0.02,0.07 0.04,0.14 0.06,0.21c0.03,0.07 0.05,0.13 0.07,0.2c0.03,0.06 0.06,0.13 0.08,0.19c0.03,0.07 0.06,0.13 0.09,0.2c0.04,0.06 0.07,0.12 0.1,0.18c0.04,0.07 0.07,0.13 0.11,0.19c0.04,0.06 0.08,0.11 0.12,0.17c0.04,0.06 0.08,0.12 0.13,0.17c0.04,0.06 0.09,0.11 0.13,0.16c0.05,0.06 0.1,0.11 0.15,0.16c0.05,0.05 0.1,0.1 0.15,0.15c0.05,0.05 0.11,0.09 0.16,0.14c0.05,0.04 0.11,0.09 0.17,0.13c0.05,0.04 0.11,0.08 0.17,0.12c0.06,0.04 0.12,0.08 0.18,0.12c0.06,0.03 0.12,0.07 0.18,0.1c0.07,0.04 0.13,0.07 0.19,0.1c0.07,0.03 0.13,0.06 0.2,0.08c0.06,0.03 0.13,0.05 0.2,0.08c0.05997,0.02 0.12997,0.04 0.19997,0.06c0.07,0.02 0.13,0.04 0.2,0.06c0.07,0.01 0.14,0.03 0.21,0.04c0.07,0.01 0.14,0.02 0.21,0.03c0.07,0.01 0.14,0.02 0.21,0.02c0.07,0.01 0.14,0.01 0.21,0.02c0.07,-0.01 0.15,-0.01 0.22,-0.02c0.07,0 0.14,-0.01 0.21,-0.02c0.07,-0.01 0.14,-0.02 0.21,-0.03c0.07,-0.01 0.14,-0.03 0.2,-0.05c0.07,-0.01 0.14,-0.03 0.21,-0.05c0.07,-0.02 0.13,-0.04 0.2,-0.06c0.07,-0.03 0.13,-0.05 0.2,-0.08c0.07,-0.03 0.13,-0.06 0.19,-0.09c0.07,-0.03 0.13,-0.06 0.19,-0.09c0.07,-0.03 0.13,-0.07 0.19,-0.11c0.06,-0.03 0.12,-0.07 0.18,-0.11c0.06,-0.04 0.11,-0.08 0.17,-0.12c0.06,-0.05 0.11,-0.09 0.17,-0.14c0.05,-0.04 0.1,-0.09 0.16,-0.14c0.05,-0.04 0.1,-0.09 0.15,-0.14c0.05,-0.05 0.09,-0.11 0.14,-0.16c0.05,-0.05 0.09,-0.11 0.14,-0.16c0.04,-0.06 0.08,-0.12 0.12,-0.17c0.04,-0.06 0.08,-0.12 0.12,-0.18c0.04,-0.06 0.08,-0.12 0.11,-0.18c0.04,-0.06 0.07,-0.13 0.1,-0.19c0.03,-0.06 0.06,-0.13 0.09,-0.19c0.03,-0.07 0.06,-0.13 0.08,-0.2c0.03,-0.06 0.05,-0.13 0.07,-0.2c0.02,-0.07 0.04,-0.13 0.06,-0.2c0.02,-0.07 0.03,-0.14 0.05,-0.21c0.01,-0.07 0.02,-0.14 0.04,-0.21c0.01,-0.07 0.01,-0.14 0.02,-0.21c0.01,-0.07 0.01,-0.14 0.02,-0.21c0,-0.07 0,-0.14 0,-0.21c0,-0.07 0,-0.14 0,-0.21c-0.01,-0.08 -0.01,-0.15 -0.02,-0.22zM18.1918,18.4649c0,-0.02 0,-0.04 0,-0.07c0,-0.02 0,-0.04 -0.01,-0.06c0,-0.02 0,-0.05 0,-0.07c-0.01,-0.02 -0.01,-0.04 -0.02,-0.06c0,-0.02 -0.01,-0.05 -0.01,-0.07c-0.01,-0.02 -0.01,-0.04 -0.02,-0.06c0,-0.02 -0.01,-0.04 -0.02,-0.06c-0.01,-0.03 -0.01,-0.05 -0.02,-0.07c-0.01,-0.02 -0.02,-0.04 -0.03,-0.06c-0.01,-0.02 -0.02,-0.04 -0.03,-0.06c-0.01,-0.02 -0.02,-0.04 -0.03,-0.06c-0.01,-0.01 -0.02,-0.03 -0.04,-0.05c-0.01,-0.02 -0.02,-0.04 -0.03,-0.06c-0.02,-0.01 -0.03,-0.03 -0.04,-0.05c-0.02,-0.02 -0.03,-0.03 -0.05,-0.05c-0.01,-0.02 -0.03,-0.03 -0.04,-0.05c-0.02,-0.01 -0.03,-0.03 -0.05,-0.05c-0.01,-0.01 -0.03,-0.03 -0.05,-0.04c-0.02,-0.01 -0.03,-0.03 -0.05,-0.04c-0.02,-0.01 -0.04,-0.03 -0.05,-0.04c-0.02,-0.01 -0.04,-0.02 -0.06,-0.04c-0.02,-0.01 -0.04,-0.02 -0.06,-0.03c-0.02,-0.01 -0.04,-0.02 -0.06,-0.03c-0.02,-0.01 -0.04,-0.02 -0.06,-0.03c-0.02,-0.01 -0.04,-0.02 -0.06,-0.02c-0.02,-0.01 -0.04,-0.02 -0.06,-0.03c-0.02,0 -0.04,-0.01 -0.06,-0.02c-0.02,0 -0.05,-0.01 -0.07,-0.01c-0.02,-0.01 -0.04,-0.01 -0.06,-0.01c-0.02,-0.01 -0.05,-0.01 -0.07,-0.01c-0.02,-0.01 -0.04,-0.01 -0.06,-0.01c-0.03,0 -0.05,0 -0.07,0h-9.77997c-0.02,0 -0.04,0 -0.06,0c-0.02,0 -0.04,0 -0.06,0.01c-0.02,0 -0.03,0 -0.05,0c-0.02,0.01 -0.04,0.01 -0.06,0.01c-0.02,0.01 -0.04,0.01 -0.06,0.02c-0.02,0 -0.04,0.01 -0.06,0.01c-0.02,0.01 -0.03,0.02 -0.05,0.02c-0.02,0.01 -0.04,0.01 -0.06,0.02c-0.02,0.01 -0.04,0.02 -0.05,0.03c-0.02,0 -0.04,0.01 -0.06,0.02c-0.01,0.01 -0.03,0.02 -0.05,0.03c-0.02,0.01 -0.03,0.02 -0.05,0.03c-0.02,0.01 -0.03,0.02 -0.05,0.03c-0.02,0.01 -0.03,0.02 -0.05,0.03c-0.01,0.02 -0.03,0.03 -0.05,0.04c-0.01,0.01 -0.03,0.03 -0.04,0.04c-0.02,0.01 -0.03,0.02 -0.04,0.04c-0.02,0.01 -0.03,0.03 -0.05,0.04c-0.01,0.01 -0.02,0.03 -0.04,0.04c-0.01,0.02 -0.02,0.03 -0.03,0.05c-0.02,0.01 -0.03,0.03 -0.04,0.05c-0.01,0.01 -0.02,0.03 -0.04,0.04c-0.01,0.02 -0.02,0.04 -0.03,0.05c-0.01,0.02 -0.02,0.04 -0.03,0.06c-0.01,0.01 -0.02,0.03 -0.02,0.05c-0.01,0.02 -0.02,0.03 -0.03,0.05c-0.01,0.02 -0.02,0.04 -0.02,0.06c-0.01,0.01 -0.02,0.03 -0.02,0.05c-0.01,0.02 -0.02,0.04 -0.02,0.06c-0.01,0.02 -0.01,0.04 -0.02,0.06c0,0.01 -0.01,0.03 -0.01,0.05c0,0.02 -0.01,0.04 -0.01,0.06l-1.7,9.81c0,0.03 -0.01,0.05 -0.01,0.08c0,0.02 -0.01,0.05 -0.01,0.07c0,0.03 0,0.05 0,0.08c0,0.02 0,0.05 0,0.08c0,0.02 0,0.05 0,0.07c0,0.03 0.01,0.05 0.01,0.08c0,0.02 0.01,0.05 0.01,0.07c0.01,0.03 0.01,0.05 0.02,0.08c0,0.02 0.01,0.05 0.02,0.07c0,0.02 0.01,0.05 0.02,0.07c0.01,0.03 0.02,0.05 0.03,0.07c0.01,0.03 0.02,0.05 0.03,0.07c0.01,0.03 0.02,0.05 0.04,0.07c0.01,0.02 0.02,0.04 0.04,0.07c0.01,0.02 0.02,0.04 0.04,0.06c0.01,0.02 0.03,0.04 0.04,0.06c0.02,0.02 0.03,0.04 0.05,0.06c0.02,0.02 0.03,0.03 0.05,0.05c0.02,0.02 0.03,0.04 0.05,0.05c0.02,0.02 0.04,0.04 0.06,0.05c0.02,0.02 0.04,0.03 0.06,0.05c0.02,0.01 0.04,0.03 0.06,0.04c0.02,0.01 0.04,0.03 0.06,0.04c0.02,0.01 0.04,0.02 0.07,0.03c0.02,0.02 0.04,0.03 0.06,0.04c0.03,0.01 0.05,0.01 0.07,0.02c0.03,0.01 0.05,0.02 0.07,0.03c0.03,0 0.05,0.01 0.07,0.01c0.03,0.01 0.05,0.02 0.08,0.02c0.02,0 0.05,0.01 0.07,0.01c0.02,0 0.05,0.01 0.07,0.01c0.03,0 0.05,0 0.08,0h12.81997zM33.5918,36.9249c0.04,-0.01 0.09,-0.03 0.13,-0.04c0.05,-0.02 0.09,-0.03 0.14,-0.05c0.04,-0.02 0.09,-0.03 0.13,-0.05c0.05,-0.02 0.09,-0.04 0.13,-0.06c0.05,-0.02 0.09,-0.04 0.13,-0.06c0.04,-0.02 0.08,-0.04 0.13,-0.07c0.04,-0.02 0.08,-0.04 0.12,-0.07c0.04,-0.02 0.08,-0.05 0.12,-0.07c0.04,-0.03 0.08,-0.05 0.12,-0.08c0.04,-0.03 0.08,-0.06 0.12,-0.08c0.03,-0.03 0.07,-0.06 0.11,-0.09c0.04,-0.03 0.07,-0.06 0.11,-0.09c0.04,-0.03 0.07,-0.06 0.11,-0.1c0.03,-0.03 0.07,-0.06 0.1,-0.09c0.03,-0.04 0.07,-0.07 0.1,-0.11c0.03,-0.03 0.06,-0.07 0.1,-0.1c0.03,-0.04 0.06,-0.07 0.09,-0.11c0.03,-0.04 0.06,-0.07 0.09,-0.11c0.03,-0.04 0.05,-0.08 0.08,-0.11c0.03,-0.04 0.06,-0.08 0.08,-0.12c0.03,-0.04 0.06,-0.08 0.08,-0.12c0.03,-0.04 0.05,-0.08 0.07,-0.12c0.03,-0.05 0.05,-0.09 0.07,-0.13c0.02,-0.04 0.04,-0.08 0.07,-0.13c0.02,-0.04 0.04,-0.08 0.05,-0.13c0.02,-0.04 0.04,-0.08 0.06,-0.13c0.02,-0.04 0.03,-0.09 0.05,-0.13c0.02,-0.05 0.03,-0.09 0.05,-0.14c0.01,-0.04 0.02,-0.09 0.04,-0.13c0.01,-0.05 0.02,-0.09 0.03,-0.14c0.02,-0.05 0.03,-0.09 0.04,-0.14c0.01,-0.07 0.03,-0.15 0.04,-0.22c0.01,-0.08 0.02,-0.15 0.03,-0.23c0.01,-0.08 0.01,-0.15 0.02,-0.23c0,-0.07 0.01,-0.15 0.01,-0.22c0,-0.08 -0.01,-0.16 -0.01,-0.23c0,-0.08 -0.01,-0.15 -0.02,-0.23c-0.01,-0.08 -0.02,-0.15 -0.03,-0.23c-0.01,-0.07 -0.02,-0.15 -0.04,-0.22c-0.02,-0.07 -0.04,-0.15 -0.06,-0.22c-0.02,-0.07 -0.04,-0.15 -0.06,-0.22c-0.03,-0.07 -0.05,-0.14 -0.08,-0.21c-0.03,-0.07 -0.06,-0.14 -0.09,-0.21c-0.03,-0.07 -0.07,-0.14 -0.1,-0.21c-0.04,-0.06 -0.07,-0.13 -0.11,-0.2c-0.04,-0.06 -0.08,-0.12 -0.12,-0.19c-0.05,-0.06 -0.09,-0.12 -0.14,-0.18c-0.04,-0.06 -0.09,-0.12 -0.14,-0.18c-0.05,-0.06 -0.1,-0.12 -0.15,-0.17c-0.05,-0.06 -0.11,-0.11 -0.16,-0.16c-0.06,-0.05 -0.11,-0.11 -0.17,-0.15c-0.06,-0.05 -0.12,-0.1 -0.18,-0.15c-0.06,-0.04 -0.12,-0.09 -0.18,-0.13c-0.07,-0.04 -0.13,-0.09 -0.2,-0.12c-0.06,-0.04 -0.13,-0.08 -0.19,-0.12c-0.07,-0.03 -0.14,-0.07 -0.21,-0.1c-0.07,-0.03 -0.14,-0.06 -0.21,-0.09c-0.07,-0.03 -0.14,-0.05 -0.21,-0.08c-0.07,-0.02 -0.15,-0.04 -0.22,-0.07c-0.07,-0.02 -0.15,-0.03 -0.22,-0.05c-0.07,-0.02 -0.15,-0.03 -0.22,-0.04c-0.08,-0.02 -0.15,-0.03 -0.23,-0.03c-0.08,-0.01 -0.15,-0.02 -0.23,-0.02c-0.07,-0.01 -0.15,-0.01 -0.23,-0.01c-0.07,0 -0.15,0 -0.22,0.01c-0.08,0 -0.15,0.01 -0.23,0.01c-0.08,0.01 -0.15,0.02 -0.23,0.03c-0.07,0.02 -0.15,0.03 -0.22,0.05c-0.07,0.01 -0.15,0.03 -0.22,0.05c-0.07,0.02 -0.15,0.04 -0.22,0.07c-0.07,0.02 -0.14,0.05 -0.21,0.08c-0.07,0.02 -0.14,0.05 -0.21,0.09c-0.07,0.03 -0.14,0.06 -0.21,0.1c-0.06,0.03 -0.13,0.07 -0.2,0.11c-0.06,0.04 -0.13,0.08 -0.19,0.12c-0.06,0.04 -0.12,0.09 -0.18,0.13c-0.06,0.05 -0.12,0.1 -0.18,0.15c-0.06,0.05 -0.12,0.1 -0.17,0.15c-0.06,0.05 -0.11,0.1 -0.16,0.16c-0.05,0.05 -0.11,0.11 -0.15,0.17c-0.05,0.06 -0.1,0.12 -0.15,0.18c-0.04,0.06 -0.09,0.12 -0.13,0.18c-0.04,0.06 -0.08,0.13 -0.12,0.19c-0.04,0.07 -0.08,0.13 -0.12,0.2c-0.03,0.07 -0.07,0.14 -0.1,0.21c-0.03,0.06 -0.06,0.13 -0.09,0.21c-0.03,0.07 -0.05,0.14 -0.08,0.21c-0.02,0.07 -0.04,0.14 -0.06,0.22c-0.02,0.07 -0.04,0.14 -0.06,0.22c-0.02,0.07 -0.03,0.15 -0.04,0.22c-0.02,0.08 -0.03,0.15 -0.03,0.23c-0.01,0.07 -0.02,0.15 -0.02,0.22c-0.01,0.08 -0.01,0.16 -0.01,0.23c0,0.08 0,0.15 0.01,0.23c0,0.08 0.01,0.15 0.02,0.23c0,0.07 0.01,0.15 0.03,0.22c0.01,0.08 0.02,0.15 0.04,0.23c0.01,0.07 0.03,0.15 0.05,0.22c0.02,0.07 0.05,0.14 0.07,0.22c0.02,0.07 0.05,0.14 0.08,0.21c0.03,0.07 0.06,0.14 0.09,0.21c0.03,0.07 0.06,0.14 0.1,0.2c0.03,0.07 0.07,0.14 0.11,0.2c0.04,0.07 0.08,0.13 0.12,0.2c0.05,0.06 0.09,0.12 0.14,0.18c0.04,0.06 0.09,0.12 0.14,0.18c0.05,0.06 0.1,0.11 0.15,0.17c0.05,0.05 0.11,0.11 0.16,0.16c0.06,0.05 0.11,0.1 0.17,0.15c0.06,0.05 0.12,0.1 0.18,0.14c0.06,0.05 0.12,0.1 0.18,0.14c0.07,0.04 0.13,0.08 0.2,0.12c0.06,0.04 0.13,0.08 0.19,0.11c0.07,0.04 0.14,0.07 0.21,0.1c0.07,0.04 0.14,0.07 0.21,0.09c0.07,0.03 0.14,0.06 0.21,0.08c0.07,0.03 0.15,0.05 0.22,0.07c0.07,0.02 0.15,0.04 0.22,0.06c0.08,0.01 0.15,0.03 0.23,0.04c0.07,0.01 0.15,0.02 0.22,0.03c0.08,0.01 0.15,0.01 0.23,0.02c0.07,0 0.15,0 0.23,0c0.07,0 0.15,0 0.22,0c0.08,-0.01 0.16,-0.01 0.23,-0.02c0.08,-0.01 0.15,-0.02 0.23,-0.03c0.07,-0.01 0.15,-0.03 0.22,-0.04c0.07,-0.02 0.15,-0.04 0.22,-0.06c0.05,-0.01 0.09,-0.02 0.14,-0.04zM35.3618,24.6849c-0.03,-0.03 -0.06,-0.05 -0.09,-0.08c-0.03,-0.03 -0.06,-0.05 -0.09,-0.08c-0.03,-0.03 -0.06,-0.06 -0.08,-0.09c-0.03,-0.02 -0.06,-0.05 -0.08,-0.08c-0.03,-0.03 -0.06,-0.06 -0.08,-0.1c-0.03,-0.03 -0.05,-0.06 -0.08,-0.09c-0.02,-0.03 -0.04,-0.06 -0.07,-0.1c-0.02,-0.03 -0.04,-0.06 -0.06,-0.1c-0.02,-0.03 -0.04,-0.07 -0.06,-0.1c-0.02,-0.04 -0.04,-0.07 -0.06,-0.11c-0.02,-0.03 -0.03,-0.07 -0.05,-0.11c-0.02,-0.03 -0.03,-0.07 -0.05,-0.11c-0.01,-0.03 -0.03,-0.07 -0.04,-0.11c-0.01,-0.04 -0.03,-0.07 -0.04,-0.11c-0.01,-0.04 -0.02,-0.08 -0.03,-0.12c-0.01,-0.04 -0.02,-0.08 -0.03,-0.12l-3.56,-16.14002h-1.86c0.07,0.22 0.15,0.45 0.21,0.68c0.07,0.22 0.13,0.45 0.19,0.69c0.05,0.23 0.11,0.46 0.15,0.69c0.05,0.23 0.1,0.47 0.13,0.7c0.04,0.24 0.08,0.47002 0.1,0.71002c0.03,0.24 0.06,0.47 0.08,0.71c0.02,0.24 0.03,0.47 0.04,0.71c0.01,0.24 0.01,0.48 0.01,0.72c0,6.47 -3.5,11.83 -9,13.89v3.27h5.74c0.03,-0.08 0.06,-0.15 0.1,-0.22c0.03,-0.07 0.07,-0.14 0.1,-0.21c0.04,-0.06 0.08,-0.13 0.12,-0.2c0.04,-0.07 0.08,-0.13 0.12,-0.2c0.04,-0.07 0.08,-0.13 0.13,-0.2c0.04,-0.06 0.09,-0.12 0.13,-0.19c0.05,-0.06 0.1,-0.12 0.15,-0.18c0.05,-0.06 0.1,-0.12 0.15,-0.18c0.05,-0.06 0.1,-0.12 0.15,-0.18c0.05,-0.06 0.11,-0.11 0.16,-0.17c0.06,-0.05 0.11,-0.11 0.17,-0.16c0.06,-0.06 0.12,-0.11 0.17,-0.16c0.06,-0.05 0.12,-0.1 0.18,-0.15c0.06,-0.05 0.13,-0.1 0.19,-0.15c0.06,-0.04 0.12,-0.09 0.19,-0.13c0.06,-0.05 0.13,-0.09 0.19,-0.13c0.07,-0.05 0.13,-0.09 0.2,-0.13c0.07,-0.04 0.14,-0.08 0.2,-0.11c0.07,-0.04 0.14,-0.08 0.21,-0.11c0.07,-0.04 0.14,-0.07 0.21,-0.11c0.07,-0.03 0.14,-0.06 0.22,-0.09c0.07,-0.03 0.14,-0.06 0.21,-0.09c0.08,-0.02 0.15,-0.05 0.23,-0.07c0.07,-0.03 0.14,-0.05 0.22,-0.08c0.07,-0.02 0.15,-0.04 0.22,-0.06c0.08,-0.02 0.16,-0.04 0.23,-0.05c0.08,-0.02 0.16,-0.03 0.23,-0.05c0.08,-0.01 0.16,-0.02 0.23,-0.04c0.08,-0.01 0.16,-0.02 0.24,-0.03c0.07,0 0.15,-0.01 0.23,-0.02c0.08,0 0.16,-0.01 0.23,-0.01c0.08,0 0.16,0 0.24,0c0.08,0 0.15,0 0.23,0c0.08,0 0.16,0.01 0.24,0.01c0.07,0.01 0.15,0.02 0.23,0.02c0.08,0.01 0.15,0.02 0.23,0.03c0.08,0.02 0.16,0.03 0.23,0.04c0.08,0.02 0.16,0.03 0.23,0.05c0.08,0.01 0.16,0.03 0.23,0.05c0.08,0.02 0.15,0.04 0.23,0.06c0.07,0.03 0.15,0.05 0.22,0.08c0.07,0.02 0.15,0.05 0.22,0.07c0.07,0.03 0.15,0.06 0.22,0.09c0.07,0.03 0.14,0.06 0.21,0.09c0.07,0.04 0.14,0.07 0.21,0.11c0.07,0.03 0.14,0.07 0.21,0.11c0.07,0.03 0.14,0.07 0.2,0.11c0.07,0.04 0.14,0.08 0.2,0.13c0.07,0.04 0.13,0.08 0.2,0.13c0.06,0.04 0.13,0.09 0.19,0.13c0.06,0.05 0.12,0.1 0.18,0.15c0.06,0.05 0.12,0.1 0.18,0.15c0.06,0.05 0.12,0.1 0.17,0.16c0.06,0.05 0.12,0.11 0.17,0.16c0.06,0.06 0.11,0.11 0.16,0.17c0.06,0.06 0.11,0.12 0.16,0.18c0.05,0.06 0.1,0.12 0.15,0.18c0.05,0.06 0.09,0.12 0.14,0.18c0.05,0.07 0.09,0.13 0.14,0.19c0.04,0.07 0.08,0.13 0.13,0.2c0.04,0.07 0.08,0.13 0.12,0.2c0.04,0.07 0.07,0.14 0.11,0.2c0.04,0.07 0.07,0.14 0.11,0.21c0.03,0.07 0.07,0.14 0.1,0.22h0.69c0.01,-0.01 0.02,-0.01 0.03,-0.01c0.01,0 0.02,-0.01 0.03,-0.01c0.01,0 0.03,0 0.04,-0.01c0.01,0 0.02,0 0.03,-0.01c0.01,0 0.02,0 0.03,-0.01c0.01,0 0.02,-0.01 0.03,-0.01c0.01,0 0.03,-0.01 0.04,-0.01c0.01,-0.01 0.02,-0.01 0.03,-0.02c0.01,0 0.02,-0.01 0.03,-0.02c0.01,0 0.02,-0.01 0.03,-0.01c0.01,-0.01 0.02,-0.01 0.03,-0.02c0.01,-0.01 0.02,-0.01 0.02,-0.02c0.01,-0.01 0.02,-0.01 0.03,-0.02c0.01,-0.01 0.02,-0.02 0.03,-0.02c0.01,-0.01 0.02,-0.02 0.02,-0.03c0.01,0 0.02,-0.01 0.03,-0.02c0.01,-0.01 0.02,-0.02 0.02,-0.03c0.01,0 0.02,-0.01 0.03,-0.02c0,-0.01 0.01,-0.02 0.02,-0.03c0,-0.01 0.01,-0.02 0.02,-0.03c0.01,0 0.01,-0.01 0.02,-0.02c0,-0.01 0.01,-0.02 0.02,-0.03c0,-0.01 0.01,-0.02 0.01,-0.03c0.01,-0.01 0.01,-0.02 0.02,-0.03c0.01,-0.01 0.01,-0.02 0.02,-0.03c0,-0.01 0,-0.02 0.01,-0.04c0,-0.01 0.01,-0.02 0.01,-0.03c0.01,-0.01 0.01,-0.02 0.01,-0.03c0.01,-0.01 0.01,-0.02 0.01,-0.03c0.01,-0.01 0.01,-0.02 0.01,-0.04c0,-0.01 0.01,-0.02 0.01,-0.03c0,-0.01 0,-0.02 0,-0.03c0.01,-0.02 0.01,-0.03 0.01,-0.05c0.01,-0.01 0.01,-0.02 0.01,-0.04c0.01,-0.01 0.01,-0.03 0.01,-0.04c0,-0.01 0.01,-0.03 0.01,-0.04c0,-0.02 0,-0.03 0,-0.05c0,-0.01 0,-0.03 0,-0.04c0,-0.01 0,-0.03 0,-0.04c0,-0.02 0,-0.03 0,-0.05c0,-0.01 0,-0.03 0,-0.04c0,-0.01 0,-0.03 0,-0.04c0,-0.02 -0.01,-0.03 -0.01,-0.05c0,-0.01 0,-0.02 0,-0.04c-0.01,-0.01 -0.01,-0.03 -0.01,-0.04c-0.01,-0.02 -0.01,-0.03 -0.01,-0.04c-0.01,-0.02 -0.01,-0.03 -0.01,-0.04c-0.01,-0.02 -0.01,-0.03 -0.02,-0.05c0,-0.01 -0.01,-0.02 -0.01,-0.04c-0.01,-0.01 -0.01,-0.02 -0.02,-0.04c0,-0.01 -0.01,-0.02 -0.02,-0.04c0,-0.01 -0.01,-0.02 -0.01,-0.04c-0.01,-0.01 -0.02,-0.02 -0.03,-0.03c0,-0.02 -0.01,-0.03 -0.02,-0.04c0,-0.01 -0.01,-0.03 -0.02,-0.04c-0.01,-0.01 -0.02,-0.02 -0.03,-0.03c0,-0.01 -0.01,-0.03 -0.02,-0.04c-0.01,-0.01 -0.02,-0.02 -0.03,-0.03c-0.01,-0.01 -0.02,-0.02 -0.03,-0.03c-0.01,-0.02 -0.02,-0.03 -0.03,-0.04c-0.01,-0.01 -0.02,-0.02 -0.03,-0.03c-0.01,-0.01 -0.02,-0.02 -0.03,-0.03c-0.01,-0.01 -0.02,-0.01 -0.03,-0.02c-0.01,-0.01 -0.02,-0.02 -0.03,-0.03l-3.57,-2.59z"></path></g></g><defs><rect id="path_0" x="0" y="0" width="44" height="44" /></defs></svg>