<svg xmlns="http://www.w3.org/2000/svg" xmlns:xlink="http://www.w3.org/1999/xlink" width="44" height="44" viewBox="0 0 44 44" fill="none"><g opacity="1"  transform="translate(0 0)  rotate(0)"><mask id="bg-mask-0" fill="white"><use transform="translate(0 0)  rotate(NaN)" xlink:href="#path_0"></use></mask><g mask="url(#bg-mask-0)" ><g opacity="1"  transform="translate(0 0)  rotate(0)"><mask id="bg-mask-1" fill="white"><use transform="translate(0 0)  rotate(0)" xlink:href="#path_1"></use></mask><g mask="url(#bg-mask-1)" ><path id="路径 1" fill-rule="evenodd" style="fill:#1957E6" opacity="1" d="M42.73,5.92002c0.88,0.86 1.37,2.02 1.37,3.25v27.47998c0,2.53 -2.11,4.61 -4.7,4.61h-34.57999c-2.59,-0.02 -4.72,-2.06 -4.72,-4.61v-13.73h2.52v14.34c0.03,0.85 0.72,1.55 1.6,1.55h35.77999c0.86,0 1.55,-0.7 1.55,-1.55v-28.69998c0.03,-0.39 -0.14,-0.78 -0.44,-1.06c-0.3,-0.28 -0.69,-0.44 -1.11,-0.44h-35.77999c-0.88,0 -1.6,0.65 -1.6,1.5v11.32998h-2.52v-10.71998c0,-2.55 2.13,-4.57 4.72,-4.59h34.59999c1.23,0 2.43,0.49 3.31,1.34zM19.18,32.07c0.44,0.02 0.86,-0.16 1.18,-0.49c0.3,-0.3 0.42,-0.74 0.37,-1.16l-0.18,-1.55v0.14h-4.73v-2.45h4.45l-0.32,-2.9c-0.1,-0.76 -0.77,-1.36 -1.56,-1.36h-14.88999v-2.46h8.79999l-3.14999,-6.69h-5.65v-2.46h6.03c0.56999,0 1.10999,0.33 1.37999,0.84l4.5,8.33h2.36c2.38,0 4.38,1.74 4.68,4.03l0.78,6.16c0.17,1.3 -0.25,2 -1.15,2.97c-0.88,0.97 -2.18,1.5 -3.52,1.5h-1.28c-0.67,1.53 -2.36,3.57 -4.35,3.57c-2.02,0 -3.70999,-2.04 -4.34999,-3.57h-5.12v-2.45h5.09c0.65,-1.53 2.35999,-3.04 4.37999,-3.04c2.04,0 3.73,1.51 4.38,3.04zM14.39,33.06c0,-0.78 -0.63,-0.83 -1.44,-0.88c-0.81,0.05 -1.43,0.1 -1.43,0.88c0,0.79 0.62,1.42 1.43,1.46c0.81,-0.02 1.44,-0.67 1.44,-1.46zM25.25,19.1h5v-2.89h-5v-1.7h3.89l-2.57,-3.86h3.01l1.88,2.54l1.87,-2.54h3.01l-2.57,3.86h4.03v1.7h-5.05v2.89h5.05v1.69h-5.05v5.14h-2.5v-5.14h-5z"></path></g></g></g></g><defs><rect id="path_0" x="0" y="0" width="44.000000000000256" height="44" /><rect id="path_1" x="0" y="0" width="44" height="44" /></defs></svg>