<svg xmlns="http://www.w3.org/2000/svg" xmlns:xlink="http://www.w3.org/1999/xlink" width="44" height="44" viewBox="0 0 44 44" fill="none"><g opacity="1"  transform="translate(0 0)  rotate(0)"><mask id="bg-mask-0" fill="white"><use transform="translate(0 0)  rotate(NaN)" xlink:href="#path_0"></use></mask><g mask="url(#bg-mask-0)" ><path id="路径 1" fill-rule="evenodd" style="fill:#1957E6" opacity="1" d="M20.72,27.62v0c-0.06,-0.07 -5.27,-7.45 -6.92,-9.28c-1.81,-2.02 -2.8,-4.63 -2.8,-7.34c0,-6.06 4.93,-11 11,-11c6.07,0 11,4.94 11,11c0,2.71 -0.99,5.32 -2.8,7.33c-1.64,1.84 -6.86,9.22 -6.92,9.29l-1.28,1.82zM14.14,11c0,1.94 0.72,3.8 2,5.24c1.25,1.39 4.16,5.4 5.86,7.77c1.7,-2.37 4.62,-6.38 5.86,-7.77c1.29,-1.44 2,-3.3 2,-5.24c0,-4.33 -3.53,-7.86 -7.86,-7.86c-4.33,0 -7.86,3.53 -7.86,7.86zM22,15.71c-2.6,0 -4.71,-2.11 -4.71,-4.71c0,-2.6 2.11,-4.71 4.71,-4.71c2.6,0 4.71,2.11 4.71,4.71c0,2.6 -2.11,4.71 -4.71,4.71zM20.43,11c0,0.87 0.71,1.57 1.57,1.57c0.86,0 1.57,-0.7 1.57,-1.57c0,-0.87 -0.71,-1.57 -1.57,-1.57c-0.86,0 -1.57,0.7 -1.57,1.57zM44,3.19v34.53l-13.75,6.28l-14.54,-6.29l-15.71,6.26v-34.44l8.26,-3.33c-0.24,1.04 -0.4,2.11 -0.4,3.23c0,0.1 0.02,0.2 0.02,0.31l-4.74,1.92v27.68l9.43,-3.76v-15.35c0.89,1.15 2.04,2.71 3.14,4.23v9.87l0.05,-0.02l1.2,0.52l11.33,4.9v-15.26c1.12,-1.55 2.27,-3.1 3.14,-4.23v19.77l9.43,-4.31v-27.62l-4.79,2.19c0.01,-0.28 0.07,-0.56 0.07,-0.84c0,-0.87 -0.11,-1.71 -0.25,-2.53l8.11,-3.7z"></path></g></g><defs><rect id="path_0" x="0" y="0" width="44" height="44" /></defs></svg>