<svg xmlns="http://www.w3.org/2000/svg" xmlns:xlink="http://www.w3.org/1999/xlink" width="44" height="44" viewBox="0 0 44 44" fill="none"><g opacity="1"  transform="translate(0 0)  rotate(0)"><g opacity="1"  transform="translate(0 0)  rotate(0)"><mask id="bg-mask-0" fill="white"><use transform="translate(0 0)  rotate(0)" xlink:href="#path_0"></use></mask><g mask="url(#bg-mask-0)" ><path id="路径 1" fill-rule="evenodd" style="fill:#1957E6" opacity="1" d="M38.04,1.60419c0.05,0 0.11,0 0.16,0c0.05,0.01 0.1,0.01 0.16,0.02c0.05,0 0.1,0.01 0.15,0.01c0.05,0.01 0.11,0.02 0.16,0.03c0.05,0.01 0.1,0.02 0.15,0.04c0.05,0.01 0.1,0.02 0.15,0.04c0.05,0.01 0.1,0.03 0.15,0.05c0.05,0.02 0.1,0.03 0.15,0.05c0.05,0.02 0.1,0.05 0.14,0.07c0.05,0.02 0.1,0.04 0.14,0.07c0.05,0.02 0.1,0.05 0.14,0.08c0.05,0.02 0.09,0.05 0.13,0.08c0.05,0.03 0.09,0.06 0.13,0.09c0.05,0.03 0.09,0.06 0.13,0.1c0.04,0.03 0.08,0.07 0.12,0.1c0.04,0.04 0.07,0.07 0.11,0.11c0.04,0.04 0.07,0.07 0.11,0.11c0.03,0.04 0.07,0.08 0.1,0.12c0.04,0.04 0.07,0.08 0.1,0.13c0.03,0.04 0.06,0.08 0.09,0.13c0.03,0.04 0.06,0.08 0.08,0.13c0.03,0.04 0.06,0.09 0.08,0.14c0.03,0.04 0.05,0.09 0.07,0.14c0.02,0.04 0.05,0.09 0.07,0.14c0.02,0.05 0.03,0.1 0.05,0.15c0.02,0.05 0.04,0.1 0.05,0.15c0.02,0.05 0.03,0.1 0.04,0.15c0.02,0.05 0.03,0.1 0.04,0.15c0.01,0.05 0.02,0.11 0.03,0.16c0,0.05 0.01,0.1 0.01,0.15c0.01,0.06 0.01,0.11 0.02,0.16c0,0.05 0,0.11 0,0.16v10.08001c0,0.05 0,0.11 0,0.16c-0.01,0.05 -0.01,0.1 -0.02,0.16c0,0.05 -0.01,0.1 -0.01,0.15c-0.01,0.05 -0.02,0.11 -0.03,0.16c-0.01,0.05 -0.02,0.1 -0.04,0.15c-0.01,0.05 -0.02,0.1 -0.04,0.15c-0.01,0.05 -0.03,0.1 -0.05,0.15c-0.02,0.05 -0.03,0.1 -0.05,0.15c-0.02,0.05 -0.05,0.1 -0.07,0.14c-0.02,0.05 -0.04,0.1 -0.07,0.14c-0.02,0.05 -0.05,0.1 -0.08,0.14c-0.02,0.05 -0.05,0.09 -0.08,0.13c-0.03,0.05 -0.06,0.09 -0.09,0.13c-0.03,0.05 -0.06,0.09 -0.1,0.13c-0.03,0.04 -0.07,0.08 -0.1,0.12c-0.04,0.04 -0.07,0.07 -0.11,0.11c-0.04,0.04 -0.07,0.07 -0.11,0.11c-0.04,0.03 -0.08,0.07 -0.12,0.1c-0.04,0.04 -0.08,0.07 -0.13,0.1c-0.04,0.03 -0.08,0.06 -0.13,0.09c-0.04,0.03 -0.08,0.06 -0.13,0.08c-0.04,0.03 -0.09,0.06 -0.14,0.08c-0.04,0.03 -0.09,0.05 -0.14,0.07c-0.04,0.02 -0.09,0.05 -0.14,0.07c-0.05,0.02 -0.1,0.03 -0.15,0.05c-0.05,0.02 -0.1,0.04 -0.15,0.05c-0.05,0.02 -0.1,0.03 -0.15,0.04c-0.05,0.02 -0.1,0.03 -0.15,0.04c-0.05,0.01 -0.11,0.02 -0.16,0.03c-0.05,0 -0.1,0.01 -0.15,0.01c-0.06,0.01 -0.11,0.01 -0.16,0.02c-0.05,0 -0.11,0 -0.16,0h-1.37v21.08c0,0.06 0,0.11 -0.01,0.16c0,0.05 0,0.11 -0.01,0.16c0,0.05 -0.01,0.1 -0.02,0.15c-0.01,0.06 -0.01,0.11 -0.02,0.16c-0.02,0.05 -0.03,0.1 -0.04,0.15c-0.01,0.05 -0.03,0.1 -0.04,0.15c-0.02,0.05 -0.03,0.1 -0.05,0.15c-0.02,0.05 -0.04,0.1 -0.06,0.15c-0.02,0.05 -0.04,0.1 -0.06,0.15c-0.02,0.04 -0.05,0.09 -0.07,0.14c-0.03,0.04 -0.05,0.09 -0.08,0.13c-0.03,0.05 -0.05,0.09 -0.08,0.14c-0.03,0.04 -0.06,0.08 -0.09,0.12c-0.04,0.05 -0.07,0.09 -0.1,0.13c-0.03,0.04 -0.07,0.08 -0.1,0.12c-0.04,0.04 -0.08,0.07 -0.11,0.11c-0.04,0.04 -0.08,0.08 -0.12,0.11c-0.04,0.04 -0.08,0.07 -0.12,0.1c-0.04,0.04 -0.08,0.07 -0.12,0.1c-0.04,0.03 -0.09,0.06 -0.13,0.09c-0.04,0.03 -0.09,0.06 -0.13,0.09c-0.05,0.02 -0.09,0.05 -0.14,0.07c-0.05,0.03 -0.09,0.05 -0.14,0.07c-0.05,0.03 -0.1,0.05 -0.14,0.07c-0.05,0.02 -0.1,0.04 -0.15,0.05c-0.05,0.02 -0.1,0.04 -0.15,0.05c-0.05,0.02 -0.1,0.03 -0.15,0.05c-0.05,0.01 -0.1,0.02 -0.16,0.03c-0.05,0.01 -0.1,0.02 -0.15,0.03c-0.05,0 -0.1,0.01 -0.16,0.02c-0.05,0 -0.1,0.01 -0.15,0.01c-0.06,0 -0.11,0 -0.16,0h-22.92c-0.05,0 -0.1,0 -0.16,0c-0.05,0 -0.1,-0.01 -0.15,-0.01c-0.06,-0.01 -0.11,-0.02 -0.16,-0.02c-0.05,-0.01 -0.1,-0.02 -0.15,-0.03c-0.06,-0.01 -0.11,-0.02 -0.16,-0.03c-0.05,-0.02 -0.1,-0.03 -0.15,-0.05c-0.05,-0.01 -0.1,-0.03 -0.15,-0.05c-0.05,-0.01 -0.1,-0.03 -0.15,-0.05c-0.04,-0.02 -0.09,-0.04 -0.14,-0.07c-0.05,-0.02 -0.09,-0.04 -0.14,-0.07c-0.05,-0.02 -0.09,-0.05 -0.14,-0.07c-0.04,-0.03 -0.09,-0.06 -0.13,-0.09c-0.04,-0.03 -0.09,-0.06 -0.13,-0.09c-0.04,-0.03 -0.08,-0.06 -0.12,-0.1c-0.04,-0.03 -0.08,-0.06 -0.12,-0.1c-0.04,-0.03 -0.08,-0.07 -0.12,-0.11c-0.03,-0.04 -0.07,-0.07 -0.11,-0.11c-0.03,-0.04 -0.07,-0.08 -0.1,-0.12c-0.03,-0.04 -0.06,-0.08 -0.1,-0.13c-0.03,-0.04 -0.06,-0.08 -0.09,-0.12c-0.03,-0.05 -0.05,-0.09 -0.08,-0.14c-0.03,-0.04 -0.05,-0.09 -0.08,-0.13c-0.02,-0.05 -0.05,-0.1 -0.07,-0.14c-0.02,-0.05 -0.04,-0.1 -0.06,-0.15c-0.02,-0.05 -0.04,-0.1 -0.06,-0.15c-0.02,-0.05 -0.03,-0.1 -0.05,-0.15c-0.01,-0.05 -0.03,-0.1 -0.04,-0.15c-0.01,-0.05 -0.02,-0.1 -0.04,-0.15c-0.01,-0.05 -0.01,-0.1 -0.02,-0.16c-0.01,-0.05 -0.02,-0.1 -0.02,-0.15c-0.01,-0.05 -0.01,-0.11 -0.01,-0.16c-0.01,-0.05 -0.01,-0.1 -0.01,-0.16v-21.08h-1.37c-0.05,0 -0.11,0 -0.16,0c-0.05,-0.01 -0.1,-0.01 -0.16,-0.02c-0.05,0 -0.1,-0.01 -0.15,-0.01c-0.05,-0.01 -0.11,-0.02 -0.16,-0.03c-0.05,-0.01 -0.1,-0.02 -0.15,-0.04c-0.05,-0.01 -0.1,-0.02 -0.15,-0.04c-0.05,-0.01 -0.1,-0.03 -0.15,-0.05c-0.05,-0.02 -0.1,-0.03 -0.15,-0.05c-0.05,-0.02 -0.1,-0.05 -0.14,-0.07c-0.05,-0.02 -0.1,-0.04 -0.14,-0.07c-0.05,-0.02 -0.1,-0.05 -0.14,-0.08c-0.05,-0.02 -0.09,-0.05 -0.13,-0.08c-0.05,-0.03 -0.09,-0.06 -0.13,-0.09c-0.05,-0.03 -0.09,-0.06 -0.13,-0.1c-0.04,-0.03 -0.08,-0.07 -0.12,-0.1c-0.04,-0.04 -0.07,-0.07 -0.11,-0.11c-0.04,-0.04 -0.07,-0.07 -0.11,-0.11c-0.03,-0.04 -0.07,-0.08 -0.1,-0.12c-0.04,-0.04 -0.07,-0.08 -0.1,-0.13c-0.03,-0.04 -0.06,-0.08 -0.09,-0.13c-0.03,-0.04 -0.06,-0.08 -0.08,-0.13c-0.03,-0.04 -0.06,-0.09 -0.08,-0.14c-0.03,-0.04 -0.05,-0.09 -0.07,-0.14c-0.02,-0.04 -0.05,-0.09 -0.07,-0.14c-0.02,-0.05 -0.03,-0.1 -0.05,-0.15c-0.02,-0.05 -0.04,-0.1 -0.05,-0.15c-0.02,-0.05 -0.03,-0.1 -0.04,-0.15c-0.02,-0.05 -0.03,-0.1 -0.04,-0.15c-0.01,-0.05 -0.02,-0.11 -0.03,-0.16c0,-0.05 -0.01,-0.1 -0.01,-0.15c-0.01,-0.06 -0.01,-0.11 -0.02,-0.16c0,-0.05 0,-0.11 0,-0.16v-10.08001c0,-0.05 0,-0.11 0,-0.16c0.01,-0.05 0.01,-0.1 0.02,-0.16c0,-0.05 0.01,-0.1 0.01,-0.15c0.01,-0.05 0.02,-0.11 0.03,-0.16c0.01,-0.05 0.02,-0.1 0.04,-0.15c0.01,-0.05 0.02,-0.1 0.04,-0.15c0.01,-0.05 0.03,-0.1 0.05,-0.15c0.02,-0.05 0.03,-0.1 0.05,-0.15c0.02,-0.05 0.05,-0.1 0.07,-0.14c0.02,-0.05 0.04,-0.1 0.07,-0.14c0.02,-0.05 0.05,-0.1 0.08,-0.14c0.02,-0.05 0.05,-0.09 0.08,-0.13c0.03,-0.05 0.06,-0.09 0.09,-0.13c0.03,-0.05 0.06,-0.09 0.1,-0.13c0.03,-0.04 0.07,-0.08 0.1,-0.12c0.04,-0.04 0.07,-0.07 0.11,-0.11c0.04,-0.04 0.07,-0.07 0.11,-0.11c0.04,-0.03 0.08,-0.07 0.12,-0.1c0.04,-0.04 0.08,-0.07 0.13,-0.1c0.04,-0.03 0.08,-0.06 0.13,-0.09c0.04,-0.03 0.08,-0.06 0.13,-0.08c0.04,-0.03 0.09,-0.06 0.14,-0.08c0.04,-0.03 0.09,-0.05 0.14,-0.07c0.04,-0.02 0.09,-0.05 0.14,-0.07c0.05,-0.02 0.1,-0.03 0.15,-0.05c0.05,-0.02 0.1,-0.04 0.15,-0.05c0.05,-0.02 0.1,-0.03 0.15,-0.04c0.05,-0.02 0.1,-0.03 0.15,-0.04c0.05,-0.01 0.11,-0.02 0.16,-0.03c0.05,0 0.1,-0.01 0.15,-0.01c0.06,-0.01 0.11,-0.01 0.16,-0.02c0.05,0 0.11,0 0.16,0zM33.92,11.6842c0,0 0,-0.01 0,-0.02c0,-0.01 0,-0.01 -0.01,-0.02c0,-0.01 0,-0.02 0,-0.02c0,-0.01 0,-0.02 0,-0.03c0,0 -0.01,-0.01 -0.01,-0.02c0,-0.01 0,-0.01 0,-0.02c-0.01,-0.01 -0.01,-0.01 -0.01,-0.02c0,-0.01 -0.01,-0.02 -0.01,-0.02c0,-0.01 0,-0.02 -0.01,-0.02c0,-0.01 0,-0.02 -0.01,-0.02c0,-0.01 0,-0.02 -0.01,-0.02c0,-0.01 -0.01,-0.02 -0.01,-0.02c0,-0.01 -0.01,-0.01 -0.01,-0.02c-0.01,-0.01 -0.01,-0.01 -0.02,-0.02l-0.01,-0.01c-0.01,-0.01 -0.01,-0.02 -0.02,-0.02c0,-0.01 -0.01,-0.01 -0.01,-0.02c-0.01,0 -0.02,-0.01 -0.02,-0.01c-0.01,-0.01 -0.01,-0.01 -0.02,-0.01c0,-0.01 -0.01,-0.01 -0.02,-0.02c0,0 -0.01,-0.01 -0.02,-0.01c0,0 -0.01,-0.01 -0.02,-0.01c0,0 -0.01,-0.01 -0.02,-0.01c0,0 -0.01,-0.01 -0.02,-0.01c0,0 -0.01,-0.01 -0.02,-0.01c0,0 -0.01,0 -0.02,-0.01c-0.01,0 -0.01,0 -0.02,0c-0.01,0 -0.01,0 -0.02,-0.01c-0.01,0 -0.02,0 -0.02,0c-0.01,0 -0.02,0 -0.03,0c0,0 -0.01,0 -0.02,0c-0.01,0 -0.01,-0.01 -0.02,-0.01h-22.92c-0.01,0 -0.01,0.01 -0.02,0.01c-0.01,0 -0.02,0 -0.02,0c-0.01,0 -0.02,0 -0.03,0c0,0 -0.01,0 -0.02,0c-0.01,0.01 -0.01,0.01 -0.02,0.01c-0.01,0 -0.01,0 -0.02,0c-0.01,0.01 -0.02,0.01 -0.02,0.01c-0.01,0 -0.02,0.01 -0.02,0.01c-0.01,0 -0.02,0.01 -0.02,0.01c-0.01,0 -0.02,0.01 -0.02,0.01c-0.01,0 -0.02,0.01 -0.02,0.01c-0.01,0 -0.02,0.01 -0.02,0.01c-0.01,0.01 -0.02,0.01 -0.02,0.02c-0.01,0 -0.01,0 -0.02,0.01c0,0 -0.01,0.01 -0.02,0.01c0,0.01 -0.01,0.01 -0.01,0.02c-0.01,0 -0.01,0.01 -0.02,0.02l-0.01,0.01c-0.01,0.01 -0.01,0.01 -0.02,0.02c0,0.01 -0.01,0.01 -0.01,0.02c0,0 -0.01,0.01 -0.01,0.02c-0.01,0 -0.01,0.01 -0.01,0.02c-0.01,0 -0.01,0.01 -0.01,0.02c-0.01,0 -0.01,0.01 -0.01,0.02c0,0 -0.01,0.01 -0.01,0.02c0,0.01 0,0.01 -0.01,0.02c0,0.01 0,0.01 0,0.02c0,0.01 -0.01,0.02 -0.01,0.02c0,0.01 0,0.02 0,0.03c0,0 0,0.01 0,0.02c-0.01,0.01 -0.01,0.01 -0.01,0.02c0,0.01 0,0.02 0,0.02v27.5c0,0.01 0,0.02 0,0.03c0,0 0,0.01 0.01,0.02c0,0.01 0,0.01 0,0.02c0,0.01 0,0.02 0,0.02c0,0.01 0.01,0.02 0.01,0.02c0,0.01 0,0.02 0,0.03c0.01,0 0.01,0.01 0.01,0.02c0,0 0.01,0.01 0.01,0.02c0,0.01 0,0.01 0.01,0.02c0,0.01 0,0.01 0.01,0.02c0,0.01 0,0.01 0.01,0.02c0,0.01 0.01,0.01 0.01,0.02c0,0 0.01,0.01 0.01,0.02c0.01,0 0.01,0.01 0.02,0.01c0,0.01 0.01,0.02 0.01,0.02c0.01,0.01 0.01,0.01 0.02,0.02l0.01,0.01c0.01,0.01 0.02,0.01 0.02,0.02c0.01,0 0.01,0.01 0.02,0.01c0,0.01 0.01,0.01 0.02,0.01c0,0.01 0.01,0.01 0.02,0.02c0,0 0.01,0 0.02,0.01c0,0 0.01,0 0.02,0.01c0,0 0.01,0 0.02,0.01c0,0 0.01,0 0.02,0c0,0.01 0.01,0.01 0.02,0.01c0.01,0 0.01,0.01 0.02,0.01c0.01,0 0.01,0 0.02,0c0.01,0 0.02,0.01 0.02,0.01c0.01,0 0.02,0 0.03,0c0,0 0.01,0 0.02,0c0.01,0 0.01,0 0.02,0h22.92c0.01,0 0.01,0 0.02,0c0.01,0 0.02,0 0.02,0c0.01,0 0.02,0 0.03,0c0,0 0.01,-0.01 0.02,-0.01c0.01,0 0.01,0 0.02,0c0.01,0 0.01,-0.01 0.02,-0.01c0.01,0 0.02,0 0.02,-0.01c0.01,0 0.02,0 0.02,0c0.01,-0.01 0.02,-0.01 0.02,-0.01c0.01,-0.01 0.02,-0.01 0.02,-0.01c0.01,-0.01 0.02,-0.01 0.02,-0.01c0.01,-0.01 0.02,-0.01 0.02,-0.02c0.01,0 0.02,0 0.02,-0.01c0.01,0 0.01,-0.01 0.02,-0.01c0,-0.01 0.01,-0.01 0.02,-0.02l0.01,-0.01c0.01,-0.01 0.01,-0.01 0.02,-0.02c0,0 0.01,-0.01 0.01,-0.02c0.01,0 0.01,-0.01 0.02,-0.01c0,-0.01 0.01,-0.02 0.01,-0.02c0,-0.01 0.01,-0.01 0.01,-0.02c0.01,-0.01 0.01,-0.01 0.01,-0.02c0.01,-0.01 0.01,-0.01 0.01,-0.02c0.01,-0.01 0.01,-0.01 0.01,-0.02c0,-0.01 0.01,-0.02 0.01,-0.02c0,-0.01 0,-0.02 0.01,-0.02c0,-0.01 0,-0.02 0,-0.03c0,0 0.01,-0.01 0.01,-0.02c0,0 0,-0.01 0,-0.02c0,-0.01 0,-0.01 0,-0.02c0.01,-0.01 0.01,-0.02 0.01,-0.02c0,-0.01 0,-0.02 0,-0.03zM38.5,4.81419c0,-0.01 0,-0.02 0,-0.02c0,-0.01 0,-0.02 0,-0.03c0,0 0,-0.01 -0.01,-0.02c0,-0.01 0,-0.01 0,-0.02c0,-0.01 0,-0.02 -0.01,-0.02c0,-0.01 0,-0.02 0,-0.02c0,-0.01 -0.01,-0.02 -0.01,-0.02c0,-0.01 0,-0.02 -0.01,-0.03c0,0 0,-0.01 -0.01,-0.02c0,0 0,-0.01 -0.01,-0.02c0,0 0,-0.01 -0.01,-0.02l-0.01,-0.01c0,-0.01 -0.01,-0.02 -0.01,-0.02c-0.01,-0.01 -0.01,-0.01 -0.02,-0.02c0,-0.01 -0.01,-0.01 -0.01,-0.02c-0.01,0 -0.01,-0.01 -0.02,-0.01c0,-0.01 -0.01,-0.01 -0.01,-0.02c-0.01,0 -0.01,-0.01 -0.02,-0.01c-0.01,-0.01 -0.01,-0.01 -0.02,-0.02c0,0 -0.01,-0.01 -0.02,-0.01l-0.01,-0.01c-0.01,-0.01 -0.02,-0.01 -0.02,-0.01c-0.01,-0.01 -0.02,-0.01 -0.02,-0.01c-0.01,-0.01 -0.02,-0.01 -0.02,-0.01c-0.01,-0.01 -0.02,-0.01 -0.03,-0.01c0,0 -0.01,-0.01 -0.02,-0.01c0,0 -0.01,0 -0.02,0c-0.01,-0.01 -0.01,-0.01 -0.02,-0.01c-0.01,0 -0.01,0 -0.02,0c-0.01,-0.01 -0.02,-0.01 -0.02,-0.01c-0.01,0 -0.02,0 -0.03,0c0,0 -0.01,0 -0.02,0h-32.08c-0.01,0 -0.02,0 -0.02,0c-0.01,0 -0.02,0 -0.03,0c0,0 -0.01,0 -0.02,0.01c-0.01,0 -0.01,0 -0.02,0c-0.01,0 -0.02,0 -0.02,0.01c-0.01,0 -0.02,0 -0.02,0c-0.01,0 -0.02,0.01 -0.02,0.01c-0.01,0 -0.02,0 -0.03,0.01c0,0 -0.01,0 -0.02,0.01c0,0 -0.01,0 -0.02,0.01c0,0 -0.01,0 -0.02,0.01l-0.01,0.01c-0.01,0 -0.02,0.01 -0.02,0.01c-0.01,0.01 -0.01,0.01 -0.02,0.02c-0.01,0 -0.01,0.01 -0.02,0.01c0,0.01 -0.01,0.01 -0.01,0.02c-0.01,0 -0.01,0.01 -0.02,0.01c0,0.01 -0.01,0.01 -0.01,0.02c-0.01,0.01 -0.01,0.01 -0.02,0.02c0,0 -0.01,0.01 -0.01,0.02l-0.01,0.01c-0.01,0.01 -0.01,0.02 -0.01,0.02c-0.01,0.01 -0.01,0.02 -0.01,0.02c-0.01,0.01 -0.01,0.02 -0.01,0.02c-0.01,0.01 -0.01,0.02 -0.01,0.03c0,0 -0.01,0.01 -0.01,0.02c0,0 0,0.01 0,0.02c-0.01,0 -0.01,0.01 -0.01,0.02c0,0.01 0,0.01 0,0.02c-0.01,0.01 -0.01,0.02 -0.01,0.02c0,0.01 0,0.02 0,0.03c0,0 0,0.01 0,0.02v10.08001c0,0.01 0,0.02 0,0.02c0,0.01 0,0.02 0,0.03c0,0 0,0.01 0.01,0.02c0,0.01 0,0.01 0,0.02c0,0.01 0,0.02 0.01,0.02c0,0.01 0,0.02 0,0.02c0,0.01 0.01,0.02 0.01,0.02c0,0.01 0,0.02 0.01,0.03c0,0 0,0.01 0.01,0.02c0,0 0,0.01 0.01,0.02c0,0 0,0.01 0.01,0.02l0.01,0.01c0,0.01 0.01,0.02 0.01,0.02c0.01,0.01 0.01,0.01 0.02,0.02c0,0.01 0.01,0.01 0.01,0.02c0.01,0 0.01,0.01 0.02,0.01c0,0.01 0.01,0.01 0.01,0.02c0.01,0 0.01,0.01 0.02,0.01c0.01,0.01 0.01,0.01 0.02,0.02c0,0 0.01,0.01 0.02,0.01l0.01,0.01c0.01,0.01 0.02,0.01 0.02,0.01c0.01,0.01 0.02,0.01 0.02,0.01c0.01,0.01 0.02,0.01 0.02,0.01c0.01,0.01 0.02,0.01 0.03,0.01c0,0 0.01,0.01 0.02,0.01c0,0 0.01,0 0.02,0c0,0.01 0.01,0.01 0.02,0.01c0.01,0 0.01,0 0.02,0c0.01,0.01 0.02,0.01 0.02,0.01c0.01,0 0.02,0 0.03,0c0,0 0.01,0 0.02,0h1.37v-3.67c0,-0.05 0,-0.1 0.01,-0.15c0,-0.06 0,-0.11 0.01,-0.16c0,-0.05 0.01,-0.11 0.02,-0.16c0.01,-0.05 0.01,-0.1 0.02,-0.15c0.02,-0.05 0.03,-0.11 0.04,-0.16c0.01,-0.05 0.03,-0.1 0.04,-0.15c0.02,-0.05 0.03,-0.1 0.05,-0.15c0.02,-0.05 0.04,-0.1 0.06,-0.14c0.02,-0.05 0.04,-0.1 0.06,-0.15c0.02,-0.05 0.05,-0.09 0.07,-0.14c0.03,-0.05 0.05,-0.09 0.08,-0.14c0.03,-0.04001 0.05,-0.09001 0.08,-0.13001c0.03,-0.04 0.06,-0.09 0.09,-0.13c0.04,-0.04 0.07,-0.08 0.1,-0.12c0.03,-0.04 0.07,-0.08 0.1,-0.12c0.04,-0.04 0.08,-0.08 0.11,-0.12c0.04,-0.03 0.08,-0.07 0.12,-0.1c0.04,-0.04 0.08,-0.07 0.12,-0.11c0.04,-0.03 0.08,-0.06 0.12,-0.09c0.04,-0.03 0.09,-0.07 0.13,-0.09c0.04,-0.03 0.09,-0.06 0.13,-0.09c0.05,-0.03 0.09,-0.05 0.14,-0.08c0.05,-0.02 0.09,-0.04 0.14,-0.07c0.05,-0.02 0.1,-0.04 0.14,-0.06c0.05,-0.02 0.1,-0.04 0.15,-0.06c0.05,-0.02 0.1,-0.03 0.15,-0.05c0.05,-0.01 0.1,-0.03 0.15,-0.04c0.05,-0.01 0.1,-0.02 0.16,-0.03c0.05,-0.01 0.1,-0.02 0.15,-0.03c0.05,-0.01 0.1,-0.01 0.16,-0.02c0.05,0 0.1,-0.01 0.15,-0.01c0.06,0 0.11,-0.01 0.16,-0.01h22.92c0.05,0 0.1,0.01 0.16,0.01c0.05,0 0.1,0.01 0.15,0.01c0.06,0.01 0.11,0.01 0.16,0.02c0.05,0.01 0.1,0.02 0.15,0.03c0.06,0.01 0.11,0.02 0.16,0.03c0.05,0.01 0.1,0.03 0.15,0.04c0.05,0.02 0.1,0.03 0.15,0.05c0.05,0.02 0.1,0.04 0.15,0.06c0.04,0.02 0.09,0.04 0.14,0.06c0.05,0.03 0.09,0.05 0.14,0.07c0.05,0.03 0.09,0.05 0.14,0.08c0.04,0.03 0.09,0.06 0.13,0.09c0.04,0.02 0.09,0.06 0.13,0.09c0.04,0.03 0.08,0.06 0.12,0.09c0.04,0.04 0.08,0.07 0.12,0.11c0.04,0.03 0.08,0.07 0.12,0.1c0.03,0.04 0.07,0.08 0.11,0.12c0.03,0.04 0.07,0.08 0.1,0.12c0.03,0.04 0.06,0.08 0.1,0.12c0.03,0.04 0.06,0.09 0.09,0.13c0.03,0.04 0.05,0.09 0.08,0.13001c0.03,0.05 0.05,0.09 0.08,0.14c0.02,0.05 0.05,0.09 0.07,0.14c0.02,0.05 0.04,0.1 0.06,0.15c0.02,0.04 0.04,0.09 0.06,0.14c0.02,0.05 0.03,0.1 0.05,0.15c0.01,0.05 0.03,0.1 0.04,0.15c0.01,0.05 0.02,0.11 0.04,0.16c0.01,0.05 0.01,0.1 0.02,0.15c0.01,0.05 0.02,0.11 0.02,0.16c0.01,0.05 0.01,0.1 0.01,0.16c0.01,0.05 0.01,0.1 0.01,0.15v3.67h1.37c0.01,0 0.02,0 0.02,0c0.01,0 0.02,0 0.03,0c0,0 0.01,0 0.02,-0.01c0.01,0 0.01,0 0.02,0c0.01,0 0.01,0 0.02,-0.01c0.01,0 0.02,0 0.02,0c0.01,0 0.02,-0.01 0.02,-0.01c0.01,0 0.02,0 0.03,-0.01c0,0 0.01,0 0.02,-0.01c0,0 0.01,0 0.02,-0.01c0,0 0.01,0 0.02,-0.01l0.01,-0.01c0.01,0 0.02,-0.01 0.02,-0.01c0.01,-0.01 0.01,-0.01 0.02,-0.02c0.01,0 0.01,-0.01 0.02,-0.01c0,-0.01 0.01,-0.01 0.01,-0.02c0.01,0 0.01,-0.01 0.02,-0.01c0,-0.01 0.01,-0.01 0.01,-0.02c0.01,-0.01 0.01,-0.01 0.02,-0.02c0,0 0.01,-0.01 0.01,-0.02l0.01,-0.01c0.01,-0.01 0.01,-0.02 0.01,-0.02c0.01,-0.01 0.01,-0.02 0.01,-0.02c0.01,-0.01 0.01,-0.02 0.01,-0.02c0.01,-0.01 0.01,-0.02 0.01,-0.03c0,0 0.01,-0.01 0.01,-0.02c0,0 0,-0.01 0,-0.02c0.01,0 0.01,-0.01 0.01,-0.02c0,-0.01 0,-0.01 0,-0.02c0.01,-0.01 0.01,-0.02 0.01,-0.02c0,-0.01 0,-0.02 0,-0.03c0,0 0,-0.01 0,-0.02z"></path><path id="路径 2" fill-rule="evenodd" style="fill:#1957E6" opacity="1" d="M21.9967,15.3542c0.12,0 0.24,0 0.36,0.01c0.12,0 0.24,0.01 0.36,0.03c0.12,0.01 0.24,0.02 0.36,0.04c0.12,0.02 0.24,0.04 0.35,0.06c0.12,0.02 0.24,0.05 0.36,0.08c0.11,0.03 0.23,0.06 0.34,0.1c0.12,0.03 0.23,0.07 0.34,0.11c0.12,0.04 0.23,0.08 0.34,0.13c0.11,0.04 0.22,0.09 0.33,0.14c0.11,0.06 0.21,0.11 0.32,0.17c0.11,0.05 0.21,0.11 0.31,0.17c0.11,0.07 0.21,0.13 0.31,0.2c0.1,0.06 0.2,0.13 0.29,0.2c0.1,0.07 0.19,0.15 0.29,0.22c0.09,0.08 0.18,0.16 0.27,0.24c0.09,0.08 0.17,0.16 0.26,0.25c0.08,0.08 0.17,0.17 0.25,0.26c0.08,0.09 0.16,0.18 0.23,0.27c0.08,0.09 0.15,0.19 0.22,0.28c0.08,0.1 0.14,0.2 0.21,0.3c0.07,0.1 0.13,0.2 0.19,0.3c0.07,0.11 0.12,0.21 0.18,0.32c0.06,0.1 0.11,0.21 0.16,0.32c0.05,0.11 0.1,0.22 0.15,0.33c0.04,0.11 0.09,0.22 0.13,0.33c0.04,0.12 0.08,0.23 0.11,0.34c0.04,0.12 0.07,0.24 0.1,0.35c0.03,0.12 0.05,0.23 0.08,0.35c0.02,0.12 0.04,0.24 0.06,0.36c0.01,0.12 0.03,0.24 0.04,0.35c0.01,0.12 0.02,0.24 0.03,0.36c0,0.12 0.01,0.24 0.01,0.36c0,0.12 -0.01,0.24 -0.01,0.36c-0.01,0.12 -0.02,0.24 -0.03,0.36c-0.01,0.12 -0.03,0.24 -0.04,0.36c-0.02,0.12 -0.04,0.24 -0.06,0.35c-0.03,0.12 -0.05,0.24 -0.08,0.36c-0.03,0.11 -0.06,0.23 -0.1,0.34c-0.03,0.12 -0.07,0.23 -0.11,0.34c-0.04,0.12 -0.09,0.23 -0.13,0.34c-0.05,0.11 -0.1,0.22 -0.15,0.33c-0.05,0.11 -0.1,0.21 -0.16,0.32c-0.06,0.11 -0.11,0.21 -0.18,0.31c-0.06,0.11 -0.12,0.21 -0.19,0.31c-0.07,0.1 -0.13,0.2 -0.21,0.29c-0.07,0.1 -0.14,0.19 -0.22,0.29c-0.07,0.09 -0.15,0.18 -0.23,0.27c-0.08,0.09 -0.17,0.17 -0.25,0.26c-0.09,0.08 -0.17,0.17 -0.26,0.25c-0.09,0.08 -0.18,0.16 -0.27,0.23c-0.1,0.08 -0.19,0.15 -0.29,0.22c-0.09,0.08 -0.19,0.14 -0.29,0.21c-0.1,0.07 -0.2,0.13 -0.31,0.19c-0.1,0.07 -0.2,0.12 -0.31,0.18c-0.11,0.06 -0.21,0.11 -0.32,0.16c-0.11,0.05 -0.22,0.1 -0.33,0.15c-0.11,0.04 -0.22,0.09 -0.34,0.13c-0.11,0.04 -0.22,0.08 -0.34,0.11c-0.11,0.04 -0.23,0.07 -0.34,0.1c-0.12,0.03 -0.24,0.05 -0.36,0.08c-0.11,0.02 -0.23,0.04 -0.35,0.06c-0.12,0.01 -0.24,0.03 -0.36,0.04c-0.12,0.01 -0.24,0.02 -0.36,0.03c-0.12,0 -0.24,0.01 -0.36,0.01c-0.12,0 -0.24,-0.01 -0.36,-0.01c-0.12,-0.01 -0.24,-0.02 -0.36,-0.03c-0.11,-0.01 -0.23,-0.03 -0.35,-0.04c-0.12,-0.02 -0.24,-0.04 -0.36,-0.06c-0.12,-0.03 -0.23,-0.05 -0.35,-0.08c-0.11,-0.03 -0.23,-0.06 -0.35,-0.1c-0.11,-0.03 -0.22,-0.07 -0.34,-0.11c-0.11,-0.04 -0.22,-0.09 -0.33,-0.13c-0.11,-0.05 -0.22,-0.1 -0.33,-0.15c-0.11,-0.05 -0.22,-0.1 -0.32,-0.16c-0.11,-0.06 -0.21,-0.11 -0.32,-0.18c-0.1,-0.06 -0.2,-0.12 -0.3,-0.19c-0.1,-0.07 -0.2,-0.13 -0.3,-0.21c-0.09,-0.07 -0.19,-0.14 -0.28,-0.22c-0.09,-0.07 -0.18,-0.15 -0.27,-0.23c-0.09,-0.08 -0.18,-0.17 -0.26,-0.25c-0.09,-0.09 -0.17,-0.17 -0.25,-0.26c-0.08,-0.09 -0.16,-0.18 -0.24,-0.27c-0.07,-0.1 -0.15,-0.19 -0.22,-0.29c-0.07,-0.09 -0.14,-0.19 -0.2,-0.29c-0.07,-0.1 -0.13,-0.2 -0.2,-0.31c-0.06,-0.1 -0.12,-0.2 -0.17,-0.31c-0.06,-0.11 -0.11,-0.21 -0.17,-0.32c-0.05,-0.11 -0.1,-0.22 -0.14,-0.33c-0.05,-0.11 -0.09,-0.22 -0.13,-0.34c-0.04,-0.11 -0.08,-0.22 -0.11,-0.34c-0.04,-0.11 -0.07,-0.23 -0.1,-0.34c-0.03,-0.12 -0.06,-0.24 -0.08,-0.36c-0.02,-0.11 -0.04,-0.23 -0.06,-0.35c-0.02,-0.12 -0.03,-0.24 -0.04,-0.36c-0.02,-0.12 -0.03,-0.24 -0.03,-0.36c-0.01,-0.12 -0.01,-0.24 -0.01,-0.36c0,-0.12 0,-0.24 0.01,-0.36c0,-0.12 0.01,-0.24 0.03,-0.36c0.01,-0.11 0.02,-0.23 0.04,-0.35c0.02,-0.12 0.04,-0.24 0.06,-0.36c0.02,-0.12 0.05,-0.23 0.08,-0.35c0.03,-0.11 0.06,-0.23 0.1,-0.35c0.03,-0.11 0.07,-0.22 0.11,-0.34c0.04,-0.11 0.08,-0.22 0.13,-0.33c0.04,-0.11 0.09,-0.22 0.14,-0.33c0.06,-0.11 0.11,-0.22 0.17,-0.32c0.05,-0.11 0.11,-0.21 0.17,-0.32c0.07,-0.1 0.13,-0.2 0.2,-0.3c0.06,-0.1 0.13,-0.2 0.2,-0.3c0.07,-0.09 0.15,-0.19 0.22,-0.28c0.08,-0.09 0.16,-0.18 0.24,-0.27c0.08,-0.09 0.16,-0.18 0.25,-0.26c0.08,-0.09 0.17,-0.17 0.26,-0.25c0.09,-0.08 0.18,-0.16 0.27,-0.24c0.09,-0.07 0.19,-0.15 0.28,-0.22c0.1,-0.07 0.2,-0.14 0.3,-0.2c0.1,-0.07 0.2,-0.13 0.3,-0.2c0.11,-0.06 0.21,-0.12 0.32,-0.17c0.1,-0.06 0.21,-0.11 0.32,-0.17c0.11,-0.05 0.22,-0.1 0.33,-0.14c0.11,-0.05 0.22,-0.09 0.33,-0.13c0.12,-0.04 0.23,-0.08 0.34,-0.11c0.12,-0.04 0.24,-0.07 0.35,-0.1c0.12,-0.03 0.23,-0.06 0.35,-0.08c0.12,-0.02 0.24,-0.04 0.36,-0.06c0.12,-0.02 0.24,-0.03 0.35,-0.04c0.12,-0.02 0.24,-0.03 0.36,-0.03c0.12,-0.01 0.24,-0.01 0.36,-0.01zM22.2267,27.2642c0.07,0 0.15,-0.01 0.22,-0.02c0.08,0 0.15,-0.01 0.23,-0.02c0.07,-0.01 0.14,-0.03 0.22,-0.04c0.07,-0.02 0.14,-0.03 0.22,-0.05c0.07,-0.02 0.14,-0.04 0.21,-0.06c0.08,-0.02 0.15,-0.05 0.22,-0.07c0.07,-0.03 0.14,-0.05 0.21,-0.08c0.07,-0.03 0.14,-0.06 0.2,-0.09c0.07,-0.04 0.14,-0.07 0.2,-0.1c0.07,-0.04 0.14,-0.08 0.2,-0.12c0.06,-0.03 0.13,-0.07 0.19,-0.12c0.06,-0.04 0.12,-0.08 0.18,-0.13c0.06,-0.04 0.12,-0.09 0.18,-0.13c0.06,-0.05 0.12,-0.1 0.17,-0.15c0.06,-0.05 0.11,-0.1 0.16,-0.16c0.06,-0.05 0.11,-0.1 0.16,-0.16c0.05,-0.05 0.1,-0.11 0.15,-0.17c0.04,-0.06 0.09,-0.12 0.13,-0.18c0.05,-0.06 0.09,-0.12 0.13,-0.18c0.05,-0.06 0.09,-0.13 0.12,-0.19c0.04,-0.06 0.08,-0.13 0.12,-0.2c0.03,-0.06 0.06,-0.13 0.1,-0.2c0.03,-0.06 0.06,-0.13 0.09,-0.2c0.03,-0.07 0.05,-0.14 0.08,-0.21c0.02,-0.07 0.05,-0.14 0.07,-0.22c0.02,-0.07 0.04,-0.14 0.06,-0.21c0.02,-0.08 0.03,-0.15 0.05,-0.22c0.01,-0.08 0.03,-0.15 0.04,-0.22c0.01,-0.08 0.02,-0.15 0.02,-0.23c0.01,-0.07 0.02,-0.15 0.02,-0.22c0,-0.08 0.01,-0.15 0.01,-0.23c0,-0.07 -0.01,-0.15 -0.01,-0.22c0,-0.08 -0.01,-0.15 -0.02,-0.23c0,-0.07 -0.01,-0.14 -0.02,-0.22c-0.01,-0.07 -0.03,-0.15 -0.04,-0.22c-0.02,-0.07 -0.03,-0.15 -0.05,-0.22c-0.02,-0.07 -0.04,-0.15 -0.06,-0.22c-0.02,-0.07 -0.05,-0.14 -0.07,-0.21c-0.03,-0.07 -0.05,-0.14 -0.08,-0.21c-0.03,-0.07 -0.06,-0.14 -0.09,-0.21c-0.04,-0.06 -0.07,-0.13 -0.1,-0.2c-0.04,-0.06 -0.08,-0.13 -0.12,-0.19c-0.03,-0.07 -0.07,-0.13 -0.12,-0.19c-0.04,-0.07 -0.08,-0.13 -0.13,-0.19c-0.04,-0.06 -0.09,-0.12 -0.13,-0.17c-0.05,-0.06 -0.1,-0.12 -0.15,-0.17c-0.05,-0.06 -0.1,-0.11 -0.16,-0.17c-0.05,-0.05 -0.1,-0.1 -0.16,-0.15c-0.05,-0.05 -0.11,-0.1 -0.17,-0.15c-0.06,-0.05 -0.12,-0.09 -0.18,-0.14c-0.06,-0.04 -0.12,-0.09 -0.18,-0.13c-0.06,-0.04 -0.13,-0.08 -0.19,-0.12c-0.06,-0.04 -0.13,-0.07 -0.2,-0.11c-0.06,-0.03 -0.13,-0.07 -0.2,-0.1c-0.06,-0.03 -0.13,-0.06 -0.2,-0.09c-0.07,-0.03 -0.14,-0.06 -0.21,-0.08c-0.07,-0.03 -0.14,-0.05 -0.22,-0.07c-0.07,-0.02 -0.14,-0.04 -0.21,-0.06c-0.08,-0.02 -0.15,-0.04 -0.22,-0.05c-0.08,-0.02 -0.15,-0.03 -0.22,-0.04c-0.08,-0.01 -0.15,-0.02 -0.23,-0.03c-0.07,-0.01 -0.15,-0.01 -0.22,-0.01c-0.08,-0.01 -0.15,-0.01 -0.23,-0.01c-0.07,0 -0.15,0 -0.22,0.01c-0.08,0 -0.15,0 -0.23,0.01c-0.07,0.01 -0.14,0.02 -0.22,0.03c-0.07,0.01 -0.15,0.02 -0.22,0.04c-0.07,0.01 -0.15,0.03 -0.22,0.05c-0.07,0.02 -0.15,0.04 -0.22,0.06c-0.07,0.02 -0.14,0.04 -0.21,0.07c-0.07,0.02 -0.14,0.05 -0.21,0.08c-0.07,0.03 -0.14,0.06 -0.21,0.09c-0.06,0.03 -0.13,0.07 -0.2,0.1c-0.06,0.04 -0.13,0.07 -0.19,0.11c-0.07,0.04 -0.13,0.08 -0.19,0.12c-0.07,0.04 -0.13,0.09 -0.19,0.13c-0.06,0.05 -0.12,0.09 -0.17,0.14c-0.06,0.05 -0.12,0.1 -0.17,0.15c-0.06,0.05 -0.11,0.1 -0.17,0.15c-0.05,0.06 -0.1,0.11 -0.15,0.17c-0.05,0.05 -0.1,0.11 -0.15,0.17c-0.05,0.05 -0.09,0.11 -0.14,0.17c-0.04,0.06 -0.09,0.12 -0.13,0.19c-0.04,0.06 -0.08,0.12 -0.12,0.19c-0.04,0.06 -0.07,0.13 -0.11,0.19c-0.03,0.07 -0.07,0.14 -0.1,0.2c-0.03,0.07 -0.06,0.14 -0.09,0.21c-0.03,0.07 -0.06,0.14 -0.08,0.21c-0.03,0.07 -0.05,0.14 -0.07,0.21c-0.02,0.07 -0.04,0.15 -0.06,0.22c-0.02,0.07 -0.04,0.15 -0.05,0.22c-0.02,0.07 -0.03,0.15 -0.04,0.22c-0.01,0.08 -0.02,0.15 -0.03,0.22c-0.01,0.08 -0.01,0.15 -0.01,0.23c-0.01,0.07 -0.01,0.15 -0.01,0.22c0,0.08 0,0.15 0.01,0.23c0,0.07 0,0.15 0.01,0.22c0.01,0.08 0.02,0.15 0.03,0.23c0.01,0.07 0.02,0.14 0.04,0.22c0.01,0.07 0.03,0.14 0.05,0.22c0.02,0.07 0.04,0.14 0.06,0.21c0.02,0.08 0.04,0.15 0.07,0.22c0.02,0.07 0.05,0.14 0.08,0.21c0.03,0.07 0.06,0.14 0.09,0.2c0.03,0.07 0.07,0.14 0.1,0.2c0.04,0.07 0.07,0.14 0.11,0.2c0.04,0.06 0.08,0.13 0.12,0.19c0.04,0.06 0.09,0.12 0.13,0.18c0.05,0.06 0.09,0.12 0.14,0.18c0.05,0.06 0.1,0.12 0.15,0.17c0.05,0.06 0.1,0.11 0.15,0.16c0.06,0.06 0.11,0.11 0.17,0.16c0.05,0.05 0.11,0.1 0.17,0.15c0.05,0.04 0.11,0.09 0.17,0.13c0.06,0.05 0.12,0.09 0.19,0.13c0.06,0.05 0.12,0.09 0.19,0.12c0.06,0.04 0.13,0.08 0.19,0.12c0.07,0.03 0.14,0.06 0.2,0.1c0.07,0.03 0.14,0.06 0.21,0.09c0.07,0.03 0.14,0.05 0.21,0.08c0.07,0.02 0.14,0.05 0.21,0.07c0.07,0.02 0.15,0.04 0.22,0.06c0.07,0.02 0.15,0.03 0.22,0.05c0.07,0.01 0.15,0.03 0.22,0.04c0.08,0.01 0.15,0.02 0.22,0.02c0.08,0.01 0.15,0.02 0.23,0.02c0.07,0 0.15,0.01 0.22,0.01c0.08,0 0.15,-0.01 0.23,-0.01zM27.0367,33.2342c0.03,0 0.05,0 0.07,0c0.02,0 0.05,0 0.07,0c0.02,0 0.04,0.01 0.07,0.01c0.02,0 0.04,0.01 0.06,0.01c0.03,0.01 0.05,0.01 0.07,0.02c0.02,0 0.04,0.01 0.06,0.01c0.03,0.01 0.05,0.02 0.07,0.03c0.02,0 0.04,0.01 0.06,0.02c0.02,0.01 0.04,0.02 0.06,0.03c0.02,0.01 0.04,0.02 0.06,0.03c0.02,0.01 0.04,0.02 0.06,0.03c0.02,0.01 0.04,0.02 0.06,0.04c0.02,0.01 0.04,0.02 0.05,0.04c0.02,0.01 0.04,0.02 0.06,0.04c0.01,0.01 0.03,0.03 0.05,0.04c0.02,0.02 0.03,0.03 0.05,0.05c0.01,0.01 0.03,0.03 0.04,0.05c0.02,0.01 0.03,0.03 0.05,0.05c0.01,0.02 0.03,0.03 0.04,0.05c0.01,0.02 0.03,0.04 0.04,0.06c0.01,0.01 0.02,0.03 0.03,0.05c0.02,0.02 0.03,0.04 0.04,0.06c0.01,0.02 0.02,0.04 0.03,0.06c0.01,0.02 0.02,0.04 0.03,0.06c0,0.02 0.01,0.05 0.02,0.07c0.01,0.02 0.01,0.04 0.02,0.06c0.01,0.02 0.01,0.04 0.02,0.07c0,0.02 0.01,0.04 0.01,0.06c0.01,0.02 0.01,0.05 0.02,0.07c0,0.02 0,0.04 0,0.07c0.01,0.02 0.01,0.04 0.01,0.06c0,0.03 0,0.05 0,0.07c0,0.02 0,0.05 0,0.07c0,0.02 0,0.04 -0.01,0.06c0,0.03 0,0.05 0,0.07c-0.01,0.02 -0.01,0.05 -0.02,0.07c0,0.02 -0.01,0.04 -0.01,0.06c-0.01,0.03 -0.01,0.05 -0.02,0.07c-0.01,0.02 -0.01,0.04 -0.02,0.06c-0.01,0.02 -0.02,0.05 -0.02,0.07c-0.01,0.02 -0.02,0.04 -0.03,0.06c-0.01,0.02 -0.02,0.04 -0.03,0.06c-0.01,0.02 -0.02,0.04 -0.04,0.06c-0.01,0.02 -0.02,0.04 -0.03,0.05c-0.01,0.02 -0.03,0.04 -0.04,0.06c-0.01,0.02 -0.03,0.03 -0.04,0.05c-0.02,0.02 -0.03,0.04 -0.05,0.05c-0.01,0.02 -0.03,0.04 -0.04,0.05c-0.02,0.02 -0.03,0.03 -0.05,0.05c-0.02,0.01 -0.04,0.03 -0.05,0.04c-0.02,0.02 -0.04,0.03 -0.06,0.04c-0.01,0.02 -0.03,0.03 -0.05,0.04c-0.02,0.02 -0.04,0.03 -0.06,0.04c-0.02,0.01 -0.04,0.02 -0.06,0.03c-0.02,0.01 -0.04,0.02 -0.06,0.03c-0.02,0.01 -0.04,0.02 -0.06,0.03c-0.02,0.01 -0.04,0.02 -0.06,0.02c-0.02,0.01 -0.04,0.02 -0.07,0.03c-0.02,0 -0.04,0.01 -0.06,0.01c-0.02,0.01 -0.04,0.01 -0.07,0.02c-0.02,0 -0.04,0.01 -0.06,0.01c-0.03,0 -0.05,0.01 -0.07,0.01c-0.02,0 -0.05,0 -0.07,0c-0.02,0 -0.04,0.01 -0.07,0.01h-10.08c-0.02,0 -0.04,-0.01 -0.07,-0.01c-0.02,0 -0.04,0 -0.06,0c-0.03,0 -0.05,-0.01 -0.07,-0.01c-0.02,0 -0.04,-0.01 -0.07,-0.01c-0.02,-0.01 -0.04,-0.01 -0.06,-0.02c-0.02,0 -0.05,-0.01 -0.07,-0.01c-0.02,-0.01 -0.04,-0.02 -0.06,-0.03c-0.02,0 -0.04,-0.01 -0.06,-0.02c-0.03,-0.01 -0.05,-0.02 -0.07,-0.03c-0.02,-0.01 -0.04,-0.02 -0.06,-0.03c-0.02,-0.01 -0.04,-0.02 -0.06,-0.03c-0.01,-0.01 -0.03,-0.02 -0.05,-0.04c-0.02,-0.01 -0.04,-0.02 -0.06,-0.04c-0.02,-0.01 -0.03,-0.02 -0.05,-0.04c-0.02,-0.01 -0.04,-0.03 -0.05,-0.04c-0.02,-0.02 -0.03,-0.03 -0.05,-0.05c-0.02,-0.01 -0.03,-0.03 -0.05,-0.05c-0.01,-0.01 -0.03,-0.03 -0.04,-0.05c-0.02,-0.02 -0.03,-0.03 -0.04,-0.05c-0.02,-0.02 -0.03,-0.04 -0.04,-0.06c-0.01,-0.01 -0.03,-0.03 -0.04,-0.05c-0.01,-0.02 -0.02,-0.04 -0.03,-0.06c-0.01,-0.02 -0.02,-0.04 -0.03,-0.06c-0.01,-0.02 -0.02,-0.04 -0.03,-0.06c-0.01,-0.02 -0.02,-0.05 -0.02,-0.07c-0.01,-0.02 -0.02,-0.04 -0.02,-0.06c-0.01,-0.02 -0.02,-0.04 -0.02,-0.07c-0.01,-0.02 -0.01,-0.04 -0.02,-0.06c0,-0.02 -0.01,-0.05 -0.01,-0.07c0,-0.02 0,-0.04 -0.01,-0.07c0,-0.02 0,-0.04 0,-0.06c0,-0.02 0,-0.05 0,-0.07c0,-0.02 0,-0.04 0,-0.07c0,-0.02 0,-0.04 0,-0.06c0.01,-0.03 0.01,-0.05 0.01,-0.07c0,-0.02 0.01,-0.05 0.01,-0.07c0.01,-0.02 0.01,-0.04 0.02,-0.06c0,-0.03 0.01,-0.05 0.02,-0.07c0,-0.02 0.01,-0.04 0.02,-0.06c0,-0.02 0.01,-0.05 0.02,-0.07c0.01,-0.02 0.02,-0.04 0.03,-0.06c0.01,-0.02 0.02,-0.04 0.03,-0.06c0.01,-0.02 0.02,-0.04 0.03,-0.06c0.01,-0.02 0.03,-0.04 0.04,-0.05c0.01,-0.02 0.02,-0.04 0.04,-0.06c0.01,-0.02 0.02,-0.03 0.04,-0.05c0.01,-0.02 0.03,-0.04 0.04,-0.05c0.02,-0.02 0.03,-0.04 0.05,-0.05c0.02,-0.02 0.03,-0.03 0.05,-0.05c0.01,-0.01 0.03,-0.03 0.05,-0.04c0.02,-0.02 0.03,-0.03 0.05,-0.04c0.02,-0.02 0.04,-0.03 0.06,-0.04c0.02,-0.02 0.04,-0.03 0.05,-0.04c0.02,-0.01 0.04,-0.02 0.06,-0.03c0.02,-0.01 0.04,-0.02 0.06,-0.03c0.02,-0.01 0.04,-0.02 0.07,-0.03c0.02,-0.01 0.04,-0.02 0.06,-0.02c0.02,-0.01 0.04,-0.02 0.06,-0.03c0.02,0 0.05,-0.01 0.07,-0.01c0.02,-0.01 0.04,-0.01 0.06,-0.02c0.03,0 0.05,-0.01 0.07,-0.01c0.02,0 0.04,-0.01 0.07,-0.01c0.02,0 0.04,0 0.06,0c0.03,0 0.05,0 0.07,0z"></path></g></g></g><defs><rect id="path_0" x="0" y="0" width="44" height="44" /></defs></svg>