<svg xmlns="http://www.w3.org/2000/svg" xmlns:xlink="http://www.w3.org/1999/xlink" width="40" height="40" viewBox="0 0 40 40" fill="none"><g opacity="1"  transform="translate(0 0)  rotate(0)"><path id="矩形 2" fill-rule="evenodd" style="fill:#1957E6" opacity="0.8" d="M4 40L36 40C38.21 40 40 38.21 40 36L40 4C40 1.79 38.21 0 36 0L4 0C1.79 0 0 1.79 0 4L0 36C0 38.21 1.79 40 4 40Z"></path><g opacity="1"  transform="translate(5 5)  rotate(0)"><mask id="bg-mask-0" fill="white"><use transform="translate(0 0)  rotate(0)" xlink:href="#path_0"></use></mask><g mask="url(#bg-mask-0)" ><path id="路径 1" fill-rule="evenodd" style="fill:#FFFFFF" opacity="1" d="M8.435,20.005c-0.86,0 -1.56,-0.7 -1.56,-1.57c0,-0.86 0.7,-1.56 1.56,-1.56c0.87,0 1.57,0.7 1.57,1.56c0,0.87 -0.7,1.57 -1.57,1.57z"></path><path id="路径 2" fill-rule="evenodd" style="fill:#FFFFFF" opacity="1" d="M21.56,20.005c-0.86,0 -1.56,-0.7 -1.56,-1.57c0,-0.86 0.7,-1.56 1.56,-1.56c0.87,0 1.57,0.7 1.57,1.56c0,0.87 -0.7,1.57 -1.57,1.57z"></path><path  id="路径 3" style="fill:#FFFFFF; opacity:1;" d="M6.29667,23.13v0.62c0,1.0125 0.82081,1.8333 1.83333,1.8333c1.01252,0 1.82333,-0.8208 1.82333,-1.8333v-0.62c0,-0.3682 0.29847,-0.6667 0.66667,-0.6667h8.75c0.3682,0 0.6667,0.2985 0.6667,0.6667v0.62c0,1.018 0.8253,1.8333 1.8433,1.8333c1.0125,0 1.8333,-0.8208 1.8333,-1.8333v-0.62c0,-0.3682 0.2985,-0.6667 0.6667,-0.6667h1.24c0.6701,0 1.2133,-0.5432 1.2133,-1.2133v-5.81c0,-1.1645 -0.6564,-2.2353 -1.6996,-2.7528l-0.4263,-0.2082c-0.182,-0.0889 -0.3138,-0.2558 -0.358,-0.4535l-1.38,-6.16999c-0.1838,-0.84527 -0.9284,-1.43884 -1.7894,-1.43884h-12.3c-0.85442,0 -1.59302,0.58724 -1.79159,1.41826l-1.43903,6.19587c-0.04541,0.1955 -0.17647,0.3602 -0.35682,0.4482l-0.43,0.21c-1.0421,0.517 -1.69589,1.5836 -1.69589,2.751v5.81c0,0.6646 0.53875,1.2133 1.20333,1.2133h1.26c0.36819,0 0.66667,0.2985 0.66667,0.6667zM4.96333,23.13h0.66667v0.6667h-1.26c-1.40096,0 -2.53667,-1.1457 -2.53667,-2.5467v-5.81c0,-1.674 0.94083,-3.2033 2.44411,-3.949l0.43,-0.21l0.29256,0.599l-0.64938,-0.1508l1.44097,-6.20413c0.34195,-1.43115 1.61698,-2.44174 3.08841,-2.44174h12.3c1.4883,0 2.7753,1.03075 3.0906,2.48116l1.38,6.17001l-0.6506,0.1455l0.2926,-0.599l0.4337,0.2118c1.4969,0.7426 2.4404,2.2762 2.4404,3.9472v5.81c0,1.4065 -1.1402,2.5467 -2.5467,2.5467h-1.24v-0.6667h0.6667v0.62c0,1.7489 -1.4178,3.1667 -3.1667,3.1667c-1.7544,0 -3.1767,-1.4123 -3.1767,-3.1667v-0.62h0.6667v0.6667h-8.75v-0.6667h0.6667v0.62c0,1.7489 -1.4078,3.1667 -3.1567,3.1667c-1.7489,0 -3.16667,-1.4178 -3.16667,-3.1667z"></path><path  id="路径 4" style="fill:#FFFFFF; opacity:1;" d="M20.5991,13.8992l-1.03,-4.65002c-0.0597,-0.26192 -0.2963,-0.45751 -0.5691,-0.45751h-8c-0.276,0 -0.5086,0.19244 -0.57,0.46157l-1.02911,4.64596l-0.65089,-0.1442v-0.6667h12.5v0.6667zM21.9009,13.6108c0.0922,0.4162 -0.2246,0.8109 -0.6509,0.8109h-12.5c-0.42631,0 -0.74309,-0.3947 -0.65089,-0.8109l1.03091,-4.65404c0.19973,-0.87571 0.97178,-1.49843 1.86998,-1.49843h8c0.895,0 1.671,0.62587 1.8709,1.50249z"></path></g></g></g><defs><rect id="path_0" x="0" y="0" width="30" height="30" /></defs></svg>