<svg xmlns="http://www.w3.org/2000/svg" xmlns:xlink="http://www.w3.org/1999/xlink" width="30" height="30" viewBox="0 0 30 30" fill="none"><g opacity="1"  transform="translate(0 0)  rotate(0)"><mask id="bg-mask-0" fill="white"><use transform="translate(0 0)  rotate(NaN)" xlink:href="#path_0"></use></mask><g mask="url(#bg-mask-0)" ><path id="路径 1" fill-rule="evenodd" style="fill:#F23D4F" opacity="1" d="M24.4982,4.8105c1.51,0 2.74,1.23 2.74,2.74v14.68c0,1.51 -1.23,2.74 -2.74,2.74h-15.06v-2.8c0,-0.01 0,-0.03 -0.01,-0.04c0,-0.02 0,-0.03 0,-0.05c0,-0.01 0,-0.03 0,-0.04c-0.01,-0.02 -0.01,-0.03 -0.01,-0.04c-0.01,-0.02 -0.01,-0.03 -0.01,-0.05c-0.01,-0.01 -0.01,-0.03 -0.01,-0.04c-0.01,-0.02 -0.01,-0.03 -0.02,-0.04c0,-0.02 -0.01,-0.03 -0.01,-0.05c-0.01,-0.01 -0.02,-0.02 -0.02,-0.04c-0.01,-0.01 -0.02,-0.02 -0.02,-0.04c-0.01,-0.01 -0.02,-0.02 -0.02,-0.04c-0.01,-0.01 -0.02,-0.02 -0.03,-0.04c-0.01,-0.01 -0.02,-0.02 -0.02,-0.03c-0.01,-0.01 -0.02,-0.03 -0.03,-0.04c-0.01,-0.01 -0.02,-0.02 -0.03,-0.03c-0.01,-0.01 -0.02,-0.02 -0.03,-0.03c-0.01,-0.01 -0.02,-0.03 -0.04,-0.04c-0.01,-0.01 -0.02,-0.01 -0.03,-0.02c-0.01,-0.01 -0.02,-0.02 -0.04,-0.03c-0.01,-0.01 -0.02,-0.02 -0.03,-0.03c-0.01,-0.01 -0.03,-0.01 -0.04,-0.02c-0.01,-0.01 -0.03,-0.02 -0.04,-0.02c-0.01,-0.01 -0.03,-0.02 -0.04,-0.02c-0.01,-0.01 -0.03,-0.02 -0.04,-0.02c-0.01,-0.01 -0.03,-0.01 -0.04,-0.02c-0.02,0 -0.03,-0.01 -0.04,-0.01c-0.02,-0.01 -0.03,-0.01 -0.05,-0.02c-0.01,0 -0.03,0 -0.04,0c-0.02,-0.01 -0.03,-0.01 -0.05,-0.01c-0.01,0 -0.03,-0.01 -0.04,-0.01c-0.02,0 -0.03,0 -0.05,0c-0.01,0 -0.03,0 -0.04,0c-0.02,0 -0.03,0 -0.05,0c-0.01,0 -0.03,0 -0.04,0c-0.02,0 -0.03,0.01 -0.05,0.01c-0.01,0 -0.03,0 -0.04,0.01c-0.01,0 -0.03,0 -0.04,0c-0.02,0.01 -0.03,0.01 -0.05,0.02c-0.01,0 -0.03,0.01 -0.04,0.01c-0.01,0.01 -0.03,0.01 -0.04,0.02c-0.02,0 -0.03,0.01 -0.04,0.02c-0.02,0 -0.03,0.01 -0.04,0.02c-0.02,0 -0.03,0.01 -0.04,0.02c-0.02,0.01 -0.03,0.01 -0.04,0.02c-0.01,0.01 -0.02,0.02 -0.04,0.03c-0.01,0.01 -0.02,0.02 -0.03,0.03c-0.01,0.01 -0.03,0.01 -0.04,0.02c-0.01,0.01 -0.02,0.03 -0.03,0.04c-0.01,0.01 -0.02,0.02 -0.03,0.03c-0.01,0.01 -0.02,0.02 -0.03,0.03c-0.01,0.01 -0.02,0.03 -0.03,0.04c-0.01,0.01 -0.01,0.02 -0.02,0.03c-0.01,0.02 -0.02,0.03 -0.03,0.04c0,0.02 -0.01,0.03 -0.02,0.04c-0.01,0.02 -0.01,0.03 -0.02,0.04c-0.01,0.02 -0.01,0.03 -0.02,0.04c0,0.02 -0.01,0.03 -0.01,0.05c-0.01,0.01 -0.01,0.02 -0.02,0.04c0,0.01 -0.01,0.03 -0.01,0.04c0,0.02 -0.01,0.03 -0.01,0.05c0,0.01 -0.01,0.02 -0.01,0.04c0,0.01 0,0.03 0,0.04c0,0.02 -0.01,0.03 -0.01,0.05c0,0.01 0,0.03 0,0.04v2.8h-2.2c-1.51,0 -2.74,-1.23 -2.74,-2.74v-4.46c1.49,-0.11 2.67,-1.36 2.67,-2.88c0,-1.52 -1.18,-2.77 -2.67,-2.88v-4.46c0,-1.51 1.23,-2.74 2.74,-2.74h2.2v2.79c0,0.01 0,0.03 0,0.04c0,0.02 0,0.03 0.01,0.05c0,0.01 0,0.03 0,0.04c0,0.01 0.01,0.03 0.01,0.04c0,0.02 0,0.03 0.01,0.05c0,0.01 0.01,0.03 0.01,0.04c0,0.02 0.01,0.03 0.01,0.04c0.01,0.02 0.02,0.03 0.02,0.05c0.01,0.01 0.01,0.02 0.02,0.04c0.01,0.01 0.01,0.02 0.02,0.04c0.01,0.01 0.01,0.02 0.02,0.04c0.01,0.01 0.02,0.02 0.03,0.03c0,0.02 0.01,0.03 0.02,0.04c0.01,0.01 0.02,0.03 0.03,0.04c0.01,0.01 0.02,0.02 0.03,0.03c0.01,0.01 0.02,0.02 0.03,0.03c0.01,0.01 0.02,0.02 0.03,0.03c0.01,0.01 0.02,0.02 0.04,0.03c0.01,0.01 0.02,0.02 0.03,0.03c0.01,0.01 0.03,0.02 0.04,0.03c0.01,0.01 0.02,0.01 0.04,0.02c0.01,0.01 0.02,0.02 0.04,0.02c0.01,0.01 0.02,0.02 0.04,0.02c0.01,0.01 0.02,0.02 0.04,0.02c0.01,0.01 0.02,0.01 0.04,0.02c0.01,0 0.03,0.01 0.04,0.01c0.02,0.01 0.03,0.01 0.04,0.01c0.02,0.01 0.03,0.01 0.05,0.01c0.01,0.01 0.03,0.01 0.04,0.01c0.02,0 0.03,0.01 0.05,0.01c0.01,0 0.03,0 0.04,0c0.02,0 0.03,0 0.05,0c0.01,0 0.03,0 0.04,0c0.02,0 0.03,0 0.05,0c0.01,0 0.03,-0.01 0.04,-0.01c0.02,0 0.03,0 0.05,-0.01c0.01,0 0.03,0 0.04,-0.01c0.01,0 0.03,0 0.04,-0.01c0.02,0 0.03,-0.01 0.05,-0.01c0.01,-0.01 0.02,-0.01 0.04,-0.02c0.01,0 0.03,-0.01 0.04,-0.02c0.01,0 0.03,-0.01 0.04,-0.02c0.01,0 0.03,-0.01 0.04,-0.02c0.01,-0.01 0.02,-0.01 0.04,-0.02c0.01,-0.01 0.02,-0.02 0.03,-0.03c0.02,-0.01 0.03,-0.02 0.04,-0.03c0.01,-0.01 0.02,-0.02 0.03,-0.03c0.01,-0.01 0.02,-0.02 0.04,-0.03c0.01,-0.01 0.02,-0.02 0.03,-0.03c0.01,-0.01 0.02,-0.02 0.03,-0.03c0.01,-0.01 0.01,-0.03 0.02,-0.04c0.01,-0.01 0.02,-0.02 0.03,-0.04c0.01,-0.01 0.02,-0.02 0.02,-0.03c0.01,-0.02 0.02,-0.03 0.03,-0.04c0,-0.02 0.01,-0.03 0.02,-0.04c0,-0.02 0.01,-0.03 0.01,-0.04c0.01,-0.02 0.02,-0.03 0.02,-0.05c0.01,-0.01 0.01,-0.02 0.01,-0.04c0.01,-0.01 0.01,-0.03 0.02,-0.04c0,-0.02 0,-0.03 0.01,-0.05c0,-0.01 0,-0.03 0,-0.04c0.01,-0.01 0.01,-0.03 0.01,-0.04c0,-0.02 0,-0.03 0,-0.05c0,-0.01 0,-0.03 0,-0.04v-2.79zM9.4282,12.9505c0,-0.01 0,-0.02 0,-0.04c0,-0.01 0,-0.03 0,-0.04c0,-0.02 0,-0.03 -0.01,-0.05c0,-0.01 0,-0.03 0,-0.04c-0.01,-0.02 -0.01,-0.03 -0.01,-0.05c-0.01,-0.01 -0.01,-0.03 -0.02,-0.04c0,-0.02 0,-0.03 -0.01,-0.04c0,-0.02 -0.01,-0.03 -0.02,-0.05c0,-0.01 -0.01,-0.02 -0.01,-0.04c-0.01,-0.01 -0.02,-0.02 -0.02,-0.04c-0.01,-0.01 -0.02,-0.02 -0.03,-0.04c0,-0.01 -0.01,-0.02 -0.02,-0.03c-0.01,-0.02 -0.02,-0.03 -0.03,-0.04c-0.01,-0.01 -0.01,-0.02 -0.02,-0.04c-0.01,-0.01 -0.02,-0.02 -0.03,-0.03c-0.01,-0.01 -0.02,-0.02 -0.03,-0.03c-0.02,-0.01 -0.03,-0.02 -0.04,-0.03c-0.01,-0.01 -0.02,-0.02 -0.03,-0.03c-0.01,-0.01 -0.02,-0.02 -0.04,-0.03c-0.01,-0.01 -0.02,-0.02 -0.03,-0.03c-0.02,-0.01 -0.03,-0.01 -0.04,-0.02c-0.01,-0.01 -0.03,-0.02 -0.04,-0.02c-0.01,-0.01 -0.03,-0.02 -0.04,-0.02c-0.01,-0.01 -0.03,-0.02 -0.04,-0.02c-0.02,-0.01 -0.03,-0.01 -0.04,-0.02c-0.02,0 -0.03,-0.01 -0.05,-0.01c-0.01,-0.01 -0.03,-0.01 -0.04,-0.01c-0.01,-0.01 -0.03,-0.01 -0.04,-0.01c-0.02,-0.01 -0.03,-0.01 -0.05,-0.01c-0.01,0 -0.03,-0.01 -0.04,-0.01c-0.02,0 -0.03,0 -0.05,0c-0.01,0 -0.03,0 -0.04,0c-0.02,0 -0.03,0 -0.05,0c-0.01,0 -0.03,0 -0.04,0c-0.02,0 -0.03,0.01 -0.05,0.01c-0.01,0 -0.03,0 -0.04,0.01c-0.02,0 -0.03,0 -0.05,0.01c-0.01,0 -0.02,0 -0.04,0.01c-0.01,0 -0.03,0.01 -0.04,0.01c-0.02,0.01 -0.03,0.01 -0.04,0.02c-0.02,0 -0.03,0.01 -0.04,0.02c-0.02,0 -0.03,0.01 -0.04,0.02c-0.02,0 -0.03,0.01 -0.04,0.02c-0.02,0.01 -0.03,0.01 -0.04,0.02c-0.01,0.01 -0.03,0.02 -0.04,0.03c-0.01,0.01 -0.02,0.02 -0.03,0.03c-0.02,0.01 -0.03,0.02 -0.04,0.03c-0.01,0.01 -0.02,0.02 -0.03,0.03c-0.01,0.01 -0.02,0.02 -0.03,0.03c-0.01,0.01 -0.02,0.02 -0.03,0.03c-0.01,0.02 -0.02,0.03 -0.03,0.04c-0.01,0.01 -0.02,0.02 -0.02,0.04c-0.01,0.01 -0.02,0.02 -0.03,0.03c-0.01,0.02 -0.01,0.03 -0.02,0.04c-0.01,0.02 -0.01,0.03 -0.02,0.04c-0.01,0.02 -0.01,0.03 -0.02,0.04c0,0.02 -0.01,0.03 -0.02,0.05c0,0.01 -0.01,0.02 -0.01,0.04c0,0.01 -0.01,0.03 -0.01,0.04c-0.01,0.02 -0.01,0.03 -0.01,0.05c0,0.01 -0.01,0.03 -0.01,0.04c0,0.02 0,0.03 0,0.05c-0.01,0.01 -0.01,0.03 -0.01,0.04c0,0.02 0,0.03 0,0.04v3.86c0,0.02 0,0.03 0,0.05c0,0.01 0,0.03 0.01,0.04c0,0.02 0,0.03 0,0.05c0,0.01 0.01,0.03 0.01,0.04c0,0.02 0,0.03 0.01,0.05c0,0.01 0.01,0.03 0.01,0.04c0,0.01 0.01,0.03 0.01,0.04c0.01,0.02 0.02,0.03 0.02,0.05c0.01,0.01 0.01,0.02 0.02,0.04c0.01,0.01 0.01,0.02 0.02,0.04c0.01,0.01 0.01,0.02 0.02,0.04c0.01,0.01 0.02,0.02 0.03,0.03c0,0.02 0.01,0.03 0.02,0.04c0.01,0.01 0.02,0.02 0.03,0.04c0.01,0.01 0.02,0.02 0.03,0.03c0.01,0.01 0.02,0.02 0.03,0.03c0.01,0.01 0.02,0.02 0.03,0.03c0.01,0.01 0.02,0.02 0.04,0.03c0.01,0.01 0.02,0.02 0.03,0.03c0.01,0.01 0.03,0.02 0.04,0.03c0.01,0 0.02,0.01 0.04,0.02c0.01,0.01 0.02,0.02 0.04,0.02c0.01,0.01 0.02,0.02 0.04,0.02c0.01,0.01 0.02,0.02 0.04,0.02c0.01,0.01 0.02,0.01 0.04,0.02c0.01,0 0.03,0.01 0.04,0.01c0.02,0.01 0.03,0.01 0.04,0.01c0.02,0.01 0.03,0.01 0.05,0.01c0.01,0.01 0.03,0.01 0.04,0.01c0.02,0 0.03,0.01 0.05,0.01c0.01,0 0.03,0 0.04,0c0.02,0 0.03,0 0.05,0c0.01,0 0.03,0 0.04,0c0.02,0 0.03,0 0.05,0c0.01,0 0.03,-0.01 0.04,-0.01c0.02,0 0.03,0 0.05,-0.01c0.01,0 0.03,0 0.04,-0.01c0.01,0 0.03,0 0.04,-0.01c0.02,0 0.03,-0.01 0.05,-0.01c0.01,-0.01 0.02,-0.01 0.04,-0.02c0.01,0 0.03,-0.01 0.04,-0.02c0.01,0 0.03,-0.01 0.04,-0.02c0.01,0 0.03,-0.01 0.04,-0.02c0.01,-0.01 0.02,-0.02 0.04,-0.02c0.01,-0.01 0.02,-0.02 0.03,-0.03c0.02,-0.01 0.03,-0.02 0.04,-0.03c0.01,-0.01 0.02,-0.02 0.03,-0.03c0.01,-0.01 0.02,-0.02 0.04,-0.03c0.01,-0.01 0.02,-0.02 0.03,-0.03c0.01,-0.01 0.02,-0.02 0.03,-0.03c0.01,-0.02 0.01,-0.03 0.02,-0.04c0.01,-0.01 0.02,-0.02 0.03,-0.04c0.01,-0.01 0.02,-0.02 0.02,-0.03c0.01,-0.02 0.02,-0.03 0.03,-0.04c0,-0.02 0.01,-0.03 0.02,-0.04c0,-0.02 0.01,-0.03 0.01,-0.04c0.01,-0.02 0.02,-0.03 0.02,-0.05c0.01,-0.01 0.01,-0.03 0.01,-0.04c0.01,-0.01 0.01,-0.03 0.02,-0.04c0,-0.02 0,-0.03 0.01,-0.05c0,-0.01 0,-0.03 0,-0.04c0.01,-0.02 0.01,-0.03 0.01,-0.05c0,-0.01 0,-0.03 0,-0.04c0,-0.02 0,-0.03 0,-0.05zM23.1882,16.2005h-3.84v-1.58h3.84c0.02,0 0.03,0 0.05,0c0.01,0 0.03,0 0.04,0c0.02,0 0.03,-0.01 0.05,-0.01c0.01,0 0.03,0 0.04,-0.01c0.02,0 0.03,0 0.04,-0.01c0.02,0 0.03,0 0.05,-0.01c0.01,0 0.03,-0.01 0.04,-0.01c0.01,-0.01 0.03,-0.01 0.04,-0.02c0.02,0 0.03,-0.01 0.04,-0.02c0.02,0 0.03,-0.01 0.04,-0.02c0.02,0 0.03,-0.01 0.04,-0.02c0.02,-0.01 0.03,-0.01 0.04,-0.02c0.01,-0.01 0.03,-0.02 0.04,-0.03c0.01,-0.01 0.02,-0.02 0.03,-0.03c0.02,-0.01 0.03,-0.02 0.04,-0.03c0.01,-0.01 0.02,-0.02 0.03,-0.03c0.01,-0.01 0.02,-0.02 0.03,-0.03c0.01,-0.01 0.02,-0.02 0.03,-0.03c0.01,-0.02 0.02,-0.03 0.03,-0.04c0.01,-0.01 0.02,-0.02 0.02,-0.04c0.01,-0.01 0.02,-0.02 0.03,-0.03c0.01,-0.02 0.01,-0.03 0.02,-0.04c0.01,-0.02 0.01,-0.03 0.02,-0.04c0.01,-0.02 0.01,-0.03 0.02,-0.04c0,-0.02 0.01,-0.03 0.01,-0.05c0.01,-0.01 0.01,-0.02 0.02,-0.04c0,-0.01 0.01,-0.03 0.01,-0.04c0,-0.02 0.01,-0.03 0.01,-0.05c0,-0.01 0.01,-0.03 0.01,-0.04c0,-0.02 0,-0.03 0,-0.05c0.01,-0.01 0.01,-0.03 0.01,-0.04c0,-0.02 0,-0.03 0,-0.05c0,-0.01 0,-0.02 0,-0.04c0,-0.01 0,-0.03 -0.01,-0.04c0,-0.02 0,-0.03 0,-0.05c0,-0.01 -0.01,-0.03 -0.01,-0.04c0,-0.02 -0.01,-0.03 -0.01,-0.05c0,-0.01 -0.01,-0.03 -0.01,-0.04c-0.01,-0.02 -0.01,-0.03 -0.02,-0.04c0,-0.02 -0.01,-0.03 -0.01,-0.05c-0.01,-0.01 -0.01,-0.02 -0.02,-0.04c-0.01,-0.01 -0.01,-0.02 -0.02,-0.04c-0.01,-0.01 -0.01,-0.02 -0.02,-0.04c-0.01,-0.01 -0.02,-0.02 -0.03,-0.03c0,-0.02 -0.01,-0.03 -0.02,-0.04c-0.01,-0.01 -0.02,-0.02 -0.03,-0.04c-0.01,-0.01 -0.02,-0.02 -0.03,-0.03c-0.01,-0.01 -0.02,-0.02 -0.03,-0.03c-0.01,-0.01 -0.02,-0.02 -0.03,-0.03c-0.01,-0.01 -0.02,-0.02 -0.04,-0.03c-0.01,-0.01 -0.02,-0.02 -0.03,-0.03c-0.01,-0.01 -0.03,-0.02 -0.04,-0.03c-0.01,-0.01 -0.02,-0.01 -0.04,-0.02c-0.01,-0.01 -0.02,-0.02 -0.04,-0.02c-0.01,-0.01 -0.02,-0.02 -0.04,-0.02c-0.01,-0.01 -0.02,-0.02 -0.04,-0.02c-0.01,-0.01 -0.03,-0.01 -0.04,-0.02c-0.01,0 -0.03,-0.01 -0.04,-0.01c-0.02,-0.01 -0.03,-0.01 -0.05,-0.01c-0.01,-0.01 -0.02,-0.01 -0.04,-0.01c-0.01,-0.01 -0.03,-0.01 -0.04,-0.01c-0.02,0 -0.03,-0.01 -0.05,-0.01c-0.01,0 -0.03,0 -0.04,0c-0.02,0 -0.03,0 -0.05,0h-2.86l2.29,-2.22c0.01,-0.01 0.02,-0.03 0.03,-0.04c0.01,-0.01 0.02,-0.02 0.03,-0.03c0.01,-0.01 0.02,-0.02 0.03,-0.04c0,-0.01 0.01,-0.02 0.02,-0.03c0.01,-0.01 0.02,-0.03 0.03,-0.04c0,-0.01 0.01,-0.03 0.02,-0.04c0.01,-0.01 0.01,-0.02 0.02,-0.04c0.01,-0.01 0.01,-0.03 0.02,-0.04c0,-0.01 0.01,-0.03 0.02,-0.04c0,-0.01 0.01,-0.03 0.01,-0.04c0,-0.02 0.01,-0.03 0.01,-0.05c0.01,-0.01 0.01,-0.03 0.01,-0.04c0.01,-0.01 0.01,-0.03 0.01,-0.04c0,-0.02 0.01,-0.03 0.01,-0.05c0,-0.01 0,-0.03 0,-0.04c0,-0.02 0,-0.03 0,-0.05c0,-0.01 0,-0.03 0,-0.04c0,-0.02 0,-0.03 0,-0.05c0,-0.01 0,-0.03 0,-0.04c-0.01,-0.02 -0.01,-0.03 -0.01,-0.05c0,-0.01 -0.01,-0.03 -0.01,-0.04c0,-0.02 -0.01,-0.03 -0.01,-0.05c-0.01,-0.01 -0.01,-0.02 -0.02,-0.04c0,-0.01 -0.01,-0.03 -0.01,-0.04c-0.01,-0.01 -0.01,-0.03 -0.02,-0.04c-0.01,-0.02 -0.01,-0.03 -0.02,-0.04c-0.01,-0.02 -0.01,-0.03 -0.02,-0.04c-0.01,-0.01 -0.02,-0.03 -0.02,-0.04c-0.01,-0.01 -0.02,-0.02 -0.03,-0.04c-0.01,-0.01 -0.02,-0.02 -0.03,-0.03c-0.01,-0.01 -0.02,-0.03 -0.03,-0.04c-0.01,-0.01 -0.02,-0.02 -0.03,-0.03c-0.01,-0.01 -0.02,-0.02 -0.03,-0.03c-0.01,-0.01 -0.02,-0.02 -0.03,-0.03c-0.01,-0.01 -0.02,-0.02 -0.04,-0.03c-0.01,-0.01 -0.02,-0.02 -0.03,-0.03c-0.02,0 -0.03,-0.01 -0.04,-0.02c-0.01,-0.01 -0.03,-0.02 -0.04,-0.02c-0.01,-0.01 -0.03,-0.02 -0.04,-0.02c-0.01,-0.01 -0.03,-0.02 -0.04,-0.02c-0.01,-0.01 -0.03,-0.01 -0.04,-0.02c-0.02,-0.01 -0.03,-0.01 -0.04,-0.01c-0.02,-0.01 -0.03,-0.01 -0.05,-0.02c-0.01,0 -0.03,0 -0.04,-0.01c-0.02,0 -0.03,0 -0.05,-0.01c-0.01,0 -0.03,0 -0.04,0c-0.02,0 -0.03,-0.01 -0.05,-0.01c-0.01,0 -0.03,0 -0.04,0c-0.02,0 -0.03,0 -0.05,0c-0.01,0 -0.03,0 -0.04,0.01c-0.02,0 -0.03,0 -0.04,0c-0.02,0 -0.03,0 -0.05,0.01c-0.01,0 -0.03,0 -0.04,0.01c-0.02,0 -0.03,0 -0.05,0.01c-0.01,0 -0.03,0.01 -0.04,0.01c-0.01,0.01 -0.03,0.01 -0.04,0.02c-0.02,0 -0.03,0.01 -0.04,0.01c-0.02,0.01 -0.03,0.02 -0.04,0.02c-0.02,0.01 -0.03,0.02 -0.04,0.03c-0.02,0 -0.03,0.01 -0.04,0.02c-0.01,0.01 -0.03,0.02 -0.04,0.02c-0.01,0.01 -0.02,0.02 -0.03,0.03c-0.02,0.01 -0.03,0.02 -0.04,0.03c-0.01,0.01 -0.02,0.02 -0.03,0.03l-2.9,2.82l-2.84,-2.81c-0.36,-0.36 -0.94,-0.36 -1.29,0c-0.01,0.01 -0.02,0.02 -0.03,0.03c-0.01,0.02 -0.02,0.03 -0.03,0.04c-0.01,0.01 -0.02,0.02 -0.03,0.03c-0.01,0.02 -0.02,0.03 -0.02,0.04c-0.01,0.01 -0.02,0.03 -0.03,0.04c-0.01,0.01 -0.01,0.03 -0.02,0.04c-0.01,0.01 -0.01,0.03 -0.02,0.04c-0.01,0.01 -0.01,0.03 -0.02,0.04c0,0.01 -0.01,0.03 -0.01,0.04c-0.01,0.02 -0.01,0.03 -0.02,0.04c0,0.02 -0.01,0.03 -0.01,0.05c0,0.01 -0.01,0.03 -0.01,0.04c0,0.02 -0.01,0.03 -0.01,0.05c0,0.01 0,0.03 0,0.04c0,0.02 -0.01,0.03 -0.01,0.05c0,0.01 0,0.03 0,0.04c0,0.02 0,0.03 0,0.05c0.01,0.01 0.01,0.03 0.01,0.04c0,0.02 0,0.03 0,0.05c0.01,0.01 0.01,0.03 0.01,0.04c0,0.01 0.01,0.03 0.01,0.04c0.01,0.02 0.01,0.03 0.01,0.05c0.01,0.01 0.01,0.03 0.02,0.04c0,0.01 0.01,0.03 0.01,0.04c0.01,0.02 0.02,0.03 0.02,0.04c0.01,0.02 0.02,0.03 0.02,0.04c0.01,0.02 0.02,0.03 0.03,0.04c0,0.01 0.01,0.03 0.02,0.04c0.01,0.01 0.02,0.02 0.03,0.04c0.01,0.01 0.01,0.02 0.02,0.03c0.01,0.01 0.02,0.02 0.03,0.04c0.01,0.01 0.02,0.02 0.03,0.03l2.25,2.23h-2.89c-0.02,0 -0.03,0 -0.04,0c-0.02,0 -0.03,0 -0.05,0c-0.01,0 -0.03,0 -0.04,0.01c-0.02,0 -0.03,0 -0.05,0c-0.01,0.01 -0.03,0.01 -0.04,0.01c-0.02,0.01 -0.03,0.01 -0.05,0.02c-0.01,0 -0.02,0.01 -0.04,0.01c-0.01,0.01 -0.03,0.01 -0.04,0.02c-0.01,0 -0.03,0.01 -0.04,0.02c-0.02,0 -0.03,0.01 -0.04,0.02c-0.02,0 -0.03,0.01 -0.04,0.02c-0.01,0.01 -0.03,0.01 -0.04,0.02c-0.01,0.01 -0.02,0.02 -0.04,0.03c-0.01,0.01 -0.02,0.02 -0.03,0.03c-0.01,0 -0.02,0.01 -0.04,0.02c-0.01,0.01 -0.02,0.02 -0.03,0.04c-0.01,0.01 -0.02,0.02 -0.03,0.03c-0.01,0.01 -0.02,0.02 -0.03,0.03c-0.01,0.01 -0.02,0.03 -0.03,0.04c-0.01,0.01 -0.01,0.02 -0.02,0.03c-0.01,0.02 -0.02,0.03 -0.03,0.04c0,0.02 -0.01,0.03 -0.02,0.04c-0.01,0.01 -0.01,0.03 -0.02,0.04c0,0.02 -0.01,0.03 -0.02,0.04c0,0.02 -0.01,0.03 -0.01,0.04c-0.01,0.02 -0.01,0.03 -0.02,0.05c0,0.01 -0.01,0.03 -0.01,0.04c0,0.02 -0.01,0.03 -0.01,0.04c0,0.02 0,0.03 -0.01,0.05c0,0.01 0,0.03 0,0.04c0,0.02 0,0.03 -0.01,0.05c0,0.01 0,0.03 0,0.04c0,0.02 0,0.03 0,0.05c0.01,0.01 0.01,0.03 0.01,0.04c0,0.02 0,0.03 0,0.05c0.01,0.01 0.01,0.03 0.01,0.04c0,0.02 0.01,0.03 0.01,0.05c0,0.01 0.01,0.03 0.01,0.04c0.01,0.01 0.01,0.03 0.02,0.04c0,0.02 0.01,0.03 0.01,0.04c0.01,0.02 0.02,0.03 0.02,0.05c0.01,0.01 0.01,0.02 0.02,0.04c0.01,0.01 0.02,0.02 0.02,0.03c0.01,0.02 0.02,0.03 0.03,0.04c0.01,0.02 0.01,0.03 0.02,0.04c0.01,0.01 0.02,0.02 0.03,0.03c0.01,0.02 0.02,0.03 0.03,0.04c0.01,0.01 0.02,0.02 0.03,0.03c0.01,0.01 0.02,0.02 0.03,0.03c0.02,0.01 0.03,0.02 0.04,0.03c0.01,0.01 0.02,0.02 0.03,0.03c0.02,0.01 0.03,0.02 0.04,0.03c0.01,0 0.03,0.01 0.04,0.02c0.01,0.01 0.02,0.01 0.04,0.02c0.01,0.01 0.02,0.02 0.04,0.02c0.01,0.01 0.03,0.01 0.04,0.02c0.01,0.01 0.03,0.01 0.04,0.02c0.02,0 0.03,0.01 0.04,0.01c0.02,0 0.03,0.01 0.05,0.01c0.01,0.01 0.03,0.01 0.04,0.01c0.02,0.01 0.03,0.01 0.05,0.01c0.01,0 0.03,0 0.04,0.01c0.02,0 0.03,0 0.05,0c0.01,0 0.02,0 0.04,0h3.84v1.58h-3.84c-0.02,0 -0.03,0 -0.04,0c-0.02,0 -0.03,0 -0.05,0.01c-0.01,0 -0.03,0 -0.04,0c-0.02,0 -0.03,0.01 -0.05,0.01c-0.01,0 -0.03,0 -0.04,0.01c-0.02,0 -0.03,0.01 -0.05,0.01c-0.01,0 -0.02,0.01 -0.04,0.01c-0.01,0.01 -0.03,0.02 -0.04,0.02c-0.01,0.01 -0.03,0.01 -0.04,0.02c-0.02,0.01 -0.03,0.01 -0.04,0.02c-0.02,0.01 -0.03,0.01 -0.04,0.02c-0.01,0.01 -0.03,0.02 -0.04,0.03c-0.01,0 -0.02,0.01 -0.04,0.02c-0.01,0.01 -0.02,0.02 -0.03,0.03c-0.01,0.01 -0.02,0.02 -0.04,0.03c-0.01,0.01 -0.02,0.02 -0.03,0.03c-0.01,0.01 -0.02,0.02 -0.03,0.03c-0.01,0.01 -0.02,0.02 -0.03,0.04c-0.01,0.01 -0.02,0.02 -0.03,0.03c-0.01,0.01 -0.01,0.03 -0.02,0.04c-0.01,0.01 -0.02,0.02 -0.03,0.04c0,0.01 -0.01,0.02 -0.02,0.04c-0.01,0.01 -0.01,0.02 -0.02,0.04c0,0.01 -0.01,0.02 -0.02,0.04c0,0.01 -0.01,0.02 -0.01,0.04c-0.01,0.01 -0.01,0.03 -0.02,0.04c0,0.02 -0.01,0.03 -0.01,0.04c0,0.02 -0.01,0.03 -0.01,0.05c0,0.01 0,0.03 -0.01,0.04c0,0.02 0,0.03 0,0.05c0,0.01 0,0.03 -0.01,0.04c0,0.02 0,0.03 0,0.05c0,0.01 0,0.03 0,0.04c0.01,0.02 0.01,0.03 0.01,0.05c0,0.01 0,0.03 0,0.04c0.01,0.02 0.01,0.03 0.01,0.05c0,0.01 0.01,0.03 0.01,0.04c0,0.01 0.01,0.03 0.01,0.04c0.01,0.02 0.01,0.03 0.02,0.05c0,0.01 0.01,0.02 0.01,0.04c0.01,0.01 0.02,0.03 0.02,0.04c0.01,0.01 0.01,0.03 0.02,0.04c0.01,0.01 0.02,0.03 0.02,0.04c0.01,0.01 0.02,0.02 0.03,0.04c0.01,0.01 0.01,0.02 0.02,0.03c0.01,0.02 0.02,0.03 0.03,0.04c0.01,0.01 0.02,0.02 0.03,0.03c0.01,0.01 0.02,0.02 0.03,0.04c0.01,0.01 0.02,0.02 0.03,0.03c0.02,0.01 0.03,0.02 0.04,0.03c0.01,0.01 0.02,0.01 0.03,0.02c0.02,0.01 0.03,0.02 0.04,0.03c0.01,0.01 0.03,0.02 0.04,0.02c0.01,0.01 0.02,0.02 0.04,0.03c0.01,0 0.02,0.01 0.04,0.02c0.01,0 0.03,0.01 0.04,0.01c0.01,0.01 0.03,0.02 0.04,0.02c0.02,0.01 0.03,0.01 0.04,0.01c0.02,0.01 0.03,0.01 0.05,0.02c0.01,0 0.03,0 0.04,0.01c0.02,0 0.03,0 0.05,0c0.01,0.01 0.03,0.01 0.04,0.01c0.02,0 0.03,0 0.05,0c0.01,0 0.02,0 0.04,0h3.84v1.97c0,0.51 0.41,0.92 0.92,0.92c0.51,0 0.92,-0.41 0.92,-0.92v-1.97h3.84c0.02,0 0.03,0 0.05,0c0.01,0 0.03,0 0.04,0c0.02,0 0.03,0 0.04,-0.01c0.02,0 0.03,0 0.05,0c0.01,-0.01 0.03,-0.01 0.04,-0.01c0.02,-0.01 0.03,-0.01 0.05,-0.02c0.01,0 0.03,0 0.04,-0.01c0.01,0 0.03,-0.01 0.04,-0.02c0.02,0 0.03,-0.01 0.04,-0.01c0.02,-0.01 0.03,-0.02 0.04,-0.02c0.02,-0.01 0.03,-0.02 0.04,-0.03c0.01,0 0.03,-0.01 0.04,-0.02c0.01,-0.01 0.02,-0.02 0.04,-0.03c0.01,-0.01 0.02,-0.01 0.03,-0.02c0.01,-0.01 0.02,-0.02 0.04,-0.03c0.01,-0.01 0.02,-0.02 0.03,-0.03c0.01,-0.02 0.02,-0.03 0.03,-0.04c0.01,-0.01 0.02,-0.02 0.03,-0.03c0.01,-0.01 0.02,-0.02 0.03,-0.04c0.01,-0.01 0.01,-0.02 0.02,-0.03c0.01,-0.02 0.02,-0.03 0.03,-0.04c0,-0.01 0.01,-0.03 0.02,-0.04c0.01,-0.01 0.01,-0.03 0.02,-0.04c0.01,-0.01 0.01,-0.03 0.02,-0.04c0,-0.02 0.01,-0.03 0.01,-0.04c0.01,-0.02 0.01,-0.03 0.02,-0.05c0,-0.01 0.01,-0.03 0.01,-0.04c0,-0.01 0.01,-0.03 0.01,-0.04c0,-0.02 0,-0.03 0.01,-0.05c0,-0.01 0,-0.03 0,-0.04c0,-0.02 0.01,-0.03 0.01,-0.05c0,-0.01 0,-0.03 0,-0.04c0,-0.02 0,-0.03 0,-0.05c0,-0.01 -0.01,-0.03 -0.01,-0.04c0,-0.02 0,-0.03 0,-0.05c-0.01,-0.01 -0.01,-0.03 -0.01,-0.04c0,-0.02 -0.01,-0.03 -0.01,-0.05c0,-0.01 -0.01,-0.02 -0.01,-0.04c-0.01,-0.01 -0.01,-0.03 -0.02,-0.04c0,-0.02 -0.01,-0.03 -0.01,-0.04c-0.01,-0.02 -0.01,-0.03 -0.02,-0.04c-0.01,-0.02 -0.01,-0.03 -0.02,-0.04c-0.01,-0.02 -0.02,-0.03 -0.02,-0.04c-0.01,-0.02 -0.02,-0.03 -0.03,-0.04c-0.01,-0.01 -0.01,-0.03 -0.02,-0.04c-0.01,-0.01 -0.02,-0.02 -0.03,-0.03c-0.01,-0.02 -0.02,-0.03 -0.03,-0.04c-0.01,-0.01 -0.02,-0.02 -0.03,-0.03c-0.01,-0.01 -0.02,-0.02 -0.03,-0.03c-0.02,-0.01 -0.03,-0.02 -0.04,-0.03c-0.01,-0.01 -0.02,-0.02 -0.03,-0.03c-0.02,-0.01 -0.03,-0.02 -0.04,-0.02c-0.01,-0.01 -0.03,-0.02 -0.04,-0.03c-0.01,-0.01 -0.02,-0.01 -0.04,-0.02c-0.01,-0.01 -0.02,-0.01 -0.04,-0.02c-0.01,-0.01 -0.02,-0.01 -0.04,-0.02c-0.01,0 -0.03,-0.01 -0.04,-0.02c-0.01,0 -0.03,-0.01 -0.04,-0.01c-0.02,0 -0.03,-0.01 -0.05,-0.01c-0.01,-0.01 -0.03,-0.01 -0.04,-0.01c-0.02,0 -0.03,-0.01 -0.05,-0.01c-0.01,0 -0.02,0 -0.04,0c-0.01,-0.01 -0.03,-0.01 -0.04,-0.01c-0.02,0 -0.03,0 -0.05,0z"></path><path id="路径 2" fill-rule="evenodd" style="fill:#FC4956" opacity="1" d="M27.2382,7.5505v4.36c-1.18,6.02 -5.44,10.95 -11.08,13.06h-6.72v-2.8c0,-0.01 0,-0.03 -0.01,-0.04c0,-0.02 0,-0.03 0,-0.05c0,-0.01 0,-0.03 0,-0.04c-0.01,-0.02 -0.01,-0.03 -0.01,-0.04c-0.01,-0.02 -0.01,-0.03 -0.01,-0.05c-0.01,-0.01 -0.01,-0.03 -0.01,-0.04c-0.01,-0.02 -0.01,-0.03 -0.02,-0.04c0,-0.02 -0.01,-0.03 -0.01,-0.05c-0.01,-0.01 -0.02,-0.02 -0.02,-0.04c-0.01,-0.01 -0.02,-0.02 -0.02,-0.04c-0.01,-0.01 -0.02,-0.02 -0.02,-0.04c-0.01,-0.01 -0.02,-0.02 -0.03,-0.04c-0.01,-0.01 -0.02,-0.02 -0.02,-0.03c-0.01,-0.01 -0.02,-0.03 -0.03,-0.04c-0.01,-0.01 -0.02,-0.02 -0.03,-0.03c-0.01,-0.01 -0.02,-0.02 -0.03,-0.03c-0.01,-0.01 -0.02,-0.03 -0.04,-0.04c-0.01,-0.01 -0.02,-0.01 -0.03,-0.02c-0.01,-0.01 -0.02,-0.02 -0.04,-0.03c-0.01,-0.01 -0.02,-0.02 -0.03,-0.03c-0.01,-0.01 -0.03,-0.01 -0.04,-0.02c-0.01,-0.01 -0.03,-0.02 -0.04,-0.02c-0.01,-0.01 -0.03,-0.02 -0.04,-0.02c-0.01,-0.01 -0.03,-0.02 -0.04,-0.02c-0.01,-0.01 -0.03,-0.01 -0.04,-0.02c-0.02,0 -0.03,-0.01 -0.04,-0.01c-0.02,-0.01 -0.03,-0.01 -0.05,-0.02c-0.01,0 -0.03,0 -0.04,0c-0.02,-0.01 -0.03,-0.01 -0.05,-0.01c-0.01,0 -0.03,-0.01 -0.04,-0.01c-0.02,0 -0.03,0 -0.05,0c-0.01,0 -0.03,0 -0.04,0c-0.02,0 -0.03,0 -0.05,0c-0.01,0 -0.03,0 -0.04,0c-0.02,0 -0.03,0.01 -0.05,0.01c-0.01,0 -0.03,0 -0.04,0.01c-0.01,0 -0.03,0 -0.04,0c-0.02,0.01 -0.03,0.01 -0.05,0.02c-0.01,0 -0.03,0.01 -0.04,0.01c-0.01,0.01 -0.03,0.01 -0.04,0.02c-0.02,0 -0.03,0.01 -0.04,0.02c-0.02,0 -0.03,0.01 -0.04,0.02c-0.02,0 -0.03,0.01 -0.04,0.02c-0.02,0.01 -0.03,0.01 -0.04,0.02c-0.01,0.01 -0.02,0.02 -0.04,0.03c-0.01,0.01 -0.02,0.02 -0.03,0.03c-0.01,0.01 -0.03,0.01 -0.04,0.02c-0.01,0.01 -0.02,0.03 -0.03,0.04c-0.01,0.01 -0.02,0.02 -0.03,0.03c-0.01,0.01 -0.02,0.02 -0.03,0.03c-0.01,0.01 -0.02,0.03 -0.03,0.04c-0.01,0.01 -0.01,0.02 -0.02,0.03c-0.01,0.02 -0.02,0.03 -0.03,0.04c0,0.02 -0.01,0.03 -0.02,0.04c-0.01,0.02 -0.01,0.03 -0.02,0.04c-0.01,0.02 -0.01,0.03 -0.02,0.04c0,0.02 -0.01,0.03 -0.01,0.05c-0.01,0.01 -0.01,0.02 -0.02,0.04c0,0.01 -0.01,0.03 -0.01,0.04c0,0.02 -0.01,0.03 -0.01,0.05c0,0.01 -0.01,0.02 -0.01,0.04c0,0.01 0,0.03 0,0.04c0,0.02 -0.01,0.03 -0.01,0.05c0,0.01 0,0.03 0,0.04v2.8h-2.2c-1.51,0 -2.74,-1.23 -2.74,-2.74v-4.46c1.49,-0.11 2.67,-1.36 2.67,-2.88c0,-1.52 -1.18,-2.77 -2.67,-2.88v-4.46c0,-1.51 1.23,-2.74 2.74,-2.74h2.2v2.79c0,0.01 0,0.03 0,0.04c0,0.02 0,0.03 0.01,0.05c0,0.01 0,0.03 0,0.04c0,0.01 0.01,0.03 0.01,0.04c0,0.02 0,0.03 0.01,0.05c0,0.01 0.01,0.03 0.01,0.04c0,0.02 0.01,0.03 0.01,0.04c0.01,0.02 0.02,0.03 0.02,0.05c0.01,0.01 0.01,0.02 0.02,0.04c0.01,0.01 0.01,0.02 0.02,0.04c0.01,0.01 0.01,0.02 0.02,0.04c0.01,0.01 0.02,0.02 0.03,0.03c0,0.02 0.01,0.03 0.02,0.04c0.01,0.01 0.02,0.03 0.03,0.04c0.01,0.01 0.02,0.02 0.03,0.03c0.01,0.01 0.02,0.02 0.03,0.03c0.01,0.01 0.02,0.02 0.03,0.03c0.01,0.01 0.02,0.02 0.04,0.03c0.01,0.01 0.02,0.02 0.03,0.03c0.01,0.01 0.03,0.02 0.04,0.03c0.01,0.01 0.02,0.01 0.04,0.02c0.01,0.01 0.02,0.02 0.04,0.02c0.01,0.01 0.02,0.02 0.04,0.02c0.01,0.01 0.02,0.02 0.04,0.02c0.01,0.01 0.02,0.01 0.04,0.02c0.01,0 0.03,0.01 0.04,0.01c0.02,0.01 0.03,0.01 0.04,0.01c0.02,0.01 0.03,0.01 0.05,0.01c0.01,0.01 0.03,0.01 0.04,0.01c0.02,0 0.03,0.01 0.05,0.01c0.01,0 0.03,0 0.04,0c0.02,0 0.03,0 0.05,0c0.01,0 0.03,0 0.04,0c0.02,0 0.03,0 0.05,0c0.01,0 0.03,-0.01 0.04,-0.01c0.02,0 0.03,0 0.05,-0.01c0.01,0 0.03,0 0.04,-0.01c0.01,0 0.03,0 0.04,-0.01c0.02,0 0.03,-0.01 0.05,-0.01c0.01,-0.01 0.02,-0.01 0.04,-0.02c0.01,0 0.03,-0.01 0.04,-0.02c0.01,0 0.03,-0.01 0.04,-0.02c0.01,0 0.03,-0.01 0.04,-0.02c0.01,-0.01 0.02,-0.01 0.04,-0.02c0.01,-0.01 0.02,-0.02 0.03,-0.03c0.02,-0.01 0.03,-0.02 0.04,-0.03c0.01,-0.01 0.02,-0.02 0.03,-0.03c0.01,-0.01 0.02,-0.02 0.04,-0.03c0.01,-0.01 0.02,-0.02 0.03,-0.03c0.01,-0.01 0.02,-0.02 0.03,-0.03c0.01,-0.01 0.01,-0.03 0.02,-0.04c0.01,-0.01 0.02,-0.02 0.03,-0.04c0.01,-0.01 0.02,-0.02 0.02,-0.03c0.01,-0.02 0.02,-0.03 0.03,-0.04c0,-0.02 0.01,-0.03 0.02,-0.04c0,-0.02 0.01,-0.03 0.01,-0.04c0.01,-0.02 0.02,-0.03 0.02,-0.05c0.01,-0.01 0.01,-0.02 0.01,-0.04c0.01,-0.01 0.01,-0.03 0.02,-0.04c0,-0.02 0,-0.03 0.01,-0.05c0,-0.01 0,-0.03 0,-0.04c0.01,-0.01 0.01,-0.03 0.01,-0.04c0,-0.02 0,-0.03 0,-0.05c0,-0.01 0,-0.03 0,-0.04v-2.79h15.07c1.51,0 2.74,1.23 2.74,2.74zM9.4282,12.9505c0,-0.01 0,-0.02 0,-0.04c0,-0.01 0,-0.03 0,-0.04c0,-0.02 0,-0.03 -0.01,-0.05c0,-0.01 0,-0.03 0,-0.04c-0.01,-0.02 -0.01,-0.03 -0.01,-0.05c-0.01,-0.01 -0.01,-0.03 -0.02,-0.04c0,-0.02 0,-0.03 -0.01,-0.04c0,-0.02 -0.01,-0.03 -0.02,-0.05c0,-0.01 -0.01,-0.02 -0.01,-0.04c-0.01,-0.01 -0.02,-0.02 -0.02,-0.04c-0.01,-0.01 -0.02,-0.02 -0.03,-0.04c0,-0.01 -0.01,-0.02 -0.02,-0.03c-0.01,-0.02 -0.02,-0.03 -0.03,-0.04c-0.01,-0.01 -0.01,-0.02 -0.02,-0.04c-0.01,-0.01 -0.02,-0.02 -0.03,-0.03c-0.01,-0.01 -0.02,-0.02 -0.03,-0.03c-0.02,-0.01 -0.03,-0.02 -0.04,-0.03c-0.01,-0.01 -0.02,-0.02 -0.03,-0.03c-0.01,-0.01 -0.02,-0.02 -0.04,-0.03c-0.01,-0.01 -0.02,-0.02 -0.03,-0.03c-0.02,-0.01 -0.03,-0.01 -0.04,-0.02c-0.01,-0.01 -0.03,-0.02 -0.04,-0.02c-0.01,-0.01 -0.03,-0.02 -0.04,-0.02c-0.01,-0.01 -0.03,-0.02 -0.04,-0.02c-0.02,-0.01 -0.03,-0.01 -0.04,-0.02c-0.02,0 -0.03,-0.01 -0.05,-0.01c-0.01,-0.01 -0.03,-0.01 -0.04,-0.01c-0.01,-0.01 -0.03,-0.01 -0.04,-0.01c-0.02,-0.01 -0.03,-0.01 -0.05,-0.01c-0.01,0 -0.03,-0.01 -0.04,-0.01c-0.02,0 -0.03,0 -0.05,0c-0.01,0 -0.03,0 -0.04,0c-0.02,0 -0.03,0 -0.05,0c-0.01,0 -0.03,0 -0.04,0c-0.02,0 -0.03,0.01 -0.05,0.01c-0.01,0 -0.03,0 -0.04,0.01c-0.02,0 -0.03,0 -0.05,0.01c-0.01,0 -0.02,0 -0.04,0.01c-0.01,0 -0.03,0.01 -0.04,0.01c-0.02,0.01 -0.03,0.01 -0.04,0.02c-0.02,0 -0.03,0.01 -0.04,0.02c-0.02,0 -0.03,0.01 -0.04,0.02c-0.02,0 -0.03,0.01 -0.04,0.02c-0.02,0.01 -0.03,0.01 -0.04,0.02c-0.01,0.01 -0.03,0.02 -0.04,0.03c-0.01,0.01 -0.02,0.02 -0.03,0.03c-0.02,0.01 -0.03,0.02 -0.04,0.03c-0.01,0.01 -0.02,0.02 -0.03,0.03c-0.01,0.01 -0.02,0.02 -0.03,0.03c-0.01,0.01 -0.02,0.02 -0.03,0.03c-0.01,0.02 -0.02,0.03 -0.03,0.04c-0.01,0.01 -0.02,0.02 -0.02,0.04c-0.01,0.01 -0.02,0.02 -0.03,0.03c-0.01,0.02 -0.01,0.03 -0.02,0.04c-0.01,0.02 -0.01,0.03 -0.02,0.04c-0.01,0.02 -0.01,0.03 -0.02,0.04c0,0.02 -0.01,0.03 -0.02,0.05c0,0.01 -0.01,0.02 -0.01,0.04c0,0.01 -0.01,0.03 -0.01,0.04c-0.01,0.02 -0.01,0.03 -0.01,0.05c0,0.01 -0.01,0.03 -0.01,0.04c0,0.02 0,0.03 0,0.05c-0.01,0.01 -0.01,0.03 -0.01,0.04c0,0.02 0,0.03 0,0.04v3.86c0,0.02 0,0.03 0,0.05c0,0.01 0,0.03 0.01,0.04c0,0.02 0,0.03 0,0.05c0,0.01 0.01,0.03 0.01,0.04c0,0.02 0,0.03 0.01,0.05c0,0.01 0.01,0.03 0.01,0.04c0,0.01 0.01,0.03 0.01,0.04c0.01,0.02 0.02,0.03 0.02,0.05c0.01,0.01 0.01,0.02 0.02,0.04c0.01,0.01 0.01,0.02 0.02,0.04c0.01,0.01 0.01,0.02 0.02,0.04c0.01,0.01 0.02,0.02 0.03,0.03c0,0.02 0.01,0.03 0.02,0.04c0.01,0.01 0.02,0.02 0.03,0.04c0.01,0.01 0.02,0.02 0.03,0.03c0.01,0.01 0.02,0.02 0.03,0.03c0.01,0.01 0.02,0.02 0.03,0.03c0.01,0.01 0.02,0.02 0.04,0.03c0.01,0.01 0.02,0.02 0.03,0.03c0.01,0.01 0.03,0.02 0.04,0.03c0.01,0 0.02,0.01 0.04,0.02c0.01,0.01 0.02,0.02 0.04,0.02c0.01,0.01 0.02,0.02 0.04,0.02c0.01,0.01 0.02,0.02 0.04,0.02c0.01,0.01 0.02,0.01 0.04,0.02c0.01,0 0.03,0.01 0.04,0.01c0.02,0.01 0.03,0.01 0.04,0.01c0.02,0.01 0.03,0.01 0.05,0.01c0.01,0.01 0.03,0.01 0.04,0.01c0.02,0 0.03,0.01 0.05,0.01c0.01,0 0.03,0 0.04,0c0.02,0 0.03,0 0.05,0c0.01,0 0.03,0 0.04,0c0.02,0 0.03,0 0.05,0c0.01,0 0.03,-0.01 0.04,-0.01c0.02,0 0.03,0 0.05,-0.01c0.01,0 0.03,0 0.04,-0.01c0.01,0 0.03,0 0.04,-0.01c0.02,0 0.03,-0.01 0.05,-0.01c0.01,-0.01 0.02,-0.01 0.04,-0.02c0.01,0 0.03,-0.01 0.04,-0.02c0.01,0 0.03,-0.01 0.04,-0.02c0.01,0 0.03,-0.01 0.04,-0.02c0.01,-0.01 0.02,-0.02 0.04,-0.02c0.01,-0.01 0.02,-0.02 0.03,-0.03c0.02,-0.01 0.03,-0.02 0.04,-0.03c0.01,-0.01 0.02,-0.02 0.03,-0.03c0.01,-0.01 0.02,-0.02 0.04,-0.03c0.01,-0.01 0.02,-0.02 0.03,-0.03c0.01,-0.01 0.02,-0.02 0.03,-0.03c0.01,-0.02 0.01,-0.03 0.02,-0.04c0.01,-0.01 0.02,-0.02 0.03,-0.04c0.01,-0.01 0.02,-0.02 0.02,-0.03c0.01,-0.02 0.02,-0.03 0.03,-0.04c0,-0.02 0.01,-0.03 0.02,-0.04c0,-0.02 0.01,-0.03 0.01,-0.04c0.01,-0.02 0.02,-0.03 0.02,-0.05c0.01,-0.01 0.01,-0.03 0.01,-0.04c0.01,-0.01 0.01,-0.03 0.02,-0.04c0,-0.02 0,-0.03 0.01,-0.05c0,-0.01 0,-0.03 0,-0.04c0.01,-0.02 0.01,-0.03 0.01,-0.05c0,-0.01 0,-0.03 0,-0.04c0,-0.02 0,-0.03 0,-0.05zM23.1882,16.2005h-3.84v-1.58h3.84c0.02,0 0.03,0 0.05,0c0.01,0 0.03,0 0.04,0c0.02,0 0.03,-0.01 0.05,-0.01c0.01,0 0.03,0 0.04,-0.01c0.02,0 0.03,0 0.04,-0.01c0.02,0 0.03,0 0.05,-0.01c0.01,0 0.03,-0.01 0.04,-0.01c0.01,-0.01 0.03,-0.01 0.04,-0.02c0.02,0 0.03,-0.01 0.04,-0.02c0.02,0 0.03,-0.01 0.04,-0.02c0.02,0 0.03,-0.01 0.04,-0.02c0.02,-0.01 0.03,-0.01 0.04,-0.02c0.01,-0.01 0.03,-0.02 0.04,-0.03c0.01,-0.01 0.02,-0.02 0.03,-0.03c0.02,-0.01 0.03,-0.02 0.04,-0.03c0.01,-0.01 0.02,-0.02 0.03,-0.03c0.01,-0.01 0.02,-0.02 0.03,-0.03c0.01,-0.01 0.02,-0.02 0.03,-0.03c0.01,-0.02 0.02,-0.03 0.03,-0.04c0.01,-0.01 0.02,-0.02 0.02,-0.04c0.01,-0.01 0.02,-0.02 0.03,-0.03c0.01,-0.02 0.01,-0.03 0.02,-0.04c0.01,-0.02 0.01,-0.03 0.02,-0.04c0.01,-0.02 0.01,-0.03 0.02,-0.04c0,-0.02 0.01,-0.03 0.01,-0.05c0.01,-0.01 0.01,-0.02 0.02,-0.04c0,-0.01 0.01,-0.03 0.01,-0.04c0,-0.02 0.01,-0.03 0.01,-0.05c0,-0.01 0.01,-0.03 0.01,-0.04c0,-0.02 0,-0.03 0,-0.05c0.01,-0.01 0.01,-0.03 0.01,-0.04c0,-0.02 0,-0.03 0,-0.05c0,-0.01 0,-0.02 0,-0.04c0,-0.01 0,-0.03 -0.01,-0.04c0,-0.02 0,-0.03 0,-0.05c0,-0.01 -0.01,-0.03 -0.01,-0.04c0,-0.02 -0.01,-0.03 -0.01,-0.05c0,-0.01 -0.01,-0.03 -0.01,-0.04c-0.01,-0.02 -0.01,-0.03 -0.02,-0.04c0,-0.02 -0.01,-0.03 -0.01,-0.05c-0.01,-0.01 -0.01,-0.02 -0.02,-0.04c-0.01,-0.01 -0.01,-0.02 -0.02,-0.04c-0.01,-0.01 -0.01,-0.02 -0.02,-0.04c-0.01,-0.01 -0.02,-0.02 -0.03,-0.03c0,-0.02 -0.01,-0.03 -0.02,-0.04c-0.01,-0.01 -0.02,-0.02 -0.03,-0.04c-0.01,-0.01 -0.02,-0.02 -0.03,-0.03c-0.01,-0.01 -0.02,-0.02 -0.03,-0.03c-0.01,-0.01 -0.02,-0.02 -0.03,-0.03c-0.01,-0.01 -0.02,-0.02 -0.04,-0.03c-0.01,-0.01 -0.02,-0.02 -0.03,-0.03c-0.01,-0.01 -0.03,-0.02 -0.04,-0.03c-0.01,-0.01 -0.02,-0.01 -0.04,-0.02c-0.01,-0.01 -0.02,-0.02 -0.04,-0.02c-0.01,-0.01 -0.02,-0.02 -0.04,-0.02c-0.01,-0.01 -0.02,-0.02 -0.04,-0.02c-0.01,-0.01 -0.03,-0.01 -0.04,-0.02c-0.01,0 -0.03,-0.01 -0.04,-0.01c-0.02,-0.01 -0.03,-0.01 -0.05,-0.01c-0.01,-0.01 -0.02,-0.01 -0.04,-0.01c-0.01,-0.01 -0.03,-0.01 -0.04,-0.01c-0.02,0 -0.03,-0.01 -0.05,-0.01c-0.01,0 -0.03,0 -0.04,0c-0.02,0 -0.03,0 -0.05,0h-2.86l2.29,-2.22c0.01,-0.01 0.02,-0.03 0.03,-0.04c0.01,-0.01 0.02,-0.02 0.03,-0.03c0.01,-0.01 0.02,-0.02 0.03,-0.04c0,-0.01 0.01,-0.02 0.02,-0.03c0.01,-0.01 0.02,-0.03 0.03,-0.04c0,-0.01 0.01,-0.03 0.02,-0.04c0.01,-0.01 0.01,-0.02 0.02,-0.04c0.01,-0.01 0.01,-0.03 0.02,-0.04c0,-0.01 0.01,-0.03 0.02,-0.04c0,-0.01 0.01,-0.03 0.01,-0.04c0,-0.02 0.01,-0.03 0.01,-0.05c0.01,-0.01 0.01,-0.03 0.01,-0.04c0.01,-0.01 0.01,-0.03 0.01,-0.04c0,-0.02 0.01,-0.03 0.01,-0.05c0,-0.01 0,-0.03 0,-0.04c0,-0.02 0,-0.03 0,-0.05c0,-0.01 0,-0.03 0,-0.04c0,-0.02 0,-0.03 0,-0.05c0,-0.01 0,-0.03 0,-0.04c-0.01,-0.02 -0.01,-0.03 -0.01,-0.05c0,-0.01 -0.01,-0.03 -0.01,-0.04c0,-0.02 -0.01,-0.03 -0.01,-0.05c-0.01,-0.01 -0.01,-0.02 -0.02,-0.04c0,-0.01 -0.01,-0.03 -0.01,-0.04c-0.01,-0.01 -0.01,-0.03 -0.02,-0.04c-0.01,-0.02 -0.01,-0.03 -0.02,-0.04c-0.01,-0.02 -0.01,-0.03 -0.02,-0.04c-0.01,-0.01 -0.02,-0.03 -0.02,-0.04c-0.01,-0.01 -0.02,-0.02 -0.03,-0.04c-0.01,-0.01 -0.02,-0.02 -0.03,-0.03c-0.01,-0.01 -0.02,-0.03 -0.03,-0.04c-0.01,-0.01 -0.02,-0.02 -0.03,-0.03c-0.01,-0.01 -0.02,-0.02 -0.03,-0.03c-0.01,-0.01 -0.02,-0.02 -0.03,-0.03c-0.01,-0.01 -0.02,-0.02 -0.04,-0.03c-0.01,-0.01 -0.02,-0.02 -0.03,-0.03c-0.02,0 -0.03,-0.01 -0.04,-0.02c-0.01,-0.01 -0.03,-0.02 -0.04,-0.02c-0.01,-0.01 -0.03,-0.02 -0.04,-0.02c-0.01,-0.01 -0.03,-0.02 -0.04,-0.02c-0.01,-0.01 -0.03,-0.01 -0.04,-0.02c-0.02,-0.01 -0.03,-0.01 -0.04,-0.01c-0.02,-0.01 -0.03,-0.01 -0.05,-0.02c-0.01,0 -0.03,0 -0.04,-0.01c-0.02,0 -0.03,0 -0.05,-0.01c-0.01,0 -0.03,0 -0.04,0c-0.02,0 -0.03,-0.01 -0.05,-0.01c-0.01,0 -0.03,0 -0.04,0c-0.02,0 -0.03,0 -0.05,0c-0.01,0 -0.03,0 -0.04,0.01c-0.02,0 -0.03,0 -0.04,0c-0.02,0 -0.03,0 -0.05,0.01c-0.01,0 -0.03,0 -0.04,0.01c-0.02,0 -0.03,0 -0.05,0.01c-0.01,0 -0.03,0.01 -0.04,0.01c-0.01,0.01 -0.03,0.01 -0.04,0.02c-0.02,0 -0.03,0.01 -0.04,0.01c-0.02,0.01 -0.03,0.02 -0.04,0.02c-0.02,0.01 -0.03,0.02 -0.04,0.03c-0.02,0 -0.03,0.01 -0.04,0.02c-0.01,0.01 -0.03,0.02 -0.04,0.02c-0.01,0.01 -0.02,0.02 -0.03,0.03c-0.02,0.01 -0.03,0.02 -0.04,0.03c-0.01,0.01 -0.02,0.02 -0.03,0.03l-2.9,2.82l-2.84,-2.81c-0.36,-0.36 -0.94,-0.36 -1.29,0c-0.01,0.01 -0.02,0.02 -0.03,0.03c-0.01,0.02 -0.02,0.03 -0.03,0.04c-0.01,0.01 -0.02,0.02 -0.03,0.03c-0.01,0.02 -0.02,0.03 -0.02,0.04c-0.01,0.01 -0.02,0.03 -0.03,0.04c-0.01,0.01 -0.01,0.03 -0.02,0.04c-0.01,0.01 -0.01,0.03 -0.02,0.04c-0.01,0.01 -0.01,0.03 -0.02,0.04c0,0.01 -0.01,0.03 -0.01,0.04c-0.01,0.02 -0.01,0.03 -0.02,0.04c0,0.02 -0.01,0.03 -0.01,0.05c0,0.01 -0.01,0.03 -0.01,0.04c0,0.02 -0.01,0.03 -0.01,0.05c0,0.01 0,0.03 0,0.04c0,0.02 -0.01,0.03 -0.01,0.05c0,0.01 0,0.03 0,0.04c0,0.02 0,0.03 0,0.05c0.01,0.01 0.01,0.03 0.01,0.04c0,0.02 0,0.03 0,0.05c0.01,0.01 0.01,0.03 0.01,0.04c0,0.01 0.01,0.03 0.01,0.04c0.01,0.02 0.01,0.03 0.01,0.05c0.01,0.01 0.01,0.03 0.02,0.04c0,0.01 0.01,0.03 0.01,0.04c0.01,0.02 0.02,0.03 0.02,0.04c0.01,0.02 0.02,0.03 0.02,0.04c0.01,0.02 0.02,0.03 0.03,0.04c0,0.01 0.01,0.03 0.02,0.04c0.01,0.01 0.02,0.02 0.03,0.04c0.01,0.01 0.01,0.02 0.02,0.03c0.01,0.01 0.02,0.02 0.03,0.04c0.01,0.01 0.02,0.02 0.03,0.03l2.25,2.23h-2.89c-0.02,0 -0.03,0 -0.04,0c-0.02,0 -0.03,0 -0.05,0c-0.01,0 -0.03,0 -0.04,0.01c-0.02,0 -0.03,0 -0.05,0c-0.01,0.01 -0.03,0.01 -0.04,0.01c-0.02,0.01 -0.03,0.01 -0.05,0.02c-0.01,0 -0.02,0.01 -0.04,0.01c-0.01,0.01 -0.03,0.01 -0.04,0.02c-0.01,0 -0.03,0.01 -0.04,0.02c-0.02,0 -0.03,0.01 -0.04,0.02c-0.02,0 -0.03,0.01 -0.04,0.02c-0.01,0.01 -0.03,0.01 -0.04,0.02c-0.01,0.01 -0.02,0.02 -0.04,0.03c-0.01,0.01 -0.02,0.02 -0.03,0.03c-0.01,0 -0.02,0.01 -0.04,0.02c-0.01,0.01 -0.02,0.02 -0.03,0.04c-0.01,0.01 -0.02,0.02 -0.03,0.03c-0.01,0.01 -0.02,0.02 -0.03,0.03c-0.01,0.01 -0.02,0.03 -0.03,0.04c-0.01,0.01 -0.01,0.02 -0.02,0.03c-0.01,0.02 -0.02,0.03 -0.03,0.04c0,0.02 -0.01,0.03 -0.02,0.04c-0.01,0.01 -0.01,0.03 -0.02,0.04c0,0.02 -0.01,0.03 -0.02,0.04c0,0.02 -0.01,0.03 -0.01,0.04c-0.01,0.02 -0.01,0.03 -0.02,0.05c0,0.01 -0.01,0.03 -0.01,0.04c0,0.02 -0.01,0.03 -0.01,0.04c0,0.02 0,0.03 -0.01,0.05c0,0.01 0,0.03 0,0.04c0,0.02 0,0.03 -0.01,0.05c0,0.01 0,0.03 0,0.04c0,0.02 0,0.03 0,0.05c0.01,0.01 0.01,0.03 0.01,0.04c0,0.02 0,0.03 0,0.05c0.01,0.01 0.01,0.03 0.01,0.04c0,0.02 0.01,0.03 0.01,0.05c0,0.01 0.01,0.03 0.01,0.04c0.01,0.01 0.01,0.03 0.02,0.04c0,0.02 0.01,0.03 0.01,0.04c0.01,0.02 0.02,0.03 0.02,0.05c0.01,0.01 0.01,0.02 0.02,0.04c0.01,0.01 0.02,0.02 0.02,0.03c0.01,0.02 0.02,0.03 0.03,0.04c0.01,0.02 0.01,0.03 0.02,0.04c0.01,0.01 0.02,0.02 0.03,0.03c0.01,0.02 0.02,0.03 0.03,0.04c0.01,0.01 0.02,0.02 0.03,0.03c0.01,0.01 0.02,0.02 0.03,0.03c0.02,0.01 0.03,0.02 0.04,0.03c0.01,0.01 0.02,0.02 0.03,0.03c0.02,0.01 0.03,0.02 0.04,0.03c0.01,0 0.03,0.01 0.04,0.02c0.01,0.01 0.02,0.01 0.04,0.02c0.01,0.01 0.02,0.02 0.04,0.02c0.01,0.01 0.03,0.01 0.04,0.02c0.01,0.01 0.03,0.01 0.04,0.02c0.02,0 0.03,0.01 0.04,0.01c0.02,0 0.03,0.01 0.05,0.01c0.01,0.01 0.03,0.01 0.04,0.01c0.02,0.01 0.03,0.01 0.05,0.01c0.01,0 0.03,0 0.04,0.01c0.02,0 0.03,0 0.05,0c0.01,0 0.02,0 0.04,0h3.84v1.58h-3.84c-0.02,0 -0.03,0 -0.04,0c-0.02,0 -0.03,0 -0.05,0.01c-0.01,0 -0.03,0 -0.04,0c-0.02,0 -0.03,0.01 -0.05,0.01c-0.01,0 -0.03,0 -0.04,0.01c-0.02,0 -0.03,0.01 -0.05,0.01c-0.01,0 -0.02,0.01 -0.04,0.01c-0.01,0.01 -0.03,0.02 -0.04,0.02c-0.01,0.01 -0.03,0.01 -0.04,0.02c-0.02,0.01 -0.03,0.01 -0.04,0.02c-0.02,0.01 -0.03,0.01 -0.04,0.02c-0.01,0.01 -0.03,0.02 -0.04,0.03c-0.01,0 -0.02,0.01 -0.04,0.02c-0.01,0.01 -0.02,0.02 -0.03,0.03c-0.01,0.01 -0.02,0.02 -0.04,0.03c-0.01,0.01 -0.02,0.02 -0.03,0.03c-0.01,0.01 -0.02,0.02 -0.03,0.03c-0.01,0.01 -0.02,0.02 -0.03,0.04c-0.01,0.01 -0.02,0.02 -0.03,0.03c-0.01,0.01 -0.01,0.03 -0.02,0.04c-0.01,0.01 -0.02,0.02 -0.03,0.04c0,0.01 -0.01,0.02 -0.02,0.04c-0.01,0.01 -0.01,0.02 -0.02,0.04c0,0.01 -0.01,0.02 -0.02,0.04c0,0.01 -0.01,0.02 -0.01,0.04c-0.01,0.01 -0.01,0.03 -0.02,0.04c0,0.02 -0.01,0.03 -0.01,0.04c0,0.02 -0.01,0.03 -0.01,0.05c0,0.01 0,0.03 -0.01,0.04c0,0.02 0,0.03 0,0.05c0,0.01 0,0.03 -0.01,0.04c0,0.02 0,0.03 0,0.05c0,0.01 0,0.03 0,0.04c0.01,0.02 0.01,0.03 0.01,0.05c0,0.01 0,0.03 0,0.04c0.01,0.02 0.01,0.03 0.01,0.05c0,0.01 0.01,0.03 0.01,0.04c0,0.01 0.01,0.03 0.01,0.04c0.01,0.02 0.01,0.03 0.02,0.05c0,0.01 0.01,0.02 0.01,0.04c0.01,0.01 0.02,0.03 0.02,0.04c0.01,0.01 0.01,0.03 0.02,0.04c0.01,0.01 0.02,0.03 0.02,0.04c0.01,0.01 0.02,0.02 0.03,0.04c0.01,0.01 0.01,0.02 0.02,0.03c0.01,0.02 0.02,0.03 0.03,0.04c0.01,0.01 0.02,0.02 0.03,0.03c0.01,0.01 0.02,0.02 0.03,0.04c0.01,0.01 0.02,0.02 0.03,0.03c0.02,0.01 0.03,0.02 0.04,0.03c0.01,0.01 0.02,0.01 0.03,0.02c0.02,0.01 0.03,0.02 0.04,0.03c0.01,0.01 0.03,0.02 0.04,0.02c0.01,0.01 0.02,0.02 0.04,0.03c0.01,0 0.02,0.01 0.04,0.02c0.01,0 0.03,0.01 0.04,0.01c0.01,0.01 0.03,0.02 0.04,0.02c0.02,0.01 0.03,0.01 0.04,0.01c0.02,0.01 0.03,0.01 0.05,0.02c0.01,0 0.03,0 0.04,0.01c0.02,0 0.03,0 0.05,0c0.01,0.01 0.03,0.01 0.04,0.01c0.02,0 0.03,0 0.05,0c0.01,0 0.02,0 0.04,0h3.84v1.97c0,0.02 0,0.03 0,0.05c0,0.01 0.01,0.03 0.01,0.04c0,0.02 0,0.03 0,0.05c0.01,0.01 0.01,0.03 0.01,0.04c0,0.02 0.01,0.03 0.01,0.05c0,0.01 0.01,0.03 0.01,0.04c0.01,0.02 0.01,0.03 0.02,0.04c0,0.02 0.01,0.03 0.01,0.05c0.01,0.01 0.01,0.02 0.02,0.04c0.01,0.01 0.01,0.02 0.02,0.04c0.01,0.01 0.02,0.02 0.02,0.04c0.01,0.01 0.02,0.02 0.03,0.03c0.01,0.02 0.01,0.03 0.02,0.04c0.01,0.01 0.02,0.02 0.03,0.04c0.01,0.01 0.02,0.02 0.03,0.03c0.01,0.01 0.02,0.02 0.03,0.03c0.01,0.01 0.02,0.02 0.03,0.03c0.02,0.01 0.03,0.02 0.04,0.03c0.01,0.01 0.02,0.02 0.03,0.03c0.02,0.01 0.03,0.02 0.04,0.03c0.01,0.01 0.03,0.01 0.04,0.02c0.01,0.01 0.02,0.02 0.04,0.02c0.01,0.01 0.02,0.02 0.04,0.02c0.01,0.01 0.02,0.02 0.04,0.02c0.01,0.01 0.03,0.01 0.04,0.02c0.01,0 0.03,0.01 0.04,0.01c0.02,0.01 0.03,0.01 0.05,0.01c0.01,0.01 0.03,0.01 0.04,0.01c0.02,0.01 0.03,0.01 0.05,0.01c0.01,0 0.02,0.01 0.04,0.01c0.01,0 0.03,0 0.04,0c0.02,0 0.03,0 0.05,0c0.01,0 0.03,0 0.04,0c0.02,0 0.03,0 0.05,0c0.01,0 0.03,-0.01 0.04,-0.01c0.02,0 0.03,0 0.05,-0.01c0.01,0 0.03,0 0.04,-0.01c0.02,0 0.03,0 0.05,-0.01c0.01,0 0.02,-0.01 0.04,-0.01c0.01,-0.01 0.03,-0.01 0.04,-0.02c0.01,0 0.03,-0.01 0.04,-0.02c0.01,0 0.03,-0.01 0.04,-0.02c0.01,0 0.03,-0.01 0.04,-0.02c0.01,-0.01 0.03,-0.01 0.04,-0.02c0.01,-0.01 0.02,-0.02 0.04,-0.03c0.01,-0.01 0.02,-0.02 0.03,-0.03c0.01,-0.01 0.02,-0.02 0.03,-0.03c0.02,-0.01 0.03,-0.02 0.04,-0.03c0.01,-0.01 0.02,-0.02 0.03,-0.03c0.01,-0.01 0.02,-0.02 0.03,-0.03c0.01,-0.02 0.02,-0.03 0.03,-0.04c0,-0.01 0.01,-0.02 0.02,-0.04c0.01,-0.01 0.02,-0.02 0.03,-0.03c0,-0.02 0.01,-0.03 0.02,-0.04c0,-0.02 0.01,-0.03 0.02,-0.04c0,-0.02 0.01,-0.03 0.02,-0.04c0,-0.02 0.01,-0.03 0.01,-0.05c0.01,-0.01 0.01,-0.02 0.02,-0.04c0,-0.01 0,-0.03 0.01,-0.04c0,-0.02 0.01,-0.03 0.01,-0.05c0,-0.01 0,-0.03 0.01,-0.04c0,-0.02 0,-0.03 0,-0.05c0,-0.01 0,-0.03 0,-0.04c0.01,-0.02 0.01,-0.03 0.01,-0.05v-1.97h3.84c0.02,0 0.03,0 0.05,0c0.01,0 0.03,0 0.04,0c0.02,0 0.03,0 0.04,-0.01c0.02,0 0.03,0 0.05,0c0.01,-0.01 0.03,-0.01 0.04,-0.01c0.02,-0.01 0.03,-0.01 0.05,-0.02c0.01,0 0.03,0 0.04,-0.01c0.01,0 0.03,-0.01 0.04,-0.02c0.02,0 0.03,-0.01 0.04,-0.01c0.02,-0.01 0.03,-0.02 0.04,-0.02c0.02,-0.01 0.03,-0.02 0.04,-0.03c0.01,0 0.03,-0.01 0.04,-0.02c0.01,-0.01 0.02,-0.02 0.04,-0.03c0.01,-0.01 0.02,-0.01 0.03,-0.02c0.01,-0.01 0.02,-0.02 0.04,-0.03c0.01,-0.01 0.02,-0.02 0.03,-0.03c0.01,-0.02 0.02,-0.03 0.03,-0.04c0.01,-0.01 0.02,-0.02 0.03,-0.03c0.01,-0.01 0.02,-0.02 0.03,-0.04c0.01,-0.01 0.01,-0.02 0.02,-0.03c0.01,-0.02 0.02,-0.03 0.03,-0.04c0,-0.01 0.01,-0.03 0.02,-0.04c0.01,-0.01 0.01,-0.03 0.02,-0.04c0.01,-0.01 0.01,-0.03 0.02,-0.04c0,-0.02 0.01,-0.03 0.01,-0.04c0.01,-0.02 0.01,-0.03 0.02,-0.05c0,-0.01 0.01,-0.03 0.01,-0.04c0,-0.01 0.01,-0.03 0.01,-0.04c0,-0.02 0,-0.03 0.01,-0.05c0,-0.01 0,-0.03 0,-0.04c0,-0.02 0.01,-0.03 0.01,-0.05c0,-0.01 0,-0.03 0,-0.04c0,-0.02 0,-0.03 0,-0.05c0,-0.01 -0.01,-0.03 -0.01,-0.04c0,-0.02 0,-0.03 0,-0.05c-0.01,-0.01 -0.01,-0.03 -0.01,-0.04c0,-0.02 -0.01,-0.03 -0.01,-0.05c0,-0.01 -0.01,-0.02 -0.01,-0.04c-0.01,-0.01 -0.01,-0.03 -0.02,-0.04c0,-0.02 -0.01,-0.03 -0.01,-0.04c-0.01,-0.02 -0.01,-0.03 -0.02,-0.04c-0.01,-0.02 -0.01,-0.03 -0.02,-0.04c-0.01,-0.02 -0.02,-0.03 -0.02,-0.04c-0.01,-0.02 -0.02,-0.03 -0.03,-0.04c-0.01,-0.01 -0.01,-0.03 -0.02,-0.04c-0.01,-0.01 -0.02,-0.02 -0.03,-0.03c-0.01,-0.02 -0.02,-0.03 -0.03,-0.04c-0.01,-0.01 -0.02,-0.02 -0.03,-0.03c-0.01,-0.01 -0.02,-0.02 -0.03,-0.03c-0.02,-0.01 -0.03,-0.02 -0.04,-0.03c-0.01,-0.01 -0.02,-0.02 -0.03,-0.03c-0.02,-0.01 -0.03,-0.02 -0.04,-0.02c-0.01,-0.01 -0.03,-0.02 -0.04,-0.03c-0.01,-0.01 -0.02,-0.01 -0.04,-0.02c-0.01,-0.01 -0.02,-0.01 -0.04,-0.02c-0.01,-0.01 -0.02,-0.01 -0.04,-0.02c-0.01,0 -0.03,-0.01 -0.04,-0.02c-0.01,0 -0.03,-0.01 -0.04,-0.01c-0.02,0 -0.03,-0.01 -0.05,-0.01c-0.01,-0.01 -0.03,-0.01 -0.04,-0.01c-0.02,0 -0.03,-0.01 -0.05,-0.01c-0.01,0 -0.02,0 -0.04,0c-0.01,-0.01 -0.03,-0.01 -0.04,-0.01c-0.02,0 -0.03,0 -0.05,0z"></path><path id="路径 3" fill-rule="evenodd" style="fill:#FF5C64" opacity="1" d="M9.4282,7.6005v-2.79h13.15c-0.23,1.57 -0.67,3.07 -1.28,4.48l-2.86,2.78l-2.84,-2.81c-0.36,-0.36 -0.94,-0.36 -1.29,0c-0.01,0.01 -0.02,0.02 -0.03,0.03c-0.01,0.02 -0.02,0.03 -0.03,0.04c-0.01,0.01 -0.02,0.02 -0.03,0.03c-0.01,0.02 -0.02,0.03 -0.02,0.04c-0.01,0.01 -0.02,0.03 -0.03,0.04c-0.01,0.01 -0.01,0.03 -0.02,0.04c-0.01,0.01 -0.01,0.03 -0.02,0.04c-0.01,0.01 -0.01,0.03 -0.02,0.04c0,0.01 -0.01,0.03 -0.01,0.04c-0.01,0.02 -0.01,0.03 -0.02,0.04c0,0.02 -0.01,0.03 -0.01,0.05c0,0.01 -0.01,0.03 -0.01,0.04c0,0.02 -0.01,0.03 -0.01,0.05c0,0.01 0,0.03 0,0.04c0,0.02 -0.01,0.03 -0.01,0.05c0,0.01 0,0.03 0,0.04c0,0.02 0,0.03 0,0.05c0.01,0.01 0.01,0.03 0.01,0.04c0,0.02 0,0.03 0,0.05c0.01,0.01 0.01,0.03 0.01,0.04c0,0.01 0.01,0.03 0.01,0.04c0.01,0.02 0.01,0.03 0.01,0.05c0.01,0.01 0.01,0.03 0.02,0.04c0,0.01 0.01,0.03 0.01,0.04c0.01,0.02 0.02,0.03 0.02,0.04c0.01,0.02 0.02,0.03 0.02,0.04c0.01,0.02 0.02,0.03 0.03,0.04c0,0.01 0.01,0.03 0.02,0.04c0.01,0.01 0.02,0.02 0.03,0.04c0.01,0.01 0.01,0.02 0.02,0.03c0.01,0.01 0.02,0.02 0.03,0.04c0.01,0.01 0.02,0.02 0.03,0.03l2.25,2.23h-2.89c-0.02,0 -0.03,0 -0.04,0c-0.02,0 -0.03,0 -0.05,0c-0.01,0 -0.03,0 -0.04,0.01c-0.02,0 -0.03,0 -0.05,0c-0.01,0.01 -0.03,0.01 -0.04,0.01c-0.02,0.01 -0.03,0.01 -0.05,0.02c-0.01,0 -0.02,0.01 -0.04,0.01c-0.01,0.01 -0.03,0.01 -0.04,0.02c-0.01,0 -0.03,0.01 -0.04,0.02c-0.02,0 -0.03,0.01 -0.04,0.02c-0.02,0 -0.03,0.01 -0.04,0.02c-0.01,0.01 -0.03,0.01 -0.04,0.02c-0.01,0.01 -0.02,0.02 -0.04,0.03c-0.01,0.01 -0.02,0.02 -0.03,0.03c-0.01,0 -0.02,0.01 -0.04,0.02c-0.01,0.01 -0.02,0.02 -0.03,0.04c-0.01,0.01 -0.02,0.02 -0.03,0.03c-0.01,0.01 -0.02,0.02 -0.03,0.03c-0.01,0.01 -0.02,0.03 -0.03,0.04c-0.01,0.01 -0.01,0.02 -0.02,0.03c-0.01,0.02 -0.02,0.03 -0.03,0.04c0,0.02 -0.01,0.03 -0.02,0.04c-0.01,0.01 -0.01,0.03 -0.02,0.04c0,0.02 -0.01,0.03 -0.02,0.04c0,0.02 -0.01,0.03 -0.01,0.04c-0.01,0.02 -0.01,0.03 -0.02,0.05c0,0.01 -0.01,0.03 -0.01,0.04c0,0.02 -0.01,0.03 -0.01,0.04c0,0.02 0,0.03 -0.01,0.05c0,0.01 0,0.03 0,0.04c0,0.02 0,0.03 -0.01,0.05c0,0.01 0,0.03 0,0.04c0,0.02 0,0.03 0,0.05c0.01,0.01 0.01,0.03 0.01,0.04c0,0.02 0,0.03 0,0.05c0.01,0.01 0.01,0.03 0.01,0.04c0,0.02 0.01,0.03 0.01,0.05c0,0.01 0.01,0.03 0.01,0.04c0.01,0.01 0.01,0.03 0.02,0.04c0,0.02 0.01,0.03 0.01,0.04c0.01,0.02 0.02,0.03 0.02,0.05c0.01,0.01 0.01,0.02 0.02,0.04c0.01,0.01 0.02,0.02 0.02,0.03c0.01,0.02 0.02,0.03 0.03,0.04c0.01,0.02 0.01,0.03 0.02,0.04c0.01,0.01 0.02,0.02 0.03,0.03c0.01,0.02 0.02,0.03 0.03,0.04c0.01,0.01 0.02,0.02 0.03,0.03c0.01,0.01 0.02,0.02 0.03,0.03c0.02,0.01 0.03,0.02 0.04,0.03c0.01,0.01 0.02,0.02 0.03,0.03c0.02,0.01 0.03,0.02 0.04,0.03c0.01,0 0.03,0.01 0.04,0.02c0.01,0.01 0.02,0.01 0.04,0.02c0.01,0.01 0.02,0.02 0.04,0.02c0.01,0.01 0.03,0.01 0.04,0.02c0.01,0.01 0.03,0.01 0.04,0.02c0.02,0 0.03,0.01 0.04,0.01c0.02,0 0.03,0.01 0.05,0.01c0.01,0.01 0.03,0.01 0.04,0.01c0.02,0.01 0.03,0.01 0.05,0.01c0.01,0 0.03,0 0.04,0.01c0.02,0 0.03,0 0.05,0c0.01,0 0.02,0 0.04,0h3.84v0.16c-0.51,0.51 -1.05,0.98 -1.62,1.42h-2.22c-0.02,0 -0.03,0 -0.04,0c-0.02,0 -0.03,0 -0.05,0.01c-0.01,0 -0.03,0 -0.04,0c-0.02,0 -0.03,0.01 -0.05,0.01c-0.01,0 -0.03,0 -0.04,0.01c-0.02,0 -0.03,0.01 -0.05,0.01c-0.01,0 -0.02,0.01 -0.04,0.01c-0.01,0.01 -0.03,0.02 -0.04,0.02c-0.01,0.01 -0.03,0.01 -0.04,0.02c-0.02,0.01 -0.03,0.01 -0.04,0.02c-0.02,0.01 -0.03,0.01 -0.04,0.02c-0.01,0.01 -0.03,0.02 -0.04,0.03c-0.01,0 -0.02,0.01 -0.04,0.02c-0.01,0.01 -0.02,0.02 -0.03,0.03c-0.01,0.01 -0.02,0.02 -0.04,0.03c-0.01,0.01 -0.02,0.02 -0.03,0.03c-0.01,0.01 -0.02,0.02 -0.03,0.03c-0.01,0.01 -0.02,0.02 -0.03,0.04c-0.01,0.01 -0.02,0.02 -0.03,0.03c-0.01,0.01 -0.01,0.03 -0.02,0.04c-0.01,0.01 -0.02,0.02 -0.03,0.04c0,0.01 -0.01,0.02 -0.02,0.04c-0.01,0.01 -0.01,0.02 -0.02,0.04c0,0.01 -0.01,0.02 -0.02,0.04c0,0.01 -0.01,0.02 -0.01,0.04c-0.01,0.01 -0.01,0.03 -0.02,0.04c0,0.02 -0.01,0.03 -0.01,0.04c0,0.02 -0.01,0.03 -0.01,0.05c0,0.01 0,0.03 -0.01,0.04c0,0.02 0,0.03 0,0.05c0,0.01 0,0.03 -0.01,0.04c0,0.02 0,0.03 0,0.05c0,0.33 0.19,0.62 0.46,0.78c-2.41,1.24 -5.14,1.94 -8.03,1.94c-0.86,0 -1.7,-0.06 -2.52,-0.18v-1.89c1.49,-0.11 2.67,-1.36 2.67,-2.88c0,-1.52 -1.18,-2.77 -2.67,-2.88v-4.46c0,-1.51 1.23,-2.74 2.74,-2.74h2.2v2.79c0,0.01 0,0.03 0,0.04c0,0.02 0,0.03 0.01,0.05c0,0.01 0,0.03 0,0.04c0,0.01 0.01,0.03 0.01,0.04c0,0.02 0,0.03 0.01,0.05c0,0.01 0.01,0.03 0.01,0.04c0,0.02 0.01,0.03 0.01,0.04c0.01,0.02 0.02,0.03 0.02,0.05c0.01,0.01 0.01,0.02 0.02,0.04c0.01,0.01 0.01,0.02 0.02,0.04c0.01,0.01 0.01,0.02 0.02,0.04c0.01,0.01 0.02,0.02 0.03,0.03c0,0.02 0.01,0.03 0.02,0.04c0.01,0.01 0.02,0.03 0.03,0.04c0.01,0.01 0.02,0.02 0.03,0.03c0.01,0.01 0.02,0.02 0.03,0.03c0.01,0.01 0.02,0.02 0.03,0.03c0.01,0.01 0.02,0.02 0.04,0.03c0.01,0.01 0.02,0.02 0.03,0.03c0.01,0.01 0.03,0.02 0.04,0.03c0.01,0.01 0.02,0.01 0.04,0.02c0.01,0.01 0.02,0.02 0.04,0.02c0.01,0.01 0.02,0.02 0.04,0.02c0.01,0.01 0.02,0.02 0.04,0.02c0.01,0.01 0.02,0.01 0.04,0.02c0.01,0 0.03,0.01 0.04,0.01c0.02,0.01 0.03,0.01 0.04,0.01c0.02,0.01 0.03,0.01 0.05,0.01c0.01,0.01 0.03,0.01 0.04,0.01c0.02,0 0.03,0.01 0.05,0.01c0.01,0 0.03,0 0.04,0c0.02,0 0.03,0 0.05,0c0.01,0 0.03,0 0.04,0c0.02,0 0.03,0 0.05,0c0.01,0 0.03,-0.01 0.04,-0.01c0.02,0 0.03,0 0.05,-0.01c0.01,0 0.03,0 0.04,-0.01c0.01,0 0.03,0 0.04,-0.01c0.02,0 0.03,-0.01 0.05,-0.01c0.01,-0.01 0.02,-0.01 0.04,-0.02c0.01,0 0.03,-0.01 0.04,-0.02c0.01,0 0.03,-0.01 0.04,-0.02c0.01,0 0.03,-0.01 0.04,-0.02c0.01,-0.01 0.02,-0.01 0.04,-0.02c0.01,-0.01 0.02,-0.02 0.03,-0.03c0.02,-0.01 0.03,-0.02 0.04,-0.03c0.01,-0.01 0.02,-0.02 0.03,-0.03c0.01,-0.01 0.02,-0.02 0.04,-0.03c0.01,-0.01 0.02,-0.02 0.03,-0.03c0.01,-0.01 0.02,-0.02 0.03,-0.03c0.01,-0.01 0.01,-0.03 0.02,-0.04c0.01,-0.01 0.02,-0.02 0.03,-0.04c0.01,-0.01 0.02,-0.02 0.02,-0.03c0.01,-0.02 0.02,-0.03 0.03,-0.04c0,-0.02 0.01,-0.03 0.02,-0.04c0,-0.02 0.01,-0.03 0.01,-0.04c0.01,-0.02 0.02,-0.03 0.02,-0.05c0.01,-0.01 0.01,-0.02 0.01,-0.04c0.01,-0.01 0.01,-0.03 0.02,-0.04c0,-0.02 0,-0.03 0.01,-0.05c0,-0.01 0,-0.03 0,-0.04c0.01,-0.01 0.01,-0.03 0.01,-0.04c0,-0.02 0,-0.03 0,-0.05c0,-0.01 0,-0.03 0,-0.04zM9.4282,12.9505c0,-0.01 0,-0.02 0,-0.04c0,-0.01 0,-0.03 0,-0.04c0,-0.02 0,-0.03 -0.01,-0.05c0,-0.01 0,-0.03 0,-0.04c-0.01,-0.02 -0.01,-0.03 -0.01,-0.05c-0.01,-0.01 -0.01,-0.03 -0.02,-0.04c0,-0.02 0,-0.03 -0.01,-0.04c0,-0.02 -0.01,-0.03 -0.02,-0.05c0,-0.01 -0.01,-0.02 -0.01,-0.04c-0.01,-0.01 -0.02,-0.02 -0.02,-0.04c-0.01,-0.01 -0.02,-0.02 -0.03,-0.04c0,-0.01 -0.01,-0.02 -0.02,-0.03c-0.01,-0.02 -0.02,-0.03 -0.03,-0.04c-0.01,-0.01 -0.01,-0.02 -0.02,-0.04c-0.01,-0.01 -0.02,-0.02 -0.03,-0.03c-0.01,-0.01 -0.02,-0.02 -0.03,-0.03c-0.02,-0.01 -0.03,-0.02 -0.04,-0.03c-0.01,-0.01 -0.02,-0.02 -0.03,-0.03c-0.01,-0.01 -0.02,-0.02 -0.04,-0.03c-0.01,-0.01 -0.02,-0.02 -0.03,-0.03c-0.02,-0.01 -0.03,-0.01 -0.04,-0.02c-0.01,-0.01 -0.03,-0.02 -0.04,-0.02c-0.01,-0.01 -0.03,-0.02 -0.04,-0.02c-0.01,-0.01 -0.03,-0.02 -0.04,-0.02c-0.02,-0.01 -0.03,-0.01 -0.04,-0.02c-0.02,0 -0.03,-0.01 -0.05,-0.01c-0.01,-0.01 -0.03,-0.01 -0.04,-0.01c-0.01,-0.01 -0.03,-0.01 -0.04,-0.01c-0.02,-0.01 -0.03,-0.01 -0.05,-0.01c-0.01,0 -0.03,-0.01 -0.04,-0.01c-0.02,0 -0.03,0 -0.05,0c-0.01,0 -0.03,0 -0.04,0c-0.02,0 -0.03,0 -0.05,0c-0.01,0 -0.03,0 -0.04,0c-0.02,0 -0.03,0.01 -0.05,0.01c-0.01,0 -0.03,0 -0.04,0.01c-0.02,0 -0.03,0 -0.05,0.01c-0.01,0 -0.02,0 -0.04,0.01c-0.01,0 -0.03,0.01 -0.04,0.01c-0.02,0.01 -0.03,0.01 -0.04,0.02c-0.02,0 -0.03,0.01 -0.04,0.02c-0.02,0 -0.03,0.01 -0.04,0.02c-0.02,0 -0.03,0.01 -0.04,0.02c-0.02,0.01 -0.03,0.01 -0.04,0.02c-0.01,0.01 -0.03,0.02 -0.04,0.03c-0.01,0.01 -0.02,0.02 -0.03,0.03c-0.02,0.01 -0.03,0.02 -0.04,0.03c-0.01,0.01 -0.02,0.02 -0.03,0.03c-0.01,0.01 -0.02,0.02 -0.03,0.03c-0.01,0.01 -0.02,0.02 -0.03,0.03c-0.01,0.02 -0.02,0.03 -0.03,0.04c-0.01,0.01 -0.02,0.02 -0.02,0.04c-0.01,0.01 -0.02,0.02 -0.03,0.03c-0.01,0.02 -0.01,0.03 -0.02,0.04c-0.01,0.02 -0.01,0.03 -0.02,0.04c-0.01,0.02 -0.01,0.03 -0.02,0.04c0,0.02 -0.01,0.03 -0.02,0.05c0,0.01 -0.01,0.02 -0.01,0.04c0,0.01 -0.01,0.03 -0.01,0.04c-0.01,0.02 -0.01,0.03 -0.01,0.05c0,0.01 -0.01,0.03 -0.01,0.04c0,0.02 0,0.03 0,0.05c-0.01,0.01 -0.01,0.03 -0.01,0.04c0,0.02 0,0.03 0,0.04v3.86c0,0.02 0,0.03 0,0.05c0,0.01 0,0.03 0.01,0.04c0,0.02 0,0.03 0,0.05c0,0.01 0.01,0.03 0.01,0.04c0,0.02 0,0.03 0.01,0.05c0,0.01 0.01,0.03 0.01,0.04c0,0.01 0.01,0.03 0.01,0.04c0.01,0.02 0.02,0.03 0.02,0.05c0.01,0.01 0.01,0.02 0.02,0.04c0.01,0.01 0.01,0.02 0.02,0.04c0.01,0.01 0.01,0.02 0.02,0.04c0.01,0.01 0.02,0.02 0.03,0.03c0,0.02 0.01,0.03 0.02,0.04c0.01,0.01 0.02,0.02 0.03,0.04c0.01,0.01 0.02,0.02 0.03,0.03c0.01,0.01 0.02,0.02 0.03,0.03c0.01,0.01 0.02,0.02 0.03,0.03c0.01,0.01 0.02,0.02 0.04,0.03c0.01,0.01 0.02,0.02 0.03,0.03c0.01,0.01 0.03,0.02 0.04,0.03c0.01,0 0.02,0.01 0.04,0.02c0.01,0.01 0.02,0.02 0.04,0.02c0.01,0.01 0.02,0.02 0.04,0.02c0.01,0.01 0.02,0.02 0.04,0.02c0.01,0.01 0.02,0.01 0.04,0.02c0.01,0 0.03,0.01 0.04,0.01c0.02,0.01 0.03,0.01 0.04,0.01c0.02,0.01 0.03,0.01 0.05,0.01c0.01,0.01 0.03,0.01 0.04,0.01c0.02,0 0.03,0.01 0.05,0.01c0.01,0 0.03,0 0.04,0c0.02,0 0.03,0 0.05,0c0.01,0 0.03,0 0.04,0c0.02,0 0.03,0 0.05,0c0.01,0 0.03,-0.01 0.04,-0.01c0.02,0 0.03,0 0.05,-0.01c0.01,0 0.03,0 0.04,-0.01c0.01,0 0.03,0 0.04,-0.01c0.02,0 0.03,-0.01 0.05,-0.01c0.01,-0.01 0.02,-0.01 0.04,-0.02c0.01,0 0.03,-0.01 0.04,-0.02c0.01,0 0.03,-0.01 0.04,-0.02c0.01,0 0.03,-0.01 0.04,-0.02c0.01,-0.01 0.02,-0.02 0.04,-0.02c0.01,-0.01 0.02,-0.02 0.03,-0.03c0.02,-0.01 0.03,-0.02 0.04,-0.03c0.01,-0.01 0.02,-0.02 0.03,-0.03c0.01,-0.01 0.02,-0.02 0.04,-0.03c0.01,-0.01 0.02,-0.02 0.03,-0.03c0.01,-0.01 0.02,-0.02 0.03,-0.03c0.01,-0.02 0.01,-0.03 0.02,-0.04c0.01,-0.01 0.02,-0.02 0.03,-0.04c0.01,-0.01 0.02,-0.02 0.02,-0.03c0.01,-0.02 0.02,-0.03 0.03,-0.04c0,-0.02 0.01,-0.03 0.02,-0.04c0,-0.02 0.01,-0.03 0.01,-0.04c0.01,-0.02 0.02,-0.03 0.02,-0.05c0.01,-0.01 0.01,-0.03 0.01,-0.04c0.01,-0.01 0.01,-0.03 0.02,-0.04c0,-0.02 0,-0.03 0.01,-0.05c0,-0.01 0,-0.03 0,-0.04c0.01,-0.02 0.01,-0.03 0.01,-0.05c0,-0.01 0,-0.03 0,-0.04c0,-0.02 0,-0.03 0,-0.05z"></path><path id="路径 4" fill-rule="evenodd" style="fill:#FF716E" opacity="1" d="M9.4282 7.6405C9.4282 7.6605 9.4282 7.6705 9.4282 7.6905C9.4282 7.7005 9.4282 7.7205 9.4182 7.7305C9.4182 7.7405 9.4182 7.7605 9.4182 7.7705C9.4082 7.7905 9.4082 7.8005 9.4082 7.8205C9.3982 7.8305 9.3982 7.8505 9.3882 7.8605C9.3882 7.8805 9.3882 7.8905 9.3782 7.9005C9.3782 7.9205 9.3682 7.9305 9.3582 7.9505C9.3582 7.9605 9.3482 7.9705 9.3482 7.9905C9.3382 8.0005 9.3282 8.0105 9.3282 8.0305C9.3182 8.0405 9.3082 8.0505 9.2982 8.0705C9.2982 8.0805 9.2882 8.0905 9.2782 8.1005C9.2682 8.1205 9.2582 8.1305 9.2482 8.1405C9.2382 8.1505 9.2382 8.1705 9.2282 8.1805C9.2182 8.1905 9.2082 8.2005 9.1982 8.2105C9.1882 8.2205 9.1782 8.2305 9.1682 8.2405C9.1482 8.2505 9.1382 8.2605 9.1282 8.2705C9.1182 8.2805 9.1082 8.2905 9.0982 8.3005C9.0882 8.3105 9.0782 8.3205 9.0582 8.3305C9.0482 8.3405 9.0382 8.3505 9.0282 8.3605C9.0082 8.3705 8.9982 8.3705 8.9882 8.3805C8.9782 8.3905 8.9582 8.4005 8.9482 8.4005C8.9382 8.4105 8.9182 8.4205 8.9082 8.4205C8.8982 8.4305 8.8782 8.4405 8.8682 8.4405C8.8482 8.4505 8.8382 8.4505 8.8282 8.4605C8.8082 8.4605 8.7982 8.4705 8.7782 8.4705C8.7682 8.4805 8.7482 8.4805 8.7382 8.4805C8.7282 8.4905 8.7082 8.4905 8.6982 8.4905C8.6782 8.5005 8.6682 8.5005 8.6482 8.5005C8.6382 8.5005 8.6182 8.5105 8.6082 8.5105C8.5882 8.5105 8.5782 8.5105 8.5582 8.5105C8.5482 8.5105 8.5282 8.5105 8.5182 8.5105C8.4982 8.5105 8.4882 8.5105 8.4682 8.5105C8.4582 8.5105 8.4382 8.5105 8.4282 8.5105C8.4082 8.5105 8.3982 8.5005 8.3782 8.5005C8.3682 8.5005 8.3482 8.5005 8.3382 8.4905C8.3182 8.4905 8.3082 8.4905 8.2882 8.4805C8.2782 8.4805 8.2682 8.4805 8.2482 8.4705C8.2382 8.4705 8.2182 8.4605 8.2082 8.4605C8.1882 8.4505 8.1782 8.4505 8.1682 8.4405C8.1482 8.4405 8.1382 8.4305 8.1282 8.4205C8.1082 8.4205 8.0982 8.4105 8.0882 8.4005C8.0682 8.4005 8.0582 8.3905 8.0482 8.3805C8.0282 8.3705 8.0182 8.3705 8.0082 8.3605C7.9982 8.3505 7.9782 8.3405 7.9682 8.3305C7.9582 8.3205 7.9482 8.3105 7.9382 8.3005C7.9182 8.2905 7.9082 8.2805 7.8982 8.2705C7.8882 8.2605 7.8782 8.2505 7.8682 8.2405C7.8582 8.2305 7.8482 8.2205 7.8382 8.2105C7.8282 8.2005 7.8182 8.1905 7.8082 8.1805C7.7982 8.1705 7.7882 8.1505 7.7782 8.1405C7.7682 8.1305 7.7582 8.1205 7.7582 8.1005C7.7482 8.0905 7.7382 8.0805 7.7282 8.0705C7.7182 8.0505 7.7182 8.0405 7.7082 8.0305C7.6982 8.0105 7.6982 8.0005 7.6882 7.9905C7.6782 7.9705 7.6782 7.9605 7.6682 7.9505C7.6682 7.9305 7.6582 7.9205 7.6482 7.9005C7.6482 7.8905 7.6382 7.8805 7.6382 7.8605C7.6382 7.8505 7.6282 7.8305 7.6282 7.8205C7.6182 7.8005 7.6182 7.7905 7.6182 7.7705C7.6182 7.7605 7.6082 7.7405 7.6082 7.7305C7.6082 7.7205 7.6082 7.7005 7.6082 7.6905C7.5982 7.6705 7.5982 7.6605 7.5982 7.6405C7.5982 7.6305 7.5982 7.6105 7.5982 7.6005L7.5982 4.8105L5.3982 4.8105C3.8882 4.8105 2.6582 6.0405 2.6582 7.5505L2.6582 12.0105C3.5182 12.0705 4.2682 12.5105 4.7482 13.1605C9.5482 12.0405 13.5982 8.9605 15.9882 4.8105L9.4282 4.8105L9.4282 7.6005C9.4282 7.6105 9.4282 7.6305 9.4282 7.6405Z"></path></g></g><defs><rect id="path_0" x="0" y="0" width="30" height="30" /></defs></svg>