<svg xmlns="http://www.w3.org/2000/svg" xmlns:xlink="http://www.w3.org/1999/xlink" width="30" height="30" viewBox="0 0 30 30" fill="none"><g opacity="1"  transform="translate(0 0)  rotate(0)"><mask id="bg-mask-0" fill="white"><use transform="translate(0 0)  rotate(NaN)" xlink:href="#path_0"></use></mask><g mask="url(#bg-mask-0)" ><path id="路径 1" fill-rule="evenodd" style="fill:#6C6CEA" opacity="1" d="M4.52,11.2775c-0.51,-0.19 -1.01,-0.33 -1.46,-0.57c-0.38,-0.2 -0.68,-0.56 -0.51,-1.05c0.16,-0.47 0.53,-0.66 1.04,-0.66c0.66,0.01 1.46,0.18 1.94,-0.13c0.46,-0.29 0.6,-1.1 0.87,-1.69c0.29,-0.62 0.58,-1.24 0.85,-1.87c0.24,-0.52 0.62,-0.77 1.19,-0.77c4.43,0 8.86,0 13.3,0c0.59,0 0.98,0.27 1.22,0.81c0.49,1.09 1,2.16 1.48,3.25c0.13,0.3 0.29,0.44 0.64,0.42c0.54,-0.03 1.1,-0.08 1.63,0.02c0.35,0.06 0.81,0.31 0.92,0.6c0.1,0.24 -0.13,0.78 -0.38,0.96c-0.44,0.32 -1,0.47 -1.57,0.7c0.3,0.66 0.67,1.38 0.95,2.12c0.18,0.47 0.33,0.97 0.33,1.46c0.03,3.11 0.01,6.23 0.01,9.35c0,0.81 -0.15,1 -0.96,1.07c-0.61,0.05 -1.22,0.05 -1.82,0.04c-0.48,-0.01 -0.78,-0.25 -0.85,-0.76c-0.08,-0.56 -0.26,-1.11 -0.31,-1.67c-0.04,-0.47 -0.24,-0.59 -0.69,-0.58c-3.99,0.01 -7.97,0 -11.96,0c-0.87,0 -1.74,0.02 -2.61,0c-0.38,-0.01 -0.55,0.09 -0.6,0.48c-0.07,0.6 -0.23,1.19 -0.32,1.79c-0.07,0.49 -0.36,0.72 -0.81,0.73c-0.69,0.01 -1.37,-0.02 -2.06,-0.06c-0.5,-0.03 -0.76,-0.3 -0.76,-0.83c0,-3.29 -0.03,-6.59 0.03,-9.89c0.01,-0.59 0.36,-1.18 0.59,-1.76c0.21,-0.52 0.46,-1.03 0.68,-1.51zM21.49,11.9375c1,0 1.2,-0.33 0.77,-1.21c-0.43,-0.89 -0.82,-1.8 -1.29,-2.66c-0.14,-0.25 -0.51,-0.52 -0.78,-0.53c-3.39,-0.03 -6.79,-0.03 -10.18,0c-0.26,0 -0.63,0.24 -0.75,0.47c-0.54,1 -1,2.02 -1.47,3.05c-0.2,0.42 -0.02,0.77 0.43,0.85c0.26,0.04 0.52,0.04 0.79,0.04c2.02,0 4.04,0 6.06,0c2.14,0 4.28,0 6.42,-0.01zM7.77,15.6575c-0.52,0.05 -0.82,0.32 -0.82,0.86c-0.01,0.44 -0.02,0.88 0,1.33c0.01,0.47 0.24,0.76 0.74,0.76c0.94,0.01 1.89,0.01 2.87,0.01c0.21,-1.73 -1.15,-3.14 -2.79,-2.96zM22.58,18.5975c0.43,-0.01 0.66,-0.28 0.67,-0.71c0.01,-0.46 0,-0.92 0,-1.39c-0.01,-0.51 -0.3,-0.77 -0.78,-0.84c-1.63,-0.23 -3.08,1.25 -2.82,2.95c0.97,0 1.95,0.02 2.93,-0.01z"></path><path id="路径 2" fill-rule="evenodd" style="fill:#757BF2" opacity="1" d="M25.561,8.9845c0,0.17 0,0.34 0.01,0.51c0,5.05 -2.12,9.6 -5.5,12.83c-3.23,0 -6.46,0 -9.69,0c-0.87002,0 -1.74002,0.02 -2.61002,0c-0.37,-0.01 -0.54,0.09 -0.59,0.48c-0.08,0.6 -0.24,1.19 -0.32,1.79c-0.07,0.49 -0.37,0.72 -0.82,0.73c-0.68,0.01 -1.37,-0.02 -2.06,-0.06c-0.5,-0.03 -0.76,-0.31 -0.76,-0.83c0,-3.3 -0.03,-6.6 0.03,-9.89c0.01,-0.59 0.36,-1.18 0.59,-1.76c0.21,-0.52 0.46,-1.03 0.68,-1.51c-0.51,-0.19 -1.01,-0.33 -1.46,-0.57c-0.38,-0.2 -0.68,-0.56 -0.51,-1.05c0.16,-0.47 0.53,-0.66 1.04,-0.66c0.66,0.01 1.46,0.18 1.94,-0.13c0.46,-0.29 0.6,-1.1 0.87,-1.69c0.29,-0.62 0.58,-1.24 0.85,-1.87c0.24,-0.52 0.62,-0.77 1.19,-0.77c4.43002,0.01 8.86002,0 13.30002,0c0.59,0 0.98,0.27 1.22,0.81c0.49,1.09 1,2.16 1.48,3.25c0.13,0.3 0.29,0.44 0.64,0.42c0.15,-0.01 0.32,-0.02 0.48,-0.03zM7.77098,15.6545c-0.52,0.06 -0.82,0.32 -0.83,0.86c0,0.44 -0.01,0.89 0.01,1.33c0.01,0.47 0.24,0.76 0.73,0.77c0.95,0.01 1.89,0 2.88002,0c0.21,-1.73 -1.16002,-3.14 -2.79002,-2.96zM21.491,11.9445c1,-0.01 1.19,-0.34 0.77,-1.22c-0.43,-0.88 -0.82,-1.79 -1.29,-2.66c-0.14,-0.25 -0.51,-0.52 -0.78,-0.52c-3.39,-0.04 -6.79,-0.04 -10.18,-0.01c-0.26002,0.01 -0.63002,0.24 -0.76002,0.47c-0.53,1 -0.99,2.03 -1.47,3.05c-0.19,0.42 -0.01,0.77 0.44,0.85c0.26,0.05 0.52,0.04 0.78,0.04c2.02002,0 4.04002,0 6.06002,0c2.15,0 4.29,0.01 6.43,0zM23.251,16.5045c-0.01,-0.51 -0.3,-0.78 -0.78,-0.84c-1.63,-0.23 -3.08,1.24 -2.82,2.94c0.97,0 1.95,0.02 2.93,0c0.43,-0.01 0.66,-0.29 0.67,-0.71c0.01,-0.47 0,-0.93 0,-1.39z"></path><path id="路径 3" fill-rule="evenodd" style="fill:#8486F8" opacity="1" d="M18.421,11.9475c-3.02,5.3 -8.69002,8.89 -15.20002,8.97c-0.01,-2.13 -0.01,-4.25 0.03,-6.37c0.01,-0.59 0.36,-1.18 0.59,-1.76c0.21,-0.52 0.46,-1.03 0.68,-1.51c-0.51,-0.19 -1.01,-0.33 -1.46,-0.57c-0.38,-0.2 -0.68,-0.56 -0.51,-1.05c0.16,-0.47 0.53,-0.66 1.04,-0.66c0.66,0.01 1.46,0.18 1.94,-0.13c0.46,-0.29 0.6,-1.1 0.87,-1.69c0.29,-0.62 0.58,-1.24 0.85,-1.87c0.24,-0.52 0.62,-0.77 1.19,-0.77c4.08002,0 8.15002,0 12.23002,0c-0.08,1.03 -0.24,2.03 -0.49,3.01c-3.39,-0.04 -6.78,-0.04 -10.17,-0.01c-0.26002,0.01 -0.63002,0.24 -0.76002,0.47c-0.53,1 -0.99,2.03 -1.47,3.05c-0.19,0.42 -0.01,0.77 0.44,0.85c0.26,0.05 0.52,0.04 0.78,0.04c2.02002,0 4.04002,0 6.06002,0c1.12,0 2.24,0 3.36,0zM7.77098,15.6575c-0.52,0.05 -0.82,0.32 -0.83,0.85c0,0.45 -0.01,0.89 0.01,1.34c0.01,0.47 0.24,0.76 0.73,0.76c0.95,0.01 1.89,0.01 2.88002,0.01c0.21,-1.73 -1.16002,-3.14 -2.79002,-2.96z"></path><path id="路径 4" fill-rule="evenodd" style="fill:#8D92F8" opacity="1" d="M8.08098 11.866C7.74098 11.746 7.61098 11.426 7.78098 11.056C8.26098 10.036 8.72098 9.006 9.25098 8.006C9.38098 7.776 9.75098 7.546 10.011 7.536C10.921 7.526 11.841 7.526 12.761 7.516C13.451 6.596 14.051 5.596 14.561 4.536C12.521 4.536 10.481 4.536 8.44098 4.536C7.87098 4.536 7.49098 4.786 7.25098 5.306C6.98098 5.936 6.69098 6.556 6.40098 7.176C6.13098 7.766 5.99098 8.576 5.53098 8.866C5.05098 9.176 4.25098 9.006 3.59098 8.996C3.08098 8.996 2.71098 9.186 2.55098 9.656C2.38098 10.146 2.68098 10.506 3.06098 10.706C3.51098 10.946 4.01098 11.086 4.52098 11.276C4.30098 11.756 4.05098 12.266 3.84098 12.786C3.68098 13.186 3.47098 13.586 3.35098 13.996C5.04098 13.516 6.63098 12.796 8.08098 11.866Z"></path></g></g><defs><rect id="path_0" x="0" y="0" width="30" height="30" /></defs></svg>