<svg xmlns="http://www.w3.org/2000/svg" xmlns:xlink="http://www.w3.org/1999/xlink" width="30" height="30" viewBox="0 0 30 30" fill="none"><g opacity="1"  transform="translate(0 0)  rotate(0)"><mask id="bg-mask-0" fill="white"><use transform="translate(0 0)  rotate(NaN)" xlink:href="#path_0"></use></mask><g mask="url(#bg-mask-0)" ><path id="路径 1" fill-rule="evenodd" style="fill:#FC7032" opacity="1" d="M27.8804,9.4835h-25.77005v-1.6c0,-1.69 1.34,-3.07 2.99,-3.07h19.78005c1.65,0 3,1.38 3,3.07zM2.11035,12.2835h25.76005v9.64c0,1.7 -1.34,3.08 -2.99,3.08h-19.78005c-1.65,0 -2.99,-1.38 -2.99,-3.08zM13.3904,15.6235c0,-0.77 -0.62,-1.4 -1.4,-1.4h-4.55005c-0.77,0 -1.4,0.63 -1.4,1.4c0,0.77 0.63,1.4 1.4,1.4h4.55005c0.78,0 1.4,-0.63 1.4,-1.4z"></path><path id="路径 2" fill-rule="evenodd" style="fill:#FF7E3E" opacity="1" d="M24.6404,4.8135c0.47,1.49 0.76,3.05 0.85,4.67h-23.38005v-1.6c0,-1.69 1.34,-3.07 2.99,-3.07zM2.11035,12.2835h23.33005c-0.47,5.09 -2.94,9.59 -6.63,12.72h-13.71005c-1.65,0 -2.99,-1.38 -2.99,-3.08zM13.3904,15.6235c0,-0.77 -0.62,-1.4 -1.4,-1.4h-4.55005c-0.77,0 -1.4,0.63 -1.4,1.4c0,0.77 0.63,1.4 1.4,1.4h4.55005c0.78,0 1.4,-0.63 1.4,-1.4z"></path><path id="路径 3" fill-rule="evenodd" style="fill:#FF9552" opacity="1" d="M20.3104,4.8135c-0.01,0.2 -0.02,0.4 -0.04,0.59c-0.02,0.2 -0.04,0.4 -0.06,0.6c-0.02,0.19 -0.05,0.39 -0.08,0.59c-0.03,0.19 -0.06,0.39 -0.09,0.58c-0.04,0.2 -0.08,0.39 -0.12,0.59c-0.04,0.19 -0.09,0.39 -0.13,0.58c-0.05,0.19 -0.1,0.38 -0.15,0.57c-0.06,0.19 -0.11,0.38 -0.17,0.57h-17.36005v-1.6c0,-1.69 1.34,-3.07 2.99,-3.07zM18.3304,12.2835c-2.99,5.98 -9.05005,10.15 -16.11005,10.45c-0.07,-0.25 -0.11,-0.53 -0.11,-0.81v-9.64zM13.3904,15.6235c0,-0.77 -0.62,-1.4 -1.4,-1.4h-4.55005c-0.77,0 -1.4,0.63 -1.4,1.4c0,0.77 0.63,1.4 1.4,1.4h4.55005c0.78,0 1.4,-0.63 1.4,-1.4z"></path><path id="路径 4" fill-rule="evenodd" style="fill:#FFA56A" opacity="1" d="M13.9304,4.8135c-0.77,1.71 -1.77,3.28 -2.98,4.67h-8.84005v-1.6c0,-1.69 1.34,-3.07 2.99,-3.07zM2.11035,15.2335v-2.95h5.83c-1.73,1.3 -3.7,2.31 -5.83,2.95z"></path></g></g><defs><rect id="path_0" x="0" y="0" width="30.00000000000003" height="30.00000000000003" /></defs></svg>