<svg xmlns="http://www.w3.org/2000/svg" xmlns:xlink="http://www.w3.org/1999/xlink" width="30" height="30" viewBox="0 0 30 30" fill="none"><g opacity="1"  transform="translate(0 0)  rotate(0)"><mask id="bg-mask-0" fill="white"><use transform="translate(0 0)  rotate(NaN)" xlink:href="#path_0"></use></mask><g mask="url(#bg-mask-0)" ><path id="路径 1" fill-rule="evenodd" style="fill:#1DCE75" opacity="1" d="M17.0605 11.5345L19.1105 11.5345L19.1105 9.4545L17.0605 9.4545L17.0605 11.5345Z"></path><path id="路径 2" fill-rule="evenodd" style="fill:#05C46D" opacity="1" d="M23.0919,2.94c1.6,0 2.89,1.29 2.89,2.89v18.22c0,1.6 -1.29,2.9 -2.89,2.9h-16.23999c-1.6,0 -2.89,-1.3 -2.89,-2.9v-18.22c0,-1.6 1.29,-2.89 2.89,-2.89zM14.7819,12.11c0,0.94 0.77,1.71 1.71,1.71h3.19c0.94,0 1.71,-0.77 1.71,-1.71v-3.23c0,-0.94 -0.77,-1.7 -1.71,-1.7h-3.19c-0.94,0 -1.71,0.76 -1.71,1.7zM8.48191,8.42c0,0.63 0.51,1.14 1.14,1.14h2.62999c0.62,0 1.13,-0.51 1.13,-1.14c0,-0.63 -0.51,-1.14 -1.13,-1.14h-2.62999c-0.63,0 -1.14,0.51 -1.14,1.14zM8.48191,12.7c0,0.62 0.51,1.13 1.14,1.13h2.62999c0.62,0 1.13,-0.51 1.13,-1.13c0,-0.63 -0.51,-1.14 -1.13,-1.14h-2.62999c-0.63,0 -1.14,0.51 -1.14,1.14zM21.6619,21.65c0,-0.63 -0.51,-1.14 -1.14,-1.14h-10.89999c-0.63,0 -1.14,0.51 -1.14,1.14c0,0.63 0.51,1.14 1.14,1.14h10.89999c0.63,0 1.14,-0.51 1.14,-1.14zM21.6619,17.19c0,-0.63 -0.51,-1.14 -1.14,-1.14h-10.89999c-0.63,0 -1.14,0.51 -1.14,1.14c0,0.62 0.51,1.13 1.14,1.13h10.89999c0.63,0 1.14,-0.51 1.14,-1.13z"></path><path id="路径 3" fill-rule="evenodd" style="fill:#1DCE75" opacity="1" d="M25.9819,5.83v5.74c-0.79,3.48 -2.54,6.6 -4.94,9.07c-0.16,-0.08 -0.33,-0.13 -0.52,-0.13h-10.89999c-0.63,0 -1.14,0.51 -1.14,1.14c0,0.63 0.51,1.14 1.14,1.14h8.94999c-3.18,2.32 -7.09,3.68 -11.31999,3.68c-0.72,0 -1.44,-0.04 -2.15,-0.12c-0.69,-0.53 -1.14,-1.36 -1.14,-2.3v-18.22c0,-1.6 1.29,-2.89 2.89,-2.89h16.23999c1.6,0 2.89,1.29 2.89,2.89zM14.7819,12.11c0,0.94 0.77,1.71 1.71,1.71h3.19c0.94,0 1.71,-0.77 1.71,-1.71v-3.23c0,-0.94 -0.77,-1.7 -1.71,-1.7h-3.19c-0.94,0 -1.71,0.76 -1.71,1.7zM8.48191,8.42c0,0.63 0.51,1.14 1.14,1.14h2.62999c0.62,0 1.13,-0.51 1.13,-1.14c0,-0.63 -0.51,-1.14 -1.13,-1.14h-2.62999c-0.63,0 -1.14,0.51 -1.14,1.14zM8.48191,12.7c0,0.62 0.51,1.13 1.14,1.13h2.62999c0.62,0 1.13,-0.51 1.13,-1.13c0,-0.63 -0.51,-1.14 -1.13,-1.14h-2.62999c-0.63,0 -1.14,0.51 -1.14,1.14zM21.6619,17.19c0,-0.63 -0.51,-1.14 -1.14,-1.14h-10.89999c-0.63,0 -1.14,0.51 -1.14,1.14c0,0.62 0.51,1.13 1.14,1.13h10.89999c0.63,0 1.14,-0.51 1.14,-1.13z"></path><path id="路径 4" fill-rule="evenodd" style="fill:#3CD38E" opacity="1" d="M17.0605 11.5345L17.6805 11.5345C18.1505 10.8745 18.5805 10.1745 18.9605 9.4545L17.0605 9.4545L17.0605 11.5345Z"></path><path id="路径 5" fill-rule="evenodd" style="fill:#3CD38E" opacity="1" d="M3.96191,5.8285c0,-1.59 1.29,-2.89 2.89,-2.89h14.19999c-0.19,1.48 -0.55,2.91 -1.07,4.27c-0.09,-0.02 -0.2,-0.03 -0.3,-0.03h-3.19c-0.94,0 -1.71,0.76 -1.71,1.7v3.23c0,0.73 0.46,1.35 1.11,1.6c-0.2,0.21 -0.42,0.42 -0.63,0.63c-0.22,0.2 -0.44,0.4 -0.66,0.6c-0.23,0.2 -0.45,0.39 -0.69,0.57c-0.23,0.19 -0.47,0.36 -0.71,0.54h-3.57999c-0.63,0 -1.14,0.51 -1.14,1.14c0,0.48 0.31,0.89 0.73,1.06c-0.21,0.08 -0.42,0.16 -0.63,0.24c-0.21,0.08 -0.43,0.15 -0.64,0.22c-0.22,0.07 -0.43,0.14 -0.65,0.2c-0.22,0.06 -0.44,0.12 -0.66,0.18c-0.22,0.05 -0.44,0.1 -0.66,0.15c-0.22,0.04 -0.44,0.09 -0.66,0.13c-0.23,0.03 -0.45,0.07 -0.68,0.1c-0.22,0.03 -0.44,0.06 -0.67,0.08zM8.48191,8.4185c0,0.63 0.51,1.14 1.14,1.14h2.62999c0.62,0 1.13,-0.51 1.13,-1.14c0,-0.63 -0.51,-1.14 -1.13,-1.14h-2.62999c-0.63,0 -1.14,0.51 -1.14,1.14zM8.48191,12.6985c0,0.63 0.51,1.14 1.14,1.14h2.62999c0.62,0 1.13,-0.51 1.13,-1.14c0,-0.63 -0.51,-1.14 -1.13,-1.14h-2.62999c-0.63,0 -1.14,0.51 -1.14,1.14z"></path><path id="路径 6" fill-rule="evenodd" style="fill:#48E1AA" opacity="1" d="M3.96191 11.61C4.17191 11.53 4.38191 11.45 4.58191 11.36C4.79191 11.27 5.00191 11.18 5.20191 11.09C5.40191 11 5.61191 10.9 5.81191 10.8C6.01191 10.7 6.20191 10.59 6.40191 10.49C6.60191 10.38 6.79191 10.27 6.98191 10.15C7.18191 10.04 7.37191 9.92 7.56191 9.8C7.75191 9.68 7.93191 9.55 8.12191 9.42C8.30191 9.3 8.48191 9.16 8.66191 9.03C8.65191 9.01 8.63191 8.98 8.62191 8.96C8.61191 8.94 8.60191 8.91 8.58191 8.89C8.57191 8.86 8.56191 8.84 8.55191 8.81C8.54191 8.79 8.54191 8.76 8.53191 8.74C8.52191 8.71 8.51191 8.69 8.51191 8.66C8.50191 8.63 8.50191 8.61 8.49191 8.58C8.49191 8.55 8.49191 8.53 8.48191 8.5C8.48191 8.47 8.48191 8.45 8.48191 8.42C8.48191 7.79 8.99191 7.28 9.62191 7.28L10.6919 7.28C11.9819 6 13.0919 4.54 13.9819 2.94L6.85191 2.94C5.25191 2.94 3.96191 4.23 3.96191 5.83L3.96191 11.61Z"></path></g></g><defs><rect id="path_0" x="0" y="0" width="30" height="29.99999999999998" /></defs></svg>