<svg xmlns="http://www.w3.org/2000/svg" xmlns:xlink="http://www.w3.org/1999/xlink" width="30" height="30" viewBox="0 0 30 30" fill="none"><g opacity="1"  transform="translate(0 0)  rotate(0)"><g opacity="1"  transform="translate(0 0)  rotate(0)"><g opacity="1"  transform="translate(0.0009765625 0)  rotate(0)"><path id="矩形 1" fill-rule="evenodd" style="fill:#52B852" opacity="1" d="M4.99999 30L24.9999 30C27.7599 30 29.9999 27.76 29.9999 25L29.9999 5C29.9999 2.24 27.7599 0 24.9999 0L4.99999 0C2.23999 0 0 2.24 0 5L0 25C0 27.76 2.23999 30 4.99999 30Z"></path></g></g><path id="路径 2" fill-rule="evenodd" style="fill:#FFFFFF" opacity="1" d="M22.5 24L8.50001 24C8.49183 24 8.48364 23.9998 8.47546 23.9994C8.46729 23.999 8.45914 23.9984 8.451 23.9976C8.44285 23.9968 8.43473 23.9958 8.42662 23.9946C8.41854 23.9934 8.41048 23.992 8.40245 23.9904C8.39442 23.9888 8.38645 23.987 8.37852 23.985C8.37057 23.983 8.36267 23.9808 8.35484 23.9784C8.34703 23.9761 8.33927 23.9735 8.33155 23.9708C8.32386 23.968 8.31623 23.9651 8.30867 23.9619C8.30109 23.9588 8.29361 23.9555 8.28623 23.952C8.27883 23.9485 8.27151 23.9448 8.26429 23.9409C8.25708 23.9371 8.24997 23.9331 8.24296 23.9288C8.23593 23.9247 8.22901 23.9203 8.22222 23.9157C8.21542 23.9112 8.20873 23.9065 8.20215 23.9016C8.19559 23.8967 8.18914 23.8917 8.18281 23.8865C8.17648 23.8813 8.17028 23.876 8.16421 23.8705C8.15815 23.865 8.15224 23.8593 8.14645 23.8536C8.14065 23.8478 8.13501 23.8418 8.12952 23.8358C8.12403 23.8297 8.11869 23.8235 8.1135 23.8172C8.1083 23.8109 8.10327 23.8044 8.09841 23.7978C8.09352 23.7913 8.08881 23.7846 8.08426 23.7778C8.07971 23.771 8.07533 23.7641 8.07113 23.7571C8.06693 23.75 8.0629 23.7429 8.05903 23.7357C8.05519 23.7285 8.05151 23.7212 8.04802 23.7138C8.0445 23.7064 8.04118 23.6989 8.03806 23.6913C8.03493 23.6838 8.03199 23.6761 8.02924 23.6684C8.02648 23.6607 8.02392 23.653 8.02153 23.6451C8.01915 23.6373 8.01696 23.6294 8.01497 23.6215C8.013 23.6136 8.01121 23.6056 8.00961 23.5975C8.00801 23.5895 8.00661 23.5814 8.00542 23.5734C8.00421 23.5652 8.0032 23.5571 8.0024 23.549C8.0016 23.5409 8.00101 23.5327 8.00062 23.5245C8.00021 23.5163 8 23.5082 8 23.5L8 8.5C8 8.49182 8.00021 8.48363 8.00062 8.47545C8.00101 8.46728 8.0016 8.45913 8.0024 8.45099C8.0032 8.44284 8.00421 8.43472 8.00542 8.42661C8.00661 8.41853 8.00801 8.41047 8.00961 8.40244C8.01121 8.39441 8.013 8.38644 8.01497 8.37851C8.01696 8.37056 8.01915 8.36267 8.02153 8.35483C8.02392 8.34702 8.02648 8.33926 8.02924 8.33154C8.03199 8.32385 8.03493 8.31622 8.03806 8.30866C8.04118 8.30108 8.0445 8.2936 8.04802 8.28622C8.05151 8.27882 8.05519 8.27151 8.05903 8.26431C8.0629 8.25708 8.06693 8.24996 8.07113 8.24295C8.07533 8.23592 8.07971 8.229 8.08426 8.22221C8.08881 8.21541 8.09352 8.20872 8.09841 8.20214C8.10327 8.19558 8.1083 8.18913 8.1135 8.1828C8.11869 8.17647 8.12403 8.17027 8.12952 8.1642C8.13501 8.15814 8.14065 8.15223 8.14645 8.14645C8.15224 8.14064 8.15815 8.135 8.16421 8.12951C8.17028 8.12402 8.17648 8.11868 8.18281 8.11349C8.18914 8.10829 8.19559 8.10326 8.20215 8.0984C8.20873 8.09351 8.21542 8.0888 8.22222 8.08425C8.22901 8.0797 8.23593 8.07532 8.24296 8.07112C8.24997 8.06693 8.25709 8.06289 8.26432 8.05902C8.27152 8.05518 8.27883 8.0515 8.28623 8.04801C8.29361 8.04449 8.30109 8.04117 8.30867 8.03805C8.31623 8.03492 8.32386 8.03198 8.33155 8.02923C8.33927 8.02647 8.34703 8.0239 8.35484 8.02152C8.36267 8.01914 8.37057 8.01695 8.37852 8.01496C8.38645 8.01299 8.39442 8.0112 8.40245 8.0096C8.41048 8.008 8.41854 8.0066 8.42662 8.00541C8.43473 8.0042 8.44285 8.00319 8.451 8.00239C8.45914 8.00159 8.46729 8.001 8.47546 8.00061C8.48364 8.0002 8.49183 7.99999 8.50001 7.99999L11.5 7.99999C11.5 8.03272 11.5007 8.06545 11.5023 8.09816C11.5038 8.13086 11.5062 8.1635 11.5094 8.1961C11.5125 8.22868 11.5165 8.26117 11.5213 8.29357C11.5261 8.32596 11.5317 8.35821 11.538 8.39034C11.5444 8.42245 11.5515 8.45438 11.5595 8.48614C11.5674 8.51792 11.5762 8.54947 11.5857 8.5808C11.5952 8.61213 11.6054 8.64321 11.6165 8.67405C11.6275 8.70487 11.6393 8.7354 11.6519 8.76563C11.6644 8.79589 11.6777 8.82581 11.6917 8.8554C11.7057 8.88499 11.7205 8.91421 11.7359 8.94306C11.7514 8.97192 11.7675 9.00039 11.7844 9.02846C11.8013 9.05652 11.8188 9.08415 11.8371 9.11134C11.8553 9.13853 11.8742 9.16525 11.8938 9.19152C11.9133 9.21779 11.9335 9.24356 11.9543 9.26881C11.9751 9.29408 11.9966 9.31883 12.0186 9.34305C12.0407 9.36725 12.0633 9.3909 12.0865 9.414C12.1096 9.43721 12.1332 9.45983 12.1574 9.48188C12.1816 9.50392 12.2063 9.52534 12.2316 9.54616C12.2568 9.567 12.2826 9.58719 12.3088 9.60672C12.3351 9.62627 12.3618 9.64517 12.389 9.66341C12.4162 9.68163 12.4438 9.69917 12.4718 9.71603C12.4999 9.7329 12.5283 9.74906 12.5572 9.76451C12.586 9.77998 12.6153 9.79472 12.6448 9.80872C12.6744 9.82275 12.7043 9.83602 12.7346 9.84854C12.7648 9.86107 12.7953 9.87286 12.8261 9.8839C12.857 9.89491 12.888 9.90517 12.9194 9.91466C12.9507 9.92415 12.9822 9.93285 13.014 9.94079C13.0457 9.94873 13.0777 9.95585 13.1098 9.96221C13.1419 9.96856 13.1742 9.97413 13.2065 9.97888C13.2389 9.98365 13.2714 9.98761 13.304 9.99074C13.3365 9.99391 13.3692 9.99625 13.4019 9.9978C13.4345 9.99936 13.4673 10.0001 13.5 10L17.5 10C17.5327 10 17.5655 9.99918 17.5981 9.99757C17.6308 9.99596 17.6635 9.99356 17.696 9.99036C17.7286 9.98717 17.7611 9.98315 17.7934 9.97835C17.8258 9.97355 17.8581 9.96795 17.8902 9.96156C17.9223 9.95518 17.9542 9.948 17.986 9.94006C18.0177 9.93212 18.0492 9.92338 18.0806 9.91387C18.1119 9.90438 18.143 9.89411 18.1738 9.88308C18.2046 9.87204 18.2351 9.86026 18.2654 9.84774C18.2956 9.83523 18.3255 9.82196 18.3551 9.80796C18.3847 9.79398 18.4139 9.77927 18.4428 9.76384C18.4716 9.74841 18.5001 9.73228 18.5282 9.71544C18.5563 9.69862 18.5839 9.68112 18.6111 9.66294C18.6383 9.64475 18.6651 9.62591 18.6914 9.6064C18.7177 9.58691 18.7435 9.56678 18.7688 9.54602C18.7941 9.52525 18.8189 9.50388 18.8431 9.48188C18.8674 9.45991 18.8911 9.43735 18.9142 9.41421C18.9373 9.39106 18.9599 9.36736 18.9819 9.34311C19.0039 9.31885 19.0252 9.29407 19.046 9.26878C19.0668 9.24347 19.0869 9.21766 19.1064 9.19138C19.1259 9.16509 19.1447 9.13834 19.1629 9.11113C19.1811 9.08391 19.1986 9.05626 19.2155 9.02819C19.2323 9.00013 19.2484 8.97166 19.2638 8.94279C19.2793 8.91393 19.294 8.8847 19.308 8.85511C19.322 8.82552 19.3352 8.79561 19.3478 8.76537C19.3603 8.73512 19.3721 8.70458 19.3831 8.67376C19.3941 8.64294 19.4044 8.61188 19.4139 8.58057C19.4234 8.54924 19.4321 8.5177 19.44 8.48594C19.448 8.4542 19.4552 8.42228 19.4616 8.39017C19.4679 8.35806 19.4735 8.32582 19.4783 8.29346C19.4831 8.26107 19.4872 8.22859 19.4904 8.19602C19.4936 8.16346 19.496 8.13083 19.4976 8.09813C19.4992 8.06544 19.5 8.03272 19.5 7.99999L22.5 7.99999C22.5082 7.99999 22.5164 8.0002 22.5245 8.00061C22.5327 8.001 22.5409 8.00159 22.549 8.00239C22.5571 8.00319 22.5653 8.0042 22.5734 8.00541C22.5815 8.0066 22.5895 8.008 22.5975 8.0096C22.6056 8.0112 22.6135 8.01299 22.6215 8.01496C22.6294 8.01695 22.6373 8.01914 22.6452 8.02152C22.653 8.0239 22.6607 8.02647 22.6684 8.02923C22.6762 8.03198 22.6838 8.03492 22.6913 8.03805C22.6989 8.04117 22.7064 8.04449 22.7138 8.04801C22.7212 8.0515 22.7285 8.05518 22.7357 8.05902C22.7429 8.06289 22.75 8.06693 22.757 8.07112C22.7641 8.07532 22.771 8.0797 22.7778 8.08425C22.7846 8.0888 22.7913 8.09351 22.7979 8.0984C22.8044 8.10326 22.8109 8.10829 22.8172 8.11349C22.8235 8.11868 22.8297 8.12402 22.8358 8.12951C22.8419 8.135 22.8478 8.14064 22.8535 8.14645C22.8593 8.15223 22.865 8.15814 22.8705 8.1642C22.876 8.17027 22.8813 8.17647 22.8865 8.1828C22.8917 8.18913 22.8967 8.19558 22.9016 8.20214C22.9065 8.20872 22.9112 8.21541 22.9157 8.22221C22.9203 8.229 22.9247 8.23592 22.9289 8.24295C22.9331 8.24996 22.9371 8.25708 22.941 8.26431C22.9448 8.27151 22.9485 8.27882 22.952 8.28622C22.9555 8.2936 22.9588 8.30108 22.9619 8.30866C22.9651 8.31622 22.968 8.32385 22.9708 8.33154C22.9735 8.33926 22.9761 8.34702 22.9785 8.35483C22.9808 8.36267 22.983 8.37056 22.985 8.37851C22.987 8.38644 22.9888 8.39441 22.9904 8.40244C22.992 8.41047 22.9934 8.41853 22.9946 8.42661C22.9958 8.43472 22.9968 8.44284 22.9976 8.45099C22.9984 8.45913 22.999 8.46728 22.9994 8.47545C22.9998 8.48363 23 8.49182 23 8.5L23 23.5C23 23.5082 22.9998 23.5163 22.9994 23.5245C22.999 23.5327 22.9984 23.5409 22.9976 23.549C22.9968 23.5571 22.9958 23.5652 22.9946 23.5734C22.9934 23.5814 22.992 23.5895 22.9904 23.5975C22.9888 23.6056 22.987 23.6135 22.985 23.6215C22.983 23.6294 22.9808 23.6373 22.9785 23.6451C22.9761 23.653 22.9735 23.6607 22.9708 23.6684C22.968 23.6761 22.9651 23.6838 22.9619 23.6913C22.9588 23.6989 22.9555 23.7064 22.952 23.7138C22.9485 23.7212 22.9448 23.7285 22.941 23.7357C22.9371 23.7429 22.9331 23.75 22.9289 23.7571C22.9246 23.7641 22.9203 23.771 22.9157 23.7778C22.9112 23.7846 22.9065 23.7913 22.9016 23.7978C22.8967 23.8044 22.8917 23.8109 22.8865 23.8172C22.8813 23.8235 22.876 23.8297 22.8705 23.8358C22.865 23.8418 22.8593 23.8478 22.8535 23.8536C22.8478 23.8593 22.8419 23.865 22.8358 23.8705C22.8297 23.876 22.8235 23.8813 22.8172 23.8865C22.8109 23.8917 22.8044 23.8967 22.7979 23.9016C22.7913 23.9065 22.7846 23.9112 22.7778 23.9157C22.771 23.9203 22.7641 23.9247 22.757 23.9288C22.75 23.9331 22.7429 23.9371 22.7357 23.9409C22.7285 23.9448 22.7212 23.9485 22.7138 23.952C22.7064 23.9555 22.6989 23.9588 22.6913 23.9619C22.6838 23.9651 22.6762 23.968 22.6684 23.9708C22.6607 23.9735 22.653 23.9761 22.6452 23.9784C22.6373 23.9808 22.6294 23.983 22.6215 23.985C22.6135 23.987 22.6056 23.9888 22.5975 23.9904C22.5895 23.992 22.5815 23.9934 22.5734 23.9946C22.5653 23.9958 22.5571 23.9968 22.549 23.9976C22.5409 23.9984 22.5327 23.999 22.5245 23.9994C22.5164 23.9998 22.5082 24 22.5 24ZM11.439 19.3535C11.4226 19.3535 11.4063 19.3542 11.39 19.3558C11.3737 19.3574 11.3575 19.3597 11.3414 19.3629C11.3253 19.3661 11.3095 19.37 11.2938 19.3748C11.2781 19.3795 11.2627 19.385 11.2476 19.3913C11.2324 19.3976 11.2176 19.4046 11.2032 19.4123C11.1888 19.4201 11.1748 19.4285 11.1611 19.4376C11.1475 19.4467 11.1344 19.4565 11.1218 19.4669C11.1092 19.4774 11.0971 19.4884 11.0855 19.5C11.0739 19.5116 11.0629 19.5237 11.0524 19.5363C11.042 19.5489 11.0322 19.562 11.0231 19.5756C11.014 19.5892 11.0056 19.6033 10.9978 19.6177C10.9901 19.6321 10.9831 19.6469 10.9768 19.6621C10.9706 19.6772 10.965 19.6926 10.9603 19.7083C10.9556 19.724 10.9516 19.7398 10.9484 19.7559C10.9452 19.772 10.9429 19.7881 10.9413 19.8045C10.9397 19.8208 10.939 19.8371 10.939 19.8535C10.939 19.8699 10.9397 19.8862 10.9413 19.9025C10.9429 19.9188 10.9452 19.935 10.9484 19.9511C10.9516 19.9672 10.9556 19.983 10.9603 19.9987C10.965 20.0144 10.9706 20.0298 10.9768 20.0449C10.9831 20.0601 10.9901 20.0748 10.9978 20.0893C11.0056 20.1037 11.014 20.1177 11.0231 20.1314C11.0322 20.145 11.042 20.1581 11.0524 20.1707C11.0629 20.1833 11.0739 20.1954 11.0855 20.207L11.793 20.9145C11.8045 20.9261 11.8166 20.9371 11.8292 20.9475C11.8418 20.9579 11.855 20.9677 11.8685 20.9768C11.8821 20.9859 11.8961 20.9944 11.9105 21.0021C11.925 21.0098 11.9397 21.0168 11.9548 21.0231C11.9699 21.0293 11.9853 21.0348 12.001 21.0396C12.0167 21.0444 12.0325 21.0483 12.0485 21.0515C12.0646 21.0547 12.0808 21.0571 12.0971 21.0587C12.1133 21.0602 12.1296 21.061 12.146 21.061C12.1624 21.061 12.1787 21.0603 12.195 21.0587C12.2113 21.0571 12.2275 21.0547 12.2436 21.0515C12.2596 21.0484 12.2755 21.0444 12.2912 21.0396C12.3069 21.0349 12.3223 21.0294 12.3374 21.0231C12.3525 21.0169 12.3673 21.0099 12.3818 21.0021C12.3962 20.9944 12.4102 20.9859 12.4238 20.9768C12.4375 20.9677 12.4506 20.9579 12.4632 20.9475C12.4758 20.9371 12.4879 20.9261 12.4995 20.9145L13.914 19.5C13.9256 19.4884 13.9367 19.4764 13.9471 19.4637C13.9575 19.4511 13.9673 19.438 13.9764 19.4244C13.9855 19.4107 13.994 19.3967 14.0017 19.3823C14.0094 19.3679 14.0164 19.3531 14.0227 19.3379C14.029 19.3228 14.0345 19.3074 14.0392 19.2917C14.044 19.276 14.0479 19.2602 14.0511 19.2441C14.0543 19.228 14.0567 19.2118 14.0582 19.1955C14.0598 19.1792 14.0606 19.1629 14.0605 19.1465C14.0606 19.1301 14.0598 19.1138 14.0582 19.0975C14.0567 19.0812 14.0543 19.065 14.0511 19.0489C14.0479 19.0328 14.044 19.0169 14.0392 19.0013C14.0345 18.9856 14.029 18.9702 14.0227 18.955C14.0164 18.9399 14.0094 18.9251 14.0017 18.9107C13.994 18.8962 13.9855 18.8822 13.9764 18.8686C13.9673 18.855 13.9575 18.8419 13.9471 18.8293C13.9367 18.8166 13.9256 18.8045 13.914 18.793C13.9024 18.7814 13.8903 18.7703 13.8777 18.7599C13.8651 18.7495 13.852 18.7397 13.8384 18.7306C13.8247 18.7215 13.8107 18.7131 13.7963 18.7053C13.7819 18.6976 13.7671 18.6906 13.7519 18.6843C13.7368 18.6781 13.7214 18.6726 13.7057 18.6678C13.69 18.6631 13.6742 18.6591 13.6581 18.6559C13.642 18.6527 13.6258 18.6503 13.6095 18.6488C13.5932 18.6472 13.5769 18.6464 13.5605 18.6465C13.5441 18.6464 13.5278 18.6472 13.5115 18.6488C13.4952 18.6504 13.479 18.6527 13.4629 18.6559C13.4468 18.6591 13.431 18.6631 13.4153 18.6678C13.3996 18.6726 13.3842 18.6781 13.3691 18.6843C13.3539 18.6906 13.3392 18.6976 13.3247 18.7053C13.3103 18.7131 13.2963 18.7215 13.2826 18.7306C13.269 18.7397 13.2559 18.7495 13.2433 18.7599C13.2307 18.7703 13.2186 18.7814 13.207 18.793L12.146 19.854L11.7925 19.5C11.7809 19.4883 11.7688 19.4773 11.7562 19.4669C11.7436 19.4565 11.7305 19.4467 11.7169 19.4376C11.7032 19.4285 11.6892 19.4201 11.6748 19.4123C11.6604 19.4046 11.6456 19.3976 11.6304 19.3913C11.6153 19.385 11.5999 19.3795 11.5842 19.3748C11.5685 19.37 11.5527 19.3661 11.5366 19.3629C11.5205 19.3597 11.5043 19.3574 11.488 19.3558C11.4717 19.3542 11.4554 19.3535 11.439 19.3535ZM16 19.5C15.9918 19.5 15.9836 19.5002 15.9755 19.5006C15.9673 19.501 15.9591 19.5016 15.951 19.5024C15.9429 19.5032 15.9347 19.5042 15.9266 19.5054C15.9185 19.5066 15.9105 19.508 15.9025 19.5096C15.8944 19.5112 15.8865 19.513 15.8785 19.515C15.8706 19.517 15.8627 19.5191 15.8548 19.5215C15.847 19.5239 15.8393 19.5265 15.8316 19.5292C15.8238 19.532 15.8162 19.5349 15.8086 19.538C15.8011 19.5412 15.7936 19.5445 15.7862 19.548C15.7788 19.5515 15.7715 19.5552 15.7643 19.559C15.7571 19.5629 15.75 19.5669 15.743 19.5711C15.7359 19.5753 15.729 19.5797 15.7222 19.5843C15.7154 19.5888 15.7087 19.5935 15.7021 19.5984C15.6956 19.6033 15.6891 19.6083 15.6828 19.6135C15.6765 19.6187 15.6703 19.624 15.6642 19.6295C15.6581 19.635 15.6522 19.6407 15.6465 19.6464C15.6407 19.6522 15.635 19.6582 15.6295 19.6642C15.624 19.6703 15.6187 19.6765 15.6135 19.6828C15.6083 19.6891 15.6033 19.6956 15.5984 19.7021C15.5935 19.7087 15.5888 19.7154 15.5843 19.7222C15.5797 19.729 15.5753 19.7359 15.5711 19.7429C15.5669 19.7499 15.5629 19.7571 15.559 19.7643C15.5552 19.7715 15.5515 19.7788 15.548 19.7862C15.5445 19.7936 15.5412 19.8011 15.5381 19.8087C15.5349 19.8162 15.532 19.8238 15.5292 19.8315C15.5265 19.8392 15.5239 19.847 15.5215 19.8549C15.5192 19.8627 15.517 19.8706 15.515 19.8785C15.513 19.8864 15.5112 19.8944 15.5096 19.9024C15.508 19.9105 15.5066 19.9185 15.5054 19.9266C15.5042 19.9347 15.5032 19.9428 15.5024 19.951C15.5016 19.9591 15.501 19.9673 15.5006 19.9755C15.5002 19.9836 15.5 19.9918 15.5 20C15.5 20.0082 15.5002 20.0163 15.5006 20.0245C15.501 20.0327 15.5016 20.0409 15.5024 20.049C15.5032 20.0571 15.5042 20.0653 15.5054 20.0733C15.5066 20.0815 15.508 20.0895 15.5096 20.0975C15.5112 20.1055 15.513 20.1135 15.515 20.1215C15.517 20.1294 15.5192 20.1373 15.5215 20.1451C15.5239 20.153 15.5265 20.1607 15.5292 20.1684C15.532 20.1761 15.5349 20.1838 15.5381 20.1913C15.5412 20.1989 15.5445 20.2064 15.548 20.2138C15.5515 20.2212 15.5552 20.2285 15.559 20.2357C15.5629 20.2429 15.5669 20.25 15.5711 20.257C15.5753 20.264 15.5797 20.271 15.5843 20.2778C15.5888 20.2846 15.5935 20.2913 15.5984 20.2978C15.6033 20.3044 15.6083 20.3109 15.6135 20.3172C15.6187 20.3235 15.624 20.3297 15.6295 20.3358C15.635 20.3418 15.6407 20.3478 15.6465 20.3535C15.6522 20.3593 15.6581 20.365 15.6642 20.3704C15.6703 20.376 15.6765 20.3813 15.6828 20.3865C15.6891 20.3917 15.6956 20.3967 15.7021 20.4016C15.7087 20.4065 15.7154 20.4112 15.7222 20.4157C15.729 20.4203 15.7359 20.4246 15.743 20.4288C15.75 20.4331 15.7571 20.4371 15.7643 20.4409C15.7715 20.4448 15.7788 20.4485 15.7862 20.452C15.7936 20.4555 15.8011 20.4588 15.8086 20.4619C15.8162 20.465 15.8238 20.468 15.8316 20.4708C15.8393 20.4735 15.847 20.4761 15.8548 20.4785C15.8627 20.4808 15.8706 20.483 15.8785 20.485C15.8865 20.487 15.8944 20.4888 15.9025 20.4904C15.9105 20.492 15.9185 20.4934 15.9266 20.4946C15.9347 20.4958 15.9429 20.4968 15.951 20.4976C15.9591 20.4984 15.9673 20.499 15.9755 20.4994C15.9836 20.4998 15.9918 20.5 16 20.5L20 20.5C20.0082 20.5 20.0163 20.4998 20.0245 20.4994C20.0327 20.499 20.0409 20.4984 20.049 20.4976C20.0572 20.4968 20.0653 20.4958 20.0734 20.4946C20.0815 20.4934 20.0895 20.492 20.0975 20.4904C20.1056 20.4888 20.1136 20.487 20.1215 20.485C20.1294 20.483 20.1373 20.4808 20.1451 20.4785C20.153 20.4761 20.1607 20.4735 20.1684 20.4708C20.1761 20.468 20.1838 20.465 20.1913 20.4619C20.1989 20.4588 20.2064 20.4555 20.2138 20.452C20.2212 20.4485 20.2285 20.4448 20.2357 20.4409C20.2429 20.4371 20.25 20.4331 20.257 20.4288C20.2641 20.4246 20.271 20.4203 20.2778 20.4157C20.2846 20.4112 20.2913 20.4065 20.2978 20.4016C20.3044 20.3967 20.3109 20.3917 20.3172 20.3865C20.3235 20.3813 20.3297 20.376 20.3358 20.3704C20.3418 20.365 20.3478 20.3593 20.3536 20.3535C20.3593 20.3478 20.365 20.3418 20.3705 20.3358C20.376 20.3297 20.3813 20.3235 20.3865 20.3172C20.3917 20.3109 20.3967 20.3044 20.4016 20.2978C20.4065 20.2913 20.4112 20.2846 20.4157 20.2778C20.4203 20.271 20.4247 20.264 20.4288 20.257C20.4331 20.25 20.4371 20.2429 20.4409 20.2357C20.4448 20.2285 20.4485 20.2212 20.452 20.2138C20.4555 20.2064 20.4588 20.1989 20.4619 20.1913C20.4651 20.1838 20.468 20.1761 20.4708 20.1684C20.4735 20.1607 20.4761 20.153 20.4785 20.1451C20.4809 20.1373 20.483 20.1294 20.485 20.1215C20.487 20.1135 20.4888 20.1055 20.4904 20.0975C20.492 20.0895 20.4934 20.0815 20.4946 20.0733C20.4958 20.0653 20.4968 20.0571 20.4976 20.049C20.4984 20.0409 20.499 20.0327 20.4994 20.0245C20.4998 20.0163 20.5 20.0082 20.5 20C20.5 19.9918 20.4998 19.9836 20.4994 19.9755C20.499 19.9673 20.4984 19.9591 20.4976 19.951C20.4968 19.9428 20.4958 19.9347 20.4946 19.9266C20.4934 19.9185 20.492 19.9105 20.4904 19.9024C20.4888 19.8944 20.487 19.8864 20.485 19.8785C20.483 19.8706 20.4809 19.8627 20.4785 19.8549C20.4761 19.847 20.4735 19.8392 20.4708 19.8315C20.468 19.8238 20.4651 19.8162 20.4619 19.8087C20.4588 19.8011 20.4555 19.7936 20.452 19.7862C20.4485 19.7788 20.4448 19.7715 20.4409 19.7643C20.4371 19.7571 20.4331 19.7499 20.4288 19.7429C20.4247 19.7359 20.4203 19.729 20.4157 19.7222C20.4112 19.7154 20.4065 19.7087 20.4016 19.7021C20.3967 19.6956 20.3917 19.6891 20.3865 19.6828C20.3813 19.6765 20.376 19.6703 20.3705 19.6642C20.365 19.6582 20.3593 19.6522 20.3536 19.6464C20.3478 19.6407 20.3418 19.635 20.3358 19.6295C20.3297 19.624 20.3235 19.6187 20.3172 19.6135C20.3109 19.6083 20.3044 19.6033 20.2978 19.5984C20.2913 19.5935 20.2846 19.5888 20.2778 19.5842C20.271 19.5797 20.2641 19.5753 20.257 19.5711C20.25 19.5669 20.2429 19.5629 20.2357 19.559C20.2285 19.5552 20.2212 19.5515 20.2138 19.548C20.2064 19.5445 20.1989 19.5412 20.1913 19.538C20.1838 19.5349 20.1761 19.532 20.1684 19.5292C20.1607 19.5265 20.153 19.5239 20.1451 19.5215C20.1373 19.5191 20.1294 19.517 20.1215 19.515C20.1136 19.513 20.1056 19.5112 20.0975 19.5096C20.0895 19.508 20.0815 19.5066 20.0734 19.5054C20.0653 19.5042 20.0572 19.5032 20.049 19.5024C20.0409 19.5016 20.0327 19.501 20.0245 19.5006C20.0163 19.5002 20.0082 19.5 20 19.5L16 19.5ZM11.439 16.3535C11.4226 16.3535 11.4063 16.3542 11.39 16.3558C11.3738 16.3574 11.3576 16.3598 11.3415 16.363C11.3255 16.3662 11.3096 16.3701 11.294 16.3749C11.2783 16.3796 11.2629 16.3851 11.2479 16.3914C11.2327 16.3977 11.218 16.4047 11.2036 16.4124C11.1891 16.4201 11.1751 16.4286 11.1615 16.4377C11.1479 16.4468 11.1349 16.4566 11.1222 16.467C11.1096 16.4774 11.0975 16.4884 11.086 16.5C11.0802 16.5058 11.0746 16.5117 11.0691 16.5178C11.0635 16.5238 11.0582 16.53 11.053 16.5364C11.0478 16.5427 11.0428 16.5491 11.0379 16.5557C11.033 16.5623 11.0283 16.569 11.0237 16.5758C11.0192 16.5826 11.0148 16.5895 11.0106 16.5965C11.0064 16.6035 11.0023 16.6107 10.9985 16.6179C10.9946 16.6251 10.9909 16.6324 10.9874 16.6398C10.9839 16.6472 10.9806 16.6547 10.9775 16.6623C10.9743 16.6698 10.9714 16.6775 10.9686 16.6852C10.9659 16.6929 10.9633 16.7007 10.9609 16.7085C10.9585 16.7163 10.9563 16.7242 10.9544 16.7322C10.9524 16.7401 10.9506 16.7481 10.949 16.7561C10.9474 16.7642 10.946 16.7722 10.9448 16.7803C10.9436 16.7884 10.9425 16.7966 10.9418 16.8047C10.941 16.8128 10.9404 16.821 10.94 16.8292C10.9396 16.8374 10.9394 16.8456 10.9394 16.8537C10.9394 16.8619 10.9396 16.8701 10.94 16.8783C10.9404 16.8865 10.941 16.8946 10.9418 16.9028C10.9425 16.9109 10.9436 16.919 10.9448 16.9272C10.946 16.9353 10.9474 16.9433 10.949 16.9514C10.9506 16.9594 10.9524 16.9674 10.9544 16.9753C10.9563 16.9833 10.9585 16.9912 10.9609 16.999C10.9633 17.0068 10.9659 17.0146 10.9686 17.0223C10.9714 17.03 10.9743 17.0376 10.9775 17.0452C10.9806 17.0528 10.9839 17.0603 10.9874 17.0677C10.9909 17.0751 10.9946 17.0824 10.9985 17.0896C11.0023 17.0968 11.0064 17.1039 11.0106 17.111C11.0148 17.118 11.0192 17.1249 11.0237 17.1317C11.0283 17.1385 11.033 17.1452 11.0379 17.1518C11.0428 17.1584 11.0478 17.1648 11.053 17.1711C11.0582 17.1774 11.0635 17.1837 11.0691 17.1897C11.0746 17.1958 11.0802 17.2017 11.086 17.2075L11.7935 17.915C11.8051 17.9266 11.8172 17.9376 11.8298 17.948C11.8425 17.9584 11.8556 17.9681 11.8692 17.9772C11.8828 17.9863 11.8968 17.9947 11.9113 18.0024C11.9257 18.0101 11.9405 18.0171 11.9556 18.0234C11.9708 18.0296 11.9862 18.0351 12.0019 18.0398C12.0175 18.0445 12.0334 18.0485 12.0494 18.0517C12.0655 18.0548 12.0817 18.0572 12.098 18.0587C12.1143 18.0603 12.1306 18.061 12.147 18.061C12.1633 18.061 12.1797 18.0603 12.196 18.0587C12.2122 18.0572 12.2284 18.0548 12.2444 18.0516C12.2605 18.0485 12.2763 18.0445 12.292 18.0398C12.3076 18.0351 12.323 18.0296 12.3381 18.0233C12.3532 18.0171 12.368 18.0101 12.3824 18.0024C12.3968 17.9947 12.4108 17.9863 12.4244 17.9772C12.438 17.9681 12.4511 17.9584 12.4638 17.9479C12.4764 17.9375 12.4885 17.9266 12.5 17.915L13.9145 16.5C13.9261 16.4885 13.9371 16.4764 13.9475 16.4638C13.9579 16.4511 13.9677 16.438 13.9768 16.4245C13.9859 16.4109 13.9944 16.3969 14.0021 16.3825C14.0098 16.3681 14.0168 16.3533 14.0231 16.3382C14.0294 16.3231 14.0349 16.3077 14.0396 16.292C14.0444 16.2764 14.0483 16.2605 14.0515 16.2445C14.0547 16.2284 14.0571 16.2122 14.0587 16.196C14.0603 16.1797 14.061 16.1634 14.061 16.147C14.0611 16.1306 14.0603 16.1142 14.0587 16.0979C14.0572 16.0816 14.0548 16.0654 14.0516 16.0493C14.0485 16.0332 14.0445 16.0173 14.0398 16.0016C14.035 15.9859 14.0295 15.9705 14.0232 15.9553C14.017 15.9402 14.01 15.9254 14.0022 15.9109C13.9945 15.8964 13.986 15.8824 13.9769 15.8688C13.9678 15.8551 13.958 15.842 13.9476 15.8293C13.9372 15.8167 13.9261 15.8046 13.9145 15.793C13.9029 15.7814 13.8908 15.7703 13.8782 15.7599C13.8656 15.7495 13.8525 15.7397 13.8389 15.7306C13.8252 15.7215 13.8112 15.7131 13.7968 15.7053C13.7824 15.6976 13.7676 15.6906 13.7524 15.6843C13.7373 15.6781 13.7219 15.6725 13.7062 15.6678C13.6905 15.6631 13.6747 15.6591 13.6586 15.6559C13.6425 15.6527 13.6263 15.6504 13.61 15.6488C13.5937 15.6472 13.5774 15.6464 13.561 15.6465C13.5446 15.6464 13.5283 15.6472 13.512 15.6488C13.4957 15.6504 13.4795 15.6527 13.4634 15.6559C13.4473 15.6591 13.4315 15.6631 13.4158 15.6678C13.4001 15.6725 13.3847 15.6781 13.3696 15.6843C13.3544 15.6906 13.3396 15.6976 13.3252 15.7053C13.3108 15.7131 13.2968 15.7215 13.2831 15.7306C13.2695 15.7397 13.2564 15.7495 13.2438 15.7599C13.2312 15.7703 13.2191 15.7814 13.2075 15.793L12.1465 16.854L11.793 16.5005C11.7814 16.4888 11.7693 16.4778 11.7567 16.4673C11.7441 16.4569 11.7309 16.4471 11.7173 16.4379C11.7037 16.4288 11.6896 16.4203 11.6752 16.4125C11.6607 16.4048 11.6459 16.3978 11.6308 16.3915C11.6156 16.3852 11.6002 16.3796 11.5845 16.3749C11.5688 16.3701 11.5529 16.3661 11.5368 16.3629C11.5207 16.3597 11.5044 16.3574 11.4881 16.3558C11.4718 16.3542 11.4554 16.3535 11.439 16.3535ZM16 16.5C15.9918 16.5 15.9836 16.5002 15.9755 16.5006C15.9673 16.501 15.9591 16.5016 15.951 16.5024C15.9429 16.5032 15.9347 16.5042 15.9266 16.5054C15.9185 16.5066 15.9105 16.508 15.9025 16.5096C15.8944 16.5112 15.8865 16.513 15.8785 16.515C15.8706 16.517 15.8627 16.5191 15.8548 16.5215C15.847 16.5239 15.8393 16.5265 15.8316 16.5292C15.8238 16.532 15.8162 16.5349 15.8086 16.538C15.8011 16.5412 15.7936 16.5445 15.7862 16.548C15.7788 16.5515 15.7715 16.5552 15.7643 16.559C15.7571 16.5629 15.75 16.5669 15.743 16.5711C15.7359 16.5753 15.729 16.5797 15.7222 16.5843C15.7154 16.5888 15.7087 16.5935 15.7021 16.5984C15.6956 16.6033 15.6891 16.6083 15.6828 16.6135C15.6765 16.6187 15.6703 16.624 15.6642 16.6295C15.6581 16.635 15.6522 16.6407 15.6465 16.6464C15.6407 16.6522 15.635 16.6582 15.6295 16.6642C15.624 16.6703 15.6187 16.6765 15.6135 16.6828C15.6083 16.6891 15.6033 16.6956 15.5984 16.7021C15.5935 16.7087 15.5888 16.7154 15.5843 16.7222C15.5797 16.729 15.5753 16.7359 15.5711 16.7429C15.5669 16.7499 15.5629 16.7571 15.559 16.7643C15.5552 16.7715 15.5515 16.7788 15.548 16.7862C15.5445 16.7936 15.5412 16.8011 15.5381 16.8087C15.5349 16.8162 15.532 16.8238 15.5292 16.8315C15.5265 16.8392 15.5239 16.847 15.5215 16.8549C15.5192 16.8627 15.517 16.8706 15.515 16.8785C15.513 16.8864 15.5112 16.8944 15.5096 16.9024C15.508 16.9105 15.5066 16.9185 15.5054 16.9266C15.5042 16.9347 15.5032 16.9428 15.5024 16.951C15.5016 16.9591 15.501 16.9673 15.5006 16.9755C15.5002 16.9836 15.5 16.9918 15.5 17C15.5 17.0082 15.5002 17.0163 15.5006 17.0245C15.501 17.0327 15.5016 17.0409 15.5024 17.049C15.5032 17.0571 15.5042 17.0653 15.5054 17.0733C15.5066 17.0815 15.508 17.0895 15.5096 17.0975C15.5112 17.1055 15.513 17.1135 15.515 17.1215C15.517 17.1294 15.5192 17.1373 15.5215 17.1451C15.5239 17.153 15.5265 17.1607 15.5292 17.1684C15.532 17.1762 15.5349 17.1838 15.5381 17.1913C15.5412 17.1989 15.5445 17.2064 15.548 17.2138C15.5515 17.2212 15.5552 17.2285 15.559 17.2357C15.5629 17.2429 15.5669 17.25 15.5711 17.257C15.5753 17.264 15.5797 17.271 15.5843 17.2778C15.5888 17.2846 15.5935 17.2913 15.5984 17.2979C15.6033 17.3044 15.6083 17.3109 15.6135 17.3172C15.6187 17.3235 15.624 17.3297 15.6295 17.3358C15.635 17.3418 15.6407 17.3478 15.6465 17.3535C15.6522 17.3593 15.6581 17.365 15.6642 17.3705C15.6703 17.376 15.6765 17.3813 15.6828 17.3865C15.6891 17.3917 15.6956 17.3967 15.7021 17.4016C15.7087 17.4065 15.7154 17.4112 15.7222 17.4157C15.729 17.4203 15.7359 17.4246 15.743 17.4289C15.75 17.4331 15.7571 17.4371 15.7643 17.4409C15.7715 17.4448 15.7788 17.4485 15.7862 17.452C15.7936 17.4555 15.8011 17.4588 15.8086 17.4619C15.8162 17.4651 15.8238 17.468 15.8316 17.4708C15.8393 17.4735 15.847 17.4761 15.8548 17.4785C15.8627 17.4808 15.8706 17.483 15.8785 17.485C15.8865 17.487 15.8944 17.4888 15.9025 17.4904C15.9105 17.492 15.9185 17.4934 15.9266 17.4946C15.9347 17.4958 15.9429 17.4968 15.951 17.4976C15.9591 17.4984 15.9673 17.499 15.9755 17.4994C15.9836 17.4998 15.9918 17.5 16 17.5L20 17.5C20.0082 17.5 20.0163 17.4998 20.0245 17.4994C20.0327 17.499 20.0409 17.4984 20.049 17.4976C20.0572 17.4968 20.0653 17.4958 20.0734 17.4946C20.0815 17.4934 20.0895 17.492 20.0975 17.4904C20.1056 17.4888 20.1136 17.487 20.1215 17.485C20.1294 17.483 20.1373 17.4808 20.1451 17.4785C20.153 17.4761 20.1607 17.4735 20.1684 17.4708C20.1761 17.468 20.1838 17.4651 20.1913 17.4619C20.1989 17.4588 20.2064 17.4555 20.2138 17.452C20.2212 17.4485 20.2285 17.4448 20.2357 17.4409C20.2429 17.4371 20.25 17.4331 20.257 17.4289C20.2641 17.4246 20.271 17.4203 20.2778 17.4157C20.2846 17.4112 20.2913 17.4065 20.2978 17.4016C20.3044 17.3967 20.3109 17.3917 20.3172 17.3865C20.3235 17.3813 20.3297 17.376 20.3358 17.3705C20.3418 17.365 20.3478 17.3593 20.3536 17.3535C20.3593 17.3478 20.365 17.3418 20.3705 17.3358C20.376 17.3297 20.3813 17.3235 20.3865 17.3172C20.3917 17.3109 20.3967 17.3044 20.4016 17.2979C20.4065 17.2913 20.4112 17.2846 20.4157 17.2778C20.4203 17.271 20.4247 17.264 20.4288 17.257C20.4331 17.25 20.4371 17.2429 20.4409 17.2357C20.4448 17.2285 20.4485 17.2212 20.452 17.2138C20.4555 17.2064 20.4588 17.1989 20.4619 17.1913C20.4651 17.1838 20.468 17.1762 20.4708 17.1684C20.4735 17.1607 20.4761 17.153 20.4785 17.1451C20.4809 17.1373 20.483 17.1294 20.485 17.1215C20.487 17.1135 20.4888 17.1055 20.4904 17.0975C20.492 17.0895 20.4934 17.0815 20.4946 17.0733C20.4958 17.0653 20.4968 17.0571 20.4976 17.049C20.4984 17.0409 20.499 17.0327 20.4994 17.0245C20.4998 17.0163 20.5 17.0082 20.5 17C20.5 16.9918 20.4998 16.9836 20.4994 16.9755C20.499 16.9673 20.4984 16.9591 20.4976 16.951C20.4968 16.9428 20.4958 16.9347 20.4946 16.9266C20.4934 16.9185 20.492 16.9105 20.4904 16.9024C20.4888 16.8944 20.487 16.8864 20.485 16.8785C20.483 16.8706 20.4809 16.8627 20.4785 16.8549C20.4761 16.847 20.4735 16.8392 20.4708 16.8315C20.468 16.8238 20.4651 16.8162 20.4619 16.8087C20.4588 16.8011 20.4555 16.7936 20.452 16.7862C20.4485 16.7788 20.4448 16.7715 20.4409 16.7643C20.4371 16.7571 20.4331 16.7499 20.4288 16.7429C20.4247 16.7359 20.4203 16.729 20.4157 16.7222C20.4112 16.7154 20.4065 16.7087 20.4016 16.7021C20.3967 16.6956 20.3917 16.6891 20.3865 16.6828C20.3813 16.6765 20.376 16.6703 20.3705 16.6642C20.365 16.6582 20.3593 16.6522 20.3536 16.6464C20.3478 16.6407 20.3418 16.635 20.3358 16.6295C20.3297 16.624 20.3235 16.6187 20.3172 16.6135C20.3109 16.6083 20.3044 16.6033 20.2978 16.5984C20.2913 16.5935 20.2846 16.5888 20.2778 16.5843C20.271 16.5797 20.2641 16.5753 20.257 16.5711C20.25 16.5669 20.2429 16.5629 20.2357 16.559C20.2285 16.5552 20.2212 16.5515 20.2138 16.548C20.2064 16.5445 20.1989 16.5412 20.1913 16.538C20.1838 16.5349 20.1761 16.532 20.1684 16.5292C20.1607 16.5265 20.153 16.5239 20.1451 16.5215C20.1373 16.5191 20.1294 16.517 20.1215 16.515C20.1136 16.513 20.1056 16.5112 20.0975 16.5096C20.0895 16.508 20.0815 16.5066 20.0734 16.5054C20.0653 16.5042 20.0572 16.5032 20.049 16.5024C20.0409 16.5016 20.0327 16.501 20.0245 16.5006C20.0163 16.5002 20.0082 16.5 20 16.5L16 16.5ZM11.439 13.354C11.4226 13.354 11.4063 13.3547 11.39 13.3563C11.3737 13.3579 11.3575 13.3603 11.3414 13.3634C11.3253 13.3666 11.3095 13.3706 11.2938 13.3753C11.2781 13.3801 11.2627 13.3856 11.2476 13.3918C11.2324 13.3981 11.2177 13.4051 11.2032 13.4129C11.1888 13.4206 11.1748 13.429 11.1612 13.4381C11.1475 13.4472 11.1344 13.457 11.1218 13.4674C11.1092 13.4779 11.0971 13.4889 11.0855 13.5005C11.0739 13.5121 11.0628 13.5242 11.0524 13.5368C11.042 13.5495 11.0322 13.5626 11.0231 13.5762C11.0139 13.5899 11.0055 13.6039 10.9978 13.6184C10.99 13.6328 10.983 13.6477 10.9768 13.6628C10.9705 13.678 10.965 13.6934 10.9602 13.7091C10.9555 13.7248 10.9515 13.7407 10.9484 13.7568C10.9452 13.7729 10.9428 13.7891 10.9413 13.8054C10.9397 13.8217 10.9389 13.8381 10.939 13.8545C10.939 13.8708 10.9397 13.8872 10.9413 13.9035C10.9429 13.9197 10.9452 13.9359 10.9484 13.952C10.9516 13.968 10.9556 13.9839 10.9603 13.9995C10.9651 14.0152 10.9706 14.0306 10.9769 14.0457C10.9831 14.0608 10.9901 14.0755 10.9979 14.09C11.0056 14.1044 11.014 14.1184 11.0231 14.132C11.0323 14.1456 11.042 14.1587 11.0524 14.1713C11.0629 14.1839 11.0739 14.196 11.0855 14.2075L11.793 14.915C11.8046 14.9266 11.8167 14.9376 11.8293 14.948C11.842 14.9584 11.8551 14.9681 11.8687 14.9772C11.8823 14.9863 11.8963 14.9947 11.9108 15.0024C11.9252 15.0101 11.94 15.0171 11.9551 15.0234C11.9703 15.0296 11.9857 15.0351 12.0013 15.0398C12.017 15.0445 12.0329 15.0485 12.0489 15.0517C12.065 15.0548 12.0812 15.0572 12.0975 15.0587C12.1138 15.0603 12.1301 15.061 12.1465 15.061C12.1629 15.061 12.1792 15.0603 12.1954 15.0587C12.2117 15.0572 12.2279 15.0548 12.2439 15.0516C12.26 15.0485 12.2758 15.0445 12.2915 15.0398C12.3071 15.0351 12.3225 15.0296 12.3376 15.0233C12.3527 15.0171 12.3675 15.0101 12.3819 15.0024C12.3963 14.9947 12.4104 14.9863 12.4239 14.9772C12.4375 14.9681 12.4506 14.9583 12.4633 14.9479C12.4759 14.9375 12.488 14.9266 12.4995 14.915L13.914 13.5005C13.9198 13.4947 13.9254 13.4888 13.9309 13.4827C13.9364 13.4767 13.9418 13.4704 13.9469 13.4641C13.9521 13.4578 13.9572 13.4514 13.962 13.4448C13.9669 13.4382 13.9716 13.4315 13.9762 13.4247C13.9807 13.4179 13.9851 13.411 13.9893 13.404C13.9935 13.397 13.9975 13.3899 14.0014 13.3826C14.0052 13.3754 14.0089 13.3681 14.0124 13.3607C14.0159 13.3533 14.0192 13.3458 14.0224 13.3383C14.0255 13.3307 14.0284 13.3231 14.0312 13.3154C14.0339 13.3077 14.0365 13.2999 14.0389 13.2921C14.0413 13.2843 14.0434 13.2764 14.0454 13.2684C14.0474 13.2605 14.0492 13.2525 14.0508 13.2445C14.0524 13.2365 14.0538 13.2284 14.055 13.2203C14.0562 13.2123 14.0572 13.2041 14.058 13.196C14.0588 13.1879 14.0594 13.1797 14.0598 13.1715C14.0602 13.1633 14.0604 13.1552 14.0604 13.147C14.0604 13.1388 14.0602 13.1306 14.0598 13.1225C14.0594 13.1143 14.0588 13.1061 14.058 13.098C14.0572 13.0899 14.0562 13.0817 14.055 13.0736C14.0538 13.0655 14.0524 13.0575 14.0508 13.0495C14.0492 13.0414 14.0474 13.0335 14.0454 13.0255C14.0434 13.0176 14.0413 13.0097 14.0389 13.0019C14.0365 12.9941 14.0339 12.9863 14.0312 12.9786C14.0284 12.9709 14.0255 12.9632 14.0224 12.9557C14.0192 12.9481 14.0159 12.9406 14.0124 12.9333C14.0089 12.9258 14.0052 12.9186 14.0014 12.9113C13.9975 12.9041 13.9935 12.897 13.9893 12.89C13.9851 12.883 13.9807 12.876 13.9762 12.8692C13.9716 12.8625 13.9669 12.8558 13.962 12.8492C13.9572 12.8426 13.9521 12.8362 13.9469 12.8298C13.9418 12.8235 13.9364 12.8173 13.9309 12.8113C13.9254 12.8052 13.9198 12.7993 13.914 12.7935C13.9024 12.7819 13.8904 12.7708 13.8777 12.7604C13.8651 12.75 13.852 12.7402 13.8384 12.7311C13.8248 12.722 13.8107 12.7135 13.7963 12.7058C13.7819 12.6981 13.7671 12.6911 13.7519 12.6848C13.7368 12.6785 13.7214 12.673 13.7057 12.6682C13.69 12.6635 13.6742 12.6595 13.6581 12.6564C13.642 12.6532 13.6258 12.6508 13.6095 12.6493C13.5932 12.6477 13.5769 12.6469 13.5605 12.647C13.5441 12.6469 13.5278 12.6477 13.5115 12.6493C13.4952 12.6508 13.479 12.6532 13.4629 12.6564C13.4468 12.6595 13.4309 12.6635 13.4153 12.6682C13.3996 12.673 13.3842 12.6785 13.3691 12.6848C13.3539 12.6911 13.3392 12.6981 13.3247 12.7058C13.3103 12.7135 13.2962 12.722 13.2826 12.7311C13.269 12.7402 13.2559 12.75 13.2433 12.7604C13.2306 12.7708 13.2185 12.7819 13.207 12.7935L12.146 13.854L11.7925 13.5005C11.781 13.4888 11.7689 13.4778 11.7563 13.4674C11.7437 13.4569 11.7306 13.4471 11.717 13.438C11.7035 13.4288 11.6895 13.4204 11.6751 13.4126C11.6606 13.4049 11.6458 13.3979 11.6308 13.3916C11.6156 13.3853 11.6003 13.3797 11.5846 13.375C11.5689 13.3702 11.5531 13.3662 11.537 13.363C11.521 13.3598 11.5048 13.3575 11.4885 13.3558C11.4722 13.3542 11.4559 13.3535 11.4395 13.3535L11.439 13.354ZM16 13.5C15.9918 13.5 15.9836 13.5002 15.9755 13.5006C15.9673 13.501 15.9591 13.5016 15.951 13.5024C15.9429 13.5032 15.9347 13.5042 15.9266 13.5054C15.9185 13.5066 15.9105 13.508 15.9025 13.5096C15.8944 13.5112 15.8865 13.513 15.8785 13.515C15.8706 13.517 15.8627 13.5191 15.8548 13.5215C15.847 13.5239 15.8393 13.5265 15.8316 13.5292C15.8238 13.532 15.8162 13.5349 15.8086 13.538C15.8011 13.5412 15.7936 13.5445 15.7862 13.548C15.7788 13.5515 15.7715 13.5552 15.7643 13.559C15.7571 13.5629 15.75 13.5669 15.743 13.5711C15.7359 13.5753 15.729 13.5797 15.7222 13.5843C15.7154 13.5888 15.7087 13.5935 15.7021 13.5984C15.6956 13.6033 15.6891 13.6083 15.6828 13.6135C15.6765 13.6187 15.6703 13.624 15.6642 13.6295C15.6581 13.635 15.6522 13.6407 15.6465 13.6464C15.6407 13.6522 15.635 13.6582 15.6295 13.6642C15.624 13.6703 15.6187 13.6765 15.6135 13.6828C15.6083 13.6891 15.6033 13.6956 15.5984 13.7021C15.5935 13.7087 15.5888 13.7154 15.5843 13.7222C15.5797 13.729 15.5753 13.7359 15.5711 13.7429C15.5669 13.7499 15.5629 13.7571 15.559 13.7643C15.5552 13.7715 15.5515 13.7788 15.548 13.7862C15.5445 13.7936 15.5412 13.8011 15.5381 13.8087C15.5349 13.8162 15.532 13.8238 15.5292 13.8315C15.5265 13.8392 15.5239 13.847 15.5215 13.8549C15.5192 13.8627 15.517 13.8706 15.515 13.8785C15.513 13.8864 15.5112 13.8944 15.5096 13.9024C15.508 13.9105 15.5066 13.9185 15.5054 13.9266C15.5042 13.9347 15.5032 13.9428 15.5024 13.951C15.5016 13.9591 15.501 13.9673 15.5006 13.9755C15.5002 13.9836 15.5 13.9918 15.5 14C15.5 14.0082 15.5002 14.0163 15.5006 14.0245C15.501 14.0327 15.5016 14.0409 15.5024 14.049C15.5032 14.0571 15.5042 14.0653 15.5054 14.0733C15.5066 14.0815 15.508 14.0895 15.5096 14.0975C15.5112 14.1055 15.513 14.1135 15.515 14.1215C15.517 14.1294 15.5192 14.1373 15.5215 14.1451C15.5239 14.1529 15.5265 14.1607 15.5292 14.1684C15.532 14.1762 15.5349 14.1838 15.5381 14.1913C15.5412 14.1989 15.5445 14.2064 15.548 14.2138C15.5515 14.2212 15.5552 14.2285 15.559 14.2357C15.5629 14.2429 15.5669 14.25 15.5711 14.257C15.5753 14.264 15.5797 14.271 15.5843 14.2778C15.5888 14.2846 15.5935 14.2913 15.5984 14.2979C15.6033 14.3044 15.6083 14.3109 15.6135 14.3172C15.6187 14.3235 15.624 14.3297 15.6295 14.3358C15.635 14.3418 15.6407 14.3478 15.6465 14.3535C15.6522 14.3593 15.6581 14.365 15.6642 14.3705C15.6703 14.376 15.6765 14.3813 15.6828 14.3865C15.6891 14.3917 15.6956 14.3967 15.7021 14.4016C15.7087 14.4065 15.7154 14.4112 15.7222 14.4157C15.729 14.4203 15.7359 14.4246 15.743 14.4289C15.75 14.4331 15.7571 14.4371 15.7643 14.441C15.7715 14.4448 15.7788 14.4485 15.7862 14.452C15.7936 14.4555 15.8011 14.4588 15.8086 14.4619C15.8162 14.4651 15.8238 14.468 15.8316 14.4708C15.8393 14.4735 15.847 14.4761 15.8548 14.4785C15.8627 14.4808 15.8706 14.483 15.8785 14.485C15.8865 14.487 15.8944 14.4888 15.9025 14.4904C15.9105 14.492 15.9185 14.4934 15.9266 14.4946C15.9347 14.4958 15.9429 14.4968 15.951 14.4976C15.9591 14.4984 15.9673 14.499 15.9755 14.4994C15.9836 14.4998 15.9918 14.5 16 14.5L20 14.5C20.0082 14.5 20.0163 14.4998 20.0245 14.4994C20.0327 14.499 20.0409 14.4984 20.049 14.4976C20.0572 14.4968 20.0653 14.4958 20.0734 14.4946C20.0815 14.4934 20.0895 14.492 20.0975 14.4904C20.1056 14.4888 20.1136 14.487 20.1215 14.485C20.1294 14.483 20.1373 14.4808 20.1451 14.4785C20.153 14.4761 20.1607 14.4735 20.1684 14.4708C20.1761 14.468 20.1838 14.4651 20.1913 14.4619C20.1989 14.4588 20.2064 14.4555 20.2138 14.452C20.2212 14.4485 20.2285 14.4448 20.2357 14.441C20.2429 14.4371 20.25 14.4331 20.257 14.4289C20.2641 14.4246 20.271 14.4203 20.2778 14.4157C20.2846 14.4112 20.2913 14.4065 20.2978 14.4016C20.3044 14.3967 20.3109 14.3917 20.3172 14.3865C20.3235 14.3813 20.3297 14.376 20.3358 14.3705C20.3418 14.365 20.3478 14.3593 20.3536 14.3535C20.3593 14.3478 20.365 14.3418 20.3705 14.3358C20.376 14.3297 20.3813 14.3235 20.3865 14.3172C20.3917 14.3109 20.3967 14.3044 20.4016 14.2979C20.4065 14.2913 20.4112 14.2846 20.4157 14.2778C20.4203 14.271 20.4247 14.264 20.4288 14.257C20.4331 14.25 20.4371 14.2429 20.4409 14.2357C20.4448 14.2285 20.4485 14.2212 20.452 14.2138C20.4555 14.2064 20.4588 14.1989 20.4619 14.1913C20.4651 14.1838 20.468 14.1762 20.4708 14.1684C20.4735 14.1607 20.4761 14.1529 20.4785 14.1451C20.4809 14.1373 20.483 14.1294 20.485 14.1215C20.487 14.1135 20.4888 14.1055 20.4904 14.0975C20.492 14.0895 20.4934 14.0815 20.4946 14.0733C20.4958 14.0653 20.4968 14.0571 20.4976 14.049C20.4984 14.0409 20.499 14.0327 20.4994 14.0245C20.4998 14.0163 20.5 14.0082 20.5 14C20.5 13.9918 20.4998 13.9836 20.4994 13.9755C20.499 13.9673 20.4984 13.9591 20.4976 13.951C20.4968 13.9428 20.4958 13.9347 20.4946 13.9266C20.4934 13.9185 20.492 13.9105 20.4904 13.9024C20.4888 13.8944 20.487 13.8864 20.485 13.8785C20.483 13.8706 20.4809 13.8627 20.4785 13.8549C20.4761 13.847 20.4735 13.8392 20.4708 13.8315C20.468 13.8238 20.4651 13.8162 20.4619 13.8087C20.4588 13.8011 20.4555 13.7936 20.452 13.7862C20.4485 13.7788 20.4448 13.7715 20.4409 13.7643C20.4371 13.7571 20.4331 13.7499 20.4288 13.7429C20.4247 13.7359 20.4203 13.729 20.4157 13.7222C20.4112 13.7154 20.4065 13.7087 20.4016 13.7021C20.3967 13.6956 20.3917 13.6891 20.3865 13.6828C20.3813 13.6765 20.376 13.6703 20.3705 13.6642C20.365 13.6582 20.3593 13.6522 20.3536 13.6464C20.3478 13.6407 20.3418 13.635 20.3358 13.6295C20.3297 13.624 20.3235 13.6187 20.3172 13.6135C20.3109 13.6083 20.3044 13.6033 20.2978 13.5984C20.2913 13.5935 20.2846 13.5888 20.2778 13.5843C20.271 13.5797 20.2641 13.5753 20.257 13.5711C20.25 13.5669 20.2429 13.5629 20.2357 13.559C20.2285 13.5552 20.2212 13.5515 20.2138 13.548C20.2064 13.5445 20.1989 13.5412 20.1913 13.538C20.1838 13.5349 20.1761 13.532 20.1684 13.5292C20.1607 13.5265 20.153 13.5239 20.1451 13.5215C20.1373 13.5191 20.1294 13.517 20.1215 13.515C20.1136 13.513 20.1056 13.5112 20.0975 13.5096C20.0895 13.508 20.0815 13.5066 20.0734 13.5054C20.0653 13.5042 20.0572 13.5032 20.049 13.5024C20.0409 13.5016 20.0327 13.501 20.0245 13.5006C20.0163 13.5002 20.0082 13.5 20 13.5L16 13.5ZM17.5 8.99998L13.5 8.99998C13.4836 8.99998 13.4673 8.99958 13.4509 8.99878C13.4346 8.99798 13.4183 8.99678 13.402 8.99518C13.3857 8.99357 13.3695 8.99157 13.3533 8.98917C13.3371 8.98677 13.321 8.98396 13.3049 8.98076C13.2888 8.97758 13.2729 8.97399 13.257 8.97001C13.2412 8.96605 13.2254 8.96169 13.2097 8.95694C13.194 8.95218 13.1785 8.94704 13.1631 8.94153C13.1477 8.93603 13.1324 8.93014 13.1173 8.92387C13.1022 8.9176 13.0872 8.91097 13.0724 8.90397C13.0576 8.89698 13.043 8.88963 13.0286 8.88191C13.0142 8.8742 12.9999 8.86613 12.9859 8.85771C12.9719 8.8493 12.9581 8.84055 12.9444 8.83146C12.9308 8.82236 12.9175 8.81294 12.9043 8.80319C12.8911 8.79345 12.8783 8.78338 12.8656 8.77299C12.853 8.76262 12.8406 8.75193 12.8284 8.74094C12.8163 8.72994 12.8045 8.71866 12.7929 8.7071C12.7813 8.69552 12.77 8.68367 12.759 8.67156C12.7481 8.65943 12.7374 8.64704 12.727 8.63439C12.7166 8.62173 12.7065 8.60883 12.6968 8.59568C12.687 8.58254 12.6776 8.56916 12.6685 8.55555C12.6594 8.54195 12.6507 8.52813 12.6423 8.51409C12.6339 8.50005 12.6258 8.48581 12.6181 8.47138C12.6104 8.45694 12.603 8.44234 12.596 8.42755C12.589 8.41274 12.5824 8.39778 12.5761 8.38267C12.5699 8.36755 12.564 8.35229 12.5584 8.33687C12.5529 8.32146 12.5478 8.30593 12.5431 8.29026C12.5383 8.27462 12.534 8.25886 12.53 8.24298C12.526 8.2271 12.5224 8.21113 12.5192 8.19508C12.516 8.17902 12.5132 8.1629 12.5108 8.14671C12.5084 8.13054 12.5064 8.11431 12.5048 8.09802C12.5032 8.08173 12.502 8.06541 12.5012 8.04906C12.5004 8.03271 12.5 8.01636 12.5 7.99999C12.5 7.98362 12.5004 7.96727 12.5012 7.95092C12.502 7.93457 12.5032 7.91825 12.5048 7.90196C12.5064 7.88567 12.5084 7.86944 12.5108 7.85327C12.5132 7.83708 12.516 7.82096 12.5192 7.8049C12.5224 7.78885 12.526 7.77288 12.53 7.757C12.534 7.74112 12.5383 7.72536 12.5431 7.70972C12.5478 7.69405 12.5529 7.67852 12.5584 7.66311C12.564 7.6477 12.5699 7.63243 12.5761 7.61731C12.5824 7.6022 12.589 7.58724 12.596 7.57243C12.603 7.55765 12.6104 7.54304 12.6181 7.5286C12.6258 7.51417 12.6339 7.49993 12.6423 7.48589C12.6507 7.47185 12.6594 7.45803 12.6685 7.44443C12.6776 7.43082 12.687 7.41744 12.6968 7.4043C12.7065 7.39115 12.7166 7.37825 12.727 7.3656C12.7374 7.35294 12.7481 7.34055 12.759 7.32842C12.77 7.31631 12.7813 7.30446 12.7929 7.29288C12.8045 7.28132 12.8163 7.27004 12.8284 7.25904C12.8406 7.24805 12.853 7.23736 12.8656 7.22699C12.8783 7.2166 12.8911 7.20653 12.9043 7.19679C12.9175 7.18704 12.9308 7.17762 12.9444 7.16852C12.9581 7.15943 12.9719 7.15068 12.9859 7.14227C12.9999 7.13385 13.0142 7.12578 13.0286 7.11807C13.043 7.11035 13.0576 7.103 13.0724 7.09601C13.0872 7.08901 13.1022 7.08238 13.1173 7.07611C13.1324 7.06984 13.1477 7.06396 13.1631 7.05845C13.1785 7.05294 13.194 7.0478 13.2097 7.04304C13.2254 7.03829 13.2412 7.03394 13.257 7.02997C13.2729 7.02599 13.2888 7.0224 13.3049 7.01922C13.321 7.01602 13.3371 7.01321 13.3533 7.01081C13.3695 7.00841 13.3857 7.00641 13.402 7.0048C13.4183 7.0032 13.4346 7.002 13.4509 7.0012C13.4673 7.0004 13.4836 7 13.5 7L17.5 7C17.5164 7 17.5327 7.0004 17.5491 7.0012C17.5654 7.002 17.5817 7.0032 17.598 7.0048C17.6143 7.00641 17.6305 7.00841 17.6467 7.01081C17.6629 7.01321 17.679 7.01602 17.6951 7.01922C17.7112 7.0224 17.7271 7.02599 17.743 7.02997C17.7588 7.03394 17.7746 7.03829 17.7903 7.04304C17.806 7.0478 17.8215 7.05294 17.8369 7.05845C17.8523 7.06396 17.8676 7.06984 17.8827 7.07611C17.8978 7.08238 17.9128 7.08901 17.9276 7.09601C17.9424 7.103 17.957 7.11035 17.9714 7.11807C17.9858 7.12578 18.0001 7.13385 18.0141 7.14227C18.0281 7.15068 18.0419 7.15943 18.0556 7.16852C18.0692 7.17762 18.0826 7.18704 18.0957 7.19679C18.1089 7.20653 18.1217 7.2166 18.1344 7.22699C18.147 7.23736 18.1594 7.24805 18.1716 7.25904C18.1837 7.27004 18.1955 7.28132 18.2071 7.29288C18.2187 7.30446 18.23 7.31631 18.241 7.32842C18.2519 7.34055 18.2626 7.35294 18.273 7.3656C18.2834 7.37825 18.2935 7.39115 18.3032 7.4043C18.313 7.41744 18.3224 7.43081 18.3315 7.4444C18.3406 7.45802 18.3493 7.47185 18.3577 7.48589C18.3661 7.49993 18.3742 7.51417 18.3819 7.5286C18.3896 7.54304 18.397 7.55765 18.404 7.57243C18.411 7.58724 18.4176 7.6022 18.4239 7.61731C18.4301 7.63243 18.436 7.6477 18.4416 7.66311C18.4471 7.67852 18.4522 7.69405 18.4569 7.70972C18.4617 7.72536 18.466 7.74112 18.47 7.757C18.474 7.77288 18.4776 7.78885 18.4808 7.8049C18.484 7.82096 18.4868 7.83708 18.4892 7.85327C18.4916 7.86944 18.4936 7.88567 18.4952 7.90196C18.4968 7.91825 18.498 7.93457 18.4988 7.95092C18.4996 7.96727 18.5 7.98362 18.5 7.99999C18.5 8.01636 18.4996 8.03271 18.4988 8.04906C18.498 8.06541 18.4968 8.08173 18.4952 8.09802C18.4936 8.11431 18.4916 8.13054 18.4892 8.14671C18.4868 8.1629 18.484 8.17902 18.4808 8.19508C18.4776 8.21113 18.474 8.2271 18.47 8.24298C18.466 8.25886 18.4617 8.27462 18.4569 8.29026C18.4522 8.30593 18.4471 8.32146 18.4416 8.33687C18.436 8.35229 18.4301 8.36755 18.4239 8.38267C18.4176 8.39778 18.411 8.41274 18.404 8.42755C18.397 8.44234 18.3896 8.45694 18.3819 8.47138C18.3742 8.48581 18.3661 8.50005 18.3577 8.51409C18.3493 8.52813 18.3406 8.54195 18.3315 8.55555C18.3224 8.56916 18.313 8.58254 18.3032 8.59568C18.2935 8.60883 18.2834 8.62173 18.273 8.63439C18.2626 8.64704 18.2519 8.65943 18.241 8.67156C18.23 8.68367 18.2187 8.69552 18.2071 8.7071C18.1955 8.71866 18.1837 8.72994 18.1716 8.74094C18.1594 8.75193 18.147 8.76262 18.1344 8.77299C18.1217 8.78338 18.1089 8.79345 18.0957 8.80319C18.0826 8.81294 18.0692 8.82236 18.0556 8.83146C18.0419 8.84055 18.0281 8.8493 18.0141 8.85771C18.0001 8.86613 17.9858 8.8742 17.9714 8.88191C17.957 8.88963 17.9424 8.89698 17.9276 8.90397C17.9128 8.91097 17.8978 8.9176 17.8827 8.92387C17.8676 8.93014 17.8523 8.93603 17.8369 8.94153C17.8215 8.94704 17.806 8.95218 17.7903 8.95694C17.7746 8.96169 17.7588 8.96605 17.743 8.97001C17.7271 8.97399 17.7112 8.97758 17.6951 8.98076C17.679 8.98396 17.6629 8.98677 17.6467 8.98917C17.6305 8.99157 17.6143 8.99357 17.598 8.99518C17.5817 8.99678 17.5654 8.99798 17.5491 8.99878C17.5327 8.99958 17.5164 8.99998 17.5 8.99998Z"></path></g></svg>