<svg xmlns="http://www.w3.org/2000/svg" xmlns:xlink="http://www.w3.org/1999/xlink" width="30" height="30" viewBox="0 0 30 30" fill="none"><g opacity="1"  transform="translate(0 0)  rotate(0)"><g opacity="1"  transform="translate(0 0)  rotate(0)"><g opacity="1"  transform="translate(0 0)  rotate(0)"><g opacity="1"  transform="translate(0.0009765625 0)  rotate(0)"><path id="矩形 1" fill-rule="evenodd" style="fill:#5193F3" opacity="1" d="M4.99999 30L24.9999 30C27.7599 30 29.9999 27.76 29.9999 25L29.9999 5C29.9999 2.24 27.7599 0 24.9999 0L4.99999 0C2.23999 0 0 2.24 0 5L0 25C0 27.76 2.23999 30 4.99999 30Z"></path></g></g></g><path id="路径 2" fill-rule="evenodd" style="fill:#FFFFFF" opacity="1" d="M22 24L8.00002 24C7.98365 24 7.9673 23.9996 7.95095 23.9988C7.9346 23.998 7.91828 23.9968 7.90199 23.9952C7.8857 23.9936 7.86946 23.9916 7.85327 23.9892C7.83708 23.9868 7.82097 23.984 7.80493 23.9808C7.78888 23.9776 7.77291 23.974 7.75703 23.97C7.74115 23.966 7.72538 23.9617 7.70972 23.9569C7.69405 23.9522 7.67852 23.9471 7.66313 23.9416C7.64772 23.936 7.63245 23.9301 7.61731 23.9239C7.6022 23.9176 7.58725 23.911 7.57246 23.904C7.55766 23.897 7.54304 23.8896 7.5286 23.8819C7.51417 23.8742 7.49994 23.8661 7.48592 23.8577C7.47188 23.8493 7.45805 23.8406 7.44443 23.8315C7.43082 23.8224 7.41744 23.813 7.4043 23.8032C7.39115 23.7935 7.37826 23.7834 7.36562 23.773C7.35297 23.7626 7.34058 23.7519 7.32845 23.741C7.31632 23.73 7.30447 23.7187 7.29291 23.7071C7.28133 23.6955 7.27005 23.6837 7.25907 23.6716C7.24808 23.6594 7.23738 23.647 7.22699 23.6344C7.21662 23.6217 7.20656 23.6089 7.19682 23.5957C7.18705 23.5825 7.17763 23.5692 7.16855 23.5556C7.15944 23.5419 7.15069 23.5281 7.14229 23.5141C7.13388 23.5001 7.12581 23.4858 7.1181 23.4714C7.11038 23.457 7.10303 23.4424 7.09604 23.4276C7.08902 23.4128 7.08239 23.3978 7.07614 23.3827C7.06987 23.3676 7.06398 23.3523 7.05848 23.3369C7.05295 23.3215 7.04781 23.306 7.04307 23.2903C7.03832 23.2746 7.03396 23.2588 7.02997 23.243C7.02601 23.2271 7.02242 23.2111 7.01922 23.1951C7.01604 23.179 7.01324 23.1629 7.01084 23.1467C7.00844 23.1305 7.00644 23.1143 7.00483 23.098C7.00323 23.0817 7.00202 23.0654 7.0012 23.0491C7.0004 23.0327 7 23.0164 7 23L7 6.99999C7 6.98362 7.0004 6.96727 7.0012 6.95092C7.00202 6.93459 7.00323 6.91828 7.00483 6.90199C7.00644 6.8857 7.00844 6.86946 7.01084 6.85327C7.01324 6.83708 7.01604 6.82096 7.01922 6.8049C7.02242 6.78885 7.02601 6.77289 7.02997 6.75703C7.03396 6.74115 7.03832 6.72538 7.04307 6.70972C7.04781 6.69405 7.05295 6.67852 7.05848 6.66311C7.06398 6.6477 7.06987 6.63243 7.07614 6.61731C7.08239 6.6022 7.08902 6.58724 7.09604 6.57243C7.10303 6.55765 7.11038 6.54304 7.1181 6.5286C7.12581 6.51417 7.13388 6.49993 7.14229 6.48589C7.15069 6.47186 7.15944 6.45805 7.16855 6.44443C7.17763 6.43082 7.18705 6.41744 7.19682 6.4043C7.20656 6.39115 7.21662 6.37825 7.22699 6.3656C7.23738 6.35296 7.24808 6.34058 7.25907 6.32845C7.27005 6.31632 7.28133 6.30446 7.29291 6.29288C7.30447 6.28132 7.31632 6.27004 7.32845 6.25904C7.34058 6.24805 7.35297 6.23736 7.36562 6.22699C7.37826 6.2166 7.39115 6.20653 7.4043 6.19679C7.41744 6.18704 7.43082 6.17762 7.44443 6.16852C7.45805 6.15943 7.47188 6.15068 7.48592 6.14227C7.49994 6.13385 7.51417 6.12578 7.5286 6.11807C7.54304 6.11035 7.55766 6.103 7.57246 6.09601C7.58725 6.08901 7.6022 6.08238 7.61731 6.07611C7.63245 6.06986 7.64772 6.06397 7.66313 6.05845C7.67852 6.05294 7.69405 6.04781 7.70972 6.04307C7.72538 6.03832 7.74115 6.03396 7.75703 6.02997C7.77291 6.02599 7.78888 6.0224 7.80493 6.01922C7.82097 6.01602 7.83708 6.01321 7.85327 6.01081C7.86946 6.00841 7.8857 6.00641 7.90199 6.0048C7.91828 6.0032 7.9346 6.002 7.95095 6.0012C7.9673 6.0004 7.98365 6 8.00002 6L20 6C20.0164 6 20.0327 6.0004 20.0491 6.0012C20.0654 6.002 20.0817 6.0032 20.098 6.0048C20.1143 6.00641 20.1305 6.00841 20.1467 6.01081C20.1629 6.01321 20.1791 6.01602 20.1951 6.01922C20.2112 6.0224 20.2271 6.02599 20.243 6.02997C20.2589 6.03396 20.2746 6.03832 20.2903 6.04307C20.306 6.04781 20.3215 6.05294 20.3369 6.05845C20.3523 6.06397 20.3676 6.06986 20.3827 6.07611C20.3978 6.08238 20.4128 6.08901 20.4276 6.09601C20.4424 6.103 20.457 6.11035 20.4714 6.11807C20.4859 6.12578 20.5001 6.13385 20.5141 6.14227C20.5282 6.15068 20.542 6.15943 20.5556 6.16852C20.5692 6.17762 20.5826 6.18704 20.5957 6.19679C20.6089 6.20653 20.6218 6.2166 20.6344 6.22699C20.647 6.23736 20.6594 6.24805 20.6716 6.25904C20.6837 6.27004 20.6956 6.28132 20.7071 6.29288C20.7187 6.30446 20.73 6.31632 20.741 6.32845C20.752 6.34058 20.7626 6.35296 20.773 6.3656C20.7834 6.37825 20.7935 6.39115 20.8032 6.4043C20.813 6.41744 20.8224 6.43082 20.8315 6.44443C20.8406 6.45805 20.8493 6.47186 20.8577 6.48589C20.8662 6.49993 20.8742 6.51417 20.8819 6.5286C20.8897 6.54304 20.897 6.55765 20.904 6.57243C20.911 6.58724 20.9176 6.6022 20.9239 6.61731C20.9301 6.63243 20.936 6.6477 20.9416 6.66311C20.9471 6.67852 20.9522 6.69405 20.9569 6.70972C20.9617 6.72538 20.9661 6.74115 20.97 6.75703C20.974 6.77289 20.9776 6.78885 20.9808 6.8049C20.984 6.82096 20.9868 6.83708 20.9892 6.85327C20.9916 6.86946 20.9936 6.8857 20.9952 6.90199C20.9968 6.91828 20.998 6.93459 20.9988 6.95092C20.9996 6.96727 21 6.98362 21 6.99999L21 19C21 19.0164 20.9996 19.0327 20.9988 19.0491C20.998 19.0654 20.9968 19.0817 20.9952 19.098C20.9936 19.1143 20.9916 19.1305 20.9892 19.1467C20.9868 19.1629 20.984 19.1791 20.9808 19.1951C20.9776 19.2111 20.974 19.2271 20.97 19.243C20.9661 19.2589 20.9617 19.2746 20.9569 19.2903C20.9522 19.306 20.9471 19.3215 20.9416 19.3369C20.936 19.3523 20.9301 19.3675 20.9239 19.3827C20.9176 19.3978 20.911 19.4128 20.904 19.4275C20.897 19.4423 20.8897 19.457 20.8819 19.4714C20.8742 19.4858 20.8662 19.5001 20.8577 19.5141C20.8493 19.5281 20.8406 19.542 20.8315 19.5556C20.8224 19.5692 20.813 19.5825 20.8032 19.5957C20.7935 19.6088 20.7834 19.6217 20.773 19.6344C20.7626 19.647 20.752 19.6594 20.741 19.6716C20.73 19.6837 20.7187 19.6955 20.7071 19.7071C20.6956 19.7187 20.6837 19.7299 20.6716 19.7409C20.6594 19.7519 20.647 19.7626 20.6344 19.773C20.6218 19.7834 20.6089 19.7934 20.5957 19.8032C20.5826 19.813 20.5692 19.8224 20.5556 19.8315C20.542 19.8406 20.5282 19.8493 20.5141 19.8577C20.5001 19.8661 20.4859 19.8742 20.4714 19.8819C20.457 19.8896 20.4424 19.897 20.4276 19.904C20.4128 19.911 20.3978 19.9176 20.3827 19.9239C20.3676 19.9301 20.3523 19.936 20.3369 19.9415C20.3215 19.9471 20.306 19.9522 20.2903 19.9569C20.2746 19.9617 20.2589 19.9661 20.243 19.97C20.2271 19.974 20.2112 19.9776 20.1951 19.9808C20.1791 19.984 20.1629 19.9868 20.1467 19.9892C20.1305 19.9916 20.1143 19.9936 20.098 19.9952C20.0818 19.9968 20.0654 19.998 20.0491 19.9988C20.0327 19.9996 20.0164 20 20 20L8.5 20C8.49182 20 8.48364 20.0002 8.47548 20.0006C8.46731 20.001 8.45916 20.0016 8.45102 20.0024C8.44287 20.0032 8.43475 20.0042 8.42664 20.0054C8.41855 20.0066 8.4105 20.008 8.40247 20.0096C8.39444 20.0112 8.38647 20.013 8.37854 20.015C8.37059 20.017 8.36269 20.0192 8.35486 20.0215C8.34703 20.0239 8.33927 20.0265 8.33157 20.0292C8.32386 20.032 8.31622 20.0349 8.30866 20.0381C8.3011 20.0412 8.29362 20.0445 8.28622 20.048C8.27884 20.0515 8.27153 20.0552 8.26431 20.059C8.2571 20.0629 8.24998 20.067 8.24295 20.0711C8.23594 20.0753 8.22903 20.0797 8.22224 20.0843C8.21542 20.0888 8.20873 20.0935 8.20217 20.0984C8.19559 20.1033 8.18913 20.1083 8.1828 20.1135C8.1765 20.1187 8.1703 20.1241 8.16423 20.1295C8.15817 20.135 8.15225 20.1407 8.14645 20.1464C8.14067 20.1522 8.13503 20.1582 8.12954 20.1642C8.12403 20.1703 8.11869 20.1765 8.11352 20.1828C8.10832 20.1891 8.10328 20.1956 8.0984 20.2022C8.09354 20.2087 8.08883 20.2154 8.08428 20.2222C8.07973 20.229 8.07535 20.2359 8.07115 20.2429C8.06693 20.25 8.0629 20.2571 8.05905 20.2643C8.05519 20.2715 8.0515 20.2788 8.04801 20.2862C8.04451 20.2936 8.0412 20.3011 8.03808 20.3087C8.03495 20.3162 8.032 20.3239 8.02923 20.3316C8.02647 20.3393 8.02392 20.347 8.02155 20.3549C8.01917 20.3627 8.01698 20.3706 8.01499 20.3785C8.013 20.3865 8.01121 20.3944 8.00963 20.4025C8.00803 20.4105 8.00662 20.4185 8.00541 20.4266C8.00422 20.4347 8.00322 20.4429 8.00242 20.451C8.00162 20.4592 8.00102 20.4673 8.00061 20.4755C8.00022 20.4836 8.00002 20.4918 8.00002 20.5L8.00002 22.5C8.00002 22.5082 8.00022 22.5163 8.00061 22.5245C8.00102 22.5327 8.00162 22.5409 8.00242 22.549C8.00322 22.5572 8.00422 22.5653 8.00541 22.5734C8.00662 22.5815 8.00803 22.5895 8.00963 22.5975C8.01121 22.6056 8.013 22.6136 8.01499 22.6215C8.01698 22.6294 8.01917 22.6373 8.02155 22.6451C8.02392 22.653 8.02647 22.6608 8.02923 22.6685C8.032 22.6762 8.03495 22.6838 8.03808 22.6913C8.0412 22.6989 8.04451 22.7064 8.04801 22.7138C8.0515 22.7212 8.05519 22.7285 8.05905 22.7357C8.0629 22.7429 8.06693 22.75 8.07115 22.7571C8.07535 22.7641 8.07973 22.771 8.08428 22.7778C8.08883 22.7846 8.09354 22.7913 8.0984 22.7979C8.10328 22.8044 8.10832 22.8109 8.11352 22.8172C8.11869 22.8235 8.12403 22.8297 8.12954 22.8358C8.13503 22.8418 8.14067 22.8478 8.14645 22.8536C8.15225 22.8593 8.15817 22.865 8.16423 22.8705C8.1703 22.876 8.1765 22.8813 8.1828 22.8865C8.18913 22.8917 8.19559 22.8967 8.20217 22.9016C8.20873 22.9065 8.21542 22.9112 8.22224 22.9157C8.22903 22.9203 8.23594 22.9247 8.24295 22.9288C8.24998 22.9331 8.2571 22.9371 8.26431 22.9409C8.27153 22.9448 8.27884 22.9485 8.28622 22.952C8.29362 22.9555 8.3011 22.9588 8.30866 22.9619C8.31622 22.9651 8.32386 22.968 8.33157 22.9708C8.33927 22.9735 8.34703 22.9761 8.35486 22.9785C8.36269 22.9809 8.37059 22.983 8.37854 22.985C8.38647 22.987 8.39444 22.9888 8.40247 22.9904C8.4105 22.992 8.41855 22.9934 8.42664 22.9946C8.43475 22.9958 8.44287 22.9968 8.45102 22.9976C8.45916 22.9984 8.46731 22.999 8.47548 22.9994C8.48364 22.9998 8.49182 23 8.5 23L21.5 23C21.5082 23 21.5164 22.9998 21.5245 22.9994C21.5327 22.999 21.5409 22.9984 21.549 22.9976C21.5572 22.9968 21.5653 22.9958 21.5734 22.9946C21.5815 22.9934 21.5895 22.992 21.5975 22.9904C21.6056 22.9888 21.6136 22.987 21.6215 22.985C21.6295 22.983 21.6373 22.9809 21.6452 22.9785C21.653 22.9761 21.6607 22.9735 21.6684 22.9708C21.6762 22.968 21.6838 22.9651 21.6914 22.962C21.6989 22.9588 21.7064 22.9555 21.7138 22.952C21.7212 22.9485 21.7285 22.9448 21.7357 22.941C21.7429 22.9371 21.75 22.9331 21.7571 22.9289C21.7641 22.9247 21.771 22.9203 21.7778 22.9157C21.7846 22.9112 21.7913 22.9065 21.7979 22.9016C21.8044 22.8967 21.8109 22.8917 21.8172 22.8865C21.8235 22.8813 21.8297 22.876 21.8358 22.8705C21.8419 22.865 21.8478 22.8593 21.8536 22.8536C21.8593 22.8478 21.865 22.8418 21.8705 22.8358C21.876 22.8297 21.8813 22.8235 21.8865 22.8172C21.8917 22.8109 21.8967 22.8044 21.9016 22.7979C21.9065 22.7913 21.9112 22.7846 21.9157 22.7778C21.9203 22.771 21.9247 22.7641 21.9289 22.7571C21.9331 22.75 21.9371 22.7429 21.941 22.7357C21.9448 22.7285 21.9485 22.7212 21.952 22.7138C21.9555 22.7064 21.9588 22.6989 21.9619 22.6913C21.9651 22.6838 21.968 22.6762 21.9708 22.6685C21.9735 22.6608 21.9761 22.653 21.9785 22.6451C21.9809 22.6373 21.983 22.6294 21.985 22.6215C21.987 22.6136 21.9888 22.6056 21.9904 22.5976C21.992 22.5895 21.9934 22.5815 21.9946 22.5734C21.9958 22.5653 21.9968 22.5572 21.9976 22.549C21.9984 22.5409 21.999 22.5327 21.9994 22.5245C21.9998 22.5163 22 22.5082 22 22.5L22 9C22 8.99183 22.0002 8.98365 22.0006 8.97548C22.001 8.9673 22.0016 8.95913 22.0024 8.95099C22.0032 8.94284 22.0042 8.93473 22.0054 8.92664C22.0066 8.91853 22.008 8.91047 22.0096 8.90244C22.0112 8.89443 22.013 8.88645 22.015 8.87851C22.017 8.87057 22.0192 8.86269 22.0215 8.85486C22.0239 8.84703 22.0265 8.83926 22.0292 8.83154C22.032 8.82385 22.0349 8.81622 22.0381 8.80866C22.0412 8.8011 22.0445 8.79362 22.048 8.78622C22.0515 8.77882 22.0552 8.77151 22.0591 8.76431C22.0629 8.75708 22.0669 8.74996 22.0711 8.74295C22.0754 8.73594 22.0797 8.72902 22.0843 8.72221C22.0888 8.71541 22.0935 8.70872 22.0984 8.70214C22.1033 8.69558 22.1083 8.68913 22.1135 8.6828C22.1187 8.67647 22.124 8.67028 22.1295 8.66423C22.135 8.65816 22.1407 8.65223 22.1465 8.64645C22.1522 8.64067 22.1582 8.63502 22.1642 8.62951C22.1703 8.62402 22.1765 8.61868 22.1828 8.61349C22.1891 8.60831 22.1956 8.60328 22.2022 8.5984C22.2087 8.59351 22.2154 8.58881 22.2222 8.58428C22.229 8.57973 22.236 8.57534 22.243 8.57112C22.25 8.56693 22.2571 8.5629 22.2643 8.55905C22.2715 8.55519 22.2788 8.5515 22.2862 8.54801C22.2936 8.54451 22.3011 8.54119 22.3087 8.53805C22.3162 8.53492 22.3238 8.53198 22.3316 8.52923C22.3393 8.52647 22.3471 8.5239 22.3549 8.52152C22.3627 8.51916 22.3706 8.51698 22.3785 8.51499C22.3865 8.513 22.3945 8.5112 22.4025 8.5096C22.4105 8.50802 22.4185 8.50662 22.4267 8.50541C22.4347 8.50422 22.4429 8.50322 22.451 8.50242C22.4591 8.5016 22.4673 8.501 22.4755 8.50061C22.4837 8.5002 22.4918 8.49999 22.5 8.49999C22.5082 8.49999 22.5164 8.5002 22.5245 8.50061C22.5327 8.501 22.5409 8.5016 22.549 8.50242C22.5572 8.50322 22.5653 8.50422 22.5734 8.50541C22.5815 8.50662 22.5895 8.50802 22.5976 8.5096C22.6056 8.5112 22.6136 8.513 22.6215 8.51499C22.6294 8.51698 22.6373 8.51916 22.6451 8.52152C22.653 8.5239 22.6608 8.52647 22.6685 8.52923C22.6762 8.53198 22.6838 8.53492 22.6913 8.53805C22.6989 8.54119 22.7064 8.54451 22.7138 8.54801C22.7212 8.5515 22.7285 8.55519 22.7357 8.55905C22.7429 8.5629 22.7501 8.56693 22.7571 8.57112C22.7641 8.57534 22.771 8.57973 22.7778 8.58428C22.7846 8.58881 22.7913 8.59351 22.7979 8.5984C22.8044 8.60326 22.8109 8.60829 22.8172 8.61349C22.8235 8.61868 22.8297 8.62402 22.8358 8.62951C22.8418 8.63502 22.8478 8.64067 22.8536 8.64645C22.8593 8.65223 22.865 8.65816 22.8705 8.66423C22.876 8.67028 22.8813 8.67647 22.8865 8.6828C22.8917 8.68913 22.8967 8.69558 22.9016 8.70214C22.9065 8.70872 22.9112 8.71541 22.9157 8.72221C22.9203 8.72902 22.9247 8.73594 22.9289 8.74295C22.9331 8.74996 22.9371 8.75708 22.941 8.76431C22.9448 8.77151 22.9485 8.77882 22.952 8.78622C22.9555 8.79362 22.9588 8.8011 22.962 8.80866C22.9651 8.81622 22.968 8.82385 22.9708 8.83154C22.9735 8.83926 22.9761 8.84703 22.9785 8.85486C22.9809 8.86269 22.983 8.87057 22.985 8.87851C22.987 8.88645 22.9888 8.89443 22.9904 8.90244C22.992 8.91047 22.9934 8.91853 22.9946 8.92664C22.9958 8.93473 22.9968 8.94284 22.9976 8.95099C22.9984 8.95913 22.999 8.9673 22.9994 8.97548C22.9998 8.98365 23 8.99183 23 9L23 23C23 23.0164 22.9996 23.0327 22.9988 23.0491C22.998 23.0654 22.9968 23.0817 22.9952 23.098C22.9936 23.1143 22.9916 23.1305 22.9892 23.1467C22.9868 23.1629 22.984 23.179 22.9808 23.1951C22.9776 23.2111 22.974 23.2271 22.9701 23.243C22.9661 23.2588 22.9617 23.2746 22.957 23.2903C22.9522 23.306 22.9471 23.3215 22.9415 23.3369C22.936 23.3523 22.9301 23.3676 22.9239 23.3827C22.9176 23.3978 22.911 23.4128 22.904 23.4276C22.897 23.4424 22.8896 23.457 22.8819 23.4714C22.8742 23.4858 22.8661 23.5001 22.8577 23.5141C22.8493 23.5281 22.8406 23.5419 22.8315 23.5556C22.8224 23.5692 22.813 23.5825 22.8032 23.5957C22.7935 23.6089 22.7834 23.6217 22.773 23.6344C22.7626 23.647 22.7519 23.6594 22.7409 23.6716C22.73 23.6837 22.7187 23.6955 22.7071 23.7071C22.6955 23.7187 22.6837 23.73 22.6716 23.741C22.6594 23.7519 22.6471 23.7626 22.6344 23.773C22.6218 23.7834 22.6088 23.7935 22.5957 23.8032C22.5826 23.813 22.5692 23.8224 22.5556 23.8315C22.542 23.8406 22.5281 23.8493 22.5141 23.8577C22.5001 23.8661 22.4859 23.8742 22.4714 23.8819C22.457 23.8896 22.4424 23.897 22.4276 23.904C22.4128 23.911 22.3978 23.9176 22.3827 23.9239C22.3676 23.9301 22.3523 23.936 22.3369 23.9416C22.3215 23.9471 22.306 23.9522 22.2903 23.9569C22.2746 23.9617 22.2589 23.966 22.243 23.97C22.2271 23.974 22.2111 23.9776 22.1951 23.9808C22.1791 23.984 22.163 23.9868 22.1467 23.9892C22.1305 23.9916 22.1143 23.9936 22.098 23.9952C22.0817 23.9968 22.0654 23.998 22.0491 23.9988C22.0327 23.9996 22.0164 24 22 24ZM9.50002 11.5C9.49184 11.5 9.48365 11.5002 9.47547 11.5006C9.4673 11.501 9.45915 11.5016 9.45101 11.5024C9.44286 11.5032 9.43474 11.5042 9.42663 11.5054C9.41854 11.5066 9.41049 11.508 9.40246 11.5096C9.39443 11.5112 9.38646 11.513 9.37853 11.515C9.37058 11.517 9.36268 11.5191 9.35485 11.5215C9.34704 11.5239 9.33928 11.5265 9.33156 11.5292C9.32387 11.532 9.31624 11.5349 9.30868 11.538C9.30112 11.5412 9.29364 11.5445 9.28624 11.548C9.27884 11.5515 9.27153 11.5552 9.26433 11.5591C9.2571 11.5629 9.24998 11.5669 9.24297 11.5711C9.23594 11.5753 9.22902 11.5797 9.22223 11.5843C9.21543 11.5888 9.20874 11.5935 9.20216 11.5984C9.1956 11.6033 9.18915 11.6083 9.18282 11.6135C9.17649 11.6187 9.17029 11.624 9.16422 11.6295C9.15816 11.635 9.15225 11.6407 9.14647 11.6464C9.14066 11.6522 9.13502 11.6582 9.12953 11.6642C9.12404 11.6703 9.1187 11.6765 9.11351 11.6828C9.10831 11.6891 9.10328 11.6956 9.09842 11.7021C9.09353 11.7087 9.08882 11.7154 9.08427 11.7222C9.07974 11.729 9.07536 11.7359 9.07114 11.7429C9.06694 11.75 9.06291 11.7571 9.05904 11.7643C9.0552 11.7715 9.05152 11.7788 9.04803 11.7862C9.04451 11.7936 9.04119 11.8011 9.03807 11.8087C9.03494 11.8162 9.032 11.8238 9.02925 11.8315C9.02649 11.8392 9.02392 11.847 9.02154 11.8549C9.01916 11.8627 9.01697 11.8706 9.01498 11.8785C9.01301 11.8864 9.01122 11.8944 9.00962 11.9024C9.00802 11.9105 9.00662 11.9185 9.00543 11.9266C9.00422 11.9347 9.00321 11.9428 9.00241 11.951C9.00161 11.9591 9.00101 11.9673 9.00063 11.9755C9.00022 11.9837 9.00001 11.9918 9.00001 12C9.00001 12.0082 9.00022 12.0163 9.00063 12.0245C9.00101 12.0327 9.00161 12.0409 9.00241 12.049C9.00321 12.0572 9.00422 12.0653 9.00543 12.0734C9.00662 12.0815 9.00802 12.0895 9.00962 12.0976C9.01122 12.1056 9.01301 12.1136 9.01498 12.1215C9.01697 12.1294 9.01916 12.1373 9.02154 12.1451C9.02391 12.153 9.02647 12.1608 9.02925 12.1685C9.032 12.1762 9.03494 12.1838 9.03807 12.1913C9.04119 12.1989 9.04451 12.2064 9.04803 12.2138C9.05152 12.2212 9.0552 12.2285 9.05904 12.2357C9.06291 12.2429 9.06694 12.25 9.07114 12.2571C9.07534 12.2641 9.07972 12.271 9.08427 12.2778C9.08882 12.2846 9.09353 12.2913 9.09842 12.2979C9.10328 12.3044 9.10831 12.3109 9.11351 12.3172C9.1187 12.3235 9.12404 12.3297 9.12953 12.3358C9.13502 12.3418 9.14066 12.3478 9.14647 12.3536C9.15225 12.3593 9.15816 12.365 9.16422 12.3705C9.17029 12.376 9.17649 12.3813 9.18282 12.3865C9.18915 12.3917 9.1956 12.3967 9.20216 12.4016C9.20874 12.4065 9.21543 12.4112 9.22223 12.4157C9.22902 12.4203 9.23594 12.4247 9.24297 12.4289C9.24998 12.4331 9.25709 12.4371 9.2643 12.4409C9.27152 12.4448 9.27884 12.4485 9.28624 12.452C9.29362 12.4555 9.3011 12.4588 9.30868 12.462C9.31624 12.4651 9.32387 12.468 9.33156 12.4708C9.33928 12.4735 9.34704 12.4761 9.35485 12.4785C9.36268 12.4809 9.37058 12.483 9.37853 12.485C9.38646 12.487 9.39443 12.4888 9.40246 12.4904C9.41049 12.492 9.41854 12.4934 9.42663 12.4946C9.43474 12.4958 9.44286 12.4968 9.45101 12.4976C9.45915 12.4984 9.4673 12.499 9.47547 12.4994C9.48365 12.4998 9.49184 12.5 9.50002 12.5L14.5 12.5C14.5082 12.5 14.5164 12.4998 14.5246 12.4994C14.5327 12.499 14.5409 12.4984 14.549 12.4976C14.5572 12.4968 14.5653 12.4958 14.5734 12.4946C14.5815 12.4934 14.5895 12.492 14.5976 12.4904C14.6056 12.4888 14.6136 12.487 14.6215 12.485C14.6294 12.483 14.6373 12.4809 14.6452 12.4785C14.653 12.4761 14.6608 12.4735 14.6685 12.4708C14.6762 12.468 14.6838 12.4651 14.6913 12.462C14.6989 12.4588 14.7064 12.4555 14.7138 12.452C14.7212 12.4485 14.7285 12.4448 14.7357 12.4409C14.7429 12.4371 14.75 12.4331 14.7571 12.4289C14.7641 12.4247 14.771 12.4203 14.7778 12.4157C14.7846 12.4112 14.7913 12.4065 14.7979 12.4016C14.8044 12.3967 14.8109 12.3917 14.8172 12.3865C14.8235 12.3813 14.8297 12.376 14.8358 12.3705C14.8419 12.365 14.8478 12.3593 14.8536 12.3536C14.8594 12.3478 14.865 12.3418 14.8705 12.3358C14.876 12.3297 14.8813 12.3235 14.8865 12.3172C14.8917 12.3109 14.8967 12.3044 14.9016 12.2979C14.9065 12.2913 14.9112 12.2846 14.9158 12.2778C14.9203 12.271 14.9247 12.2641 14.9289 12.2571C14.9331 12.25 14.9371 12.2429 14.941 12.2357C14.9448 12.2285 14.9485 12.2212 14.952 12.2138C14.9555 12.2064 14.9588 12.1989 14.962 12.1913C14.9651 12.1838 14.968 12.1762 14.9708 12.1685C14.9735 12.1608 14.9761 12.153 14.9785 12.1451C14.9809 12.1373 14.983 12.1294 14.985 12.1215C14.987 12.1136 14.9888 12.1056 14.9904 12.0976C14.992 12.0895 14.9934 12.0815 14.9946 12.0734C14.9958 12.0653 14.9968 12.0572 14.9976 12.049C14.9984 12.0409 14.999 12.0327 14.9994 12.0245C14.9998 12.0163 15 12.0082 15 12C15 11.9918 14.9998 11.9837 14.9994 11.9755C14.999 11.9673 14.9984 11.9591 14.9976 11.951C14.9968 11.9428 14.9958 11.9347 14.9946 11.9266C14.9934 11.9185 14.992 11.9105 14.9904 11.9024C14.9888 11.8944 14.987 11.8864 14.985 11.8785C14.983 11.8706 14.9809 11.8627 14.9785 11.8549C14.9761 11.847 14.9735 11.8392 14.9708 11.8315C14.968 11.8238 14.9651 11.8162 14.962 11.8087C14.9588 11.8011 14.9555 11.7936 14.952 11.7862C14.9485 11.7788 14.9448 11.7715 14.941 11.7643C14.9371 11.7571 14.9331 11.75 14.9289 11.7429C14.9247 11.7359 14.9203 11.729 14.9158 11.7222C14.9112 11.7154 14.9065 11.7087 14.9016 11.7021C14.8967 11.6956 14.8917 11.6891 14.8865 11.6828C14.8813 11.6765 14.876 11.6703 14.8705 11.6642C14.865 11.6582 14.8593 11.6522 14.8536 11.6464C14.8478 11.6407 14.8419 11.635 14.8358 11.6295C14.8297 11.624 14.8235 11.6187 14.8172 11.6135C14.8109 11.6083 14.8044 11.6033 14.7979 11.5984C14.7913 11.5935 14.7846 11.5888 14.7778 11.5843C14.771 11.5797 14.7641 11.5753 14.7571 11.5711C14.75 11.5669 14.7429 11.5629 14.7357 11.5591C14.7285 11.5552 14.7212 11.5515 14.7138 11.548C14.7064 11.5445 14.6989 11.5412 14.6913 11.538C14.6838 11.5349 14.6762 11.532 14.6685 11.5292C14.6608 11.5265 14.653 11.5239 14.6452 11.5215C14.6373 11.5191 14.6294 11.517 14.6215 11.515C14.6136 11.513 14.6056 11.5112 14.5976 11.5096C14.5895 11.508 14.5815 11.5066 14.5734 11.5054C14.5653 11.5042 14.5572 11.5032 14.549 11.5024C14.5409 11.5016 14.5327 11.501 14.5246 11.5006C14.5164 11.5002 14.5082 11.5 14.5 11.5L9.50002 11.5ZM9.50002 9C9.49184 9 9.48365 9.00021 9.47547 9.00062C9.4673 9.001 9.45915 9.00161 9.45101 9.0024C9.44286 9.00319 9.43474 9.00422 9.42663 9.00542C9.41854 9.00662 9.41049 9.008 9.40246 9.00961C9.39443 9.01122 9.38646 9.01301 9.37853 9.01497C9.37058 9.01696 9.36268 9.01916 9.35485 9.02153C9.34704 9.02391 9.33928 9.02648 9.33156 9.02924C9.32387 9.03199 9.31624 9.03492 9.30868 9.03806C9.30112 9.04119 9.29364 9.0445 9.28624 9.04802C9.27884 9.0515 9.27153 9.05519 9.26433 9.05903C9.2571 9.0629 9.24998 9.06694 9.24297 9.07113C9.23594 9.07535 9.22902 9.07972 9.22223 9.08426C9.21543 9.0888 9.20874 9.09352 9.20216 9.09841C9.1956 9.10327 9.18915 9.10831 9.18282 9.1135C9.17649 9.11868 9.17029 9.12404 9.16422 9.12952C9.15816 9.135 9.15225 9.14065 9.14647 9.14645C9.14066 9.15223 9.13502 9.15814 9.12953 9.16421C9.12404 9.17027 9.1187 9.17648 9.11351 9.18281C9.10831 9.18914 9.10328 9.19559 9.09842 9.20215C9.09353 9.20874 9.08882 9.21542 9.08427 9.22222C9.07974 9.22901 9.07536 9.23593 9.07114 9.24296C9.06694 9.24996 9.06291 9.25708 9.05904 9.26432C9.0552 9.27152 9.05152 9.27882 9.04803 9.28623C9.04451 9.29364 9.04119 9.30111 9.03807 9.30867C9.03494 9.31623 9.032 9.32385 9.02925 9.33155C9.02649 9.33926 9.02392 9.34702 9.02154 9.35484C9.01916 9.36267 9.01697 9.37058 9.01498 9.37852C9.01301 9.38646 9.01122 9.39442 9.00962 9.40245C9.00802 9.41048 9.00662 9.41854 9.00543 9.42662C9.00422 9.43474 9.00321 9.44285 9.00241 9.451C9.00161 9.45914 9.00101 9.46729 9.00063 9.47546C9.00022 9.48363 9.00001 9.49184 9.00001 9.50001C9.00001 9.50818 9.00022 9.51636 9.00063 9.52453C9.00101 9.53271 9.00161 9.54088 9.00241 9.54902C9.00321 9.55714 9.00422 9.56525 9.00543 9.57337C9.00662 9.58146 9.00802 9.58951 9.00962 9.59754C9.01122 9.60557 9.01301 9.61356 9.01498 9.6215C9.01697 9.62944 9.01916 9.63732 9.02154 9.64515C9.02391 9.65297 9.02647 9.66073 9.02925 9.66844C9.032 9.67614 9.03494 9.68379 9.03807 9.69135C9.04119 9.69891 9.04451 9.70638 9.04803 9.71379C9.05152 9.72117 9.0552 9.72847 9.05904 9.7357C9.06291 9.74291 9.06694 9.75003 9.07114 9.75706C9.07534 9.76406 9.07972 9.77098 9.08427 9.77777C9.08882 9.7846 9.09353 9.79128 9.09842 9.79784C9.10328 9.80443 9.10831 9.81088 9.11351 9.81721C9.1187 9.82353 9.12404 9.82972 9.12953 9.83578C9.13502 9.84185 9.14066 9.84776 9.14647 9.85356C9.15225 9.85934 9.15816 9.86499 9.16422 9.87047C9.17029 9.87598 9.17649 9.88131 9.18282 9.88649C9.18915 9.89168 9.1956 9.89672 9.20216 9.90161C9.20874 9.90648 9.21543 9.91119 9.22223 9.91573C9.22902 9.92027 9.23594 9.92467 9.24297 9.92886C9.24998 9.93308 9.25709 9.93712 9.2643 9.94096C9.27152 9.94482 9.27884 9.94852 9.28624 9.952C9.29362 9.95549 9.3011 9.9588 9.30868 9.96193C9.31624 9.96507 9.32387 9.96803 9.33156 9.97078C9.33928 9.97354 9.34704 9.97611 9.35485 9.97849C9.36268 9.98086 9.37058 9.98303 9.37853 9.98502C9.38646 9.98701 9.39443 9.9888 9.40246 9.99038C9.41049 9.99199 9.41854 9.9934 9.42663 9.9946C9.43474 9.9958 9.44286 9.9968 9.45101 9.99759C9.45915 9.99838 9.4673 9.99899 9.47547 9.9994C9.48365 9.99979 9.49184 9.99999 9.50002 9.99999L12.5 9.99999C12.5082 9.99999 12.5164 9.99979 12.5245 9.9994C12.5327 9.99899 12.5409 9.99838 12.549 9.99759C12.5571 9.9968 12.5653 9.9958 12.5734 9.9946C12.5815 9.9934 12.5895 9.99199 12.5975 9.99038C12.6056 9.9888 12.6136 9.98701 12.6215 9.98502C12.6295 9.98303 12.6373 9.98086 12.6452 9.97849C12.653 9.97611 12.6607 9.97354 12.6684 9.97078C12.6762 9.96803 12.6838 9.96507 12.6914 9.96193C12.6989 9.9588 12.7064 9.95549 12.7138 9.952C12.7212 9.94852 12.7285 9.94482 12.7357 9.94096C12.7429 9.93712 12.75 9.93308 12.7571 9.92886C12.7641 9.92467 12.771 9.92027 12.7778 9.91573C12.7846 9.91119 12.7913 9.90648 12.7979 9.90161C12.8044 9.89672 12.8109 9.89168 12.8172 9.88649C12.8235 9.88131 12.8297 9.87598 12.8358 9.87047C12.8419 9.86499 12.8478 9.85934 12.8536 9.85356C12.8593 9.84776 12.865 9.84185 12.8705 9.83578C12.876 9.82972 12.8813 9.82353 12.8865 9.81721C12.8917 9.81088 12.8967 9.80443 12.9016 9.79784C12.9065 9.79128 12.9112 9.7846 12.9157 9.77777C12.9203 9.77098 12.9247 9.76406 12.9289 9.75706C12.9331 9.75003 12.9371 9.74291 12.941 9.7357C12.9448 9.72847 12.9485 9.72117 12.952 9.71379C12.9555 9.70638 12.9588 9.69891 12.9619 9.69135C12.9651 9.68379 12.968 9.67614 12.9708 9.66844C12.9735 9.66073 12.9761 9.65297 12.9785 9.64515C12.9808 9.63732 12.983 9.62944 12.985 9.6215C12.987 9.61356 12.9888 9.60557 12.9904 9.59754C12.992 9.58951 12.9934 9.58146 12.9946 9.57337C12.9958 9.56525 12.9968 9.55714 12.9976 9.54902C12.9984 9.54088 12.999 9.53271 12.9994 9.52453C12.9998 9.51636 13 9.50818 13 9.50001C13 9.49184 12.9998 9.48363 12.9994 9.47546C12.999 9.46729 12.9984 9.45914 12.9976 9.451C12.9968 9.44285 12.9958 9.43474 12.9946 9.42662C12.9934 9.41854 12.992 9.41048 12.9904 9.40245C12.9888 9.39442 12.987 9.38646 12.985 9.37852C12.983 9.37058 12.9808 9.36267 12.9785 9.35484C12.9761 9.34702 12.9735 9.33926 12.9708 9.33155C12.968 9.32385 12.9651 9.31623 12.9619 9.30867C12.9588 9.30108 12.9555 9.29361 12.952 9.28623C12.9485 9.27882 12.9448 9.27152 12.941 9.26429C12.9371 9.25708 12.9331 9.24996 12.9289 9.24296C12.9247 9.23593 12.9203 9.22901 12.9157 9.22222C12.9112 9.21542 12.9065 9.20874 12.9016 9.20215C12.8967 9.19559 12.8917 9.18914 12.8865 9.18281C12.8813 9.17648 12.876 9.17027 12.8705 9.16421C12.865 9.15814 12.8593 9.15223 12.8536 9.14645C12.8478 9.14065 12.8419 9.135 12.8358 9.12952C12.8297 9.12404 12.8235 9.11868 12.8172 9.1135C12.8109 9.10831 12.8044 9.10327 12.7979 9.09841C12.7913 9.09352 12.7846 9.0888 12.7778 9.08426C12.771 9.07972 12.7641 9.07535 12.7571 9.07113C12.75 9.06694 12.7429 9.0629 12.7357 9.05903C12.7285 9.05519 12.7212 9.0515 12.7138 9.04802C12.7064 9.0445 12.6989 9.04119 12.6914 9.03806C12.6838 9.03492 12.6762 9.03199 12.6684 9.02924C12.6607 9.02648 12.653 9.02391 12.6452 9.02153C12.6373 9.01916 12.6295 9.01696 12.6215 9.01497C12.6136 9.01301 12.6056 9.01122 12.5975 9.00961C12.5895 9.008 12.5815 9.00662 12.5734 9.00542C12.5653 9.00422 12.5571 9.00319 12.549 9.0024C12.5409 9.00161 12.5327 9.001 12.5245 9.00062C12.5164 9.00021 12.5082 9 12.5 9L9.50002 9ZM20.5 22L9.50002 22C9.49184 22 9.48365 21.9998 9.47547 21.9994C9.4673 21.999 9.45915 21.9984 9.45101 21.9976C9.44286 21.9968 9.43474 21.9958 9.42663 21.9946C9.41854 21.9934 9.41049 21.992 9.40246 21.9904C9.39443 21.9888 9.38646 21.987 9.37853 21.985C9.37058 21.983 9.36268 21.9808 9.35485 21.9785C9.34704 21.9761 9.33928 21.9735 9.33156 21.9708C9.32387 21.968 9.31624 21.9651 9.30868 21.9619C9.3011 21.9588 9.29362 21.9555 9.28624 21.952C9.27884 21.9485 9.27152 21.9448 9.2643 21.941C9.25709 21.9371 9.24998 21.9331 9.24297 21.9289C9.23594 21.9247 9.22902 21.9203 9.22223 21.9157C9.21543 21.9112 9.20874 21.9065 9.20216 21.9016C9.1956 21.8967 9.18915 21.8917 9.18282 21.8865C9.17649 21.8813 9.17029 21.876 9.16422 21.8705C9.15816 21.865 9.15225 21.8593 9.14647 21.8536C9.14066 21.8478 9.13502 21.8418 9.12953 21.8358C9.12404 21.8297 9.1187 21.8235 9.11351 21.8172C9.10831 21.8109 9.10328 21.8044 9.09842 21.7978C9.09353 21.7913 9.08882 21.7846 9.08427 21.7778C9.07974 21.771 9.07536 21.7641 9.07114 21.7571C9.06694 21.75 9.06291 21.7429 9.05904 21.7357C9.0552 21.7285 9.05152 21.7212 9.04803 21.7138C9.04451 21.7064 9.04119 21.6989 9.03807 21.6913C9.03494 21.6838 9.032 21.6761 9.02925 21.6684C9.02649 21.6607 9.02392 21.653 9.02154 21.6451C9.01916 21.6373 9.01697 21.6294 9.01498 21.6215C9.01301 21.6135 9.01122 21.6056 9.00962 21.5975C9.00802 21.5895 9.00662 21.5815 9.00543 21.5734C9.00422 21.5653 9.00321 21.5571 9.00241 21.549C9.00161 21.5409 9.00101 21.5327 9.00063 21.5245C9.00022 21.5164 9.00001 21.5082 9.00001 21.5C9.00001 21.4918 9.00022 21.4836 9.00063 21.4755C9.00101 21.4673 9.00161 21.4591 9.00241 21.451C9.00321 21.4429 9.00422 21.4347 9.00543 21.4266C9.00662 21.4185 9.00802 21.4105 9.00962 21.4025C9.01122 21.3944 9.01302 21.3865 9.01501 21.3785C9.01698 21.3706 9.01916 21.3627 9.02154 21.3549C9.02392 21.347 9.02649 21.3393 9.02925 21.3316C9.032 21.3238 9.03494 21.3162 9.03807 21.3087C9.04119 21.3011 9.04451 21.2936 9.04803 21.2862C9.05152 21.2788 9.0552 21.2715 9.05904 21.2643C9.06291 21.2571 9.06694 21.25 9.07114 21.243C9.07536 21.2359 9.07974 21.229 9.08427 21.2222C9.08882 21.2154 9.09353 21.2087 9.09842 21.2021C9.10328 21.1956 9.10831 21.1891 9.11351 21.1828C9.1187 21.1765 9.12404 21.1703 9.12953 21.1642C9.13504 21.1581 9.14069 21.1522 9.14647 21.1465C9.15225 21.1407 9.15816 21.135 9.16422 21.1295C9.17029 21.124 9.17649 21.1187 9.18282 21.1135C9.18915 21.1083 9.1956 21.1033 9.20216 21.0984C9.20874 21.0935 9.21543 21.0888 9.22223 21.0843C9.22902 21.0797 9.23594 21.0754 9.24297 21.0711C9.24998 21.0669 9.2571 21.0629 9.26433 21.059C9.27153 21.0552 9.27884 21.0515 9.28624 21.048C9.29364 21.0445 9.30112 21.0412 9.30868 21.0381C9.31624 21.0349 9.32387 21.032 9.33156 21.0292C9.33928 21.0265 9.34705 21.0239 9.35488 21.0215C9.3627 21.0192 9.37058 21.017 9.37853 21.015C9.38646 21.013 9.39443 21.0112 9.40246 21.0096C9.41049 21.008 9.41855 21.0066 9.42666 21.0054C9.43475 21.0042 9.44286 21.0032 9.45101 21.0024C9.45915 21.0016 9.4673 21.001 9.47547 21.0006C9.48365 21.0002 9.49184 21 9.50002 21L20.5 21C20.5082 21 20.5164 21.0002 20.5246 21.0006C20.5327 21.001 20.5409 21.0016 20.549 21.0024C20.5572 21.0032 20.5653 21.0042 20.5734 21.0054C20.5815 21.0066 20.5895 21.008 20.5976 21.0096C20.6056 21.0112 20.6136 21.013 20.6215 21.015C20.6294 21.017 20.6373 21.0192 20.6452 21.0215C20.653 21.0239 20.6608 21.0265 20.6685 21.0292C20.6762 21.032 20.6838 21.0349 20.6913 21.0381C20.6989 21.0412 20.7064 21.0445 20.7138 21.048C20.7212 21.0515 20.7285 21.0552 20.7357 21.059C20.7429 21.0629 20.75 21.0669 20.7571 21.0711C20.7641 21.0753 20.771 21.0797 20.7778 21.0843C20.7846 21.0888 20.7913 21.0935 20.7979 21.0984C20.8044 21.1033 20.8109 21.1083 20.8172 21.1135C20.8235 21.1187 20.8297 21.124 20.8358 21.1295C20.8419 21.135 20.8478 21.1407 20.8536 21.1465C20.8594 21.1522 20.865 21.1581 20.8705 21.1642C20.876 21.1703 20.8813 21.1765 20.8865 21.1828C20.8917 21.1891 20.8967 21.1956 20.9016 21.2021C20.9065 21.2087 20.9112 21.2154 20.9158 21.2222C20.9203 21.229 20.9247 21.2359 20.9289 21.243C20.9331 21.25 20.9371 21.2571 20.941 21.2643C20.9448 21.2715 20.9485 21.2788 20.952 21.2862C20.9555 21.2936 20.9588 21.3011 20.962 21.3086C20.9651 21.3162 20.968 21.3238 20.9708 21.3316C20.9736 21.3393 20.9761 21.347 20.9785 21.3548C20.9809 21.3627 20.983 21.3706 20.985 21.3785C20.987 21.3865 20.9888 21.3944 20.9904 21.4025C20.992 21.4105 20.9934 21.4185 20.9946 21.4267C20.9958 21.4347 20.9968 21.4429 20.9976 21.451C20.9984 21.4591 20.999 21.4673 20.9994 21.4755C20.9998 21.4836 21 21.4918 21 21.5C21 21.5082 20.9998 21.5164 20.9994 21.5245C20.999 21.5327 20.9984 21.5409 20.9976 21.549C20.9968 21.5571 20.9958 21.5653 20.9946 21.5734C20.9934 21.5815 20.992 21.5895 20.9904 21.5975C20.9888 21.6056 20.987 21.6136 20.985 21.6215C20.983 21.6294 20.9809 21.6373 20.9785 21.6451C20.9761 21.653 20.9736 21.6607 20.9708 21.6684C20.968 21.6761 20.9651 21.6838 20.962 21.6913C20.9588 21.6989 20.9555 21.7064 20.952 21.7138C20.9485 21.7212 20.9448 21.7285 20.941 21.7357C20.9371 21.7429 20.9331 21.75 20.9289 21.7571C20.9247 21.7641 20.9203 21.771 20.9158 21.7778C20.9112 21.7846 20.9065 21.7913 20.9016 21.7978C20.8967 21.8044 20.8917 21.8109 20.8865 21.8172C20.8813 21.8235 20.876 21.8297 20.8705 21.8358C20.865 21.8418 20.8594 21.8478 20.8536 21.8536C20.8478 21.8593 20.8419 21.865 20.8358 21.8705C20.8297 21.876 20.8235 21.8813 20.8172 21.8865C20.8109 21.8917 20.8044 21.8967 20.7979 21.9016C20.7913 21.9065 20.7846 21.9112 20.7778 21.9157C20.771 21.9203 20.7641 21.9247 20.7571 21.9289C20.75 21.9331 20.7429 21.9371 20.7357 21.941C20.7285 21.9448 20.7212 21.9485 20.7138 21.952C20.7064 21.9555 20.6989 21.9588 20.6913 21.9619C20.6838 21.9651 20.6762 21.968 20.6685 21.9708C20.6608 21.9735 20.653 21.9761 20.6452 21.9785C20.6373 21.9808 20.6294 21.983 20.6215 21.985C20.6136 21.987 20.6056 21.9888 20.5976 21.9904C20.5895 21.992 20.5815 21.9934 20.5734 21.9946C20.5653 21.9958 20.5572 21.9968 20.549 21.9976C20.5409 21.9984 20.5327 21.999 20.5246 21.9994C20.5164 21.9998 20.5082 22 20.5 22Z"></path></g></svg>