<svg xmlns="http://www.w3.org/2000/svg" width="44" height="33.002" viewBox="0 0 44 33.002">
  <g id="停车缴费" transform="translate(-22.559 -15.696)">
    <path id="路径_192" data-name="路径 192" d="M279.459,295.434a3.227,3.227,0,0,1,3.226,3.228v10.445a11.043,11.043,0,0,0-5.206-1.3,11.424,11.424,0,0,0-11.294,11.55,11.626,11.626,0,0,0,4.309,9.077l-24.915,0a3.226,3.226,0,0,1-3.226-3.228V298.662a3.227,3.227,0,0,1,3.226-3.228h33.88Zm-1.98,14.85a9.077,9.077,0,1,1-8.874,9.075A8.975,8.975,0,0,1,277.479,310.284Zm1.688,4.127a.169.169,0,0,0-.124.033l-.044.05-1.634,2.821-1.63-2.821a.17.17,0,0,0-.167-.083l-.064.022-1.119.644a.17.17,0,0,0-.085.168l.022.063,1.241,2.15h-1.141a.17.17,0,0,0-.157.1l-.013.066v1.348a.171.171,0,0,0,.1.157l.066.013h2.15v1.15h-2.15a.17.17,0,0,0-.157.105l-.013.066v1.347a.171.171,0,0,0,.1.157l.066.013h2.15v1.774a.173.173,0,0,0,.1.157l.066.013h1.309a.17.17,0,0,0,.157-.1l.013-.066v-1.776l2.18,0a.17.17,0,0,0,.157-.1l.014-.066v-1.347a.17.17,0,0,0-.1-.157l-.068-.013-2.18,0v-1.15h2.18a.17.17,0,0,0,.157-.1l.014-.066v-1.348a.17.17,0,0,0-.1-.157l-.068-.013h-1.232l1.243-2.148.022-.064a.169.169,0,0,0-.033-.124l-.05-.044-1.12-.644Zm-21.139-13.492h-6.922a.322.322,0,0,0-.311.236l-.013.086v21.387a.324.324,0,0,0,.237.311l.086.011h2.946a.322.322,0,0,0,.311-.236l.011-.086v-9.062h3.654a6.323,6.323,0,0,0,0-12.647Zm.08,3.672a2.653,2.653,0,0,1,.229,5.294l-.229.009h-3.572l-.063-.013a.162.162,0,0,1-.086-.086l-.013-.063v-4.981l.013-.063a.162.162,0,0,1,.086-.085l.063-.013h3.572Z" transform="translate(-219.795 -279.738)" fill="#fff"/>
  </g>
</svg>
