<svg xmlns="http://www.w3.org/2000/svg" xmlns:xlink="http://www.w3.org/1999/xlink" width="48" height="48" viewBox="0 0 48 48">
  <defs>
    <clipPath id="clip-path">
      <rect id="矩形_435" data-name="矩形 435" width="38.438" height="44" fill="#03030d"/>
    </clipPath>
  </defs>
  <g id="福利1" transform="translate(-500 -5008)">
    <rect id="_24pt" data-name="24pt" width="48" height="48" transform="translate(500 5008)" fill="rgba(111,177,255,0)"/>
    <g id="组_17271" data-name="组 17271" transform="translate(505 5010)">
      <path id="路径_79" data-name="路径 79" d="M92.572,60.636l.035,8.66L88.7,71.548v3.625l7.216-4.118L95.881,58.7Z" transform="translate(-57.478 -38.037)" fill="#03030d"/>
      <path id="路径_80" data-name="路径 80" d="M29.9,104.125l8.73,5,8.659-4.963v-3.626l-8.659,5.034L29.9,100.5Z" transform="translate(-19.375 -65.124)" fill="#03030d"/>
      <path id="路径_81" data-name="路径 81" d="M19.184,0,0,10.982v6.125l3.344,1.9-.036-6.266L19.184,3.555l15.91,9.222v6.16l3.308-1.9V11.017Z" transform="translate(0)" fill="#03030d"/>
      <path id="路径_82" data-name="路径 82" d="M.1,71.085,7.281,75.2v-3.66L3.409,69.325V60.736L.1,58.8Z" transform="translate(-0.065 -38.102)" fill="#03030d"/>
      <path id="路径_83" data-name="路径 83" d="M82.609,95.2,79.3,97.1v3.626l3.309-1.9Z" transform="translate(-51.386 -61.69)" fill="#03030d"/>
      <path id="路径_84" data-name="路径 84" d="M20.5,95v3.661l3.309,1.9V96.936Z" transform="translate(-13.284 -61.56)" fill="#03030d"/>
      <g id="组_17270" data-name="组 17270" transform="translate(0 0)">
        <g id="组_17269" data-name="组 17269" clip-path="url(#clip-path)">
          <path id="路径_85" data-name="路径 85" d="M40.02,55.3a7.9,7.9,0,1,1,7.92-7.885A7.932,7.932,0,0,1,40.02,55.3m0-13.517a5.6,5.6,0,1,0,5.6,5.6,5.588,5.588,0,0,0-5.6-5.6" transform="translate(-20.801 -25.596)" fill="#03030d"/>
          <path id="路径_86" data-name="路径 86" d="M13.441,46.074.1,38.4v3.59l13.2,7.674" transform="translate(-0.065 -24.883)" fill="#03030d"/>
          <path id="路径_87" data-name="路径 87" d="M71.1,46.074,84.476,38.4v3.59l-13.2,7.674" transform="translate(-46.073 -24.883)" fill="#03030d"/>
        </g>
      </g>
    </g>
  </g>
</svg>
