<svg xmlns="http://www.w3.org/2000/svg" xmlns:xlink="http://www.w3.org/1999/xlink" width="118" height="118" viewBox="0 0 118 118">
  <defs>
    <filter id="矩形_505" x="0" y="0" width="118" height="118" filterUnits="userSpaceOnUse">
      <feOffset dy="-6" input="SourceAlpha"/>
      <feGaussianBlur stdDeviation="3" result="blur"/>
      <feFlood flood-opacity="0.102"/>
      <feComposite operator="in" in2="blur"/>
      <feComposite in="SourceGraphic"/>
    </filter>
    <clipPath id="clip-path">
      <rect id="矩形_507" data-name="矩形 507" width="44" height="44" fill="#fff"/>
    </clipPath>
  </defs>
  <g id="一码通" transform="translate(-2780 -6100)">
    <g transform="matrix(1, 0, 0, 1, 2780, 6100)" filter="url(#矩形_505)">
      <rect id="矩形_505-2" data-name="矩形 505" width="100" height="100" rx="50" transform="translate(9 15)" fill="#fff"/>
    </g>
    <g id="组_17413" data-name="组 17413">
      <rect id="矩形_506" data-name="矩形 506" width="80" height="80" rx="40" transform="translate(2799 6125)" fill="#1957e6"/>
      <g id="组_17412" data-name="组 17412" transform="translate(2817 6143)" clip-path="url(#clip-path)">
        <path id="路径_194" data-name="路径 194" d="M4.34,16.329h7.474A4.334,4.334,0,0,0,16.154,12V4.543A4.331,4.331,0,0,0,11.831.213H4.34A4.334,4.334,0,0,0,0,4.543V12a4.346,4.346,0,0,0,4.34,4.33ZM3.693,4.543A.657.657,0,0,1,4.34,3.9h7.474a.657.657,0,0,1,.648.646V12a.657.657,0,0,1-.648.646H4.34A.657.657,0,0,1,3.693,12Zm8.138,23.432H4.34A4.335,4.335,0,0,0,0,32.3V39.76a4.335,4.335,0,0,0,4.34,4.33h7.474a4.335,4.335,0,0,0,4.34-4.33V32.3a4.331,4.331,0,0,0-4.323-4.33m.63,11.786a.657.657,0,0,1-.648.646H4.34a.657.657,0,0,1-.648-.646V32.3a.657.657,0,0,1,.648-.646h7.474a.657.657,0,0,1,.648.646ZM39.66.213H32.186a4.335,4.335,0,0,0-4.341,4.33V12a4.335,4.335,0,0,0,4.341,4.33H39.66A4.335,4.335,0,0,0,44,12V4.543A4.357,4.357,0,0,0,39.66.213M40.29,12a.657.657,0,0,1-.648.646H32.169A.657.657,0,0,1,31.521,12V4.543a.657.657,0,0,1,.648-.646h7.473a.657.657,0,0,1,.648.646Z" transform="translate(0 -0.16)" fill="#fff"/>
        <path id="路径_195" data-name="路径 195" d="M29.736,24.13a1.717,1.717,0,0,0,1.733-1.746,1.742,1.742,0,0,0-1.75-1.746H23.61V13.794a1.716,1.716,0,0,0-1.75-1.729,1.742,1.742,0,0,0-1.75,1.746v6.844H1.75a1.746,1.746,0,1,0,0,3.492H20.145v8.171a1.75,1.75,0,0,0,3.5,0V24.148h6.091Zm12.514,0a1.717,1.717,0,0,0,1.733-1.746,1.742,1.742,0,0,0-1.75-1.746H38.364a1.746,1.746,0,1,0,0,3.492ZM21.877,5.5a1.742,1.742,0,0,0,1.75-1.746V1.729A1.717,1.717,0,0,0,21.877,0a1.742,1.742,0,0,0-1.75,1.746V3.772A1.761,1.761,0,0,0,21.877,5.5m0,32.982a1.742,1.742,0,0,0-1.75,1.746v2.025a1.75,1.75,0,0,0,3.5,0V40.211A1.738,1.738,0,0,0,21.877,38.482Zm18.465,1.083a.638.638,0,0,1-.63.629H37.839v3.632h1.873A4.29,4.29,0,0,0,44,39.547V37.435H40.36v2.13Z" transform="translate(0 0)" fill="#fff"/>
        <path id="路径_196" data-name="路径 196" d="M124.619,112.876h-7.386a4.29,4.29,0,0,0-4.288,4.278v7.368a4.29,4.29,0,0,0,4.288,4.278h1.873v-3.649h-1.873a.638.638,0,0,1-.63-.629v-7.368a.638.638,0,0,1,.63-.628h7.386a.638.638,0,0,1,.63.628v1.624h3.658v-1.624A4.29,4.29,0,0,0,124.619,112.876Z" transform="translate(-84.924 -84.939)" fill="#fff"/>
      </g>
    </g>
  </g>
</svg>
