<svg xmlns="http://www.w3.org/2000/svg" xmlns:xlink="http://www.w3.org/1999/xlink" width="48" height="48" viewBox="0 0 48 48">
  <defs>
    <clipPath id="clip-path">
      <rect id="矩形_445" data-name="矩形 445" width="40" height="44" fill="none"/>
    </clipPath>
  </defs>
  <g id="我的1" transform="translate(-650 -5009)">
    <rect id="_24pt" data-name="24pt" width="48" height="48" transform="translate(650 5009)" fill="rgba(111,177,255,0)"/>
    <g id="组_17302" data-name="组 17302" transform="translate(654 5011)">
      <g id="组_17301" data-name="组 17301" clip-path="url(#clip-path)">
        <path id="路径_110" data-name="路径 110" d="M33.772,29.9a7.256,7.256,0,0,1,7.4,7.106,7.085,7.085,0,0,1-3.489,6.051A13.127,13.127,0,0,1,42.5,45.57a.983.983,0,0,1,.129,1.365,1.085,1.085,0,0,1-1.422.124,11.414,11.414,0,0,0-7.4-2.606A11.285,11.285,0,0,0,22.4,54.475a1,1,0,0,1-1.1.869.985.985,0,0,1-.9-1.055,13.036,13.036,0,0,1,9.5-11.233,7.046,7.046,0,0,1-3.489-6.051A7.228,7.228,0,0,1,33.772,29.9M46.89,48.89h0a.878.878,0,0,1,.065,1.3l-.032.031-5.105,4.623a1.044,1.044,0,0,1-1.422,0l-2.94-2.669a.842.842,0,0,1-.032-1.272l.032-.031.032-.031a.964.964,0,0,1,1.357,0l2.229,2.048,4.426-4a1,1,0,0,1,1.389,0M33.772,31.855a5.186,5.186,0,1,0,5.4,5.182,5.281,5.281,0,0,0-5.4-5.182" transform="translate(-13.805 -20.622)" fill="#03030d"/>
        <path id="路径_111" data-name="路径 111" d="M21.16,55.086H21.03A1.126,1.126,0,0,1,20,53.875a13.319,13.319,0,0,1,9.273-11.295,7.163,7.163,0,0,1-1.1-11.14A7.693,7.693,0,0,1,33.5,29.3a7.425,7.425,0,0,1,7.561,7.261A7.194,7.194,0,0,1,37.8,42.55,13.953,13.953,0,0,1,42.355,45a1.126,1.126,0,0,1,.162,1.583,1.241,1.241,0,0,1-1.648.155,11.3,11.3,0,0,0-7.3-2.575,11.164,11.164,0,0,0-11.244,9.867,1.267,1.267,0,0,1-1.163,1.055M33.5,29.641A7.2,7.2,0,0,0,28.4,31.689a6.652,6.652,0,0,0-2.068,4.934,6.787,6.787,0,0,0,3.425,5.9l.291.186-.355.093a12.916,12.916,0,0,0-9.37,11.109.859.859,0,0,0,1.357.714A.779.779,0,0,0,22,54.062,11.5,11.5,0,0,1,33.567,43.915a11.618,11.618,0,0,1,7.528,2.638.882.882,0,0,0,1.2-.093.8.8,0,0,0-.1-1.148,13.676,13.676,0,0,0-4.782-2.482l-.355-.093.291-.186a6.893,6.893,0,0,0,3.425-5.9,7.167,7.167,0,0,0-7.27-7.013m7.3,25.227a1.322,1.322,0,0,1-.84-.31L37.056,51.89a.975.975,0,0,1-.355-.745.944.944,0,0,1,.323-.745l.065-.062a1.187,1.187,0,0,1,1.583,0L40.8,52.262l4.3-3.91a1.187,1.187,0,0,1,1.583,0l.032.031a1.256,1.256,0,0,1,.355.745.944.944,0,0,1-.323.745l-.032.031-5.105,4.623a.9.9,0,0,1-.808.341M37.9,50.338a.951.951,0,0,0-.582.217l-.065.062a.712.712,0,0,0-.226.528.653.653,0,0,0,.258.528l2.94,2.669a.976.976,0,0,0,1.228,0l5.137-4.654a.793.793,0,0,0,.226-.528.653.653,0,0,0-.258-.528l-.032-.031a.8.8,0,0,0-1.131,0l-4.523,4.1L38.51,50.555a.929.929,0,0,0-.614-.217M33.5,41.929a5.341,5.341,0,1,1,5.557-5.337A5.45,5.45,0,0,1,33.5,41.929m0-10.333a5.016,5.016,0,1,0,5.234,5,5.153,5.153,0,0,0-5.234-5" transform="translate(-13.534 -20.208)" fill="#03030d"/>
        <path id="路径_112" data-name="路径 112" d="M39.968,11.016,19.968,0,0,10.984l.032,22L20.032,44,40,33.047ZM36.543,31.247,20.032,40.463,3.489,31.216,3.457,12.753,19.968,3.537l16.543,9.247Z" fill="#03030d"/>
      </g>
    </g>
  </g>
</svg>
