<svg xmlns="http://www.w3.org/2000/svg" xmlns:xlink="http://www.w3.org/1999/xlink" width="48" height="48" viewBox="0 0 48 48">
  <defs>
    <clipPath id="clip-path">
      <path id="路径_193" data-name="路径 193" d="M0,0H39.111V44H0Z" fill="none"/>
    </clipPath>
  </defs>
  <g id="服务1" transform="translate(-200 -5009)">
    <path id="_24pt" data-name="24pt" d="M0,0H48V48H0Z" transform="translate(200 5009)" fill="rgba(111,177,255,0)"/>
    <g id="组_17255" data-name="组 17255" transform="translate(-2276 -126)">
      <rect id="矩形_392" data-name="矩形 392" width="44" height="44" transform="translate(2478 5137)" fill="none"/>
      <g id="组_17254" data-name="组 17254" transform="translate(2480.444 5137)">
        <g id="蒙版组_40" data-name="蒙版组 40" clip-path="url(#clip-path)">
          <path id="路径_75" data-name="路径 75" d="M39.1,32.365c-.143-2-.143-16.312-.143-21.06,0-.682-.263-.917-.526-.964-.406-.235-.837-.423-1.219-.658C36.57,9.355,36,9.049,35.446,8.72L33.869,7.8l-.048-.024c-1-.541-2.079-1.175-3.107-1.739-1.052-.611-2.127-1.222-3.131-1.763-.837-.447-1.7-.94-2.557-1.434C23.352,1.9,21.607.917,20.054.094L19.934,0h-.765l-.143.094c-.765.47-2.916,1.692-5,2.821C10.875,4.677,8.724,5.876,8.222,6.229c-2.581,1.5-5.234,3.032-7.7,4.4C0,10.741,0,11.353,0,11.611V32.694c0,.682.263.917.526.964.526.306,1.123.635,1.721.94.621.353,1.243.682,1.793.987l1.243.635c1.1.682,2.295,1.363,3.442,2,1.147.658,2.318,1.293,3.418,2A50.166,50.166,0,0,0,19.1,43.953l.12.047h.717l.143-.071C22.372,42.66,35.8,35.068,38.625,33.353,39.127,33.212,39.127,32.624,39.1,32.365ZM13.6,5.923l6-3.385c2.988,1.716,12.907,7.286,13.337,7.545.143.094,1.434.917,2.295,1.457-1.123.541-3.418,1.739-8.366,4.372-.406-.259-1.147-.658-2.247-1.246-1.554-.846-3.49-1.9-4.517-2.585l-.143-.094H19.48l-.143.071q-.609.317-1.578.846c-2.534,1.34-4.709,2.515-5.545,3.032-.406-.212-7.314-3.9-8.294-4.466L13.6,5.923m-.287,13.256c.789.423,2.271,1.2,4.972,2.609v6.44c-.478-.259-1.028-.541-1.219-.658-1.243-.729-3.059-1.645-3.776-2,.072-1.081.1-3.079.024-6.393m5.139,20.989c-.454-.235-1.123-.564-1.7-.87l-.072-.047c-.55-.212-7.888-4.278-9.585-5.335l-.048-.024c-.143-.094-3.442-1.833-4.565-2.4-.024,0-.024,0-.024-.024V13.256c1.41.752,4.446,2.468,6.191,3.573a8.641,8.641,0,0,0,1.219.705c.311.165.645.353.884.494v8.485a1.255,1.255,0,0,0,.215.705l.1.165.143.094c2.175,1.058,3.729,1.833,5.928,3.056l1.267.635c-.072,1.2-.048,3.056,0,4.983.024,1.011.048,2.068.048,3.009Zm1.219-20.4h-.048l-.287-.141c-1.076-.588-3.251-1.739-4.326-2.374a1.276,1.276,0,0,1,.478-.306c.143-.071.311-.141.478-.212q.963-.491,1.912-1.011c.6-.329,1.2-.658,1.769-.94.024,0,.072-.024.1-.024.837.447,1.745.94,2.605,1.457.669.376,1.362.752,2.032,1.128C23.209,17.981,20.962,19.109,19.671,19.767Zm1.076,4.043c.024-.588.024-1.2.048-1.88l.813-.447c1.267-.752,2.581-1.434,3.872-2.045q.036,1.41.072,2.679c.072.964.072,1.974.1,3.1-.454.329-1.745,1.128-2.725,1.716-1,.635-1.7,1.058-2.175,1.363C20.675,26.254,20.723,25.009,20.747,23.81Zm15.584,7.639c-1.434.964-6.143,3.526-6.214,3.573S23.973,38.5,20.771,40.5V31.472h.024c1.84-1.152,6.764-4.63,6.979-4.795l.215-.141v-.752c0-1.316-.048-2.609-.1-3.855-.048-1.2-.072-2.421-.1-3.643l.048-.259c.813-.423,1.7-.917,2.557-1.387.932-.494,1.888-.987,2.749-1.457.55-.306,1.171-.658,1.793-.987.406-.212.789-.423,1.171-.658.263,9.684.359,16.735.215,17.91" fill="#03030d"/>
          <path id="路径_76" data-name="路径 76" d="M29.54,18.651h1a.324.324,0,0,0,.335-.329V17.029a.324.324,0,0,0-.335-.329h-1a.324.324,0,0,0-.335.329v1.293a.311.311,0,0,0,.335.329m0,2.868h1a.324.324,0,0,0,.335-.329V19.9a.324.324,0,0,0-.335-.329h-1a.324.324,0,0,0-.335.329v1.293a.323.323,0,0,0,.335.329m0,2.891h1a.324.324,0,0,0,.335-.329V22.788a.324.324,0,0,0-.335-.329h-1a.324.324,0,0,0-.335.329V24.08a.311.311,0,0,0,.335.329m16.3,18.216-1.147-.635a.331.331,0,0,0-.454.141l-.478.846a.321.321,0,0,0,.143.447l1.147.635a.331.331,0,0,0,.454-.141l.478-.846a.334.334,0,0,0-.143-.447m-2.557-1.387L42.136,40.6a.331.331,0,0,0-.454.141l-.478.846a.321.321,0,0,0,.143.447l1.147.635a.331.331,0,0,0,.454-.141l.478-.846a.315.315,0,0,0-.143-.447M40.7,39.828l-1.147-.635a.331.331,0,0,0-.454.141l-.478.846a.321.321,0,0,0,.143.447l1.147.635a.331.331,0,0,0,.454-.141l.478-.846a.321.321,0,0,0-.143-.447m-20.269-.141a.329.329,0,0,0-.454-.118l-1.147.635a.317.317,0,0,0-.12.447l.5.846a.329.329,0,0,0,.454.118l1.147-.635a.317.317,0,0,0,.12-.447Zm-2.51,1.41a.329.329,0,0,0-.454-.118l-1.147.635a.317.317,0,0,0-.12.447l.5.846a.329.329,0,0,0,.454.118l1.147-.635a.317.317,0,0,0,.12-.447Zm-2.557,1.434a.329.329,0,0,0-.454-.118l-1.147.635a.317.317,0,0,0-.12.447l.5.846a.329.329,0,0,0,.454.118l1.147-.635a.317.317,0,0,0,.12-.447Z" transform="translate(-10.346 -12.775)" fill="#03030d"/>
        </g>
      </g>
    </g>
  </g>
</svg>
