<svg id="会议预定" xmlns="http://www.w3.org/2000/svg" width="44" height="42.524" viewBox="0 0 44 42.524">
  <path id="路径_182" data-name="路径 182" d="M337.018,4.206m-4.206,0A4.206,4.206,0,1,0,337.018,0a4.206,4.206,0,0,0-4.206,4.206Z" transform="translate(-318.991)" fill="#fff"/>
  <path id="路径_183" data-name="路径 183" d="M270.2,174.941a7.156,7.156,0,0,1,7.156,7.156v4.7H263.1v-4.7a7.156,7.156,0,0,1,7.1-7.156Z" transform="translate(-252.172 -167.676)" fill="#fff"/>
  <path id="路径_184" data-name="路径 184" d="M725.046,4.206m-4.206,0A4.206,4.206,0,1,0,725.046,0a4.206,4.206,0,0,0-4.206,4.206Z" transform="translate(-690.905)" fill="#fff"/>
  <path id="路径_185" data-name="路径 185" d="M656.967,174.941a7.156,7.156,0,0,1,7.156,7.156v4.7H649.811v-4.7a7.156,7.156,0,0,1,7.156-7.156Z" transform="translate(-622.826 -167.676)" fill="#fff"/>
  <path id="路径_186" data-name="路径 186" d="M337.018,535.607m-4.206,0a4.206,4.206,0,1,0,4.206-4.206A4.206,4.206,0,0,0,332.812,535.607Z" transform="translate(-318.991 -509.333)" fill="#fff"/>
  <path id="路径_187" data-name="路径 187" d="M270.2,706.343a7.156,7.156,0,0,1,7.156,7.156v4.67H263.1V713.5a7.156,7.156,0,0,1,7.1-7.156Z" transform="translate(-252.172 -677.01)" fill="#fff"/>
  <path id="路径_188" data-name="路径 188" d="M725.046,535.607m-4.206,0a4.206,4.206,0,1,0,4.206-4.206A4.206,4.206,0,0,0,720.84,535.607Z" transform="translate(-690.905 -509.333)" fill="#fff"/>
  <path id="路径_189" data-name="路径 189" d="M656.967,706.343a7.156,7.156,0,0,1,7.156,7.156v4.67H649.811V713.5A7.156,7.156,0,0,1,656.967,706.343Z" transform="translate(-622.826 -677.01)" fill="#fff"/>
  <path id="路径_190" data-name="路径 190" d="M42.634,462.136H11.745a9.4,9.4,0,0,1,0-18.763H42.634a1.338,1.338,0,0,0,1.311-1.366,1.311,1.311,0,0,0-1.311-1.366H11.745a12.118,12.118,0,0,0,0,24.225H42.634a1.366,1.366,0,1,0,0-2.731Z" transform="translate(0 -422.343)" fill="#fff"/>
</svg>
