<svg xmlns="http://www.w3.org/2000/svg" width="41" height="41" viewBox="0 0 41 41">
  <g id="企业风采" transform="translate(-643 -1575)">
    <path id="Color_Overlay" data-name="Color Overlay" d="M673.463,1616.937a9.327,9.327,0,0,1-4.118-1.509,9.5,9.5,0,0,1-3.419-4.057,9.427,9.427,0,0,1,.6-8.692,9.7,9.7,0,0,1,2.728-2.865,11.251,11.251,0,0,1,1.36-.756,9.41,9.41,0,1,1,3.95,17.942A9.778,9.778,0,0,1,673.463,1616.937Zm-4.15-10.4a1.059,1.059,0,0,0-.2,1.22,1.351,1.351,0,0,0,.37.429q1.986,1.789,3.965,3.584a1.069,1.069,0,0,0,1.468-.09q2.473-2.716,4.945-5.44a1.033,1.033,0,0,0,.271-.586,1.052,1.052,0,0,0-.5-1.031,1.072,1.072,0,0,0-1.328.189c-1.418,1.554-2.827,3.112-4.245,4.666-1.107-.995-2.2-2-3.31-2.991a1.026,1.026,0,0,0-.688-.254A1.04,1.04,0,0,0,669.313,1606.534Zm-3.785,9.525h-8.039V1602.9a3.153,3.153,0,0,1,3.166-3.085h6.752a10.805,10.805,0,0,0-2.11,2.685,10.493,10.493,0,0,0,1.17,11.889.963.963,0,0,1,.244.5.993.993,0,0,1-.555,1.076,1.174,1.174,0,0,1-.542.1Zm-17.4,0a5.214,5.214,0,0,1-4.874-3.607,6.25,6.25,0,0,1-.252-1.279v-15.3c.041-.288.063-.581.131-.865a5.2,5.2,0,0,1,5.149-4.044h4.2v-9.49a5.931,5.931,0,0,1,.09-1.2,5.2,5.2,0,0,1,4.63-4.219,1.982,1.982,0,0,0,.374-.05h10.786a1.138,1.138,0,0,0,.212.036,5.192,5.192,0,0,1,4.868,4.793c.027.373.013.747.018,1.116q0,4.508,0,9.012c1.188,0,2.376,0,3.564,0,.136,0,.274,0,.411,0a6.249,6.249,0,0,1,1.07.054,5.2,5.2,0,0,1,4.43,5.306v2.192a1.578,1.578,0,0,1-.031.437.992.992,0,0,1-.76.711,1.037,1.037,0,0,1-.641-.077,2.311,2.311,0,0,1-.42-.3,10.525,10.525,0,0,0-3.632-1.842,10.675,10.675,0,0,0-6.611.271q-5.034.007-10.072,0a5.194,5.194,0,0,0-1.562.194,5.259,5.259,0,0,0-3.839,5.116v13.037Zm2.128-5.661h.16a1.555,1.555,0,0,0,.563-.063.985.985,0,0,0,.645-.811,1.308,1.308,0,0,0-.068-.631,1,1,0,0,0-.867-.608c-.321,0-.637,0-.958,0a1.844,1.844,0,0,0-.543.028.982.982,0,0,0-.723.85,1.262,1.262,0,0,0,.077.635,1,1,0,0,0,.853.6c.162,0,.326,0,.49,0h.369Zm-1.147-6.831a.984.984,0,0,0-.678.85,1.393,1.393,0,0,0,.077.625.976.976,0,0,0,.862.581h1.282a.975.975,0,0,0,.94-.891,1.37,1.37,0,0,0-.072-.618.993.993,0,0,0-.868-.594h-1.2A1.113,1.113,0,0,0,649.106,1603.563Zm.194-4.8a.983.983,0,0,0-.868.905,1.466,1.466,0,0,0,.046.526.985.985,0,0,0,.894.67h1.283a.977.977,0,0,0,.94-.913,1.387,1.387,0,0,0-.049-.527.986.986,0,0,0-.935-.661c-.293,0-.584,0-.875,0C649.59,1598.757,649.445,1598.758,649.3,1598.761Zm10.324-7.62a.973.973,0,0,0-.736.5,1.2,1.2,0,0,0-.117.76.983.983,0,0,0,.687.8,1.447,1.447,0,0,0,.483.04h6.323a.974.974,0,0,0,.823-.518,1.258,1.258,0,0,0,.094-.8.984.984,0,0,0-1-.783c-1.249,0-2.5,0-3.748,0Q661.03,1591.133,659.624,1591.141Zm-.226-4.738a.992.992,0,0,0-.686.649,1.562,1.562,0,0,0-.045.522.981.981,0,0,0,.7.864,1.47,1.47,0,0,0,.447.041h6.323a.987.987,0,0,0,.962-.905,1.14,1.14,0,0,0-.176-.784.976.976,0,0,0-.781-.418h-6.323A1.663,1.663,0,0,0,659.4,1586.4Z" transform="translate(0 -1)" fill="#fff"/>
  </g>
</svg>
