<svg xmlns="http://www.w3.org/2000/svg" width="40.001" height="35" viewBox="0 0 40.001 35">
  <g id="矢量智能对象" transform="translate(-166 -1373.999)">
    <path id="Color_Overlay" data-name="Color Overlay" d="M196,1410H168.5a2.732,2.732,0,0,1-2.5-2.916v-29.167a2.733,2.733,0,0,1,2.5-2.917H196a2.733,2.733,0,0,1,2.5,2.917v29.167H201v-26.25h2.5a2.734,2.734,0,0,1,2.5,2.917v23.333a2.733,2.733,0,0,1-2.5,2.916Zm-25-7.291h20v-2.917H171Zm0-5.834h20v-2.917H171Zm12.5-5.833H191v-2.917h-7.5Zm-12.5,0h10v-8.751H171Zm12.5-5.834H191v-2.917h-7.5Z" transform="translate(0 -1)" fill="#fff"/>
  </g>
</svg>
