<svg xmlns="http://www.w3.org/2000/svg" width="37" height="36" viewBox="0 0 37 36">
  <g id="招商政策" transform="translate(-643 -1181)">
    <path id="Color_Overlay" data-name="Color Overlay" d="M669.574,1214a10.372,10.372,0,1,1,.013-20.743h0a10.372,10.372,0,1,1,0,20.743Zm-4.845-8.059a4,4,0,0,0,1.633,3.33,5.646,5.646,0,0,0,2.295.777v.869h1.923v-.853a5.1,5.1,0,0,0,2.6-.869,3.091,3.091,0,0,0,1.3-2.595,2.97,2.97,0,0,0-1.614-2.692,11.291,11.291,0,0,0-2.294-.929v-2.691a1.6,1.6,0,0,1,.487.233,2.125,2.125,0,0,1,.737,1.3l.059.251h2.408l-.037-.349a3.945,3.945,0,0,0-1.439-2.923,4.721,4.721,0,0,0-2.216-.812v-1.648h-1.923v1.646a4.6,4.6,0,0,0-2.218.814,2.939,2.939,0,0,0-1.38,2.6,2.836,2.836,0,0,0,1.419,2.536,16.011,16.011,0,0,0,2.178.833v3.02a1.983,1.983,0,0,1-.74-.311l-.152-.121a2.4,2.4,0,0,1-.625-1.467l-.039-.29h-2.409Zm-10.548.185a30.1,30.1,0,0,1,2.992-.548l.1.531a12.387,12.387,0,0,0,5.09,7.655,3.946,3.946,0,0,1-1.31.228C658.226,1213.991,655.7,1210.837,654.181,1206.126Zm-6.266,2.212a30.865,30.865,0,0,1,4.617-1.776l.215.647a16.992,16.992,0,0,0,3.488,6.132A18.1,18.1,0,0,1,647.915,1208.338Zm22.665-2.958c.331.117.506.176.583.213.583.29.873.64.854,1.1a.979.979,0,0,1-.544.814,2.788,2.788,0,0,1-.894.29Zm-24.146,1.18a17.845,17.845,0,0,1-3.417-9.544h8v0a35.853,35.853,0,0,0,1.055,7.954,32.258,32.258,0,0,0-5.263,2.092Zm7.078-2.9a34.856,34.856,0,0,1-.808-6.643h6.222a12.292,12.292,0,0,0-1.9,6.57l0,.161,0,.161a31.99,31.99,0,0,0-3.318.616Zm14.561-1.55a.9.9,0,0,1-.6-.853.812.812,0,0,1,.5-.851,2.021,2.021,0,0,1,.682-.212v2.149A3.05,3.05,0,0,1,668.074,1202.108Zm10.7-6.771a12.421,12.421,0,0,0-7.955-4.066,33.75,33.75,0,0,0-.654-3.7,30.845,30.845,0,0,0,5.438-2.235h0l.382.536a17.841,17.841,0,0,1,3.119,9.462Zm-26.077,0a34.729,34.729,0,0,1,.892-7.323,31.179,31.179,0,0,0,14.915.014l.175.77c.163.778.3,1.585.411,2.414a12.422,12.422,0,0,0-8.914,4.127Zm-9.7,0a17.852,17.852,0,0,1,3.5-10v0a31.563,31.563,0,0,0,5.441,2.22l-.2.9a37.184,37.184,0,0,0-.732,6.878Zm11.042-9.008c1.5-4.966,4.105-8.329,7.011-8.329,2.856,0,5.474,3.367,7,8.339a29.839,29.839,0,0,1-14.008-.009Zm15.469-1.09a17.422,17.422,0,0,0-3.64-6.589,18.1,18.1,0,0,1,8.609,5.314,29.386,29.386,0,0,1-4.766,1.922Zm-21.889-1.269a18.1,18.1,0,0,1,8.613-5.32h0a17.976,17.976,0,0,0-3.844,7.232A28.868,28.868,0,0,1,647.622,1183.971Zm13.43-5.971h0Z" transform="translate(0 3)" fill="#fff"/>
  </g>
</svg>
