<svg xmlns="http://www.w3.org/2000/svg" width="44" height="45" viewBox="0 0 44 45">
  <g id="园区展览" transform="translate(-297 -1590)">
    <path id="Color_Overlay" data-name="Color Overlay" d="M297,1619v-3.215h3.667V1574.8a.868.868,0,0,1,.917-.8h23.833a.869.869,0,0,1,.917.8v5.865h10.083a.868.868,0,0,1,.917.8v34.313H341V1619Zm29.334-4.821h7.333v-30.295h-7.333v2.974H330v3.214h-3.667v3.214H330v3.215h-3.667v3.214H330v3.215h-3.667v3.214H330v3.215h-3.667Zm-22,0h18.333v-36.965H304.333Zm11-4.821v-3.215H319v3.215Zm-7.333,0v-3.215h3.667v3.215Zm7.333-6.429v-3.215H319v3.215Zm-7.333,0v-3.215h3.667v3.215Zm7.333-6.429v-3.215H319v3.215Zm-7.333,0v-3.215h3.667v3.215Zm7.333-6.429v-3.214H319v3.214Zm-7.333,0v-3.214h3.667v3.214Zm7.333-6.429v-3.214H319v3.214Zm-7.333,0v-3.214h3.667v3.214Z" transform="translate(0 16)" fill="#fff"/>
  </g>
</svg>
