<svg xmlns="http://www.w3.org/2000/svg" xmlns:xlink="http://www.w3.org/1999/xlink" width="48" height="48" viewBox="0 0 48 48">
  <defs>
    <clipPath id="clip-path">
      <rect id="矩形_390" data-name="矩形 390" width="40" height="44" fill="none"/>
    </clipPath>
  </defs>
  <g id="首页2" transform="translate(-50 -5009)">
    <rect id="_24pt" data-name="24pt" width="48" height="48" transform="translate(50 5009)" fill="rgba(111,177,255,0)"/>
    <g id="组_17252" data-name="组 17252" transform="translate(-270 -59)">
      <g id="组_17251" data-name="组 17251" transform="translate(324 5070)">
        <path id="路径_73" data-name="路径 73" d="M3.473,31.208,3.449,12.746l16.526-9.2L36.527,12.79l.026,18.461L20.027,40.457ZM19.974,0,0,10.972l.027,22L20.026,44,40,33.028l-.02-22Z" fill="#999"/>
        <g id="组_17250" data-name="组 17250">
          <g id="组_17249" data-name="组 17249" clip-path="url(#clip-path)">
            <path id="路径_74" data-name="路径 74" d="M21.89,45.373l10.079,5.562V62.047a1.492,1.492,0,0,0,2.981,0V50.926l10.062-5.553a1.4,1.4,0,0,0,.553-1.953l0-.006a1.524,1.524,0,0,0-2.032-.528L33.452,48.447,23.373,42.886a1.522,1.522,0,0,0-2.03.528,1.4,1.4,0,0,0,.542,1.955Z" transform="translate(-13.393 -27.667)" fill="#999"/>
          </g>
        </g>
      </g>
    </g>
  </g>
</svg>
