<svg xmlns="http://www.w3.org/2000/svg" width="72" height="72" viewBox="0 0 72 72">
  <g id="phone" transform="translate(-340 -1194)">
    <g id="画板_1" data-name="画板 1" transform="translate(254 1194)">
      <g id="分组_20" data-name="分组 20" transform="translate(86)">
        <path id="路径" d="M36,0A36,36,0,1,0,72,36,36,36,0,0,0,36,0Z" fill="#1957e6"/>
      </g>
    </g>
    <path id="路径_16653" data-name="路径 16653" d="M234.929,94.373V93.159h0ZM243.429,64h-17A2.429,2.429,0,0,0,224,66.429V95.571A2.429,2.429,0,0,0,226.429,98h17a2.429,2.429,0,0,0,2.429-2.429V66.429A2.429,2.429,0,0,0,243.429,64Zm-8.5,31.587a2.429,2.429,0,1,1,2.429-2.429A2.431,2.431,0,0,1,234.929,95.587Zm7.286-7.3H227.643V67.643h14.571Z" transform="translate(141 1149)" fill="#fff"/>
  </g>
</svg>
