<svg xmlns="http://www.w3.org/2000/svg" width="120" height="120" viewBox="0 0 120 120">
  <g id="logo" transform="translate(-4486 -8512)">
    <rect id="矩形_515" data-name="矩形 515" width="120" height="120" rx="30" transform="translate(4486 8512)" fill="#fff"/>
    <g id="组_17412" data-name="组 17412" transform="translate(4486 8512)">
      <path id="路径_194" data-name="路径 194" d="M88.681,68.653a19.425,19.425,0,0,1-19.4,19.4H26.615v7.277H80.131a14.756,14.756,0,0,0,14.74-14.739V27.078h-6.19Z" transform="translate(4.682 4.764)" fill="#1957e6"/>
      <path id="路径_195" data-name="路径 195" d="M69.859,61.516v.4H26.615V83.393H69.278a14.757,14.757,0,0,0,14.74-14.74V27.078H33.146a6.538,6.538,0,0,0-6.531,6.531v9.4H69.859v18.5Z" transform="translate(4.682 4.764)" fill="#1957e6"/>
      <path id="路径_196" data-name="路径 196" d="M105.085,0H14.914A14.913,14.913,0,0,0,0,14.913v90.171A14.914,14.914,0,0,0,14.914,120h90.171A14.914,14.914,0,0,0,120,105.084V14.913A14.914,14.914,0,0,0,105.085,0m-.869,27.581V85.356a19.425,19.425,0,0,1-19.4,19.4H26.636V92.819H15.784V26.432A11.206,11.206,0,0,1,26.978,15.239H93.363v11.94h10.853Zm3.22-15.3V19.22h-7.242V11.978h7.242Z" transform="translate(0 0)" fill="#1957e6"/>
      <path id="路径_197" data-name="路径 197" d="M67.54,59.042v-9.58H23.577V35.4A11.206,11.206,0,0,1,34.769,24.2H85.642V16.924H23.918a6.538,6.538,0,0,0-6.531,6.531V85.179h6.19V59.042H67.54Z" transform="translate(3.059 2.977)" fill="#1957e6"/>
    </g>
  </g>
</svg>
