<svg xmlns="http://www.w3.org/2000/svg" width="72" height="72" viewBox="0 0 72 72">
  <g id="WeChat" transform="translate(-86)">
    <g id="分组_20" data-name="分组 20" transform="translate(86)">
      <path id="路径" d="M36,0A36,36,0,1,0,72,36,36,36,0,0,0,36,0Z" fill="#1dcf2f"/>
      <path id="分组_21" data-name="分组 21" d="M31.289,28.006l0,0-3.357-1.825-.133.032a15.631,15.631,0,0,1-3.547.568,11.4,11.4,0,0,1-7.41-2.588,8.153,8.153,0,0,1-3.03-6.239,8.153,8.153,0,0,1,3.03-6.239,11.7,11.7,0,0,1,14.682,0,8.137,8.137,0,0,1,3.142,6.239c0,3.149-2.335,5.552-4.294,7.013L31.288,28ZM27.6,14a1.315,1.315,0,0,0-1.213,1.214A1.321,1.321,0,0,0,27.6,16.438a1.41,1.41,0,0,0,1.547-1.226A1.424,1.424,0,0,0,27.6,14Zm-6.743,0a1.322,1.322,0,0,0-1.226,1.214,1.31,1.31,0,0,0,1.226,1.226,1.4,1.4,0,0,0,1.534-1.226A1.4,1.4,0,0,0,20.861,14ZM3.68,22.213v0l1.225-3.65C1.651,16.3,0,13.532,0,10.346A9.535,9.535,0,0,1,3.6,3a13.455,13.455,0,0,1,8.663-3,14.3,14.3,0,0,1,8.059,2.433,10.183,10.183,0,0,1,4.327,6.113l-.037,0a11.483,11.483,0,0,0-1.148-.076c-5.749,0-10.427,4.324-10.427,9.64a9,9,0,0,0,.373,2.546c-.38.027-.766.04-1.147.04a17.2,17.2,0,0,1-3.551-.454c-.245-.049-.49-.1-.743-.146l-4.29,2.119ZM16.87,5.172a1.716,1.716,0,0,0-1.841,1.52A1.716,1.716,0,0,0,16.87,8.212,1.445,1.445,0,0,0,18.4,6.692,1.446,1.446,0,0,0,16.87,5.172Zm-8.58,0a1.725,1.725,0,0,0-1.854,1.52A1.725,1.725,0,0,0,8.29,8.212,1.445,1.445,0,0,0,9.823,6.692,1.446,1.446,0,0,0,8.29,5.172Z" transform="translate(18.667 21.333)" fill="#fff"/>
    </g>
  </g>
</svg>
